<svg id="svg" version="1.1" xmlns="http://www.w3.org/2000/svg" xmlns:xlink="http://www.w3.org/1999/xlink" width="400" height="400" viewBox="0, 0, 400,400"><g id="svgg"><path id="path0" d="M213.386 4.423 C 213.253 4.637,212.973 4.707,212.762 4.577 C 212.552 4.447,212.406 4.489,212.437 4.670 C 212.660 5.952,212.386 6.000,204.796 6.000 C 197.687 6.000,197.148 6.052,196.507 6.800 C 195.891 7.519,195.327 7.600,190.911 7.600 C 186.267 7.600,186.000 7.643,186.000 8.400 C 186.000 9.147,185.733 9.200,181.963 9.200 C 178.262 9.200,177.908 9.267,177.716 10.000 C 177.528 10.720,173.346 11.243,171.059 10.834 C 170.222 10.684,169.256 11.281,169.463 11.820 C 169.659 12.331,166.443 12.745,164.670 12.437 C 164.489 12.406,164.442 12.544,164.566 12.745 C 164.975 13.407,163.834 13.921,161.400 14.171 C 157.677 14.553,157.650 14.557,157.803 14.805 C 158.208 15.460,157.151 15.957,155.115 16.068 C 153.348 16.165,152.802 16.350,152.659 16.897 C 152.530 17.390,152.046 17.615,151.037 17.650 C 148.105 17.752,147.800 17.810,147.800 18.267 C 147.800 18.990,147.485 19.156,145.911 19.262 C 144.895 19.330,144.394 19.579,144.263 20.080 C 144.117 20.639,143.672 20.800,142.270 20.800 C 140.015 20.800,139.189 21.105,139.468 21.833 C 139.674 22.369,138.477 22.641,136.869 22.423 C 136.577 22.383,136.241 22.722,136.122 23.175 C 135.930 23.910,135.269 24.215,134.258 24.033 C 134.070 24.000,133.693 24.157,133.421 24.382 C 133.149 24.608,132.793 24.660,132.630 24.497 C 132.467 24.333,132.370 24.380,132.414 24.600 C 132.634 25.689,132.311 26.000,130.963 26.000 C 129.862 26.000,129.476 26.187,129.316 26.800 C 129.152 27.427,128.770 27.600,127.553 27.600 C 126.267 27.600,126.000 27.737,126.000 28.400 C 126.000 28.961,125.732 29.202,125.100 29.205 C 123.573 29.215,122.400 29.667,122.400 30.247 C 122.400 30.769,121.939 30.913,120.300 30.907 C 119.915 30.905,119.600 31.140,119.600 31.428 C 119.600 32.065,118.977 32.483,117.846 32.606 C 117.381 32.657,116.795 32.721,116.544 32.749 C 116.294 32.777,116.114 33.115,116.144 33.500 C 116.176 33.897,115.965 34.151,115.658 34.086 C 114.894 33.925,113.923 34.824,114.169 35.464 C 114.320 35.858,113.944 36.000,112.750 36.000 C 111.488 36.000,111.081 36.170,110.926 36.763 C 110.816 37.183,110.383 37.616,109.963 37.726 C 109.543 37.835,109.200 38.189,109.200 38.511 C 109.200 38.887,108.619 39.191,107.581 39.357 C 106.691 39.499,106.066 39.783,106.192 39.988 C 106.398 40.321,105.704 40.876,104.600 41.261 C 104.380 41.337,104.225 41.625,104.256 41.900 C 104.286 42.175,103.971 42.400,103.556 42.400 C 102.304 42.400,102.212 42.435,101.875 43.037 C 101.697 43.356,101.351 43.494,101.107 43.343 C 100.821 43.166,100.754 43.303,100.918 43.730 C 101.057 44.093,101.043 44.371,100.886 44.348 C 100.125 44.234,99.205 44.432,99.247 44.700 C 99.376 45.513,99.129 45.925,98.400 46.116 C 97.960 46.231,97.600 46.612,97.600 46.963 C 97.600 47.520,96.151 47.866,94.714 47.652 C 94.557 47.629,94.526 47.864,94.645 48.174 C 94.836 48.670,93.367 49.859,92.800 49.668 C 92.690 49.630,92.597 49.735,92.594 49.900 C 92.579 50.606,91.928 51.147,91.357 50.928 C 90.919 50.760,90.778 50.902,90.870 51.419 C 90.958 51.911,90.676 52.240,90.000 52.434 C 89.450 52.591,89.141 52.738,89.314 52.760 C 89.487 52.782,89.436 53.158,89.202 53.596 C 88.968 54.034,88.561 54.349,88.298 54.296 C 88.034 54.243,87.757 54.605,87.682 55.100 C 87.551 55.954,86.921 56.182,84.900 56.107 C 84.625 56.097,84.400 56.509,84.400 57.021 C 84.400 57.739,84.215 57.918,83.600 57.800 C 82.857 57.657,82.560 58.210,82.770 59.351 C 82.805 59.544,82.473 59.608,82.031 59.492 C 81.482 59.349,81.154 59.516,80.993 60.021 C 80.865 60.427,80.427 60.865,80.021 60.993 C 79.516 61.154,79.349 61.482,79.492 62.031 C 79.608 62.473,79.544 62.805,79.351 62.770 C 78.210 62.560,77.657 62.857,77.800 63.600 C 77.920 64.221,77.739 64.400,76.990 64.400 C 76.348 64.400,76.094 64.579,76.231 64.936 C 76.482 65.590,75.397 66.569,74.818 66.211 C 74.570 66.058,74.400 66.360,74.400 66.953 C 74.400 67.733,74.226 67.921,73.613 67.803 C 72.986 67.682,72.773 67.937,72.563 69.058 C 72.282 70.556,70.747 72.400,69.782 72.400 C 69.462 72.400,69.200 72.748,69.200 73.173 C 69.200 73.598,68.840 74.060,68.400 74.200 C 67.960 74.340,67.600 74.802,67.600 75.227 C 67.600 75.733,67.324 76.000,66.800 76.000 C 66.213 76.000,66.000 76.267,66.000 77.000 C 66.000 77.550,65.865 77.979,65.700 77.953 C 64.896 77.826,64.400 78.052,64.400 78.544 C 64.400 78.843,63.950 79.426,63.400 79.839 C 62.850 80.252,62.400 80.985,62.400 81.468 C 62.400 81.995,62.080 82.448,61.600 82.600 C 61.160 82.740,60.800 83.181,60.800 83.580 C 60.800 83.980,60.440 84.401,60.000 84.516 C 59.513 84.643,59.200 85.062,59.200 85.586 C 59.200 86.060,59.020 86.336,58.800 86.200 C 58.580 86.064,58.400 86.154,58.400 86.400 C 58.400 86.646,58.220 86.736,58.000 86.600 C 57.762 86.453,57.600 86.929,57.600 87.776 C 57.600 88.933,57.450 89.200,56.800 89.200 C 56.216 89.200,56.000 89.467,56.000 90.187 C 56.000 90.944,55.844 91.115,55.334 90.919 C 54.887 90.748,54.764 90.817,54.958 91.132 C 55.117 91.389,55.079 91.600,54.874 91.600 C 54.668 91.600,54.395 92.126,54.266 92.768 C 54.128 93.461,53.701 94.041,53.216 94.195 C 52.703 94.358,52.400 94.799,52.400 95.383 C 52.400 96.021,52.182 96.294,51.700 96.256 C 51.264 96.221,50.978 96.502,50.943 97.000 C 50.911 97.440,50.866 98.115,50.843 98.500 C 50.819 98.885,50.513 99.200,50.163 99.200 C 49.812 99.200,49.433 99.554,49.319 99.987 C 49.206 100.419,48.797 100.874,48.410 100.997 C 48.023 101.120,47.707 101.531,47.708 101.910 C 47.713 103.829,47.541 104.322,46.800 104.516 C 46.191 104.675,46.000 105.062,46.000 106.136 C 46.000 107.195,45.801 107.609,45.200 107.800 C 44.760 107.940,44.378 108.222,44.350 108.427 C 44.323 108.632,44.255 108.980,44.200 109.200 C 44.145 109.420,44.078 109.870,44.050 110.200 C 44.023 110.530,43.749 110.800,43.443 110.800 C 42.802 110.800,42.400 111.650,42.400 113.006 C 42.400 113.592,42.101 114.041,41.608 114.197 C 41.173 114.336,40.834 114.573,40.855 114.724 C 41.074 116.256,40.709 117.530,40.000 117.716 C 39.391 117.875,39.200 118.262,39.200 119.336 C 39.200 120.395,39.001 120.809,38.400 121.000 C 37.779 121.197,37.600 121.605,37.600 122.827 C 37.600 123.692,37.465 124.379,37.300 124.353 C 36.267 124.189,36.000 124.527,36.000 126.000 C 36.000 126.880,35.833 127.600,35.629 127.600 C 34.848 127.600,34.082 128.827,34.159 129.951 C 34.225 130.892,34.097 131.096,33.510 130.983 C 33.108 130.905,32.884 131.012,33.013 131.221 C 33.142 131.429,33.057 131.600,32.824 131.600 C 32.577 131.600,32.400 132.518,32.400 133.800 C 32.400 135.414,32.252 136.000,31.843 136.000 C 31.212 136.000,30.800 136.847,30.800 138.144 C 30.800 138.627,30.440 139.330,30.000 139.707 C 29.447 140.181,29.200 140.887,29.200 141.996 C 29.200 143.067,28.934 143.866,28.400 144.400 C 27.813 144.987,27.600 145.733,27.600 147.200 C 27.600 148.933,27.493 149.200,26.800 149.200 C 26.095 149.200,26.000 149.467,26.000 151.442 C 26.000 153.300,25.843 153.808,25.089 154.402 C 24.399 154.944,24.157 155.579,24.095 157.017 C 24.037 158.350,23.790 159.072,23.267 159.438 C 22.673 159.854,22.505 160.547,22.437 162.871 C 22.358 165.607,21.928 166.650,21.092 166.133 C 20.902 166.016,20.780 166.163,20.821 166.460 C 21.039 168.050,20.749 172.816,20.445 172.628 C 20.054 172.386,19.136 173.317,19.233 173.858 C 19.578 175.780,19.121 182.400,18.643 182.400 C 17.774 182.400,17.600 183.338,17.600 188.006 C 17.600 191.995,17.535 192.367,16.800 192.600 C 16.043 192.840,16.000 193.205,16.000 199.427 C 16.000 204.933,15.905 206.000,15.414 206.000 C 14.168 206.000,14.059 207.609,14.047 226.103 L 14.035 244.770 15.018 245.542 C 15.963 246.286,16.000 246.494,16.000 251.125 C 16.000 256.257,16.162 257.200,17.043 257.200 C 17.472 257.200,17.607 257.961,17.631 260.500 C 17.668 264.569,17.773 265.146,18.579 265.735 C 19.058 266.085,19.225 266.930,19.245 269.102 C 19.260 270.697,19.416 271.914,19.591 271.806 C 20.206 271.426,20.783 272.680,20.891 274.630 C 20.964 275.945,21.233 276.774,21.700 277.123 C 22.136 277.448,22.400 278.179,22.400 279.060 C 22.400 280.138,22.590 280.525,23.200 280.684 C 23.640 280.799,24.016 281.007,24.037 281.147 C 24.057 281.286,24.142 282.120,24.227 283.000 C 24.451 285.331,24.512 285.621,24.730 285.403 C 25.234 284.900,26.000 286.255,26.000 287.649 C 26.000 288.502,26.135 289.179,26.300 289.153 C 27.220 289.007,27.600 289.304,27.600 290.167 C 27.600 291.548,27.998 292.400,28.643 292.400 C 29.009 292.400,29.200 292.863,29.200 293.751 C 29.200 295.065,30.007 296.260,30.537 295.730 C 30.682 295.585,30.800 296.127,30.800 296.933 C 30.800 297.864,30.976 298.363,31.280 298.300 C 31.545 298.245,31.962 298.796,32.208 299.523 C 32.454 300.251,32.782 300.823,32.938 300.793 C 33.556 300.677,33.984 301.039,34.128 301.800 C 34.394 303.204,34.870 304.000,35.443 304.000 C 35.770 304.000,36.000 304.412,36.000 305.000 C 36.000 305.733,36.213 306.000,36.800 306.000 C 37.345 306.000,37.619 306.287,37.661 306.900 C 37.694 307.395,37.744 308.070,37.770 308.400 C 37.798 308.735,38.124 308.948,38.509 308.882 C 38.985 308.802,39.200 309.031,39.200 309.620 C 39.200 310.138,39.515 310.557,40.000 310.684 C 40.443 310.800,40.800 311.230,40.800 311.647 C 40.800 312.133,41.083 312.400,41.600 312.400 C 42.142 312.400,42.400 312.667,42.400 313.226 C 42.400 314.390,43.121 315.600,43.814 315.600 C 44.136 315.600,44.400 315.960,44.400 316.400 C 44.400 316.840,44.535 317.179,44.700 317.153 C 45.551 317.018,45.937 317.293,46.164 318.198 C 46.301 318.746,46.546 319.154,46.707 319.104 C 47.089 318.985,49.012 320.934,49.329 321.760 C 49.464 322.112,49.851 322.400,50.187 322.400 C 50.533 322.400,50.800 322.748,50.800 323.200 C 50.800 323.733,51.067 324.000,51.600 324.000 C 52.347 324.000,52.606 324.447,52.414 325.400 C 52.370 325.620,52.467 325.667,52.630 325.503 C 52.793 325.340,53.168 325.407,53.463 325.652 C 53.758 325.897,54.018 325.941,54.040 325.749 C 54.062 325.557,54.209 325.850,54.366 326.400 C 54.539 327.002,54.903 327.357,55.281 327.293 C 55.669 327.227,56.008 327.578,56.167 328.209 C 56.308 328.772,56.578 329.137,56.766 329.021 C 56.955 328.904,57.332 329.077,57.604 329.404 C 57.876 329.732,57.941 330.011,57.749 330.025 C 57.557 330.039,57.805 330.213,58.300 330.412 C 58.795 330.611,59.200 331.061,59.200 331.411 C 59.200 331.761,59.368 331.944,59.572 331.817 C 59.777 331.691,60.058 331.770,60.196 331.993 C 60.334 332.217,60.866 332.400,61.377 332.400 C 61.970 332.400,62.382 332.689,62.516 333.200 C 62.643 333.687,63.062 334.000,63.586 334.000 C 64.060 334.000,64.351 334.156,64.233 334.347 C 63.978 334.759,65.361 336.105,65.696 335.771 C 65.823 335.644,66.046 335.913,66.190 336.370 C 66.335 336.826,66.712 337.200,67.027 337.200 C 67.545 337.200,67.776 337.685,67.647 338.500 C 67.621 338.665,67.825 338.814,68.100 338.831 C 70.140 338.955,71.322 339.505,71.054 340.203 C 70.898 340.610,71.080 340.800,71.625 340.800 C 72.066 340.800,72.555 341.149,72.713 341.576 C 72.871 342.003,73.135 342.363,73.300 342.376 C 73.465 342.389,74.140 342.400,74.800 342.400 C 75.733 342.400,76.000 342.578,76.000 343.200 C 76.000 343.782,76.267 344.000,76.977 344.000 C 77.700 344.000,77.918 344.186,77.817 344.714 C 77.732 345.154,77.933 345.449,78.339 345.481 C 78.703 345.510,79.360 345.625,79.800 345.736 C 80.240 345.848,80.722 345.953,80.871 345.969 C 81.020 345.986,81.202 346.315,81.276 346.699 C 81.350 347.084,81.678 347.416,82.005 347.438 C 82.332 347.460,82.999 347.506,83.487 347.539 C 84.101 347.581,84.304 347.786,84.144 348.201 C 83.979 348.632,84.265 348.873,85.150 349.050 C 85.830 349.186,86.301 349.437,86.196 349.607 C 85.989 349.942,86.923 350.435,88.200 350.663 C 88.640 350.742,89.247 351.165,89.549 351.603 C 89.863 352.059,90.549 352.400,91.153 352.400 C 91.774 352.400,92.413 352.728,92.707 353.200 C 93.049 353.747,93.640 354.000,94.576 354.000 C 95.691 354.000,95.968 354.167,96.072 354.900 C 96.176 355.632,96.454 355.800,97.559 355.800 C 98.585 355.800,99.018 356.022,99.322 356.703 C 99.544 357.200,99.922 357.584,100.163 357.556 C 101.443 357.408,102.400 357.663,102.400 358.153 C 102.400 358.705,103.558 359.184,104.917 359.195 C 105.311 359.198,106.020 359.560,106.492 360.000 C 106.964 360.440,107.761 360.800,108.261 360.800 C 108.762 360.800,109.364 361.160,109.600 361.600 C 109.950 362.255,110.438 362.400,112.281 362.400 C 113.520 362.400,114.415 362.518,114.270 362.663 C 113.740 363.193,114.935 364.000,116.249 364.000 C 117.318 364.000,117.600 364.162,117.600 364.773 C 117.600 365.546,118.881 366.245,119.544 365.834 C 119.738 365.715,120.386 366.039,120.985 366.554 C 121.585 367.069,122.553 367.495,123.137 367.502 C 125.545 367.529,125.915 367.633,126.099 368.335 C 126.251 368.917,126.727 369.085,128.399 369.144 C 130.847 369.231,131.250 369.403,130.933 370.229 C 130.806 370.561,130.859 370.804,131.051 370.769 C 133.055 370.403,135.926 370.874,136.116 371.600 C 136.293 372.279,136.662 372.400,138.548 372.400 C 140.362 372.400,140.851 372.547,141.200 373.200 C 141.548 373.850,142.038 374.000,143.814 374.000 C 145.733 374.000,146.000 374.098,146.000 374.800 C 146.000 375.240,146.225 375.619,146.500 375.643 C 146.775 375.666,147.270 375.725,147.600 375.774 C 147.930 375.823,148.855 375.894,149.656 375.932 C 150.771 375.984,151.098 376.163,151.056 376.697 C 151.017 377.178,151.309 377.407,152.000 377.436 C 152.550 377.460,153.765 377.506,154.700 377.540 C 155.635 377.573,156.379 377.735,156.353 377.900 C 156.190 378.928,156.592 379.103,159.251 379.157 C 162.178 379.218,162.964 379.411,162.611 379.982 C 162.310 380.470,163.895 380.788,166.653 380.795 C 168.768 380.799,169.136 380.911,169.316 381.600 C 169.495 382.284,169.864 382.401,171.863 382.406 C 174.178 382.412,175.302 382.759,175.232 383.445 C 175.212 383.640,176.817 383.852,178.798 383.915 C 182.241 384.025,182.626 384.171,182.447 385.300 C 182.421 385.465,182.535 385.579,182.700 385.553 C 182.865 385.527,183.090 385.540,183.200 385.583 C 183.310 385.625,184.570 385.744,186.000 385.848 C 189.074 386.070,189.737 386.255,189.402 386.797 C 189.265 387.019,189.388 387.219,189.676 387.243 C 189.964 387.266,190.740 387.333,191.400 387.391 C 192.060 387.449,193.455 387.519,194.500 387.548 C 195.545 387.577,196.379 387.735,196.353 387.900 C 196.196 388.891,196.679 389.042,200.287 389.134 C 203.977 389.228,205.100 389.591,204.533 390.508 C 204.416 390.698,204.563 390.820,204.860 390.779 C 206.634 390.536,212.813 390.855,212.612 391.180 C 212.144 391.937,214.022 392.400,217.561 392.400 C 220.449 392.400,221.133 392.510,220.966 392.946 C 220.676 393.700,222.456 394.000,227.227 394.000 C 230.956 394.000,231.146 394.041,230.998 394.811 C 230.912 395.257,231.000 395.524,231.193 395.404 C 231.387 395.285,231.641 395.343,231.759 395.534 C 231.978 395.889,254.435 396.035,256.220 395.694 C 256.847 395.574,257.200 395.235,257.200 394.753 C 257.200 394.071,257.548 393.999,260.900 393.987 C 264.368 393.975,266.466 393.399,265.727 392.660 C 265.584 392.517,266.594 392.400,267.971 392.400 C 270.138 392.400,270.503 392.293,270.684 391.600 C 270.863 390.916,271.230 390.800,273.220 390.800 C 275.195 390.800,275.584 390.679,275.800 390.000 C 275.992 389.394,276.436 389.185,277.627 389.140 C 278.492 389.107,279.425 389.062,279.700 389.040 C 279.975 389.018,280.329 388.685,280.487 388.300 C 280.728 387.713,281.437 387.490,282.630 387.626 C 282.757 387.641,283.207 387.253,283.631 386.764 C 284.054 386.276,284.896 385.832,285.501 385.778 C 286.105 385.724,286.746 385.661,286.924 385.640 C 287.102 385.618,287.136 385.420,287.000 385.200 C 286.864 384.980,286.954 384.800,287.200 384.800 C 287.446 384.800,287.536 384.620,287.400 384.400 C 287.180 384.044,288.553 383.801,289.870 383.963 C 290.128 383.995,290.471 383.809,290.632 383.549 C 290.832 383.224,290.748 383.182,290.362 383.415 C 289.883 383.703,289.881 383.653,290.349 383.077 C 290.651 382.705,291.236 382.400,291.649 382.400 C 292.133 382.400,292.400 382.116,292.400 381.600 C 292.400 380.961,292.667 380.800,293.728 380.800 C 294.646 380.800,295.324 380.491,295.925 379.800 C 296.403 379.250,296.987 378.800,297.221 378.800 C 297.455 378.800,297.544 378.632,297.417 378.428 C 297.129 377.962,297.545 377.698,298.978 377.438 C 299.595 377.326,300.358 376.867,300.673 376.417 C 300.988 375.968,301.505 375.600,301.823 375.600 C 302.140 375.600,302.400 375.240,302.400 374.800 C 302.400 374.267,302.667 374.000,303.200 374.000 C 303.733 374.000,304.000 373.733,304.000 373.200 C 304.000 372.470,305.279 372.097,306.900 372.353 C 307.065 372.379,307.155 372.182,307.100 371.915 C 307.045 371.648,307.394 371.250,307.875 371.030 C 308.357 370.811,308.835 370.309,308.938 369.916 C 309.041 369.522,309.489 369.200,309.935 369.200 C 310.470 369.200,310.788 368.895,310.872 368.300 C 310.942 367.805,311.270 367.400,311.600 367.400 C 311.930 367.400,312.255 367.014,312.322 366.543 C 312.412 365.914,312.651 365.741,313.222 365.890 C 313.846 366.053,314.000 365.886,314.000 365.047 C 314.000 364.184,314.184 364.000,315.047 364.000 C 315.886 364.000,316.053 363.846,315.890 363.222 C 315.741 362.653,315.916 362.409,316.543 362.313 C 317.014 362.240,317.350 361.945,317.289 361.656 C 317.227 361.367,317.536 361.037,317.975 360.922 C 318.414 360.808,318.879 360.382,319.007 359.977 C 319.136 359.572,319.572 359.136,319.977 359.007 C 320.382 358.879,320.811 358.401,320.930 357.947 C 321.049 357.492,321.339 357.238,321.574 357.384 C 321.812 357.531,322.178 357.185,322.400 356.600 C 322.619 356.024,322.974 355.660,323.188 355.792 C 323.401 355.925,323.687 355.591,323.823 355.051 C 323.973 354.454,324.454 353.973,325.051 353.823 C 325.591 353.687,325.937 353.422,325.821 353.234 C 325.532 352.767,326.591 351.932,327.001 352.303 C 327.181 352.467,327.206 352.387,327.058 352.128 C 326.909 351.868,326.970 351.542,327.193 351.404 C 327.417 351.266,327.600 350.734,327.600 350.223 C 327.600 349.630,327.889 349.218,328.400 349.084 C 328.874 348.960,329.200 348.538,329.200 348.050 C 329.200 347.485,329.387 347.297,329.794 347.453 C 330.184 347.603,330.525 347.323,330.785 346.641 C 331.002 346.068,331.455 345.600,331.790 345.600 C 332.126 345.600,332.400 345.283,332.400 344.896 C 332.400 344.509,332.760 343.968,333.200 343.693 C 333.710 343.374,334.000 342.760,334.000 341.997 C 334.000 341.067,334.178 340.800,334.800 340.800 C 335.240 340.800,335.600 340.620,335.600 340.400 C 335.600 339.684,335.761 339.413,336.701 338.541 C 337.211 338.069,337.600 337.529,337.566 337.341 C 337.429 336.572,337.619 335.603,337.900 335.647 C 338.608 335.759,339.313 335.580,339.081 335.347 C 338.641 334.908,339.634 333.527,340.226 333.755 C 340.536 333.874,340.771 333.843,340.748 333.686 C 340.521 332.166,340.889 330.870,341.600 330.684 C 342.079 330.559,342.400 330.138,342.400 329.637 C 342.400 329.177,342.535 328.821,342.700 328.847 C 343.456 328.967,343.910 328.759,343.893 328.300 C 343.837 326.791,344.040 325.577,344.319 325.750 C 344.881 326.097,345.702 325.318,345.801 324.344 C 345.855 323.825,345.921 323.175,345.949 322.900 C 345.977 322.625,346.270 322.400,346.600 322.400 C 346.930 322.400,347.223 322.220,347.250 322.000 C 347.278 321.780,347.322 321.420,347.350 321.200 C 347.378 320.980,347.548 320.845,347.728 320.900 C 347.909 320.955,348.264 320.640,348.518 320.200 C 349.031 319.310,349.078 319.146,349.150 318.000 C 349.182 317.483,349.483 317.200,350.000 317.200 C 350.667 317.200,350.800 316.933,350.800 315.600 C 350.800 314.127,351.067 313.789,352.100 313.953 C 352.265 313.979,352.379 313.865,352.353 313.700 C 352.115 312.194,352.487 310.871,353.200 310.684 C 353.838 310.517,354.000 310.138,354.000 308.814 C 354.000 307.808,354.158 307.250,354.400 307.400 C 354.620 307.536,354.800 307.446,354.800 307.200 C 354.800 306.954,354.980 306.864,355.200 307.000 C 355.420 307.136,355.618 307.102,355.640 306.924 C 355.661 306.746,355.724 306.105,355.778 305.501 C 355.832 304.896,356.276 304.054,356.764 303.631 C 357.253 303.207,357.641 302.757,357.626 302.630 C 357.479 301.337,357.712 300.696,358.396 300.517 C 358.833 300.403,359.110 300.178,359.010 300.017 C 358.654 299.440,359.645 296.800,360.219 296.800 C 360.538 296.800,360.779 296.665,360.753 296.500 C 360.453 294.601,360.881 292.472,361.600 292.284 C 362.236 292.118,362.400 291.738,362.400 290.437 C 362.400 289.537,362.535 288.821,362.700 288.847 C 363.456 288.967,363.910 288.759,363.893 288.300 C 363.783 285.353,364.047 284.169,364.896 283.795 C 365.388 283.578,365.808 283.040,365.827 282.600 C 365.910 280.753,366.021 280.366,366.400 280.600 C 366.620 280.736,366.800 280.567,366.800 280.224 C 366.800 279.881,366.949 279.600,367.132 279.600 C 367.314 279.600,367.470 279.105,367.477 278.500 C 367.508 276.030,367.618 275.600,368.224 275.600 C 368.567 275.600,368.736 275.420,368.600 275.200 C 368.464 274.980,368.498 274.800,368.676 274.800 C 368.854 274.800,369.052 273.945,369.115 272.900 C 369.189 271.683,369.475 270.815,369.911 270.485 C 370.359 270.147,370.663 269.187,370.796 267.685 C 370.964 265.799,371.125 265.410,371.718 265.459 C 372.164 265.495,372.412 265.267,372.372 264.859 C 372.076 261.822,372.441 259.241,373.200 259.000 C 373.874 258.786,374.000 258.395,374.000 256.519 C 374.000 254.691,374.170 254.135,374.946 253.415 C 375.716 252.702,375.902 252.104,375.945 250.201 C 375.982 248.628,376.221 247.619,376.676 247.116 C 377.048 246.705,377.373 245.881,377.398 245.284 C 377.423 244.688,377.479 243.315,377.522 242.233 C 377.565 241.152,377.717 240.384,377.860 240.527 C 378.563 241.230,379.175 239.188,379.187 236.100 C 379.198 233.344,379.332 232.668,380.000 232.000 C 380.702 231.298,380.800 230.667,380.800 226.847 C 380.800 222.830,380.862 222.477,381.600 222.284 C 382.347 222.089,382.400 221.738,382.400 217.020 C 382.400 212.428,382.464 211.976,383.100 212.082 C 383.743 212.190,383.817 211.512,384.012 203.800 C 384.129 199.180,384.264 195.535,384.312 195.700 C 384.361 195.865,384.731 195.685,385.136 195.300 C 385.834 194.636,385.873 193.403,385.877 171.329 L 385.882 148.057 384.941 147.821 L 384.000 147.585 383.972 140.692 C 383.944 133.902,383.742 132.215,382.984 132.470 C 382.759 132.546,382.559 130.866,382.501 128.400 C 382.392 123.769,382.161 122.253,381.616 122.590 C 380.984 122.981,380.836 122.224,380.769 118.272 C 380.733 116.149,380.582 114.488,380.433 114.580 C 379.689 115.039,379.261 113.901,379.087 111.000 C 378.927 108.331,378.787 107.820,378.247 107.918 C 377.740 108.010,377.587 107.663,377.541 106.318 C 377.508 105.373,377.463 104.272,377.441 103.870 C 377.418 103.469,377.096 102.917,376.725 102.644 C 376.263 102.305,376.016 101.460,375.945 99.974 C 375.887 98.778,375.680 97.583,375.486 97.318 C 375.291 97.052,375.235 96.667,375.361 96.463 C 375.488 96.258,375.278 96.115,374.896 96.145 C 374.340 96.189,374.175 95.818,374.078 94.300 C 373.977 92.726,373.823 92.400,373.178 92.400 C 372.514 92.400,372.400 92.115,372.400 90.449 C 372.400 88.962,372.213 88.367,371.614 87.949 C 371.034 87.544,370.798 86.849,370.714 85.300 C 370.645 84.026,370.416 83.200,370.131 83.200 C 369.615 83.200,368.701 80.815,368.884 79.947 C 368.948 79.646,368.780 79.443,368.512 79.496 C 367.872 79.622,367.288 78.448,367.392 77.246 C 367.446 76.617,367.228 76.228,366.750 76.103 C 366.019 75.912,365.332 74.534,365.757 74.109 C 365.884 73.983,365.675 73.623,365.294 73.310 C 364.912 72.997,364.853 72.872,365.162 73.032 C 365.544 73.230,365.627 73.167,365.421 72.835 C 365.255 72.566,364.867 72.442,364.560 72.560 C 364.148 72.718,364.000 72.416,364.000 71.414 C 364.000 70.405,363.793 69.988,363.200 69.800 C 362.656 69.627,362.400 69.195,362.400 68.448 C 362.400 67.845,362.040 66.964,361.600 66.492 C 361.160 66.020,360.800 65.447,360.800 65.220 C 360.800 64.993,360.435 64.580,359.990 64.303 C 359.514 64.008,359.081 63.184,358.940 62.307 C 358.808 61.486,358.552 60.906,358.370 61.018 C 357.963 61.270,357.130 59.803,357.481 59.453 C 357.620 59.314,357.343 59.200,356.867 59.200 C 356.257 59.200,356.000 58.955,356.000 58.374 C 356.000 57.274,355.292 56.000,354.681 56.000 C 354.411 56.000,354.005 55.595,353.780 55.100 C 353.555 54.605,353.152 54.245,352.885 54.300 C 352.618 54.355,352.400 54.023,352.400 53.563 C 352.400 53.062,352.079 52.641,351.600 52.516 C 351.160 52.401,350.778 51.968,350.750 51.553 C 350.723 51.139,350.655 50.620,350.600 50.400 C 350.545 50.180,350.478 49.809,350.450 49.576 C 350.423 49.343,350.240 49.251,350.045 49.372 C 349.514 49.700,348.686 48.513,349.030 47.918 C 349.194 47.633,349.186 47.529,349.012 47.686 C 348.554 48.099,347.200 47.277,347.200 46.586 C 347.200 46.260,346.833 46.000,346.373 46.000 C 345.728 46.000,345.602 45.824,345.800 45.200 C 346.037 44.452,345.520 44.160,344.300 44.353 C 344.135 44.379,344.000 44.023,344.000 43.563 C 344.000 43.062,343.679 42.641,343.200 42.516 C 342.757 42.400,342.400 41.970,342.400 41.553 C 342.400 41.067,342.117 40.800,341.600 40.800 C 341.135 40.800,340.800 40.533,340.800 40.163 C 340.800 39.812,340.440 39.431,340.000 39.316 C 339.560 39.201,339.200 38.853,339.200 38.543 C 339.200 38.234,338.750 37.809,338.200 37.600 C 337.650 37.391,337.200 36.945,337.200 36.610 C 337.200 36.260,336.847 36.000,336.373 36.000 C 335.728 36.000,335.602 35.824,335.800 35.200 C 336.037 34.453,335.526 34.163,334.307 34.350 C 334.146 34.375,333.899 33.938,333.759 33.379 C 333.619 32.820,333.407 32.460,333.289 32.578 C 332.960 32.906,331.978 31.959,332.228 31.555 C 332.349 31.360,332.212 31.173,331.924 31.139 C 331.636 31.106,331.220 31.036,331.000 30.985 C 330.780 30.934,330.285 30.872,329.900 30.846 C 329.491 30.819,329.200 30.479,329.200 30.028 C 329.200 29.532,328.878 29.210,328.300 29.128 C 327.805 29.058,327.400 28.730,327.400 28.400 C 327.400 28.070,326.950 27.704,326.400 27.586 C 325.813 27.461,325.419 27.111,325.447 26.740 C 325.472 26.391,325.292 26.111,325.047 26.116 C 323.000 26.161,322.400 25.955,322.400 25.208 C 322.400 24.697,322.046 24.326,321.403 24.165 C 320.854 24.027,320.505 23.754,320.626 23.557 C 320.748 23.361,320.567 23.200,320.224 23.200 C 319.881 23.200,319.600 23.038,319.600 22.840 C 319.600 22.642,319.071 22.516,318.425 22.561 C 317.779 22.606,317.332 22.510,317.432 22.349 C 317.531 22.187,317.427 21.940,317.200 21.800 C 316.973 21.660,316.875 21.402,316.983 21.228 C 317.091 21.053,316.779 20.908,316.289 20.904 C 314.376 20.889,314.000 20.780,314.000 20.243 C 314.000 19.598,313.148 19.200,311.767 19.200 C 311.067 19.200,310.800 18.979,310.800 18.400 C 310.800 17.736,310.533 17.600,309.227 17.600 C 308.005 17.600,307.597 17.421,307.400 16.800 C 307.209 16.199,306.795 16.000,305.737 16.000 C 304.762 16.000,304.106 15.725,303.606 15.108 C 303.071 14.447,302.432 14.206,301.142 14.179 C 299.760 14.150,299.318 13.963,299.005 13.271 C 298.672 12.537,298.280 12.400,296.505 12.400 C 294.933 12.400,294.197 12.197,293.600 11.600 C 293.032 11.032,292.267 10.800,290.963 10.800 C 289.462 10.800,289.087 10.654,288.916 10.000 C 288.731 9.291,288.370 9.200,285.753 9.200 C 283.333 9.200,282.656 9.056,282.000 8.400 C 281.319 7.719,280.667 7.600,277.600 7.600 C 274.108 7.600,273.767 7.478,273.953 6.300 C 273.979 6.135,273.865 6.021,273.700 6.047 C 272.068 6.305,258.804 5.917,258.989 5.617 C 259.120 5.406,258.697 4.960,258.050 4.626 C 256.643 3.898,213.830 3.704,213.386 4.423 M170.109 117.200 C 170.669 117.640,171.505 118.000,171.967 118.000 C 172.429 118.000,173.116 118.360,173.493 118.800 C 173.870 119.240,174.470 119.600,174.827 119.600 C 175.184 119.600,175.781 119.937,176.154 120.350 C 176.527 120.762,177.584 121.200,178.502 121.323 C 179.421 121.446,180.378 121.829,180.630 122.173 C 181.388 123.211,188.929 123.071,190.000 122.000 C 190.440 121.560,191.238 121.200,191.773 121.200 C 192.395 121.200,192.838 120.911,193.000 120.400 C 193.140 119.960,193.484 119.600,193.765 119.600 C 194.046 119.600,194.602 119.240,195.000 118.800 C 195.398 118.360,196.119 118.000,196.601 118.000 C 197.083 118.000,197.893 117.640,198.400 117.200 C 199.602 116.158,209.521 115.978,210.523 116.980 C 210.842 117.299,211.562 117.676,212.122 117.816 C 212.683 117.957,213.452 118.416,213.833 118.836 C 214.213 119.256,214.737 119.600,214.997 119.600 C 215.556 119.600,218.800 122.973,218.800 123.554 C 218.800 123.774,219.145 124.196,219.566 124.491 C 219.987 124.786,220.456 125.690,220.608 126.499 C 220.759 127.309,221.135 128.180,221.442 128.435 C 222.257 129.112,222.243 138.500,221.426 139.179 C 221.110 139.441,220.731 140.202,220.584 140.871 C 220.080 143.167,216.550 147.321,213.643 149.038 C 212.959 149.442,212.400 149.914,212.400 150.086 C 212.400 150.259,212.046 150.400,211.614 150.400 C 211.182 150.400,210.643 150.745,210.417 151.167 C 210.191 151.590,209.447 152.058,208.763 152.208 C 208.078 152.358,207.177 152.823,206.759 153.241 C 206.342 153.658,205.623 154.000,205.163 154.000 C 204.703 154.000,203.869 154.360,203.309 154.800 C 202.750 155.240,201.814 155.600,201.231 155.600 C 200.647 155.600,199.463 155.960,198.600 156.400 C 197.518 156.952,196.219 157.204,194.415 157.214 C 192.907 157.222,191.377 157.470,190.800 157.800 C 189.404 158.598,181.094 158.636,180.439 157.847 C 180.129 157.474,178.765 157.241,176.232 157.131 C 173.873 157.027,172.239 156.764,171.825 156.421 C 171.464 156.121,170.231 155.727,169.085 155.546 C 167.939 155.365,166.821 154.973,166.601 154.675 C 166.380 154.377,165.503 154.021,164.650 153.883 C 163.798 153.746,162.808 153.371,162.450 153.048 C 162.093 152.726,161.260 152.328,160.600 152.163 C 159.940 151.999,158.590 151.269,157.600 150.541 C 156.610 149.813,155.215 148.953,154.500 148.629 C 153.785 148.306,153.200 147.852,153.200 147.620 C 153.200 147.389,152.993 147.200,152.740 147.200 C 151.548 147.200,148.296 142.792,147.817 140.528 C 147.670 139.828,147.290 139.041,146.974 138.779 C 146.134 138.081,146.147 129.108,146.989 128.409 C 147.314 128.140,147.691 127.319,147.829 126.586 C 147.967 125.852,148.421 124.943,148.840 124.564 C 149.258 124.186,149.600 123.700,149.600 123.485 C 149.600 123.271,150.386 122.308,151.347 121.347 C 152.308 120.386,153.271 119.600,153.485 119.600 C 153.700 119.600,154.193 119.250,154.579 118.823 C 154.966 118.395,155.792 117.934,156.414 117.797 C 157.036 117.660,157.759 117.290,158.021 116.974 C 158.849 115.977,168.790 116.163,170.109 117.200 M276.600 117.200 C 276.998 117.640,277.808 118.000,278.400 118.000 C 278.992 118.000,279.802 118.360,280.200 118.800 C 280.598 119.240,281.228 119.600,281.600 119.600 C 281.972 119.600,282.602 119.960,283.000 120.400 C 283.398 120.840,284.212 121.200,284.808 121.200 C 285.404 121.200,286.350 121.560,286.909 122.000 C 287.774 122.680,288.532 122.800,291.963 122.800 C 295.467 122.800,296.106 122.694,296.800 122.000 C 297.240 121.560,297.954 121.200,298.386 121.200 C 298.818 121.200,299.365 120.840,299.600 120.400 C 299.835 119.960,300.218 119.600,300.451 119.600 C 300.684 119.600,301.331 119.240,301.891 118.800 C 302.450 118.360,303.216 118.000,303.592 118.000 C 303.968 118.000,304.602 117.640,305.000 117.200 C 305.656 116.476,306.232 116.400,311.099 116.400 C 315.868 116.400,316.588 116.490,317.491 117.200 C 318.050 117.640,318.807 118.000,319.173 118.000 C 320.389 118.000,325.600 122.507,325.600 123.559 C 325.600 123.915,325.960 124.432,326.400 124.707 C 326.840 124.982,327.201 125.520,327.203 125.903 C 327.204 126.287,327.563 127.140,328.000 127.800 C 328.677 128.823,328.795 129.679,328.795 133.600 C 328.795 137.521,328.677 138.377,328.000 139.400 C 327.563 140.060,327.204 140.860,327.203 141.178 C 327.197 142.323,323.340 147.200,322.440 147.200 C 322.198 147.200,322.000 147.367,322.000 147.572 C 322.000 147.963,318.589 150.400,318.042 150.400 C 317.867 150.400,317.407 150.750,317.021 151.177 C 316.634 151.605,315.811 152.066,315.192 152.202 C 314.573 152.338,313.971 152.698,313.854 153.002 C 313.738 153.307,312.978 153.680,312.166 153.833 C 311.355 153.985,310.355 154.445,309.945 154.855 C 309.535 155.265,308.659 155.600,307.999 155.600 C 307.338 155.600,306.125 155.960,305.304 156.400 C 304.252 156.964,303.044 157.201,301.206 157.202 C 299.677 157.204,298.127 157.452,297.454 157.802 C 295.971 158.576,288.012 158.652,287.261 157.900 C 286.968 157.607,285.206 157.312,283.009 157.187 C 280.245 157.031,279.056 156.794,278.497 156.287 C 278.043 155.877,277.087 155.600,276.122 155.600 C 275.159 155.600,274.123 155.301,273.554 154.858 C 273.029 154.450,271.931 153.993,271.113 153.842 C 270.295 153.692,269.363 153.306,269.041 152.984 C 268.720 152.663,268.312 152.400,268.134 152.400 C 267.531 152.400,263.422 150.203,262.709 149.500 C 262.319 149.115,261.768 148.800,261.485 148.800 C 259.970 148.800,254.421 142.239,254.407 140.431 C 254.403 139.899,254.090 139.121,253.712 138.703 C 252.746 137.636,252.692 129.363,253.646 128.659 C 253.987 128.407,254.374 127.539,254.504 126.730 C 254.766 125.101,255.065 124.682,258.335 121.385 C 261.471 118.222,261.757 118.000,262.689 118.000 C 263.141 118.000,263.936 117.646,264.456 117.213 C 265.895 116.014,275.517 116.004,276.600 117.200 M249.552 183.742 C 249.850 184.101,251.362 184.359,254.029 184.506 C 256.782 184.657,258.270 184.917,258.729 185.327 C 259.098 185.657,260.480 186.054,261.800 186.209 C 263.120 186.365,264.761 186.831,265.447 187.246 C 266.133 187.661,267.234 188.000,267.893 188.000 C 268.553 188.000,269.550 188.360,270.109 188.800 C 270.669 189.240,271.600 189.600,272.179 189.600 C 272.758 189.600,273.720 189.943,274.316 190.363 C 274.912 190.782,276.058 191.237,276.861 191.373 C 277.665 191.510,278.416 191.864,278.529 192.160 C 278.643 192.457,279.363 192.817,280.129 192.960 C 280.896 193.104,281.624 193.487,281.749 193.811 C 281.873 194.135,282.286 194.400,282.666 194.400 C 283.046 194.400,283.997 194.809,284.778 195.310 C 287.356 196.960,287.788 197.210,289.073 197.802 C 289.773 198.124,290.460 198.573,290.600 198.800 C 290.740 199.027,291.472 199.470,292.227 199.786 C 292.982 200.101,293.600 200.529,293.600 200.736 C 293.600 200.944,294.050 201.226,294.600 201.364 C 295.150 201.502,295.600 201.882,295.600 202.208 C 295.600 202.533,295.800 202.800,296.044 202.800 C 296.724 202.800,300.327 205.233,300.565 205.853 C 300.680 206.154,301.007 206.400,301.291 206.400 C 301.575 206.400,302.032 206.760,302.307 207.200 C 302.582 207.640,303.075 208.000,303.403 208.000 C 303.732 208.000,304.000 208.141,304.000 208.314 C 304.000 208.486,304.495 208.921,305.100 209.280 C 306.331 210.010,317.200 220.458,317.200 220.911 C 317.200 221.070,317.533 221.533,317.939 221.939 C 318.346 222.346,318.794 223.402,318.936 224.287 C 319.077 225.172,319.464 226.122,319.796 226.397 C 320.785 227.218,320.639 234.231,319.600 235.800 C 319.163 236.460,318.804 237.381,318.803 237.846 C 318.801 238.311,318.440 239.150,318.000 239.709 C 317.560 240.269,317.200 240.921,317.200 241.160 C 317.200 241.398,316.840 241.818,316.400 242.093 C 315.960 242.368,315.600 242.819,315.600 243.096 C 315.600 243.373,315.419 243.600,315.197 243.600 C 314.976 243.600,314.403 244.050,313.925 244.600 C 313.447 245.150,312.892 245.600,312.691 245.600 C 312.490 245.600,311.869 245.960,311.309 246.400 C 310.750 246.840,309.836 247.200,309.278 247.200 C 308.720 247.200,307.915 247.515,307.490 247.900 C 306.221 249.050,299.651 249.144,297.862 248.038 C 297.116 247.577,296.146 247.200,295.707 247.200 C 295.267 247.200,294.450 246.840,293.891 246.400 C 293.331 245.960,292.698 245.600,292.483 245.600 C 292.268 245.600,291.797 245.150,291.437 244.600 C 291.076 244.050,290.610 243.600,290.400 243.600 C 290.191 243.600,288.959 242.520,287.663 241.200 C 286.368 239.880,285.176 238.800,285.014 238.800 C 284.853 238.800,284.244 238.305,283.660 237.700 C 283.077 237.095,281.700 235.931,280.600 235.114 C 279.500 234.297,278.330 233.383,278.000 233.084 C 277.670 232.785,276.465 231.945,275.323 231.217 C 274.180 230.490,273.151 229.648,273.035 229.347 C 272.920 229.046,272.484 228.800,272.066 228.800 C 271.649 228.800,270.850 228.440,270.291 228.000 C 269.731 227.560,269.151 227.200,269.000 227.200 C 268.849 227.200,268.269 226.840,267.709 226.400 C 267.150 225.960,266.384 225.600,266.008 225.600 C 265.632 225.600,265.017 225.261,264.642 224.846 C 264.266 224.431,263.395 223.979,262.706 223.841 C 262.016 223.703,261.157 223.323,260.796 222.996 C 260.435 222.669,259.275 222.240,258.219 222.043 C 257.163 221.846,256.180 221.492,256.034 221.256 C 255.889 221.020,254.696 220.702,253.385 220.550 C 252.073 220.398,250.338 219.931,249.530 219.512 C 247.487 218.453,228.056 218.572,226.400 219.653 C 225.850 220.012,224.349 220.420,223.064 220.561 C 221.779 220.701,220.486 221.057,220.190 221.353 C 219.895 221.648,218.741 222.011,217.626 222.159 C 216.512 222.307,215.600 222.594,215.600 222.798 C 215.600 223.001,214.835 223.388,213.900 223.657 C 212.965 223.925,211.878 224.473,211.484 224.873 C 211.091 225.273,210.320 225.600,209.772 225.600 C 209.224 225.600,208.676 225.859,208.554 226.176 C 208.433 226.492,207.763 226.873,207.067 227.022 C 206.370 227.171,205.478 227.632,205.084 228.047 C 204.691 228.461,204.106 228.800,203.784 228.800 C 203.463 228.800,202.869 229.115,202.465 229.500 C 201.531 230.389,200.561 231.025,198.800 231.902 C 198.030 232.286,197.130 232.886,196.800 233.236 C 195.871 234.220,192.122 237.200,191.813 237.200 C 191.661 237.200,190.727 238.010,189.737 239.000 C 188.747 239.990,187.771 240.800,187.568 240.800 C 187.366 240.800,187.200 241.058,187.200 241.373 C 187.200 241.688,186.840 242.060,186.400 242.200 C 185.960 242.340,185.600 242.712,185.600 243.027 C 185.600 243.342,185.419 243.600,185.197 243.600 C 184.976 243.600,184.403 244.050,183.925 244.600 C 183.447 245.150,182.892 245.600,182.691 245.600 C 182.490 245.600,181.869 245.960,181.309 246.400 C 180.750 246.840,179.836 247.200,179.278 247.200 C 178.720 247.200,177.915 247.515,177.490 247.900 C 176.221 249.050,169.651 249.144,167.862 248.038 C 167.116 247.577,166.146 247.200,165.707 247.200 C 165.267 247.200,164.450 246.840,163.891 246.400 C 163.331 245.960,162.767 245.600,162.637 245.600 C 162.254 245.600,158.000 241.269,158.000 240.879 C 158.000 240.684,157.655 240.212,157.233 239.830 C 156.786 239.425,156.355 238.325,156.198 237.188 C 156.051 236.117,155.676 235.029,155.365 234.771 C 154.597 234.133,154.580 228.098,155.343 226.989 C 155.642 226.555,156.012 225.516,156.165 224.679 C 156.319 223.842,156.693 223.062,156.998 222.946 C 157.302 222.829,157.657 222.250,157.787 221.660 C 158.025 220.577,160.141 218.000,160.793 218.000 C 160.987 218.000,161.260 217.640,161.400 217.200 C 161.540 216.760,161.912 216.400,162.227 216.400 C 162.542 216.400,162.800 216.238,162.800 216.040 C 162.800 215.714,164.501 213.934,166.280 212.400 C 170.408 208.839,171.469 208.007,171.886 208.004 C 172.153 208.002,172.565 207.640,172.800 207.200 C 173.035 206.760,173.497 206.400,173.827 206.400 C 174.156 206.400,174.520 206.154,174.635 205.853 C 174.873 205.233,178.476 202.800,179.156 202.800 C 179.400 202.800,179.600 202.637,179.600 202.438 C 179.600 202.090,182.650 200.108,184.100 199.513 C 184.485 199.355,184.800 199.047,184.800 198.828 C 184.800 198.610,185.501 198.242,186.359 198.011 C 187.216 197.780,188.014 197.340,188.132 197.033 C 188.250 196.727,188.910 196.351,189.600 196.200 C 190.290 196.049,190.947 195.683,191.060 195.387 C 191.174 195.091,191.837 194.724,192.533 194.572 C 193.230 194.420,194.229 193.959,194.754 193.548 C 195.279 193.137,196.044 192.800,196.454 192.800 C 196.864 192.800,197.560 192.440,198.000 192.000 C 198.440 191.560,199.312 191.200,199.938 191.200 C 200.568 191.200,201.399 190.843,201.800 190.400 C 202.198 189.960,202.994 189.600,203.568 189.600 C 204.142 189.600,205.284 189.240,206.104 188.800 C 206.925 188.360,208.005 188.000,208.504 188.000 C 209.004 188.000,210.039 187.667,210.806 187.260 C 211.573 186.852,213.165 186.393,214.344 186.240 C 215.523 186.086,216.896 185.693,217.395 185.367 C 217.965 184.993,219.838 184.679,222.446 184.520 C 225.064 184.361,226.786 184.071,227.123 183.734 C 227.910 182.947,248.899 182.955,249.552 183.742 " stroke="none" fill="#c3b354" fill-rule="evenodd"></path><path id="path1" d="M160.000 118.210 C 159.230 118.510,158.223 118.765,157.762 118.777 C 157.301 118.790,156.598 119.160,156.200 119.600 C 155.802 120.040,155.206 120.400,154.876 120.400 C 154.206 120.400,150.406 124.347,150.402 125.046 C 150.401 125.291,150.065 125.921,149.656 126.446 C 149.247 126.971,148.780 128.300,148.619 129.400 C 148.457 130.500,148.142 131.623,147.918 131.894 C 147.694 132.166,147.610 132.976,147.730 133.694 C 148.511 138.345,149.153 140.810,149.734 141.391 C 150.100 141.757,150.400 142.196,150.400 142.366 C 150.400 142.536,150.850 143.199,151.400 143.838 C 151.949 144.477,152.399 145.107,152.400 145.237 C 152.400 145.367,153.030 145.813,153.800 146.228 C 154.570 146.643,155.200 147.119,155.200 147.286 C 155.200 147.453,155.785 147.858,156.500 148.187 C 157.800 148.784,158.522 149.197,160.400 150.418 C 160.950 150.776,161.940 151.202,162.600 151.365 C 163.260 151.529,164.084 151.918,164.430 152.230 C 164.777 152.543,165.900 152.955,166.926 153.147 C 167.952 153.338,169.037 153.699,169.336 153.947 C 169.636 154.196,170.763 154.514,171.840 154.656 C 172.918 154.797,174.340 155.193,175.000 155.536 C 176.847 156.495,191.370 156.693,194.400 155.801 C 195.610 155.444,197.590 154.962,198.800 154.730 C 200.010 154.497,201.270 154.082,201.600 153.807 C 201.930 153.532,202.740 153.179,203.400 153.023 C 204.060 152.866,204.870 152.503,205.200 152.216 C 205.530 151.929,206.250 151.558,206.800 151.391 C 207.350 151.224,208.848 150.393,210.128 149.544 C 211.409 148.695,212.519 148.000,212.594 148.000 C 213.232 148.000,217.988 143.182,217.995 142.529 C 217.998 142.269,218.279 141.778,218.621 141.437 C 219.260 140.797,220.233 137.768,220.668 135.063 C 220.911 133.554,219.902 128.056,219.152 126.800 C 218.955 126.470,218.573 125.750,218.303 125.200 C 217.737 124.045,214.577 120.806,213.400 120.172 C 212.960 119.936,212.240 119.547,211.800 119.309 C 207.986 117.243,199.293 117.389,196.729 119.563 C 195.879 120.284,193.188 122.000,192.908 122.000 C 192.767 122.000,192.220 122.405,191.692 122.900 C 190.411 124.102,179.835 124.293,178.542 123.137 C 178.134 122.773,177.035 122.271,176.100 122.022 C 175.165 121.773,174.400 121.396,174.400 121.185 C 174.400 120.973,174.203 120.800,173.962 120.800 C 173.721 120.800,172.957 120.395,172.264 119.900 C 169.785 118.128,162.714 117.154,160.000 118.210 M265.927 118.407 C 258.306 120.485,253.372 128.631,255.029 136.400 C 255.334 137.830,255.587 139.307,255.592 139.682 C 255.601 140.427,256.885 142.466,258.302 143.987 C 258.796 144.517,259.200 145.079,259.200 145.236 C 259.200 145.393,259.866 145.944,260.681 146.460 C 261.496 146.977,262.621 147.715,263.181 148.101 C 263.741 148.486,264.773 149.069,265.473 149.395 C 266.173 149.721,266.858 150.171,266.996 150.394 C 267.134 150.618,268.062 151.006,269.058 151.256 C 270.053 151.507,270.957 151.943,271.065 152.226 C 271.174 152.509,272.014 152.861,272.931 153.009 C 273.849 153.156,274.985 153.521,275.456 153.819 C 275.927 154.117,277.277 154.484,278.456 154.635 C 279.635 154.785,281.140 155.199,281.800 155.554 C 283.610 156.528,300.359 156.507,302.400 155.529 C 303.170 155.160,304.745 154.738,305.900 154.591 C 307.055 154.445,308.000 154.169,308.000 153.978 C 308.000 153.787,308.759 153.427,309.686 153.177 C 310.613 152.927,311.807 152.380,312.340 151.961 C 312.872 151.543,313.570 151.200,313.891 151.200 C 314.211 151.200,314.931 150.840,315.491 150.400 C 316.050 149.960,316.714 149.600,316.965 149.600 C 317.216 149.600,317.716 149.285,318.074 148.900 C 318.433 148.515,319.598 147.570,320.663 146.800 C 321.729 146.030,322.960 144.955,323.400 144.410 C 325.190 142.197,326.386 140.149,326.393 139.287 C 326.397 138.785,326.670 137.728,327.000 136.938 C 327.988 134.574,326.990 127.757,325.398 125.998 C 325.069 125.635,324.800 125.127,324.800 124.870 C 324.800 124.314,320.820 120.400,320.255 120.400 C 320.039 120.400,319.515 120.085,319.090 119.700 C 316.491 117.345,306.196 117.207,303.600 119.492 C 302.757 120.234,300.016 122.000,299.708 122.000 C 299.567 122.000,299.020 122.405,298.494 122.900 C 297.236 124.082,286.909 124.284,285.182 123.161 C 284.642 122.809,283.525 122.300,282.700 122.030 C 281.875 121.759,281.200 121.384,281.200 121.196 C 281.200 121.008,280.795 120.730,280.300 120.580 C 279.805 120.429,279.068 120.014,278.663 119.657 C 276.761 117.985,269.933 117.315,265.927 118.407 M227.600 185.387 C 224.850 185.647,222.141 186.054,221.580 186.290 C 221.020 186.526,219.351 186.849,217.872 187.007 C 216.393 187.165,214.519 187.634,213.707 188.048 C 212.895 188.461,211.684 188.801,211.015 188.803 C 210.347 188.804,209.260 189.163,208.600 189.600 C 207.940 190.037,206.947 190.396,206.394 190.397 C 205.841 190.399,204.761 190.732,203.994 191.139 C 203.227 191.545,202.060 192.009,201.400 192.170 C 200.740 192.331,199.930 192.694,199.600 192.977 C 199.270 193.261,198.474 193.618,197.832 193.771 C 197.189 193.924,196.220 194.398,195.678 194.825 C 195.136 195.251,194.378 195.600,193.995 195.600 C 193.612 195.600,193.083 195.858,192.821 196.174 C 192.559 196.490,191.836 196.860,191.214 196.997 C 190.592 197.134,189.766 197.595,189.379 198.023 C 188.993 198.450,188.366 198.800,187.987 198.800 C 187.608 198.800,187.065 199.080,186.781 199.423 C 186.496 199.766,185.709 200.311,185.032 200.634 C 183.191 201.512,182.275 202.103,181.210 203.100 C 180.682 203.595,180.086 204.000,179.888 204.000 C 179.689 204.000,179.048 204.363,178.463 204.807 C 177.878 205.250,177.040 205.886,176.600 206.218 C 175.014 207.418,168.957 212.218,168.042 213.000 C 165.530 215.148,158.800 222.120,158.800 222.575 C 158.800 222.859,158.395 223.607,157.900 224.236 C 154.335 228.768,158.660 242.905,164.144 244.646 C 164.606 244.792,165.490 245.286,166.108 245.743 C 167.110 246.484,167.781 246.572,172.316 246.556 C 177.521 246.539,177.998 246.432,181.000 244.610 C 181.880 244.076,183.002 243.423,183.492 243.159 C 183.983 242.895,184.490 242.346,184.619 241.939 C 184.748 241.533,185.100 241.200,185.400 241.200 C 185.700 241.200,186.060 240.840,186.200 240.400 C 186.340 239.960,186.613 239.600,186.808 239.600 C 187.002 239.600,187.760 238.984,188.491 238.231 C 189.223 237.478,190.986 235.955,192.411 234.848 C 193.835 233.741,195.434 232.467,195.963 232.017 C 196.493 231.568,197.159 231.200,197.443 231.200 C 197.728 231.200,198.104 230.954,198.280 230.654 C 198.456 230.354,199.140 229.809,199.800 229.442 C 200.460 229.076,201.540 228.422,202.200 227.990 C 202.860 227.558,204.145 226.858,205.056 226.435 C 205.967 226.012,206.824 225.485,206.961 225.264 C 207.097 225.043,207.735 224.746,208.377 224.605 C 209.019 224.464,209.755 224.095,210.013 223.785 C 210.270 223.475,211.080 223.109,211.812 222.971 C 212.545 222.834,213.235 222.486,213.345 222.198 C 213.456 221.911,214.143 221.560,214.873 221.419 C 215.603 221.278,217.010 220.832,218.000 220.429 C 223.278 218.280,232.970 216.665,239.200 216.897 C 246.086 217.153,254.427 218.692,258.200 220.402 C 259.080 220.801,260.326 221.245,260.968 221.389 C 261.611 221.532,262.580 221.998,263.122 222.425 C 263.664 222.851,264.422 223.200,264.805 223.200 C 265.188 223.200,265.711 223.452,265.967 223.761 C 266.223 224.069,266.906 224.440,267.485 224.586 C 268.063 224.731,268.980 225.198,269.522 225.625 C 270.064 226.051,270.726 226.400,270.992 226.400 C 271.258 226.400,271.802 226.760,272.200 227.200 C 272.598 227.640,273.067 228.000,273.242 228.000 C 273.789 228.000,277.200 230.437,277.200 230.828 C 277.200 231.033,277.470 231.200,277.800 231.200 C 278.130 231.200,278.740 231.540,279.155 231.955 C 279.570 232.370,280.196 232.870,280.545 233.065 C 281.421 233.555,284.378 236.147,287.201 238.900 C 288.499 240.165,289.704 241.203,289.880 241.207 C 290.056 241.210,290.904 241.927,291.764 242.800 C 292.624 243.673,293.704 244.504,294.164 244.648 C 294.624 244.792,295.409 245.229,295.909 245.620 C 297.843 247.130,308.824 246.973,309.691 245.423 C 309.883 245.080,310.232 244.800,310.468 244.800 C 311.161 244.800,314.369 242.640,314.385 242.162 C 314.393 241.921,314.755 241.402,315.190 241.009 C 315.624 240.616,316.099 239.917,316.246 239.455 C 316.393 238.993,316.850 238.160,317.261 237.602 C 318.800 235.522,318.735 225.770,317.171 223.967 C 316.747 223.478,316.400 222.865,316.400 222.604 C 316.400 222.100,309.176 214.739,306.385 212.400 C 305.466 211.630,304.175 210.505,303.515 209.900 C 302.855 209.295,302.161 208.800,301.972 208.800 C 301.783 208.800,301.435 208.440,301.200 208.000 C 300.965 207.560,300.582 207.200,300.349 207.200 C 299.926 207.200,298.501 206.192,296.531 204.500 C 295.955 204.005,295.239 203.600,294.942 203.600 C 294.644 203.600,294.400 203.411,294.400 203.180 C 294.400 202.948,293.770 202.496,293.000 202.174 C 292.230 201.852,291.600 201.429,291.600 201.234 C 291.600 201.038,291.105 200.670,290.500 200.416 C 288.926 199.755,286.855 198.571,286.072 197.884 C 285.703 197.560,285.011 197.176,284.536 197.032 C 284.061 196.887,283.454 196.506,283.187 196.185 C 282.920 195.863,282.388 195.600,282.005 195.600 C 281.622 195.600,280.864 195.251,280.322 194.825 C 279.780 194.398,278.811 193.924,278.168 193.771 C 277.526 193.618,276.730 193.261,276.400 192.977 C 276.070 192.694,275.305 192.339,274.699 192.188 C 274.094 192.036,272.930 191.572,272.114 191.156 C 271.298 190.740,270.308 190.400,269.914 190.400 C 269.520 190.400,268.525 190.040,267.704 189.600 C 266.884 189.160,265.752 188.800,265.191 188.800 C 264.629 188.800,263.511 188.464,262.706 188.054 C 261.901 187.644,260.127 187.182,258.764 187.028 C 257.400 186.873,255.635 186.505,254.842 186.210 C 251.420 184.935,236.976 184.499,227.600 185.387 " stroke="none" fill="#2d352c" fill-rule="evenodd"></path><path id="path2" d="M159.800 117.440 C 158.920 117.773,157.688 118.207,157.062 118.405 C 150.377 120.523,145.172 131.550,147.838 137.949 C 148.147 138.691,148.400 139.590,148.400 139.947 C 148.400 142.484,153.826 147.618,159.800 150.734 C 173.378 157.814,191.412 159.173,202.644 153.963 C 203.548 153.543,204.572 153.200,204.920 153.200 C 205.268 153.200,205.675 153.002,205.825 152.759 C 205.975 152.517,206.700 152.067,207.437 151.759 C 217.748 147.451,223.309 138.011,220.656 129.321 C 219.157 124.411,215.028 119.574,211.338 118.405 C 210.712 118.207,209.480 117.773,208.600 117.440 C 206.548 116.664,202.652 116.664,200.600 117.440 C 199.720 117.773,198.536 118.193,197.969 118.375 C 197.403 118.556,195.448 119.708,193.627 120.934 C 187.770 124.877,181.052 124.547,173.580 119.949 C 168.999 117.131,163.342 116.101,159.800 117.440 M267.400 117.187 C 259.368 119.541,255.197 124.234,253.821 132.467 C 253.510 134.327,255.014 140.490,256.207 142.249 C 257.944 144.808,259.679 146.800,260.172 146.800 C 260.449 146.800,261.002 147.160,261.400 147.600 C 261.798 148.040,262.283 148.400,262.478 148.400 C 262.673 148.400,263.365 148.760,264.016 149.200 C 264.667 149.640,265.702 150.337,266.316 150.750 C 266.929 151.162,267.997 151.624,268.688 151.775 C 269.379 151.927,270.144 152.291,270.387 152.584 C 270.630 152.877,271.444 153.232,272.197 153.373 C 272.950 153.514,274.069 153.892,274.683 154.212 C 275.297 154.533,276.087 154.796,276.437 154.798 C 276.788 154.799,278.088 155.149,279.327 155.575 C 282.906 156.806,291.720 157.426,297.459 156.849 C 306.062 155.984,314.290 152.663,321.360 147.200 C 323.583 145.482,326.800 141.157,326.800 139.885 C 326.800 139.487,327.082 138.614,327.428 137.947 C 328.262 136.333,328.011 130.574,326.985 127.800 C 325.665 124.231,320.135 118.405,318.060 118.398 C 317.697 118.396,316.860 118.086,316.200 117.709 C 314.527 116.753,307.922 116.763,306.200 117.725 C 305.540 118.094,304.820 118.397,304.600 118.400 C 304.202 118.405,299.295 121.434,297.837 122.573 C 296.201 123.853,288.238 123.922,285.800 122.679 C 285.140 122.342,283.520 121.533,282.200 120.881 C 280.880 120.228,279.260 119.421,278.600 119.087 C 274.620 117.070,270.299 116.337,267.400 117.187 M168.802 118.461 C 170.014 118.757,171.571 119.405,172.264 119.900 C 172.957 120.395,173.721 120.800,173.962 120.800 C 174.203 120.800,174.400 120.973,174.400 121.185 C 174.400 121.396,175.165 121.773,176.100 122.022 C 177.035 122.271,178.134 122.773,178.542 123.137 C 179.835 124.293,190.411 124.102,191.692 122.900 C 192.220 122.405,192.767 122.000,192.908 122.000 C 193.188 122.000,195.879 120.284,196.729 119.563 C 199.293 117.389,207.986 117.243,211.800 119.309 C 212.240 119.547,212.960 119.936,213.400 120.172 C 214.577 120.806,217.737 124.045,218.303 125.200 C 218.573 125.750,218.955 126.470,219.152 126.800 C 219.902 128.056,220.911 133.554,220.668 135.063 C 220.233 137.768,219.260 140.797,218.621 141.437 C 218.279 141.778,217.998 142.269,217.995 142.529 C 217.988 143.182,213.232 148.000,212.594 148.000 C 212.519 148.000,211.409 148.695,210.128 149.544 C 208.848 150.393,207.350 151.224,206.800 151.391 C 206.250 151.558,205.530 151.929,205.200 152.216 C 204.870 152.503,204.060 152.866,203.400 153.023 C 202.740 153.179,201.930 153.532,201.600 153.807 C 201.270 154.082,200.010 154.497,198.800 154.730 C 197.590 154.962,195.610 155.444,194.400 155.801 C 191.370 156.693,176.847 156.495,175.000 155.536 C 174.340 155.193,172.918 154.797,171.840 154.656 C 170.763 154.514,169.636 154.196,169.336 153.947 C 169.037 153.699,167.952 153.338,166.926 153.147 C 165.900 152.955,164.777 152.543,164.430 152.230 C 164.084 151.918,163.260 151.529,162.600 151.365 C 161.940 151.202,160.950 150.776,160.400 150.418 C 158.522 149.197,157.800 148.784,156.500 148.187 C 155.785 147.858,155.200 147.453,155.200 147.286 C 155.200 147.119,154.570 146.643,153.800 146.228 C 153.030 145.813,152.400 145.367,152.400 145.237 C 152.399 145.107,151.949 144.477,151.400 143.838 C 150.850 143.199,150.400 142.536,150.400 142.366 C 150.400 142.196,150.100 141.757,149.734 141.391 C 149.153 140.810,148.511 138.345,147.730 133.694 C 147.610 132.976,147.694 132.166,147.918 131.894 C 148.142 131.623,148.457 130.500,148.619 129.400 C 148.780 128.300,149.247 126.971,149.656 126.446 C 150.065 125.921,150.401 125.291,150.402 125.046 C 150.406 124.347,154.206 120.400,154.876 120.400 C 155.206 120.400,155.802 120.040,156.200 119.600 C 156.598 119.160,157.301 118.790,157.762 118.777 C 158.223 118.765,159.230 118.510,160.000 118.210 C 161.649 117.568,165.616 117.681,168.802 118.461 M275.663 118.467 C 276.907 118.765,278.257 119.300,278.663 119.657 C 279.068 120.014,279.805 120.429,280.300 120.580 C 280.795 120.730,281.200 121.008,281.200 121.196 C 281.200 121.384,281.875 121.759,282.700 122.030 C 283.525 122.300,284.642 122.809,285.182 123.161 C 286.909 124.284,297.236 124.082,298.494 122.900 C 299.020 122.405,299.567 122.000,299.708 122.000 C 300.016 122.000,302.757 120.234,303.600 119.492 C 306.196 117.207,316.491 117.345,319.090 119.700 C 319.515 120.085,320.039 120.400,320.255 120.400 C 320.820 120.400,324.800 124.314,324.800 124.870 C 324.800 125.127,325.069 125.635,325.398 125.998 C 326.990 127.757,327.988 134.574,327.000 136.938 C 326.670 137.728,326.397 138.785,326.393 139.287 C 326.386 140.149,325.190 142.197,323.400 144.410 C 322.960 144.955,321.729 146.030,320.663 146.800 C 319.598 147.570,318.433 148.515,318.074 148.900 C 317.716 149.285,317.216 149.600,316.965 149.600 C 316.714 149.600,316.050 149.960,315.491 150.400 C 314.931 150.840,314.211 151.200,313.891 151.200 C 313.570 151.200,312.872 151.543,312.340 151.961 C 311.807 152.380,310.613 152.927,309.686 153.177 C 308.759 153.427,308.000 153.787,308.000 153.978 C 308.000 154.169,307.055 154.445,305.900 154.591 C 304.745 154.738,303.170 155.160,302.400 155.529 C 300.359 156.507,283.610 156.528,281.800 155.554 C 281.140 155.199,279.635 154.785,278.456 154.635 C 277.277 154.484,275.927 154.117,275.456 153.819 C 274.985 153.521,273.849 153.156,272.931 153.009 C 272.014 152.861,271.174 152.509,271.065 152.226 C 270.957 151.943,270.053 151.507,269.058 151.256 C 268.062 151.006,267.134 150.618,266.996 150.394 C 266.858 150.171,266.173 149.721,265.473 149.395 C 264.773 149.069,263.741 148.486,263.181 148.101 C 262.621 147.715,261.496 146.977,260.681 146.460 C 259.866 145.944,259.200 145.393,259.200 145.236 C 259.200 145.079,258.796 144.517,258.302 143.987 C 256.885 142.466,255.601 140.427,255.592 139.682 C 255.587 139.307,255.334 137.830,255.029 136.400 C 252.527 124.666,263.114 115.465,275.663 118.467 M231.800 184.216 C 231.580 184.314,229.150 184.655,226.400 184.975 C 221.051 185.596,213.680 187.036,213.009 187.591 C 212.784 187.777,211.880 188.056,211.000 188.213 C 210.120 188.369,208.590 188.815,207.600 189.203 C 206.610 189.591,204.293 190.482,202.450 191.182 C 200.608 191.882,198.808 192.606,198.450 192.789 C 198.093 192.973,195.820 194.076,193.400 195.241 C 190.980 196.406,188.762 197.593,188.471 197.879 C 188.181 198.166,187.749 198.400,187.513 198.400 C 187.276 198.400,186.074 199.075,184.841 199.900 C 183.609 200.725,182.302 201.580,181.938 201.800 C 180.160 202.874,174.412 206.892,173.508 207.693 C 172.944 208.192,171.906 209.040,171.202 209.577 C 170.497 210.114,169.366 211.072,168.688 211.705 C 168.010 212.338,167.083 213.115,166.628 213.432 C 164.664 214.799,159.053 220.719,158.507 222.000 C 158.179 222.770,157.750 223.501,157.555 223.624 C 156.952 224.004,155.510 230.410,155.729 231.741 C 157.092 240.056,161.252 245.240,167.934 246.952 C 175.065 248.778,180.275 247.014,186.935 240.516 C 190.070 237.457,197.189 231.600,197.772 231.600 C 197.875 231.600,198.799 231.015,199.824 230.300 C 203.115 228.004,212.036 223.200,213.008 223.200 C 213.280 223.200,213.716 222.942,213.977 222.628 C 214.238 222.313,215.373 221.858,216.499 221.616 C 217.624 221.375,218.738 221.026,218.973 220.841 C 219.208 220.656,220.390 220.277,221.600 220.000 C 222.810 219.722,224.120 219.329,224.512 219.127 C 229.495 216.554,251.770 217.823,257.918 221.031 C 258.513 221.341,259.270 221.598,259.600 221.602 C 260.228 221.609,270.821 226.849,271.696 227.585 C 271.973 227.818,273.442 228.826,274.960 229.824 C 279.475 232.792,283.381 235.923,287.383 239.779 C 294.888 247.011,299.910 248.836,307.179 246.974 C 310.845 246.035,315.988 242.382,316.634 240.258 C 316.777 239.786,317.128 239.130,317.414 238.800 C 318.977 236.993,319.650 230.138,318.639 226.320 C 317.443 221.803,312.196 215.872,303.686 209.418 C 302.539 208.548,301.600 207.710,301.600 207.557 C 301.600 207.313,300.304 206.398,297.927 204.964 C 297.530 204.725,296.889 204.254,296.503 203.918 C 295.303 202.873,291.910 200.617,289.400 199.195 C 288.080 198.446,286.820 197.682,286.600 197.496 C 285.733 196.762,275.402 191.600,274.800 191.600 C 274.538 191.600,273.846 191.349,273.262 191.043 C 269.094 188.857,258.175 185.872,250.800 184.901 C 246.454 184.329,232.662 183.832,231.800 184.216 M247.779 185.236 C 250.871 185.476,254.049 185.915,254.842 186.210 C 255.635 186.505,257.400 186.873,258.764 187.028 C 260.127 187.182,261.901 187.644,262.706 188.054 C 263.511 188.464,264.629 188.800,265.191 188.800 C 265.752 188.800,266.884 189.160,267.704 189.600 C 268.525 190.040,269.520 190.400,269.914 190.400 C 270.308 190.400,271.298 190.740,272.114 191.156 C 272.930 191.572,274.094 192.036,274.699 192.188 C 275.305 192.339,276.070 192.694,276.400 192.977 C 276.730 193.261,277.526 193.618,278.168 193.771 C 278.811 193.924,279.780 194.398,280.322 194.825 C 280.864 195.251,281.622 195.600,282.005 195.600 C 282.388 195.600,282.920 195.863,283.187 196.185 C 283.454 196.506,284.061 196.887,284.536 197.032 C 285.011 197.176,285.703 197.560,286.072 197.884 C 286.855 198.571,288.926 199.755,290.500 200.416 C 291.105 200.670,291.600 201.038,291.600 201.234 C 291.600 201.429,292.230 201.852,293.000 202.174 C 293.770 202.496,294.400 202.948,294.400 203.180 C 294.400 203.411,294.644 203.600,294.942 203.600 C 295.239 203.600,295.955 204.005,296.531 204.500 C 298.501 206.192,299.926 207.200,300.349 207.200 C 300.582 207.200,300.965 207.560,301.200 208.000 C 301.435 208.440,301.783 208.800,301.972 208.800 C 302.161 208.800,302.855 209.295,303.515 209.900 C 304.175 210.505,305.466 211.630,306.385 212.400 C 309.176 214.739,316.400 222.100,316.400 222.604 C 316.400 222.865,316.747 223.478,317.171 223.967 C 318.735 225.770,318.800 235.522,317.261 237.602 C 316.850 238.160,316.393 238.993,316.246 239.455 C 316.099 239.917,315.624 240.616,315.190 241.009 C 314.755 241.402,314.393 241.921,314.385 242.162 C 314.369 242.640,311.161 244.800,310.468 244.800 C 310.232 244.800,309.883 245.080,309.691 245.423 C 308.824 246.973,297.843 247.130,295.909 245.620 C 295.409 245.229,294.624 244.792,294.164 244.648 C 293.704 244.504,292.624 243.673,291.764 242.800 C 290.904 241.927,290.056 241.210,289.880 241.207 C 289.704 241.203,288.499 240.165,287.201 238.900 C 284.378 236.147,281.421 233.555,280.545 233.065 C 280.196 232.870,279.570 232.370,279.155 231.955 C 278.740 231.540,278.130 231.200,277.800 231.200 C 277.470 231.200,277.200 231.033,277.200 230.828 C 277.200 230.437,273.789 228.000,273.242 228.000 C 273.067 228.000,272.598 227.640,272.200 227.200 C 271.802 226.760,271.258 226.400,270.992 226.400 C 270.726 226.400,270.064 226.051,269.522 225.625 C 268.980 225.198,268.063 224.731,267.485 224.586 C 266.906 224.440,266.223 224.069,265.967 223.761 C 265.711 223.452,265.188 223.200,264.805 223.200 C 264.422 223.200,263.664 222.851,263.122 222.425 C 262.580 221.998,261.611 221.532,260.968 221.389 C 260.326 221.245,259.080 220.801,258.200 220.402 C 254.427 218.692,246.086 217.153,239.200 216.897 C 232.970 216.665,223.278 218.280,218.000 220.429 C 217.010 220.832,215.603 221.278,214.873 221.419 C 214.143 221.560,213.456 221.911,213.345 222.198 C 213.235 222.486,212.545 222.834,211.812 222.971 C 211.080 223.109,210.270 223.475,210.013 223.785 C 209.755 224.095,209.019 224.464,208.377 224.605 C 207.735 224.746,207.097 225.043,206.961 225.264 C 206.824 225.485,205.967 226.012,205.056 226.435 C 204.145 226.858,202.860 227.558,202.200 227.990 C 201.540 228.422,200.460 229.076,199.800 229.442 C 199.140 229.809,198.456 230.354,198.280 230.654 C 198.104 230.954,197.728 231.200,197.443 231.200 C 197.159 231.200,196.493 231.568,195.963 232.017 C 195.434 232.467,193.835 233.741,192.411 234.848 C 190.986 235.955,189.223 237.478,188.491 238.231 C 187.760 238.984,187.002 239.600,186.808 239.600 C 186.613 239.600,186.340 239.960,186.200 240.400 C 186.060 240.840,185.700 241.200,185.400 241.200 C 185.100 241.200,184.748 241.533,184.619 241.939 C 184.490 242.346,183.983 242.895,183.492 243.159 C 183.002 243.423,181.880 244.076,181.000 244.610 C 177.998 246.432,177.521 246.539,172.316 246.556 C 167.781 246.572,167.110 246.484,166.108 245.743 C 165.490 245.286,164.606 244.792,164.144 244.646 C 162.901 244.251,159.752 240.888,158.284 238.387 C 156.549 235.431,156.300 226.270,157.900 224.236 C 158.395 223.607,158.800 222.859,158.800 222.575 C 158.800 222.120,165.530 215.148,168.042 213.000 C 168.957 212.218,175.014 207.418,176.600 206.218 C 177.040 205.886,177.878 205.250,178.463 204.807 C 179.048 204.363,179.689 204.000,179.888 204.000 C 180.086 204.000,180.682 203.595,181.210 203.100 C 182.275 202.103,183.191 201.512,185.032 200.634 C 185.709 200.311,186.496 199.766,186.781 199.423 C 187.065 199.080,187.608 198.800,187.987 198.800 C 188.366 198.800,188.993 198.450,189.379 198.023 C 189.766 197.595,190.592 197.134,191.214 196.997 C 191.836 196.860,192.559 196.490,192.821 196.174 C 193.083 195.858,193.612 195.600,193.995 195.600 C 194.378 195.600,195.136 195.251,195.678 194.825 C 196.220 194.398,197.189 193.924,197.832 193.771 C 198.474 193.618,199.270 193.261,199.600 192.977 C 199.930 192.694,200.740 192.331,201.400 192.170 C 202.060 192.009,203.227 191.545,203.994 191.139 C 204.761 190.732,205.841 190.399,206.394 190.397 C 206.947 190.396,207.940 190.037,208.600 189.600 C 209.260 189.163,210.347 188.804,211.015 188.803 C 211.684 188.801,212.895 188.461,213.707 188.048 C 214.519 187.634,216.393 187.165,217.872 187.007 C 219.351 186.849,221.020 186.526,221.580 186.290 C 224.407 185.099,238.642 184.527,247.779 185.236 " stroke="none" fill="#6c6444" fill-rule="evenodd"></path><path id="path3" d="M158.021 116.974 C 157.759 117.290,157.036 117.660,156.414 117.797 C 155.792 117.934,154.966 118.395,154.579 118.823 C 154.193 119.250,153.700 119.600,153.485 119.600 C 153.271 119.600,152.308 120.386,151.347 121.347 C 150.386 122.308,149.600 123.271,149.600 123.485 C 149.600 123.700,149.258 124.186,148.840 124.564 C 148.421 124.943,147.967 125.852,147.829 126.586 C 147.691 127.319,147.314 128.140,146.989 128.409 C 146.147 129.108,146.134 138.081,146.974 138.779 C 147.290 139.041,147.670 139.828,147.817 140.528 C 148.296 142.792,151.548 147.200,152.740 147.200 C 152.993 147.200,153.200 147.389,153.200 147.620 C 153.200 147.852,153.785 148.306,154.500 148.629 C 155.215 148.953,156.610 149.813,157.600 150.541 C 158.590 151.269,159.940 151.999,160.600 152.163 C 161.260 152.328,162.093 152.726,162.450 153.048 C 162.808 153.371,163.798 153.746,164.650 153.883 C 165.503 154.021,166.380 154.377,166.601 154.675 C 166.821 154.973,167.939 155.365,169.085 155.546 C 170.231 155.727,171.464 156.121,171.825 156.421 C 172.239 156.764,173.873 157.027,176.232 157.131 C 178.765 157.241,180.129 157.474,180.439 157.847 C 181.094 158.636,189.404 158.598,190.800 157.800 C 191.377 157.470,192.907 157.222,194.415 157.214 C 196.219 157.204,197.518 156.952,198.600 156.400 C 199.463 155.960,200.647 155.600,201.231 155.600 C 201.814 155.600,202.750 155.240,203.309 154.800 C 203.869 154.360,204.703 154.000,205.163 154.000 C 205.623 154.000,206.342 153.658,206.759 153.241 C 207.177 152.823,208.078 152.358,208.763 152.208 C 209.447 152.058,210.191 151.590,210.417 151.167 C 210.643 150.745,211.182 150.400,211.614 150.400 C 212.046 150.400,212.400 150.259,212.400 150.086 C 212.400 149.914,212.959 149.442,213.643 149.038 C 216.550 147.321,220.080 143.167,220.584 140.871 C 220.731 140.202,221.110 139.441,221.426 139.179 C 222.243 138.500,222.257 129.112,221.442 128.435 C 221.135 128.180,220.759 127.309,220.608 126.499 C 220.456 125.690,219.987 124.786,219.566 124.491 C 219.145 124.196,218.800 123.774,218.800 123.554 C 218.800 122.973,215.556 119.600,214.997 119.600 C 214.737 119.600,214.213 119.256,213.833 118.836 C 213.452 118.416,212.683 117.957,212.122 117.816 C 211.562 117.676,210.842 117.299,210.523 116.980 C 209.521 115.978,199.602 116.158,198.400 117.200 C 197.893 117.640,197.083 118.000,196.601 118.000 C 196.119 118.000,195.398 118.360,195.000 118.800 C 194.602 119.240,194.046 119.600,193.765 119.600 C 193.484 119.600,193.140 119.960,193.000 120.400 C 192.838 120.911,192.395 121.200,191.773 121.200 C 191.238 121.200,190.440 121.560,190.000 122.000 C 188.929 123.071,181.388 123.211,180.630 122.173 C 180.378 121.829,179.421 121.446,178.502 121.323 C 177.584 121.200,176.527 120.762,176.154 120.350 C 175.781 119.937,175.184 119.600,174.827 119.600 C 174.470 119.600,173.870 119.240,173.493 118.800 C 173.116 118.360,172.429 118.000,171.967 118.000 C 171.505 118.000,170.669 117.640,170.109 117.200 C 168.790 116.163,158.849 115.977,158.021 116.974 M264.456 117.213 C 263.936 117.646,263.141 118.000,262.689 118.000 C 261.757 118.000,261.471 118.222,258.335 121.385 C 255.065 124.682,254.766 125.101,254.504 126.730 C 254.374 127.539,253.987 128.407,253.646 128.659 C 252.692 129.363,252.746 137.636,253.712 138.703 C 254.090 139.121,254.403 139.899,254.407 140.431 C 254.421 142.239,259.970 148.800,261.485 148.800 C 261.768 148.800,262.319 149.115,262.709 149.500 C 263.422 150.203,267.531 152.400,268.134 152.400 C 268.312 152.400,268.720 152.663,269.041 152.984 C 269.363 153.306,270.295 153.692,271.113 153.842 C 271.931 153.993,273.029 154.450,273.554 154.858 C 274.123 155.301,275.159 155.600,276.122 155.600 C 277.087 155.600,278.043 155.877,278.497 156.287 C 279.056 156.794,280.245 157.031,283.009 157.187 C 285.206 157.312,286.968 157.607,287.261 157.900 C 288.012 158.652,295.971 158.576,297.454 157.802 C 298.127 157.452,299.677 157.204,301.206 157.202 C 303.044 157.201,304.252 156.964,305.304 156.400 C 306.125 155.960,307.338 155.600,307.999 155.600 C 308.659 155.600,309.535 155.265,309.945 154.855 C 310.355 154.445,311.355 153.985,312.166 153.833 C 312.978 153.680,313.738 153.307,313.854 153.002 C 313.971 152.698,314.573 152.338,315.192 152.202 C 315.811 152.066,316.634 151.605,317.021 151.177 C 317.407 150.750,317.867 150.400,318.042 150.400 C 318.589 150.400,322.000 147.963,322.000 147.572 C 322.000 147.367,322.198 147.200,322.440 147.200 C 323.340 147.200,327.197 142.323,327.203 141.178 C 327.204 140.860,327.563 140.060,328.000 139.400 C 328.677 138.377,328.795 137.521,328.795 133.600 C 328.795 129.679,328.677 128.823,328.000 127.800 C 327.563 127.140,327.204 126.287,327.203 125.903 C 327.201 125.520,326.840 124.982,326.400 124.707 C 325.960 124.432,325.600 123.915,325.600 123.559 C 325.600 122.507,320.389 118.000,319.173 118.000 C 318.807 118.000,318.050 117.640,317.491 117.200 C 316.588 116.490,315.868 116.400,311.099 116.400 C 306.232 116.400,305.656 116.476,305.000 117.200 C 304.602 117.640,303.968 118.000,303.592 118.000 C 303.216 118.000,302.450 118.360,301.891 118.800 C 301.331 119.240,300.684 119.600,300.451 119.600 C 300.218 119.600,299.835 119.960,299.600 120.400 C 299.365 120.840,298.818 121.200,298.386 121.200 C 297.954 121.200,297.240 121.560,296.800 122.000 C 296.106 122.694,295.467 122.800,291.963 122.800 C 288.532 122.800,287.774 122.680,286.909 122.000 C 286.350 121.560,285.404 121.200,284.808 121.200 C 284.212 121.200,283.398 120.840,283.000 120.400 C 282.602 119.960,281.972 119.600,281.600 119.600 C 281.228 119.600,280.598 119.240,280.200 118.800 C 279.802 118.360,278.992 118.000,278.400 118.000 C 277.808 118.000,276.998 117.640,276.600 117.200 C 275.517 116.004,265.895 116.014,264.456 117.213 M169.969 117.851 C 171.416 118.430,173.337 119.409,174.239 120.028 C 175.140 120.647,176.400 121.282,177.039 121.438 C 177.677 121.595,178.827 122.055,179.594 122.461 C 180.686 123.040,181.871 123.200,185.068 123.200 C 189.932 123.200,189.992 123.179,194.977 119.700 C 196.002 118.985,197.018 118.400,197.236 118.400 C 197.454 118.400,198.338 118.040,199.200 117.600 C 201.564 116.394,207.377 116.469,210.511 117.745 C 222.141 122.483,225.339 137.496,216.507 145.897 C 214.502 147.804,209.306 151.388,207.913 151.824 C 207.411 151.981,206.571 152.445,206.046 152.855 C 205.521 153.265,204.851 153.600,204.557 153.600 C 204.262 153.600,203.252 153.951,202.311 154.381 C 195.388 157.539,180.280 158.193,172.000 155.692 C 165.710 153.793,163.865 153.134,163.169 152.539 C 162.821 152.243,162.280 152.000,161.965 152.000 C 161.276 152.000,157.680 150.148,156.697 149.287 C 156.311 148.948,155.666 148.475,155.265 148.236 C 152.784 146.754,151.736 145.831,150.193 143.768 C 149.241 142.495,148.351 140.864,148.216 140.144 C 148.081 139.423,147.708 138.331,147.388 137.717 C 144.596 132.365,150.842 119.673,157.007 118.171 C 157.663 118.011,158.555 117.637,158.989 117.340 C 160.467 116.328,166.906 116.628,169.969 117.851 M275.944 117.609 C 276.903 118.044,277.840 118.400,278.028 118.400 C 278.215 118.400,279.500 119.118,280.884 119.996 C 282.268 120.874,283.673 121.594,284.006 121.596 C 284.339 121.598,285.284 121.960,286.104 122.400 C 287.327 123.055,288.361 123.200,291.827 123.200 C 296.430 123.200,296.944 123.019,301.696 119.717 C 302.739 118.993,303.729 118.394,303.896 118.386 C 304.063 118.379,304.920 118.025,305.800 117.600 C 307.801 116.634,314.925 116.458,316.211 117.343 C 316.645 117.642,317.630 118.093,318.400 118.346 C 321.005 119.203,326.793 124.869,326.802 126.572 C 326.804 126.808,327.109 127.540,327.481 128.200 C 329.743 132.217,327.636 141.390,323.483 145.600 C 321.372 147.741,316.082 151.464,314.636 151.827 C 314.084 151.965,313.423 152.331,313.167 152.639 C 312.911 152.948,312.522 153.200,312.301 153.200 C 312.080 153.200,310.888 153.627,309.650 154.150 C 303.348 156.810,302.152 157.003,292.200 156.968 C 286.734 156.949,282.351 156.754,281.400 156.488 C 274.514 154.560,269.023 152.561,266.800 151.173 C 266.470 150.967,265.840 150.640,265.400 150.446 C 263.915 149.793,259.006 146.364,258.287 145.479 C 256.777 143.616,254.800 140.492,254.794 139.959 C 254.791 139.651,254.529 138.680,254.212 137.800 C 252.512 133.083,254.383 126.021,258.398 121.994 C 260.240 120.146,262.612 118.400,263.280 118.400 C 263.573 118.400,264.440 118.050,265.206 117.623 C 267.220 116.500,273.482 116.492,275.944 117.609 M385.714 151.000 C 385.717 152.100,385.795 152.503,385.887 151.895 C 385.979 151.286,385.977 150.386,385.882 149.895 C 385.787 149.403,385.711 149.900,385.714 151.000 M227.123 183.734 C 226.786 184.071,225.064 184.361,222.446 184.520 C 219.838 184.679,217.965 184.993,217.395 185.367 C 216.896 185.693,215.523 186.086,214.344 186.240 C 213.165 186.393,211.573 186.852,210.806 187.260 C 210.039 187.667,209.004 188.000,208.504 188.000 C 208.005 188.000,206.925 188.360,206.104 188.800 C 205.284 189.240,204.142 189.600,203.568 189.600 C 202.994 189.600,202.198 189.960,201.800 190.400 C 201.399 190.843,200.568 191.200,199.938 191.200 C 199.312 191.200,198.440 191.560,198.000 192.000 C 197.560 192.440,196.864 192.800,196.454 192.800 C 196.044 192.800,195.279 193.137,194.754 193.548 C 194.229 193.959,193.230 194.420,192.533 194.572 C 191.837 194.724,191.174 195.091,191.060 195.387 C 190.947 195.683,190.290 196.049,189.600 196.200 C 188.910 196.351,188.250 196.727,188.132 197.033 C 188.014 197.340,187.216 197.780,186.359 198.011 C 185.501 198.242,184.800 198.610,184.800 198.828 C 184.800 199.047,184.485 199.355,184.100 199.513 C 182.650 200.108,179.600 202.090,179.600 202.438 C 179.600 202.637,179.400 202.800,179.156 202.800 C 178.476 202.800,174.873 205.233,174.635 205.853 C 174.520 206.154,174.156 206.400,173.827 206.400 C 173.497 206.400,173.035 206.760,172.800 207.200 C 172.565 207.640,172.153 208.002,171.886 208.004 C 171.469 208.007,170.408 208.839,166.280 212.400 C 164.501 213.934,162.800 215.714,162.800 216.040 C 162.800 216.238,162.542 216.400,162.227 216.400 C 161.912 216.400,161.540 216.760,161.400 217.200 C 161.260 217.640,160.987 218.000,160.793 218.000 C 160.141 218.000,158.025 220.577,157.787 221.660 C 157.657 222.250,157.302 222.829,156.998 222.946 C 156.693 223.062,156.319 223.842,156.165 224.679 C 156.012 225.516,155.642 226.555,155.343 226.989 C 154.580 228.098,154.597 234.133,155.365 234.771 C 155.676 235.029,156.051 236.117,156.198 237.188 C 156.355 238.325,156.786 239.425,157.233 239.830 C 157.655 240.212,158.000 240.684,158.000 240.879 C 158.000 241.269,162.254 245.600,162.637 245.600 C 162.767 245.600,163.331 245.960,163.891 246.400 C 164.450 246.840,165.267 247.200,165.707 247.200 C 166.146 247.200,167.116 247.577,167.862 248.038 C 169.651 249.144,176.221 249.050,177.490 247.900 C 177.915 247.515,178.720 247.200,179.278 247.200 C 179.836 247.200,180.750 246.840,181.309 246.400 C 181.869 245.960,182.490 245.600,182.691 245.600 C 182.892 245.600,183.447 245.150,183.925 244.600 C 184.403 244.050,184.976 243.600,185.197 243.600 C 185.419 243.600,185.600 243.342,185.600 243.027 C 185.600 242.712,185.960 242.340,186.400 242.200 C 186.840 242.060,187.200 241.688,187.200 241.373 C 187.200 241.058,187.366 240.800,187.568 240.800 C 187.771 240.800,188.747 239.990,189.737 239.000 C 190.727 238.010,191.661 237.200,191.813 237.200 C 192.122 237.200,195.871 234.220,196.800 233.236 C 197.130 232.886,198.030 232.286,198.800 231.902 C 200.561 231.025,201.531 230.389,202.465 229.500 C 202.869 229.115,203.463 228.800,203.784 228.800 C 204.106 228.800,204.691 228.461,205.084 228.047 C 205.478 227.632,206.370 227.171,207.067 227.022 C 207.763 226.873,208.433 226.492,208.554 226.176 C 208.676 225.859,209.224 225.600,209.772 225.600 C 210.320 225.600,211.091 225.273,211.484 224.873 C 211.878 224.473,212.965 223.925,213.900 223.657 C 214.835 223.388,215.600 223.001,215.600 222.798 C 215.600 222.594,216.512 222.307,217.626 222.159 C 218.741 222.011,219.895 221.648,220.190 221.353 C 220.486 221.057,221.779 220.701,223.064 220.561 C 224.349 220.420,225.850 220.012,226.400 219.653 C 228.056 218.572,247.487 218.453,249.530 219.512 C 250.338 219.931,252.073 220.398,253.385 220.550 C 254.696 220.702,255.889 221.020,256.034 221.256 C 256.180 221.492,257.163 221.846,258.219 222.043 C 259.275 222.240,260.435 222.669,260.796 222.996 C 261.157 223.323,262.016 223.703,262.706 223.841 C 263.395 223.979,264.266 224.431,264.642 224.846 C 265.017 225.261,265.632 225.600,266.008 225.600 C 266.384 225.600,267.150 225.960,267.709 226.400 C 268.269 226.840,268.849 227.200,269.000 227.200 C 269.151 227.200,269.731 227.560,270.291 228.000 C 270.850 228.440,271.649 228.800,272.066 228.800 C 272.484 228.800,272.920 229.046,273.035 229.347 C 273.151 229.648,274.180 230.490,275.323 231.217 C 276.465 231.945,277.670 232.785,278.000 233.084 C 278.330 233.383,279.500 234.297,280.600 235.114 C 281.700 235.931,283.077 237.095,283.660 237.700 C 284.244 238.305,284.853 238.800,285.014 238.800 C 285.176 238.800,286.368 239.880,287.663 241.200 C 288.959 242.520,290.191 243.600,290.400 243.600 C 290.610 243.600,291.076 244.050,291.437 244.600 C 291.797 245.150,292.268 245.600,292.483 245.600 C 292.698 245.600,293.331 245.960,293.891 246.400 C 294.450 246.840,295.267 247.200,295.707 247.200 C 296.146 247.200,297.116 247.577,297.862 248.038 C 299.651 249.144,306.221 249.050,307.490 247.900 C 307.915 247.515,308.720 247.200,309.278 247.200 C 309.836 247.200,310.750 246.840,311.309 246.400 C 311.869 245.960,312.490 245.600,312.691 245.600 C 312.892 245.600,313.447 245.150,313.925 244.600 C 314.403 244.050,314.976 243.600,315.197 243.600 C 315.419 243.600,315.600 243.373,315.600 243.096 C 315.600 242.819,315.960 242.368,316.400 242.093 C 316.840 241.818,317.200 241.398,317.200 241.160 C 317.200 240.921,317.560 240.269,318.000 239.709 C 318.440 239.150,318.801 238.311,318.803 237.846 C 318.804 237.381,319.163 236.460,319.600 235.800 C 320.639 234.231,320.785 227.218,319.796 226.397 C 319.464 226.122,319.077 225.172,318.936 224.287 C 318.794 223.402,318.346 222.346,317.939 221.939 C 317.533 221.533,317.200 221.070,317.200 220.911 C 317.200 220.458,306.331 210.010,305.100 209.280 C 304.495 208.921,304.000 208.486,304.000 208.314 C 304.000 208.141,303.732 208.000,303.403 208.000 C 303.075 208.000,302.582 207.640,302.307 207.200 C 302.032 206.760,301.575 206.400,301.291 206.400 C 301.007 206.400,300.680 206.154,300.565 205.853 C 300.327 205.233,296.724 202.800,296.044 202.800 C 295.800 202.800,295.600 202.533,295.600 202.208 C 295.600 201.882,295.150 201.502,294.600 201.364 C 294.050 201.226,293.600 200.944,293.600 200.736 C 293.600 200.529,292.982 200.101,292.227 199.786 C 291.472 199.470,290.740 199.027,290.600 198.800 C 290.460 198.573,289.773 198.124,289.073 197.802 C 287.788 197.210,287.356 196.960,284.778 195.310 C 283.997 194.809,283.046 194.400,282.666 194.400 C 282.286 194.400,281.873 194.135,281.749 193.811 C 281.624 193.487,280.896 193.104,280.129 192.960 C 279.363 192.817,278.643 192.457,278.529 192.160 C 278.416 191.864,277.665 191.510,276.861 191.373 C 276.058 191.237,274.912 190.782,274.316 190.363 C 273.720 189.943,272.758 189.600,272.179 189.600 C 271.600 189.600,270.669 189.240,270.109 188.800 C 269.550 188.360,268.553 188.000,267.893 188.000 C 267.234 188.000,266.133 187.661,265.447 187.246 C 264.761 186.831,263.120 186.365,261.800 186.209 C 260.480 186.054,259.098 185.657,258.729 185.327 C 258.270 184.917,256.782 184.657,254.029 184.506 C 251.362 184.359,249.850 184.101,249.552 183.742 C 248.899 182.955,227.910 182.947,227.123 183.734 M246.129 183.973 C 246.668 184.178,249.065 184.529,251.455 184.753 C 253.845 184.977,256.550 185.426,257.467 185.751 C 258.383 186.075,260.003 186.464,261.067 186.614 C 262.130 186.764,263.362 187.113,263.804 187.390 C 264.246 187.666,265.510 188.086,266.612 188.322 C 267.714 188.559,269.153 189.032,269.808 189.374 C 270.464 189.715,271.226 189.996,271.501 189.998 C 271.777 189.999,272.675 190.360,273.496 190.800 C 274.316 191.240,275.206 191.600,275.473 191.600 C 275.740 191.600,276.752 192.022,277.723 192.539 C 278.695 193.055,279.829 193.592,280.245 193.732 C 281.332 194.099,286.275 196.915,286.863 197.503 C 287.136 197.776,287.519 198.000,287.713 198.000 C 288.168 198.000,293.630 201.383,296.111 203.200 C 309.641 213.115,317.137 220.533,318.744 225.600 C 321.564 234.488,315.983 245.491,307.883 247.011 C 307.063 247.165,306.293 247.450,306.172 247.645 C 305.886 248.108,299.314 248.108,299.028 247.645 C 298.907 247.450,298.132 247.165,297.304 247.012 C 294.768 246.542,292.129 244.638,286.200 239.003 C 283.837 236.757,277.349 231.580,275.168 230.200 C 274.277 229.637,271.914 228.096,271.200 227.614 C 270.606 227.212,267.904 225.778,265.200 224.429 C 259.924 221.795,257.975 221.050,254.076 220.171 C 252.687 219.858,251.199 219.414,250.769 219.184 C 248.619 218.033,231.398 217.737,227.200 218.778 C 221.625 220.161,216.541 221.743,214.200 222.821 C 213.320 223.226,212.330 223.655,212.000 223.774 C 206.216 225.852,194.107 234.012,187.639 240.190 C 185.790 241.955,183.987 243.674,183.631 244.008 C 182.427 245.140,179.384 246.729,177.883 247.011 C 177.063 247.165,176.293 247.450,176.172 247.645 C 176.051 247.840,174.444 248.000,172.600 248.000 C 170.756 248.000,169.149 247.840,169.028 247.645 C 168.907 247.450,168.137 247.165,167.317 247.011 C 162.985 246.198,157.380 240.509,156.382 235.912 C 155.340 231.108,155.837 225.020,157.400 223.458 C 157.672 223.185,158.029 222.538,158.194 222.019 C 158.641 220.610,164.461 214.735,169.000 211.111 C 171.200 209.354,173.180 207.708,173.400 207.453 C 173.820 206.966,174.736 206.308,178.208 204.000 C 179.366 203.230,181.637 201.720,183.254 200.645 C 184.871 199.570,186.690 198.518,187.297 198.306 C 187.904 198.095,188.400 197.779,188.400 197.604 C 188.400 197.430,189.075 196.990,189.900 196.627 C 190.725 196.264,191.850 195.717,192.400 195.411 C 195.116 193.903,200.173 191.600,200.768 191.600 C 201.138 191.600,201.627 191.413,201.856 191.184 C 202.340 190.700,206.899 188.998,209.800 188.219 C 210.900 187.923,212.340 187.490,213.000 187.256 C 215.555 186.351,223.163 184.852,226.507 184.596 C 228.436 184.448,230.506 184.179,231.107 183.998 C 232.631 183.539,244.933 183.518,246.129 183.973 M385.714 191.000 C 385.717 192.100,385.795 192.503,385.887 191.895 C 385.979 191.286,385.977 190.386,385.882 189.895 C 385.787 189.403,385.711 189.900,385.714 191.000 " stroke="none" fill="#90854c" fill-rule="evenodd"></path><path id="path4" d="M158.976 117.430 C 158.549 117.776,158.439 117.937,158.731 117.787 C 159.024 117.637,159.744 117.369,160.331 117.191 C 161.189 116.933,161.237 116.862,160.576 116.834 C 160.124 116.815,159.404 117.083,158.976 117.430 M167.800 117.412 C 169.804 118.134,170.078 118.130,168.800 117.400 C 168.250 117.086,167.440 116.830,167.000 116.832 C 166.560 116.834,166.920 117.095,167.800 117.412 M199.200 117.641 C 197.817 118.439,198.063 118.397,200.800 117.364 C 201.672 117.034,201.898 116.835,201.400 116.834 C 200.960 116.834,199.970 117.197,199.200 117.641 M208.600 117.444 C 211.188 118.428,211.936 118.524,210.056 117.629 C 209.097 117.173,208.017 116.808,207.656 116.818 C 207.295 116.827,207.720 117.109,208.600 117.444 M265.776 117.430 C 265.349 117.776,265.254 117.927,265.565 117.766 C 265.876 117.604,266.686 117.339,267.365 117.177 C 268.500 116.906,268.518 116.879,267.576 116.841 C 267.014 116.818,266.204 117.083,265.776 117.430 M314.600 117.085 C 315.040 117.191,315.571 117.440,315.780 117.639 C 315.989 117.837,316.349 117.994,316.580 117.987 C 316.811 117.980,316.651 117.710,316.224 117.387 C 315.796 117.064,315.076 116.821,314.624 116.846 C 313.820 116.892,313.820 116.897,314.600 117.085 M275.600 117.800 C 276.150 118.114,276.780 118.372,277.000 118.372 C 277.220 118.372,276.950 118.114,276.400 117.800 C 275.850 117.486,275.220 117.228,275.000 117.228 C 274.780 117.228,275.050 117.486,275.600 117.800 M154.000 120.034 L 152.200 121.665 154.200 120.147 C 155.300 119.311,156.275 118.577,156.367 118.514 C 156.458 118.451,156.368 118.400,156.167 118.401 C 155.965 118.402,154.990 119.136,154.000 120.034 M171.233 118.531 C 171.913 119.063,174.400 120.425,174.400 120.265 C 174.400 120.006,171.805 118.400,171.386 118.400 C 171.210 118.400,171.142 118.459,171.233 118.531 M212.033 118.514 C 212.125 118.577,213.100 119.311,214.200 120.147 L 216.200 121.665 214.400 120.034 C 213.410 119.136,212.435 118.402,212.233 118.401 C 212.032 118.400,211.942 118.451,212.033 118.514 M278.400 118.820 C 279.787 119.761,280.578 120.035,279.600 119.236 C 279.050 118.786,278.420 118.417,278.200 118.415 C 277.980 118.413,278.070 118.596,278.400 118.820 M193.722 120.629 L 192.600 121.658 193.900 120.754 C 194.615 120.257,195.200 119.793,195.200 119.725 C 195.200 119.409,194.758 119.680,193.722 120.629 M324.056 123.018 C 324.774 124.018,325.630 125.053,325.959 125.318 C 326.287 125.583,325.779 124.765,324.830 123.500 C 322.787 120.778,322.172 120.395,324.056 123.018 M177.600 121.886 C 177.930 122.008,178.560 122.274,179.000 122.476 C 179.787 122.838,179.788 122.834,179.024 122.222 C 178.596 121.880,177.966 121.614,177.624 121.632 C 177.085 121.659,177.082 121.693,177.600 121.886 M183.300 123.494 C 184.345 123.576,186.055 123.576,187.100 123.494 C 188.145 123.412,187.290 123.344,185.200 123.344 C 183.110 123.344,182.255 123.412,183.300 123.494 M290.100 123.494 C 291.145 123.576,292.855 123.576,293.900 123.494 C 294.945 123.412,294.090 123.344,292.000 123.344 C 289.910 123.344,289.055 123.412,290.100 123.494 M218.002 123.622 C 218.001 123.745,218.450 124.455,219.000 125.200 C 219.550 125.945,219.994 126.385,219.986 126.178 C 219.970 125.776,218.005 123.245,218.002 123.622 M149.014 125.435 C 148.641 126.004,148.405 126.538,148.489 126.622 C 148.573 126.707,148.958 126.241,149.344 125.588 C 150.206 124.128,149.948 124.009,149.014 125.435 M255.188 126.422 C 254.946 126.874,254.807 127.422,254.880 127.639 C 254.952 127.857,255.218 127.487,255.471 126.817 C 255.997 125.425,255.839 125.205,255.188 126.422 M326.817 127.600 C 326.831 128.317,327.965 130.400,327.986 129.746 C 327.994 129.496,327.731 128.776,327.402 128.146 C 327.074 127.516,326.810 127.270,326.817 127.600 M220.439 128.400 C 220.424 128.510,220.667 129.410,220.979 130.400 C 221.291 131.390,221.550 131.840,221.555 131.400 C 221.563 130.703,220.508 127.871,220.439 128.400 M254.039 129.660 C 253.798 130.353,253.621 131.388,253.646 131.960 C 253.684 132.816,253.742 132.752,253.977 131.600 C 254.133 130.830,254.395 129.795,254.558 129.300 C 254.721 128.805,254.769 128.400,254.666 128.400 C 254.563 128.400,254.281 128.967,254.039 129.660 M147.246 130.039 C 147.001 130.743,146.813 131.518,146.828 131.760 C 146.844 132.002,147.114 131.496,147.430 130.635 C 147.745 129.774,147.933 129.000,147.848 128.915 C 147.762 128.829,147.492 129.335,147.246 130.039 M328.067 133.600 C 328.010 135.647,327.744 137.398,327.400 138.000 C 327.086 138.550,326.826 139.270,326.823 139.600 C 326.820 139.930,327.180 139.400,327.624 138.423 C 328.269 137.002,328.403 136.001,328.296 133.423 L 328.163 130.200 328.067 133.600 M146.998 136.165 C 147.093 137.026,147.362 137.922,147.596 138.156 C 147.897 138.457,147.908 138.232,147.634 137.391 C 147.421 136.736,147.152 135.840,147.036 135.400 C 146.920 134.960,146.903 135.304,146.998 136.165 M253.638 135.200 C 253.595 135.969,254.410 138.924,254.610 138.724 C 254.693 138.640,254.516 137.679,254.216 136.586 C 253.917 135.494,253.656 134.870,253.638 135.200 M221.142 136.600 C 221.016 137.260,220.786 138.160,220.631 138.600 C 220.476 139.040,220.642 138.895,220.999 138.277 C 221.357 137.659,221.587 136.759,221.510 136.277 C 221.393 135.547,221.332 135.601,221.142 136.600 M148.400 140.961 C 148.400 141.378,150.723 144.705,151.234 145.021 C 151.558 145.221,150.065 142.915,148.523 140.833 C 148.456 140.742,148.400 140.799,148.400 140.961 M218.796 142.504 C 218.276 143.437,217.569 144.425,217.225 144.701 C 216.669 145.147,216.676 145.176,217.287 144.963 C 217.924 144.742,220.178 141.245,219.877 140.944 C 219.803 140.870,219.317 141.572,218.796 142.504 M324.226 144.300 C 323.362 145.405,323.293 145.590,323.963 145.004 C 324.765 144.304,325.823 142.800,325.514 142.800 C 325.451 142.800,324.872 143.475,324.226 144.300 M214.967 147.029 L 213.400 148.458 215.100 147.162 C 216.653 145.978,217.032 145.600,216.667 145.600 C 216.593 145.600,215.828 146.243,214.967 147.029 M317.726 149.698 C 316.365 150.626,315.310 151.444,315.381 151.515 C 315.522 151.656,320.400 148.380,320.400 148.144 C 320.400 147.890,320.244 147.981,317.726 149.698 M156.345 148.887 C 156.896 149.599,160.418 151.715,160.656 151.477 C 160.730 151.403,160.028 150.924,159.096 150.412 C 158.163 149.900,157.043 149.193,156.607 148.841 C 155.868 148.244,155.850 148.247,156.345 148.887 M263.600 149.400 C 264.345 149.950,265.126 150.400,265.334 150.400 C 265.541 150.400,265.049 149.950,264.238 149.400 C 263.428 148.850,262.647 148.400,262.505 148.400 C 262.362 148.400,262.855 148.850,263.600 149.400 M167.200 154.200 C 167.750 154.514,168.380 154.772,168.600 154.772 C 168.820 154.772,168.550 154.514,168.000 154.200 C 167.450 153.886,166.820 153.628,166.600 153.628 C 166.380 153.628,166.650 153.886,167.200 154.200 M173.000 156.000 C 173.440 156.189,174.070 156.344,174.400 156.344 C 174.778 156.344,174.704 156.217,174.200 156.000 C 173.760 155.811,173.130 155.656,172.800 155.656 C 172.422 155.656,172.496 155.783,173.000 156.000 M175.905 156.683 C 176.402 156.779,177.122 156.775,177.505 156.675 C 177.887 156.575,177.480 156.496,176.600 156.501 C 175.720 156.505,175.407 156.587,175.905 156.683 M282.500 156.676 C 282.885 156.776,283.515 156.776,283.900 156.676 C 284.285 156.575,283.970 156.493,283.200 156.493 C 282.430 156.493,282.115 156.575,282.500 156.676 M300.500 156.676 C 300.885 156.776,301.515 156.776,301.900 156.676 C 302.285 156.575,301.970 156.493,301.200 156.493 C 300.430 156.493,300.115 156.575,300.500 156.676 M231.274 183.940 C 230.765 184.083,234.042 184.200,238.558 184.200 C 243.073 184.200,246.459 184.078,246.084 183.928 C 245.215 183.583,232.510 183.593,231.274 183.940 M227.505 184.683 C 228.002 184.779,228.722 184.775,229.105 184.675 C 229.487 184.575,229.080 184.496,228.200 184.501 C 227.320 184.505,227.007 184.587,227.505 184.683 M247.700 184.676 C 248.085 184.776,248.715 184.776,249.100 184.676 C 249.485 184.575,249.170 184.493,248.400 184.493 C 247.630 184.493,247.315 184.575,247.700 184.676 M223.305 185.087 C 223.914 185.179,224.814 185.177,225.305 185.082 C 225.797 184.987,225.300 184.911,224.200 184.914 C 223.100 184.917,222.697 184.995,223.305 185.087 M251.705 185.087 C 252.314 185.179,253.214 185.177,253.705 185.082 C 254.197 184.987,253.700 184.911,252.600 184.914 C 251.500 184.917,251.097 184.995,251.705 185.087 M219.000 185.789 C 216.852 186.497,217.697 186.524,220.200 185.828 C 221.300 185.522,221.840 185.269,221.400 185.267 C 220.960 185.264,219.880 185.499,219.000 185.789 M255.600 185.600 C 256.968 186.038,258.019 186.038,257.000 185.600 C 256.560 185.411,255.840 185.262,255.400 185.268 C 254.757 185.277,254.796 185.343,255.600 185.600 M212.400 187.400 C 211.067 188.162,211.994 188.164,213.454 187.402 C 214.084 187.074,214.330 186.810,214.000 186.817 C 213.670 186.823,212.950 187.086,212.400 187.400 M262.400 187.086 C 262.730 187.208,263.360 187.474,263.800 187.676 C 264.587 188.038,264.588 188.034,263.824 187.422 C 263.396 187.080,262.766 186.814,262.424 186.832 C 261.885 186.859,261.882 186.893,262.400 187.086 M206.600 189.222 C 205.720 189.638,205.205 189.984,205.456 189.990 C 205.707 189.995,206.697 189.644,207.656 189.209 C 208.615 188.774,209.130 188.428,208.800 188.441 C 208.470 188.454,207.480 188.805,206.600 189.222 M202.700 190.629 C 202.095 190.957,201.600 191.314,201.600 191.423 C 201.600 191.532,202.095 191.371,202.700 191.065 C 203.305 190.760,204.070 190.409,204.400 190.286 C 204.933 190.088,204.933 190.061,204.400 190.048 C 204.070 190.039,203.305 190.301,202.700 190.629 M198.600 192.400 C 197.061 193.419,197.401 193.419,199.400 192.400 C 200.263 191.960,200.706 191.601,200.385 191.603 C 200.063 191.604,199.260 191.963,198.600 192.400 M191.944 195.624 L 191.000 196.447 192.200 195.745 C 193.779 194.820,193.803 194.800,193.311 194.800 C 193.079 194.800,192.464 195.171,191.944 195.624 M283.944 195.976 C 284.464 196.429,285.079 196.800,285.311 196.800 C 285.803 196.800,285.779 196.780,284.200 195.855 L 283.000 195.153 283.944 195.976 M287.633 198.131 C 288.313 198.663,290.800 200.025,290.800 199.865 C 290.800 199.606,288.205 198.000,287.786 198.000 C 287.610 198.000,287.542 198.059,287.633 198.131 M292.000 200.585 C 292.000 200.672,292.849 201.316,293.886 202.016 C 294.923 202.716,295.539 203.008,295.254 202.665 C 294.733 202.037,292.000 200.290,292.000 200.585 M177.133 204.609 C 176.326 205.137,175.549 205.759,175.407 205.989 C 175.264 206.220,175.969 205.854,176.974 205.176 C 177.978 204.498,178.800 203.866,178.800 203.772 C 178.800 203.524,178.748 203.550,177.133 204.609 M303.800 209.390 C 306.763 212.011,307.600 212.667,307.600 212.367 C 307.600 212.191,306.475 211.210,305.100 210.188 C 303.725 209.165,303.140 208.806,303.800 209.390 M165.545 214.100 C 163.872 215.695,163.570 216.055,164.874 214.900 C 166.179 213.745,167.372 212.800,167.527 212.800 C 167.681 212.800,168.032 212.440,168.307 212.000 C 169.063 210.789,168.834 210.963,165.545 214.100 M311.200 215.800 C 312.395 217.010,313.463 218.000,313.573 218.000 C 313.683 218.000,312.795 217.010,311.600 215.800 C 310.405 214.590,309.337 213.600,309.227 213.600 C 309.117 213.600,310.005 214.590,311.200 215.800 M160.575 218.900 L 159.400 220.200 160.700 219.025 C 161.912 217.930,162.184 217.600,161.875 217.600 C 161.806 217.600,161.221 218.185,160.575 218.900 M236.100 217.896 C 237.365 217.975,239.435 217.975,240.700 217.896 C 241.965 217.816,240.930 217.751,238.400 217.751 C 235.870 217.751,234.835 217.816,236.100 217.896 M231.105 218.283 C 231.602 218.379,232.322 218.375,232.705 218.275 C 233.087 218.175,232.680 218.096,231.800 218.101 C 230.920 218.105,230.607 218.187,231.105 218.283 M243.905 218.283 C 244.402 218.379,245.122 218.375,245.505 218.275 C 245.887 218.175,245.480 218.096,244.600 218.101 C 243.720 218.105,243.407 218.187,243.905 218.283 M251.400 219.414 C 252.060 219.717,252.960 219.960,253.400 219.955 C 253.840 219.950,253.390 219.691,252.400 219.379 C 250.179 218.680,249.822 218.692,251.400 219.414 M261.800 222.800 C 262.460 223.237,263.180 223.595,263.400 223.596 C 263.620 223.596,263.211 223.238,262.490 222.799 C 260.792 221.763,260.236 221.764,261.800 222.800 M207.900 225.429 C 206.349 226.270,206.525 226.561,208.100 225.759 C 209.608 224.993,209.875 224.794,209.367 224.816 C 209.165 224.825,208.505 225.101,207.900 225.429 M267.800 225.790 C 268.680 226.332,269.580 226.780,269.800 226.785 C 270.020 226.791,269.480 226.352,268.600 225.810 C 267.720 225.268,266.820 224.820,266.600 224.815 C 266.380 224.809,266.920 225.248,267.800 225.790 M319.000 230.800 C 319.000 232.958,319.132 234.516,319.294 234.262 C 319.456 234.008,319.588 232.450,319.588 230.800 C 319.588 229.150,319.456 227.592,319.294 227.338 C 319.132 227.084,319.000 228.642,319.000 230.800 M276.000 230.533 C 276.000 230.643,276.720 231.303,277.600 232.000 C 278.480 232.697,279.200 233.177,279.200 233.067 C 279.200 232.957,278.480 232.297,277.600 231.600 C 276.720 230.903,276.000 230.423,276.000 230.533 M280.800 234.264 C 281.570 234.885,282.938 236.024,283.840 236.796 C 284.743 237.568,284.473 237.239,283.240 236.064 C 282.008 234.889,280.640 233.749,280.200 233.531 C 279.760 233.313,280.030 233.643,280.800 234.264 M186.589 240.900 L 183.800 243.800 186.700 241.011 C 189.394 238.420,189.783 238.000,189.489 238.000 C 189.428 238.000,188.123 239.305,186.589 240.900 M161.798 243.937 C 162.234 244.452,162.953 245.059,163.396 245.286 C 164.245 245.721,164.121 245.587,162.203 243.994 C 161.048 243.035,161.034 243.033,161.798 243.937 M291.798 243.937 C 292.234 244.452,292.953 245.059,293.396 245.286 C 294.245 245.721,294.121 245.587,292.203 243.994 C 291.048 243.035,291.034 243.033,291.798 243.937 M180.600 245.600 C 179.500 246.252,178.741 246.789,178.914 246.793 C 179.087 246.797,180.167 246.262,181.314 245.604 C 182.461 244.946,183.220 244.409,183.000 244.411 C 182.780 244.412,181.700 244.948,180.600 245.600 M311.300 245.196 C 309.494 246.297,309.663 246.566,311.500 245.514 C 313.348 244.456,313.423 244.400,312.967 244.401 C 312.765 244.402,312.015 244.760,311.300 245.196 M169.062 247.700 C 169.164 247.865,170.756 248.000,172.600 248.000 C 174.444 248.000,176.036 247.865,176.138 247.700 C 176.240 247.535,174.648 247.400,172.600 247.400 C 170.552 247.400,168.960 247.535,169.062 247.700 M299.062 247.700 C 299.164 247.865,300.756 248.000,302.600 248.000 C 304.444 248.000,306.036 247.865,306.138 247.700 C 306.240 247.535,304.648 247.400,302.600 247.400 C 300.552 247.400,298.960 247.535,299.062 247.700 " stroke="none" fill="#7c744c" fill-rule="evenodd"></path></g></svg>