<svg id="svg" version="1.1" xmlns="http://www.w3.org/2000/svg" xmlns:xlink="http://www.w3.org/1999/xlink" width="400" height="400" viewBox="0, 0, 400,400"><g id="svgg"><path id="path0" d="M132.680 20.014 C 132.489 20.746,128.921 21.101,123.700 20.907 C 123.425 20.897,123.200 21.127,123.200 21.417 C 123.200 22.092,122.343 22.337,119.600 22.447 C 116.932 22.554,116.400 22.719,116.400 23.443 C 116.400 23.749,115.995 24.026,115.500 24.057 C 111.402 24.316,110.718 24.520,111.050 25.385 C 111.239 25.878,110.953 26.000,109.605 26.000 C 108.262 26.000,107.883 26.160,107.716 26.800 C 107.543 27.461,107.170 27.600,105.577 27.600 C 104.516 27.600,103.534 27.783,103.396 28.007 C 103.258 28.230,102.979 28.311,102.777 28.186 C 102.575 28.061,102.516 28.238,102.647 28.579 C 102.839 29.080,102.560 29.200,101.205 29.200 C 99.862 29.200,99.483 29.360,99.316 30.000 C 99.157 30.606,98.770 30.800,97.716 30.800 C 96.674 30.800,96.274 30.995,96.122 31.578 C 95.976 32.136,95.507 32.391,94.468 32.478 C 93.504 32.559,92.881 32.868,92.609 33.400 C 92.384 33.840,91.750 34.256,91.200 34.324 C 90.650 34.392,89.901 34.797,89.536 35.224 C 89.171 35.651,88.586 36.000,88.236 36.000 C 87.867 36.000,87.600 36.335,87.600 36.800 C 87.600 37.540,86.801 37.769,84.920 37.570 C 84.766 37.554,84.501 37.914,84.333 38.370 C 84.160 38.837,83.670 39.200,83.213 39.200 C 82.679 39.200,82.400 39.463,82.400 39.965 C 82.400 40.546,82.014 40.795,80.798 41.000 C 79.917 41.149,79.292 41.426,79.410 41.615 C 79.527 41.805,79.257 42.155,78.811 42.394 C 78.365 42.633,77.982 42.687,77.960 42.514 C 77.938 42.341,77.795 42.650,77.642 43.200 C 77.489 43.750,77.102 44.200,76.782 44.200 C 76.462 44.200,76.145 44.584,76.078 45.052 C 75.987 45.692,75.588 45.964,74.478 46.142 C 73.615 46.281,72.791 46.717,72.497 47.190 C 72.220 47.635,71.730 48.000,71.409 48.000 C 71.054 48.000,70.915 48.235,71.055 48.600 C 71.265 49.147,70.567 49.428,69.470 49.237 C 69.289 49.206,69.246 49.350,69.374 49.558 C 69.674 50.044,68.453 51.280,67.968 50.980 C 67.765 50.855,67.600 51.213,67.600 51.776 C 67.600 52.533,67.392 52.800,66.800 52.800 C 66.360 52.800,66.000 53.058,66.000 53.373 C 66.000 53.688,65.649 54.057,65.220 54.194 C 64.792 54.330,64.330 54.792,64.194 55.220 C 64.057 55.649,63.688 56.000,63.373 56.000 C 63.058 56.000,62.800 56.360,62.800 56.800 C 62.800 57.392,62.533 57.600,61.776 57.600 C 61.213 57.600,60.855 57.765,60.980 57.968 C 61.280 58.453,60.044 59.674,59.558 59.374 C 59.350 59.246,59.206 59.289,59.237 59.470 C 59.427 60.564,59.147 61.265,58.603 61.056 C 58.154 60.884,57.940 61.235,57.743 62.467 C 57.564 63.587,57.246 64.167,56.740 64.300 C 56.333 64.406,56.000 64.820,56.000 65.219 C 56.000 65.667,55.656 65.993,55.100 66.072 C 54.605 66.142,54.200 66.462,54.200 66.782 C 54.200 67.102,53.784 67.462,53.276 67.582 C 52.768 67.702,52.363 67.935,52.376 68.100 C 52.473 69.330,52.341 69.663,51.831 69.467 C 51.421 69.310,51.188 69.689,50.996 70.824 C 50.794 72.016,50.543 72.400,49.965 72.400 C 49.455 72.400,49.200 72.679,49.200 73.237 C 49.200 73.737,48.879 74.159,48.404 74.283 C 47.967 74.397,47.699 74.636,47.808 74.813 C 48.088 75.266,46.817 76.458,46.358 76.174 C 46.150 76.046,46.006 76.089,46.037 76.270 C 46.301 77.787,45.920 79.128,45.170 79.324 C 44.714 79.443,44.244 79.912,44.125 80.366 C 44.006 80.820,43.750 81.092,43.555 80.972 C 43.360 80.851,43.200 81.033,43.200 81.376 C 43.200 81.719,43.020 82.000,42.800 82.000 C 42.580 82.000,42.421 82.135,42.447 82.300 C 42.650 83.586,42.322 84.400,41.600 84.400 C 41.160 84.400,40.821 84.535,40.847 84.700 C 41.072 86.121,40.722 87.600,40.163 87.600 C 39.812 87.600,39.431 87.960,39.316 88.400 C 39.201 88.840,38.847 89.200,38.530 89.200 C 38.212 89.200,38.056 89.368,38.183 89.572 C 38.309 89.777,38.230 90.058,38.007 90.196 C 37.783 90.334,37.600 90.892,37.600 91.436 C 37.600 91.980,37.329 92.529,36.998 92.656 C 36.667 92.783,36.286 93.572,36.152 94.409 C 35.988 95.436,35.663 95.995,35.154 96.128 C 34.660 96.257,34.400 96.682,34.400 97.363 C 34.400 97.933,34.373 98.535,34.340 98.700 C 34.250 99.146,33.049 99.954,32.750 99.769 C 32.607 99.681,32.498 99.832,32.508 100.104 C 32.573 101.910,32.339 102.800,31.800 102.800 C 31.470 102.800,31.177 102.980,31.150 103.200 C 31.123 103.420,31.055 103.780,31.000 104.000 C 30.945 104.220,30.877 104.861,30.850 105.424 C 30.822 105.987,30.629 106.342,30.420 106.212 C 29.952 105.923,29.200 107.254,29.200 108.374 C 29.200 108.855,28.940 109.200,28.576 109.200 C 28.233 109.200,28.056 109.368,28.183 109.572 C 28.309 109.777,28.230 110.058,28.007 110.196 C 27.783 110.334,27.600 111.367,27.600 112.490 C 27.600 113.614,27.482 114.415,27.337 114.270 C 26.811 113.745,26.000 114.930,26.000 116.222 C 26.000 117.195,25.788 117.613,25.200 117.800 C 24.760 117.940,24.387 118.267,24.371 118.527 C 24.227 120.930,23.857 122.225,23.181 122.698 C 22.631 123.084,22.400 123.712,22.400 124.823 C 22.400 125.690,22.265 126.379,22.100 126.353 C 21.344 126.233,20.890 126.441,20.907 126.900 C 21.015 129.809,20.754 131.200,20.100 131.201 C 19.530 131.203,19.377 131.626,19.276 133.480 C 19.183 135.188,18.958 135.894,18.376 136.302 C 17.766 136.729,17.600 137.321,17.600 139.065 C 17.600 140.817,17.480 141.240,17.033 141.068 C 16.282 140.780,16.140 141.279,16.030 144.596 C 15.945 147.182,15.506 148.237,14.719 147.750 C 14.544 147.642,14.381 147.878,14.357 148.276 C 14.334 148.674,14.275 149.270,14.226 149.600 C 14.177 149.930,14.106 151.175,14.068 152.367 C 14.031 153.558,13.882 154.415,13.737 154.270 C 13.047 153.580,12.400 155.043,12.400 157.292 C 12.400 159.255,12.292 159.644,11.800 159.455 C 11.364 159.288,11.183 159.523,11.139 160.313 C 11.106 160.911,11.036 161.580,10.985 161.800 C 10.934 162.020,10.872 163.415,10.846 164.900 C 10.812 166.919,10.659 167.600,10.243 167.600 C 9.400 167.600,9.200 168.527,9.200 172.433 C 9.200 175.733,9.140 176.000,8.400 176.000 C 7.651 176.000,7.600 176.267,7.600 180.153 C 7.600 183.970,7.535 184.324,6.800 184.516 C 6.048 184.713,6.000 185.062,6.000 190.363 C 6.000 195.047,5.901 196.000,5.414 196.000 C 4.382 196.000,4.168 197.260,4.053 204.000 C 3.957 209.614,3.840 210.677,3.270 211.117 C 2.319 211.851,2.233 246.603,3.181 247.188 C 3.500 247.386,3.860 247.487,3.981 247.413 C 4.101 247.339,4.188 249.439,4.173 252.081 C 4.147 256.727,4.176 256.897,5.073 257.306 C 5.945 257.703,6.000 257.948,6.000 261.415 C 6.000 264.904,6.511 266.555,7.337 265.730 C 7.482 265.585,7.600 266.594,7.600 267.971 C 7.600 270.138,7.707 270.503,8.400 270.684 C 9.062 270.857,9.200 271.230,9.200 272.847 C 9.200 274.249,9.420 275.020,9.979 275.579 C 10.533 276.133,10.783 276.998,10.847 278.579 C 10.922 280.431,11.058 280.800,11.668 280.800 C 12.176 280.800,12.400 281.097,12.400 281.767 C 12.400 283.148,12.798 284.000,13.443 284.000 C 13.749 284.000,14.023 284.270,14.050 284.600 C 14.078 284.930,14.145 285.380,14.200 285.600 C 14.255 285.820,14.322 286.641,14.350 287.424 C 14.379 288.261,14.565 288.745,14.800 288.600 C 15.020 288.464,15.200 288.554,15.200 288.800 C 15.200 289.046,15.380 289.136,15.600 289.000 C 15.842 288.850,16.000 289.408,16.000 290.414 C 16.000 291.712,16.167 292.119,16.763 292.274 C 17.183 292.384,17.616 292.817,17.726 293.237 C 17.835 293.657,18.212 294.000,18.563 294.000 C 19.000 294.000,19.200 294.366,19.200 295.167 C 19.200 296.713,19.567 297.600,20.208 297.600 C 20.506 297.600,20.847 298.296,21.005 299.228 C 21.202 300.393,21.439 300.794,21.840 300.640 C 22.337 300.449,22.606 301.095,22.447 302.100 C 22.421 302.265,22.760 302.400,23.200 302.400 C 23.640 302.400,24.023 302.580,24.050 302.800 C 24.078 303.020,24.123 303.365,24.150 303.567 C 24.178 303.768,24.323 304.056,24.472 304.206 C 24.622 304.356,24.643 304.744,24.518 305.069 C 24.360 305.481,24.516 305.621,25.033 305.530 C 25.584 305.433,25.830 305.707,25.991 306.600 C 26.110 307.260,26.341 307.755,26.504 307.700 C 27.201 307.465,27.519 307.649,27.716 308.400 C 27.831 308.840,28.212 309.200,28.563 309.200 C 29.024 309.200,29.200 309.586,29.200 310.600 C 29.200 311.588,29.380 312.000,29.810 312.000 C 30.145 312.000,30.591 312.450,30.800 313.000 C 31.009 313.550,31.455 314.000,31.790 314.000 C 32.340 314.000,32.578 314.471,32.447 315.300 C 32.398 315.612,33.017 315.747,33.929 315.623 C 34.266 315.578,34.412 315.886,34.329 316.471 C 34.256 316.991,34.417 317.415,34.700 317.446 C 34.975 317.476,35.380 317.523,35.600 317.550 C 35.820 317.578,36.000 317.960,36.000 318.400 C 36.000 318.933,36.267 319.200,36.800 319.200 C 37.333 319.200,37.600 319.467,37.600 320.000 C 37.600 320.533,37.867 320.800,38.400 320.800 C 38.933 320.800,39.200 321.067,39.200 321.600 C 39.200 322.133,39.467 322.400,40.000 322.400 C 40.533 322.400,40.800 322.667,40.800 323.200 C 40.800 323.787,41.067 324.000,41.800 324.000 C 42.350 324.000,42.779 324.135,42.753 324.300 C 42.632 325.061,42.829 325.995,43.100 325.953 C 43.775 325.846,44.397 326.018,44.353 326.300 C 44.214 327.178,44.481 327.600,45.173 327.600 C 45.598 327.600,46.060 327.960,46.200 328.400 C 46.340 328.840,46.641 329.200,46.871 329.200 C 47.462 329.200,49.185 330.903,49.193 331.495 C 49.197 331.768,49.904 332.103,50.765 332.241 C 51.831 332.411,52.393 332.732,52.528 333.246 C 52.644 333.690,53.079 334.000,53.586 334.000 C 54.060 334.000,54.345 334.165,54.220 334.368 C 53.930 334.837,55.076 336.000,55.829 336.000 C 56.143 336.000,56.400 336.270,56.400 336.600 C 56.400 336.930,56.580 337.223,56.800 337.250 C 57.020 337.278,57.380 337.345,57.600 337.400 C 57.820 337.455,58.249 337.523,58.553 337.550 C 58.858 337.578,59.201 337.960,59.316 338.400 C 59.443 338.887,59.862 339.200,60.386 339.200 C 60.860 339.200,61.142 339.371,61.012 339.580 C 60.699 340.087,62.090 340.800,63.391 340.800 C 64.163 340.800,64.404 340.982,64.318 341.500 C 64.234 341.997,64.506 342.235,65.257 342.322 C 66.082 342.418,66.269 342.615,66.110 343.222 C 65.934 343.896,66.119 344.000,67.489 344.000 C 68.789 344.000,69.153 344.179,69.527 345.000 C 69.778 345.550,70.267 346.000,70.615 346.000 C 70.963 346.000,71.148 346.161,71.026 346.358 C 70.779 346.758,71.698 347.240,73.179 347.486 C 73.718 347.575,74.403 347.998,74.702 348.424 C 75.030 348.893,75.711 349.200,76.423 349.200 C 77.162 349.200,77.600 349.407,77.600 349.757 C 77.600 350.398,78.450 350.800,79.806 350.800 C 80.395 350.800,80.841 351.099,81.000 351.600 C 81.197 352.221,81.605 352.400,82.827 352.400 C 83.692 352.400,84.379 352.535,84.353 352.700 C 84.190 353.727,84.527 354.000,85.957 354.000 C 87.239 354.000,87.553 354.159,87.740 354.904 C 87.913 355.592,88.274 355.820,89.257 355.860 C 89.966 355.889,90.769 356.216,91.040 356.587 C 91.517 357.239,92.238 357.505,93.700 357.569 C 94.085 357.586,94.400 357.881,94.400 358.224 C 94.400 358.567,94.580 358.736,94.800 358.600 C 95.020 358.464,95.200 358.543,95.200 358.776 C 95.200 359.009,95.335 359.179,95.500 359.153 C 97.282 358.871,99.128 359.281,99.316 360.000 C 99.483 360.640,99.862 360.800,101.205 360.800 C 102.482 360.800,102.834 360.935,102.670 361.361 C 102.414 362.030,103.513 362.387,105.853 362.395 C 107.168 362.399,107.550 362.564,107.716 363.200 C 107.893 363.877,108.262 364.000,110.119 364.000 C 112.139 364.000,112.334 364.081,112.570 365.023 C 112.732 365.668,113.080 366.020,113.513 365.977 C 116.028 365.724,117.600 366.024,117.600 366.756 C 117.600 367.171,117.825 367.503,118.100 367.493 C 121.044 367.383,122.362 367.649,122.600 368.400 C 122.816 369.082,123.205 369.200,125.227 369.200 C 127.271 369.200,127.600 369.303,127.600 369.942 C 127.600 370.592,127.977 370.693,130.679 370.765 C 133.216 370.832,133.853 370.983,134.301 371.623 C 134.754 372.270,135.327 372.400,137.726 372.400 C 140.174 372.400,140.683 372.520,141.107 373.200 C 141.535 373.884,142.040 374.000,144.603 374.000 C 146.334 374.000,147.600 374.169,147.600 374.400 C 147.600 374.620,147.587 374.928,147.570 375.084 C 147.511 375.659,149.084 375.944,152.471 375.972 C 155.443 375.996,155.961 376.100,156.076 376.699 C 156.226 377.481,156.081 377.455,160.900 377.539 C 163.777 377.589,164.400 377.711,164.400 378.224 C 164.400 378.567,164.580 378.736,164.800 378.600 C 165.020 378.464,165.200 378.523,165.200 378.732 C 165.200 378.940,165.425 379.103,165.700 379.093 C 170.569 378.912,176.000 379.272,176.000 379.776 C 176.000 380.093,176.208 380.481,176.462 380.638 C 176.775 380.832,176.815 380.743,176.585 380.362 C 176.306 379.898,176.355 379.888,176.870 380.305 C 177.877 381.120,205.800 380.825,205.800 380.000 C 205.800 379.501,206.854 379.366,212.084 379.200 C 217.386 379.031,218.448 378.893,218.884 378.318 C 219.319 377.743,220.280 377.617,225.000 377.518 C 228.933 377.435,230.600 377.261,230.600 376.933 C 230.600 376.173,230.931 376.036,233.163 375.868 C 235.143 375.719,236.218 375.076,235.750 374.319 C 235.642 374.144,236.660 374.000,238.014 374.000 C 240.138 374.000,240.503 373.891,240.684 373.200 C 240.884 372.434,242.403 372.133,244.859 372.372 C 245.267 372.412,245.495 372.164,245.459 371.718 C 245.412 371.145,245.752 370.975,247.144 370.875 C 248.471 370.780,248.937 370.564,249.091 369.975 C 249.242 369.396,249.645 369.200,250.684 369.200 C 251.738 369.200,252.125 369.006,252.284 368.400 C 252.399 367.960,252.787 367.586,253.147 367.569 C 254.586 367.502,255.400 367.215,255.833 366.622 C 256.083 366.280,256.659 366.000,257.111 366.000 C 258.462 366.000,259.200 365.561,259.200 364.757 C 259.200 364.140,259.497 364.000,260.800 364.000 C 262.133 364.000,262.400 363.867,262.400 363.200 C 262.400 362.530,262.667 362.400,264.037 362.400 C 265.338 362.400,265.718 362.236,265.884 361.600 C 266.043 360.994,266.430 360.800,267.484 360.800 C 268.538 360.800,268.925 360.606,269.084 360.000 C 269.271 359.287,270.594 358.915,272.100 359.153 C 272.265 359.179,272.400 358.864,272.400 358.452 C 272.400 357.911,272.778 357.643,273.770 357.482 C 274.523 357.360,275.520 356.880,275.985 356.415 C 276.449 355.951,277.004 355.679,277.218 355.811 C 277.977 356.280,279.126 355.605,278.919 354.811 C 278.749 354.161,278.974 354.032,280.460 353.925 C 281.829 353.827,282.188 353.651,282.144 353.100 C 282.106 352.613,282.380 352.400,283.044 352.400 C 283.733 352.400,284.000 352.177,284.000 351.600 C 284.000 350.965,284.269 350.799,285.300 350.794 C 286.843 350.787,287.811 350.264,287.428 349.645 C 287.161 349.214,287.843 349.035,289.244 349.170 C 289.598 349.203,290.196 348.760,290.574 348.184 C 290.978 347.567,291.494 347.227,291.830 347.356 C 292.204 347.500,292.400 347.305,292.400 346.787 C 292.400 346.354,292.580 345.978,292.800 345.950 C 293.020 345.923,293.380 345.855,293.600 345.800 C 293.820 345.745,294.360 345.678,294.800 345.650 C 295.317 345.618,295.600 345.317,295.600 344.800 C 295.600 344.213,295.867 344.000,296.600 344.000 C 297.150 344.000,297.579 343.865,297.553 343.700 C 297.403 342.749,297.756 342.435,299.100 342.324 C 300.111 342.240,300.600 342.005,300.600 341.600 C 300.600 341.270,301.005 340.942,301.500 340.872 C 302.054 340.794,302.400 340.467,302.400 340.022 C 302.400 339.290,304.485 338.558,305.241 339.025 C 305.438 339.147,305.600 339.068,305.600 338.848 C 305.600 337.709,309.364 334.882,310.530 335.145 C 310.711 335.186,310.745 335.035,310.606 334.809 C 310.466 334.583,310.813 334.223,311.376 334.009 C 311.939 333.795,312.400 333.345,312.400 333.010 C 312.400 332.667,312.750 332.400,313.200 332.400 C 313.733 332.400,314.000 332.133,314.000 331.600 C 314.000 330.965,314.269 330.799,315.300 330.794 C 316.843 330.787,317.811 330.264,317.428 329.645 C 317.253 329.363,317.527 329.200,318.176 329.200 C 318.933 329.200,319.200 328.992,319.200 328.400 C 319.200 327.876,319.467 327.600,319.972 327.600 C 320.468 327.600,320.790 327.278,320.872 326.700 C 320.942 326.205,321.270 325.776,321.600 325.746 C 321.930 325.717,322.585 325.672,323.056 325.646 C 323.597 325.617,323.891 325.353,323.856 324.928 C 323.822 324.520,324.194 324.155,324.800 324.001 C 325.447 323.837,325.759 323.509,325.682 323.073 C 325.603 322.616,325.839 322.400,326.420 322.400 C 326.938 322.400,327.357 322.085,327.484 321.600 C 327.600 321.157,328.030 320.800,328.447 320.800 C 328.933 320.800,329.200 320.517,329.200 320.000 C 329.200 319.250,329.933 318.977,331.455 319.160 C 331.705 319.190,332.028 318.745,332.172 318.171 C 332.349 317.462,332.625 317.201,333.030 317.356 C 333.417 317.505,333.758 317.237,334.003 316.592 C 334.210 316.047,334.634 315.600,334.943 315.600 C 335.253 315.600,335.601 315.240,335.716 314.800 C 335.841 314.321,336.262 314.000,336.763 314.000 C 337.223 314.000,337.579 313.865,337.553 313.700 C 337.413 312.816,337.684 312.400,338.400 312.400 C 338.933 312.400,339.200 312.133,339.200 311.600 C 339.200 311.067,339.467 310.800,340.000 310.800 C 340.533 310.800,340.800 310.533,340.800 310.000 C 340.800 309.467,341.067 309.200,341.600 309.200 C 342.133 309.200,342.400 308.933,342.400 308.400 C 342.400 307.928,342.687 307.575,343.100 307.539 C 343.485 307.506,343.980 307.436,344.200 307.385 C 344.420 307.334,344.804 307.272,345.053 307.246 C 345.303 307.221,345.601 306.840,345.716 306.400 C 345.831 305.960,346.212 305.600,346.563 305.600 C 346.913 305.600,347.223 305.420,347.250 305.200 C 347.278 304.980,347.327 304.575,347.359 304.300 C 347.391 304.025,347.729 303.853,348.109 303.918 C 348.725 304.022,348.988 303.588,348.847 302.700 C 348.802 302.415,348.936 302.366,350.100 302.250 C 350.375 302.223,350.600 301.990,350.600 301.733 C 350.600 301.135,351.135 300.600,351.733 300.600 C 351.990 300.600,352.223 300.375,352.250 300.100 C 352.366 298.936,352.415 298.802,352.700 298.847 C 353.588 298.988,354.022 298.725,353.918 298.109 C 353.853 297.729,354.025 297.391,354.300 297.359 C 354.575 297.327,354.978 297.278,355.195 297.250 C 355.413 297.223,355.706 296.480,355.846 295.600 C 356.039 294.394,356.287 294.000,356.851 294.000 C 357.333 294.000,357.600 293.715,357.600 293.200 C 357.600 292.667,357.867 292.400,358.400 292.400 C 358.917 292.400,359.200 292.133,359.200 291.647 C 359.200 291.230,359.557 290.800,360.000 290.684 C 360.440 290.569,360.800 290.209,360.800 289.884 C 360.800 289.559,361.160 289.199,361.600 289.084 C 362.085 288.957,362.400 288.538,362.400 288.020 C 362.400 287.428,362.615 287.201,363.100 287.282 C 363.567 287.361,363.842 287.101,363.928 286.500 C 364.010 285.922,364.332 285.600,364.828 285.600 C 365.556 285.600,365.828 284.820,365.629 283.297 C 365.593 283.020,366.022 282.620,366.582 282.407 C 367.142 282.194,367.600 281.766,367.600 281.457 C 367.600 281.147,367.960 280.799,368.400 280.684 C 368.840 280.569,369.200 280.188,369.200 279.837 C 369.200 279.487,369.474 279.200,369.810 279.200 C 370.145 279.200,370.591 278.750,370.800 278.200 C 371.009 277.650,371.455 277.200,371.790 277.200 C 372.126 277.200,372.379 277.065,372.353 276.900 C 372.097 275.279,372.470 274.000,373.200 274.000 C 373.778 274.000,374.000 273.733,374.000 273.037 C 374.000 272.249,374.156 272.116,374.863 272.300 C 375.469 272.459,375.637 272.384,375.428 272.045 C 375.265 271.781,375.372 271.275,375.666 270.921 C 375.960 270.567,376.155 270.215,376.100 270.139 C 375.800 269.723,376.078 269.200,376.600 269.200 C 376.930 269.200,377.200 268.956,377.200 268.658 C 377.200 268.361,377.650 267.631,378.200 267.038 C 378.750 266.444,379.200 265.539,379.200 265.026 C 379.200 264.430,379.489 264.018,380.000 263.884 C 380.613 263.724,380.800 263.338,380.800 262.237 C 380.800 261.067,380.948 260.800,381.600 260.800 C 382.187 260.800,382.400 260.533,382.400 259.800 C 382.400 259.250,382.535 258.821,382.700 258.847 C 383.509 258.975,384.029 258.751,383.970 258.300 C 383.744 256.559,384.039 255.600,384.800 255.600 C 385.345 255.600,385.619 255.313,385.661 254.700 C 385.760 253.236,385.806 253.025,386.138 252.493 C 386.313 252.215,386.623 252.091,386.828 252.217 C 387.032 252.344,387.214 252.212,387.231 251.924 C 387.439 248.387,387.988 246.898,388.881 247.450 C 389.056 247.558,389.200 246.827,389.200 245.824 C 389.200 244.126,389.437 243.785,390.500 243.953 C 390.665 243.979,390.779 243.865,390.753 243.700 C 390.436 241.696,390.881 239.272,391.600 239.084 C 392.287 238.904,392.400 238.538,392.400 236.484 C 392.400 234.430,392.513 234.064,393.200 233.884 C 393.912 233.698,394.000 233.338,394.000 230.600 C 394.000 227.856,394.087 227.502,394.804 227.315 C 395.783 227.059,395.970 226.322,396.099 222.200 C 396.155 220.440,396.360 219.060,396.555 219.134 C 397.565 219.515,398.150 190.787,397.145 190.166 C 396.948 190.044,396.889 189.779,397.014 189.577 C 397.139 189.375,396.962 189.316,396.621 189.447 C 396.116 189.641,395.992 189.324,395.955 187.743 C 395.894 185.140,395.700 181.847,395.592 181.600 C 395.544 181.490,395.523 181.276,395.544 181.125 C 395.566 180.973,395.227 180.918,394.792 181.002 C 394.065 181.142,394.000 180.929,394.000 178.410 C 394.000 175.515,393.733 174.270,393.186 174.609 C 392.634 174.950,392.431 174.236,392.355 171.681 C 392.314 170.338,392.173 169.252,392.041 169.267 C 391.071 169.378,390.800 169.050,390.800 167.763 C 390.800 166.662,390.613 166.276,390.000 166.116 C 389.246 165.919,388.983 164.639,389.093 161.700 C 389.103 161.425,388.771 161.200,388.356 161.200 C 387.628 161.200,387.389 160.492,387.524 158.743 C 387.552 158.382,387.221 157.994,386.788 157.881 C 386.346 157.765,385.978 157.307,385.950 156.837 C 385.923 156.377,385.855 155.820,385.800 155.600 C 385.745 155.380,385.678 155.020,385.650 154.800 C 385.623 154.580,385.240 154.400,384.800 154.400 C 384.205 154.400,383.988 154.118,383.954 153.300 C 383.865 151.173,383.797 151.000,383.100 151.118 C 382.615 151.199,382.400 150.972,382.400 150.380 C 382.400 149.862,382.085 149.443,381.600 149.316 C 380.973 149.152,380.800 148.770,380.800 147.553 C 380.800 146.267,380.663 146.000,380.000 146.000 C 379.378 146.000,379.200 145.733,379.200 144.800 C 379.200 144.140,379.048 143.600,378.863 143.600 C 378.678 143.600,378.187 142.970,377.772 142.200 C 377.357 141.430,376.807 140.800,376.548 140.800 C 376.021 140.800,375.096 138.492,375.415 137.975 C 375.529 137.792,375.257 137.712,374.811 137.798 C 374.175 137.920,374.000 137.743,374.000 136.977 C 374.000 136.278,373.780 136.000,373.228 136.000 C 372.732 136.000,372.410 135.678,372.328 135.100 C 372.258 134.605,371.990 134.200,371.733 134.200 C 370.997 134.200,370.751 133.776,370.714 132.441 C 370.687 131.513,370.492 131.200,369.939 131.200 C 369.235 131.200,369.132 131.052,369.040 129.900 C 369.018 129.625,368.640 129.298,368.200 129.172 C 367.760 129.047,367.425 128.642,367.456 128.272 C 367.490 127.860,367.219 127.600,366.756 127.600 C 366.078 127.600,365.815 127.173,365.953 126.300 C 365.979 126.135,365.550 126.000,365.000 126.000 C 364.267 126.000,364.000 125.787,364.000 125.200 C 364.000 124.748,363.733 124.400,363.387 124.400 C 362.662 124.400,362.158 123.262,362.031 121.337 C 362.013 121.064,361.647 120.967,361.137 121.100 C 360.583 121.245,360.369 121.173,360.539 120.899 C 360.916 120.289,360.415 119.200,359.757 119.200 C 359.451 119.200,359.200 118.930,359.200 118.600 C 359.200 118.270,358.940 118.000,358.623 118.000 C 358.305 118.000,357.807 117.685,357.517 117.300 C 357.226 116.915,356.631 116.396,356.194 116.147 C 355.757 115.898,355.455 115.393,355.523 115.024 C 355.604 114.582,355.418 114.396,354.976 114.477 C 354.607 114.545,354.102 114.243,353.853 113.806 C 353.604 113.369,353.085 112.774,352.700 112.483 C 352.315 112.193,352.000 111.712,352.000 111.415 C 352.000 111.059,351.706 110.952,351.137 111.100 C 350.583 111.245,350.369 111.173,350.539 110.899 C 350.916 110.289,350.415 109.200,349.757 109.200 C 349.451 109.200,349.200 108.930,349.200 108.600 C 349.200 108.270,348.932 108.000,348.603 108.000 C 348.275 108.000,347.780 107.635,347.503 107.190 C 347.207 106.713,346.383 106.281,345.500 106.139 C 344.387 105.960,344.000 105.705,344.000 105.149 C 344.000 104.737,343.726 104.400,343.390 104.400 C 343.055 104.400,342.609 103.950,342.400 103.400 C 342.191 102.850,341.745 102.400,341.410 102.400 C 341.074 102.400,340.800 102.126,340.800 101.790 C 340.800 101.455,340.332 101.002,339.759 100.785 C 339.077 100.525,338.797 100.184,338.947 99.794 C 339.100 99.396,338.922 99.200,338.407 99.200 C 337.985 99.200,337.496 98.956,337.320 98.658 C 337.144 98.361,336.602 97.908,336.115 97.652 C 335.612 97.389,335.322 96.948,335.442 96.634 C 335.559 96.329,335.418 96.090,335.127 96.103 C 333.106 96.192,332.449 95.957,332.318 95.100 C 332.243 94.605,331.945 94.250,331.656 94.311 C 331.367 94.373,331.036 94.058,330.919 93.611 C 330.802 93.165,330.561 92.800,330.382 92.800 C 329.852 92.800,326.990 89.931,327.110 89.519 C 327.170 89.311,327.054 89.243,326.851 89.368 C 326.127 89.816,324.072 89.118,323.873 88.357 C 323.764 87.941,323.388 87.600,323.037 87.600 C 322.687 87.600,322.400 87.326,322.400 86.990 C 322.400 86.655,321.995 86.221,321.500 86.027 C 321.005 85.832,320.290 85.300,319.911 84.845 C 319.532 84.389,318.974 84.112,318.670 84.228 C 318.356 84.349,317.822 83.987,317.429 83.389 C 317.042 82.798,316.501 82.429,316.195 82.547 C 315.854 82.678,315.603 82.428,315.525 81.878 C 315.456 81.395,315.130 80.982,314.800 80.961 C 314.470 80.939,313.795 80.894,313.300 80.861 C 312.805 80.827,312.400 80.542,312.400 80.227 C 312.400 79.912,312.040 79.540,311.600 79.400 C 310.873 79.169,310.622 78.725,310.753 77.900 C 310.779 77.735,310.080 77.600,309.200 77.600 C 307.886 77.600,307.600 77.462,307.600 76.828 C 307.600 76.334,307.275 76.006,306.700 75.918 C 306.205 75.843,305.843 75.566,305.896 75.302 C 305.991 74.831,304.732 73.939,304.116 74.042 C 303.143 74.204,302.400 73.926,302.400 73.400 C 302.400 73.070,302.220 72.800,302.000 72.800 C 301.780 72.800,301.195 72.395,300.700 71.900 C 299.760 70.960,299.697 70.931,298.400 70.850 C 297.893 70.818,297.600 70.517,297.600 70.027 C 297.600 69.480,297.277 69.216,296.500 69.127 C 295.783 69.044,295.416 68.776,295.446 68.357 C 295.471 68.003,295.201 67.712,294.846 67.711 C 292.764 67.706,292.400 67.570,292.400 66.800 C 292.400 66.136,292.133 66.000,290.828 66.000 C 289.502 66.000,289.236 65.859,289.128 65.100 C 289.037 64.459,288.746 64.213,288.118 64.246 C 287.633 64.272,287.249 64.182,287.265 64.046 C 287.370 63.172,287.030 62.857,285.714 62.610 C 284.896 62.457,283.986 61.987,283.691 61.566 C 283.378 61.119,282.684 60.800,282.024 60.800 C 281.230 60.800,280.831 60.562,280.684 60.000 C 280.569 59.560,280.188 59.200,279.837 59.200 C 279.487 59.200,279.200 58.951,279.200 58.647 C 279.200 58.058,278.022 57.614,276.433 57.605 C 275.902 57.602,275.585 57.482,275.730 57.337 C 276.244 56.823,275.083 56.000,273.846 56.000 C 272.927 56.000,272.484 55.758,272.195 55.100 C 271.978 54.605,271.530 54.176,271.200 54.146 C 270.870 54.117,270.285 54.072,269.900 54.046 C 269.515 54.021,269.200 53.749,269.200 53.443 C 269.200 52.813,268.353 52.400,267.064 52.400 C 266.584 52.400,265.968 52.040,265.693 51.600 C 265.348 51.048,264.760 50.800,263.797 50.800 C 262.822 50.800,262.400 50.619,262.400 50.200 C 262.400 49.870,262.229 49.600,262.021 49.600 C 261.812 49.600,261.156 49.150,260.562 48.600 C 259.969 48.050,259.054 47.600,258.529 47.600 C 258.004 47.600,257.471 47.329,257.344 46.998 C 257.217 46.667,256.417 46.284,255.568 46.148 C 254.614 45.996,253.940 45.640,253.806 45.217 C 253.686 44.841,253.366 44.514,253.094 44.491 C 249.982 44.228,248.517 43.581,249.056 42.709 C 249.168 42.528,249.111 42.406,248.930 42.437 C 247.442 42.696,246.072 42.319,245.884 41.600 C 245.718 40.964,245.338 40.800,244.037 40.800 C 242.667 40.800,242.400 40.670,242.400 40.000 C 242.400 39.322,242.133 39.200,240.644 39.200 C 239.218 39.200,238.899 39.069,238.944 38.500 C 238.991 37.913,238.595 37.781,236.500 37.681 C 234.328 37.577,234.000 37.459,234.000 36.781 C 234.000 36.137,233.720 36.000,232.400 36.000 C 230.927 36.000,230.589 35.733,230.753 34.700 C 230.779 34.535,230.665 34.434,230.500 34.475 C 229.567 34.707,226.000 33.859,226.000 33.405 C 226.000 32.765,225.111 32.400,223.554 32.400 C 222.806 32.400,222.269 32.144,222.087 31.700 C 221.929 31.315,221.485 30.985,221.100 30.967 C 220.715 30.948,219.672 30.903,218.782 30.867 C 217.483 30.813,217.188 30.662,217.282 30.100 C 217.382 29.507,217.026 29.382,214.942 29.282 C 212.895 29.184,212.450 29.033,212.279 28.382 C 212.107 27.725,211.721 27.600,209.857 27.600 C 208.173 27.600,207.547 27.434,207.253 26.909 C 206.954 26.374,206.184 26.184,203.833 26.066 C 201.056 25.925,200.625 25.745,200.730 24.767 C 200.744 24.638,200.541 24.505,200.278 24.471 C 198.423 24.228,197.182 24.117,195.727 24.063 C 194.492 24.016,193.993 23.808,193.822 23.269 C 193.694 22.867,193.277 22.539,192.895 22.540 C 188.651 22.556,185.593 22.335,185.783 22.028 C 186.339 21.128,185.415 20.940,180.063 20.861 C 176.313 20.806,175.906 20.726,175.719 20.013 C 175.396 18.778,133.003 18.779,132.680 20.014 M168.591 133.787 C 169.256 134.082,170.752 134.424,171.915 134.545 C 173.158 134.675,174.459 135.103,175.069 135.583 C 175.640 136.032,176.611 136.400,177.225 136.400 C 177.840 136.400,178.604 136.661,178.923 136.980 C 179.242 137.299,180.020 137.687,180.652 137.841 C 181.283 137.996,182.229 138.455,182.754 138.861 C 183.279 139.267,183.926 139.600,184.192 139.600 C 184.458 139.600,185.002 139.960,185.400 140.400 C 185.798 140.840,186.457 141.200,186.865 141.200 C 187.272 141.200,187.997 141.650,188.475 142.200 C 188.953 142.750,189.582 143.200,189.872 143.200 C 190.162 143.200,190.400 143.375,190.400 143.590 C 190.400 143.804,190.895 144.239,191.500 144.557 C 193.462 145.586,200.400 152.652,200.400 153.621 C 200.400 153.847,200.800 154.573,201.288 155.234 C 203.477 158.194,202.372 169.229,199.553 172.577 C 197.771 174.694,195.000 177.200,194.442 177.200 C 194.085 177.200,193.568 177.560,193.293 178.000 C 192.994 178.479,192.353 178.804,191.697 178.809 C 191.093 178.814,189.815 179.174,188.856 179.609 C 186.789 180.547,183.626 180.641,182.022 179.811 C 181.396 179.488,180.118 179.100,179.181 178.951 C 178.245 178.801,177.146 178.346,176.739 177.939 C 176.333 177.533,175.833 177.200,175.629 177.200 C 175.424 177.200,175.019 176.970,174.729 176.689 C 172.793 174.818,167.211 170.400,166.783 170.400 C 166.497 170.400,165.927 170.096,165.517 169.725 C 163.947 168.304,154.733 168.305,153.937 169.726 C 153.757 170.048,153.140 170.429,152.565 170.573 C 151.202 170.915,149.616 172.076,146.655 174.900 C 145.329 176.165,144.036 177.200,143.783 177.200 C 143.530 177.200,142.907 177.560,142.400 178.000 C 141.893 178.440,140.949 178.800,140.302 178.800 C 139.655 178.800,138.669 179.160,138.109 179.600 C 137.313 180.226,136.486 180.400,134.309 180.400 C 132.132 180.400,131.305 180.226,130.509 179.600 C 129.950 179.160,128.914 178.800,128.207 178.800 C 127.497 178.800,126.510 178.443,126.000 178.000 C 125.493 177.560,124.858 177.200,124.591 177.200 C 123.969 177.200,119.600 172.815,119.600 172.191 C 119.600 171.933,119.240 171.307,118.800 170.800 C 118.360 170.293,118.000 169.497,118.000 169.033 C 118.000 168.568,117.640 167.516,117.200 166.696 C 116.618 165.610,116.400 164.439,116.400 162.400 C 116.400 160.361,116.618 159.190,117.200 158.104 C 117.640 157.284,118.000 156.228,118.000 155.760 C 118.000 155.291,118.360 154.450,118.800 153.891 C 119.240 153.331,119.600 152.741,119.600 152.579 C 119.600 152.289,120.052 151.783,122.440 149.400 C 126.504 145.345,129.624 142.825,130.604 142.807 C 130.826 142.803,131.232 142.440,131.507 142.000 C 131.782 141.560,132.247 141.200,132.541 141.200 C 132.835 141.200,133.402 140.840,133.800 140.400 C 134.198 139.960,134.783 139.600,135.099 139.600 C 135.415 139.600,136.131 139.240,136.691 138.800 C 137.250 138.360,138.060 138.000,138.491 138.000 C 138.921 138.000,139.706 137.660,140.233 137.245 C 140.761 136.830,141.870 136.365,142.697 136.211 C 143.523 136.058,144.484 135.678,144.830 135.367 C 145.177 135.057,146.617 134.687,148.030 134.546 C 149.444 134.405,150.852 134.090,151.160 133.845 C 152.526 132.758,166.176 132.713,168.591 133.787 M296.400 133.787 C 296.730 134.066,298.038 134.396,299.307 134.519 C 300.587 134.644,302.211 135.112,302.954 135.572 C 303.691 136.027,304.695 136.400,305.184 136.400 C 305.673 136.400,306.531 136.760,307.091 137.200 C 307.650 137.640,308.416 138.000,308.793 138.000 C 309.169 138.000,309.893 138.360,310.400 138.800 C 310.907 139.240,311.645 139.600,312.039 139.600 C 312.432 139.600,312.990 139.918,313.277 140.306 C 313.565 140.695,314.295 141.231,314.900 141.498 C 315.505 141.764,316.000 142.147,316.000 142.348 C 316.000 142.549,316.406 142.815,316.902 142.940 C 317.398 143.064,318.561 143.894,319.486 144.783 C 320.412 145.672,321.262 146.400,321.376 146.400 C 321.813 146.400,327.200 152.064,327.200 152.523 C 327.200 152.790,327.560 153.232,328.000 153.507 C 328.465 153.797,328.800 154.440,328.800 155.040 C 328.800 155.609,329.160 156.531,329.600 157.091 C 330.777 158.587,330.777 166.023,329.600 167.800 C 329.163 168.460,328.804 169.407,328.803 169.904 C 328.801 170.401,328.440 171.116,328.000 171.493 C 327.560 171.870,327.200 172.355,327.200 172.572 C 327.200 173.772,320.719 178.800,319.173 178.800 C 318.631 178.800,317.483 179.178,316.621 179.640 C 314.631 180.707,309.747 180.619,308.504 179.494 C 308.082 179.112,307.179 178.800,306.497 178.800 C 305.815 178.800,305.013 178.556,304.715 178.258 C 304.417 177.960,303.696 177.465,303.112 177.158 C 302.527 176.851,300.963 175.565,299.635 174.300 C 298.307 173.035,297.031 172.000,296.798 172.000 C 296.565 172.000,296.278 171.746,296.159 171.436 C 296.039 171.126,295.487 170.758,294.931 170.618 C 294.375 170.479,293.411 169.988,292.789 169.528 C 291.121 168.296,283.191 168.296,281.870 169.528 C 281.392 169.975,280.518 170.460,279.929 170.606 C 279.340 170.753,278.761 171.126,278.641 171.436 C 278.522 171.746,278.158 172.000,277.832 172.000 C 277.506 172.000,277.096 172.249,276.920 172.553 C 276.499 173.280,271.785 177.200,271.330 177.200 C 271.136 177.200,270.670 177.560,270.293 178.000 C 269.916 178.440,269.176 178.800,268.648 178.800 C 268.119 178.800,266.903 179.156,265.944 179.591 C 263.684 180.616,260.587 180.620,258.000 179.600 C 256.884 179.160,255.537 178.800,255.008 178.800 C 254.478 178.800,253.810 178.466,253.523 178.057 C 253.235 177.649,252.595 177.187,252.100 177.030 C 251.605 176.874,251.200 176.572,251.200 176.360 C 251.200 176.148,250.861 175.845,250.446 175.687 C 249.414 175.294,246.495 171.520,246.149 170.131 C 245.994 169.509,245.604 168.805,245.282 168.567 C 244.081 167.680,244.143 157.514,245.356 156.301 C 245.636 156.021,245.998 155.262,246.161 154.614 C 246.323 153.966,246.804 153.193,247.228 152.895 C 247.653 152.598,248.000 152.124,248.000 151.843 C 248.000 151.336,252.461 146.942,254.541 145.400 C 255.134 144.960,255.902 144.346,256.246 144.035 C 257.399 142.995,260.195 141.215,260.686 141.207 C 260.953 141.203,261.365 140.840,261.600 140.400 C 261.835 139.960,262.398 139.600,262.851 139.600 C 263.304 139.600,264.131 139.240,264.691 138.800 C 265.250 138.360,266.016 138.000,266.393 138.000 C 266.769 138.000,267.493 137.640,268.000 137.200 C 268.507 136.760,269.303 136.400,269.767 136.400 C 270.232 136.400,271.313 136.024,272.171 135.564 C 273.028 135.105,274.736 134.631,275.965 134.512 C 277.194 134.392,278.474 134.057,278.809 133.768 C 280.001 132.737,295.177 132.754,296.400 133.787 M175.300 153.476 C 175.685 153.576,176.315 153.576,176.700 153.476 C 177.085 153.375,176.770 153.293,176.000 153.293 C 175.230 153.293,174.915 153.375,175.300 153.476 M178.562 154.600 C 179.156 155.150,179.857 155.599,180.121 155.598 C 180.656 155.596,178.406 153.637,177.842 153.614 C 177.644 153.606,177.969 154.050,178.562 154.600 M303.156 153.857 C 302.514 154.036,301.408 155.942,301.749 156.282 C 301.847 156.380,302.036 156.116,302.170 155.694 C 302.645 154.197,304.255 153.743,305.590 154.729 C 306.238 155.208,306.877 155.600,307.011 155.600 C 308.073 155.600,314.392 161.488,314.397 162.482 C 314.404 164.050,310.235 163.730,308.358 162.017 C 307.985 161.678,307.022 160.950,306.217 160.400 C 305.411 159.850,304.534 159.203,304.268 158.963 C 304.001 158.723,303.337 158.306,302.792 158.036 L 301.800 157.546 302.800 158.363 C 303.350 158.813,304.790 159.857,306.000 160.685 C 307.210 161.512,308.344 162.416,308.520 162.694 C 308.696 162.972,309.079 163.200,309.371 163.200 C 309.663 163.200,310.126 163.470,310.400 163.800 C 311.362 164.959,314.800 163.907,314.800 162.454 C 314.800 161.631,312.809 158.840,312.200 158.809 C 311.980 158.798,311.350 158.432,310.800 157.994 C 305.707 153.946,304.731 153.418,303.156 153.857 M181.039 156.156 C 181.161 156.476,181.544 156.846,181.888 156.978 C 182.863 157.352,182.814 157.069,181.768 156.287 C 181.051 155.750,180.870 155.718,181.039 156.156 M174.800 157.593 C 175.350 158.014,176.076 158.593,176.413 158.879 C 176.751 159.166,177.831 159.931,178.813 160.580 C 179.796 161.229,180.989 162.100,181.464 162.516 C 181.940 162.932,182.660 163.187,183.064 163.083 C 183.662 162.928,183.631 162.884,182.900 162.846 C 182.405 162.821,182.000 162.625,182.000 162.410 C 182.000 162.196,181.415 161.722,180.700 161.356 C 179.985 160.991,179.256 160.446,179.080 160.146 C 178.904 159.846,178.570 159.600,178.338 159.600 C 177.974 159.600,177.201 159.056,174.917 157.194 C 174.651 156.977,174.291 156.806,174.117 156.813 C 173.943 156.821,174.250 157.171,174.800 157.593 M183.200 157.461 C 183.200 157.605,183.920 158.388,184.800 159.200 C 185.680 160.012,186.400 160.525,186.400 160.339 C 186.400 160.152,186.040 159.685,185.600 159.300 C 185.160 158.915,184.440 158.285,184.000 157.900 C 183.560 157.515,183.200 157.318,183.200 157.461 M304.810 209.012 C 305.196 209.477,305.252 210.873,305.044 214.817 C 304.720 220.952,304.302 221.811,299.838 225.501 C 297.785 227.198,298.277 227.188,216.536 227.194 L 138.871 227.200 137.836 225.969 C 137.017 224.996,136.800 224.310,136.800 222.690 C 136.800 221.564,136.592 218.164,136.339 215.136 C 135.969 210.723,135.979 209.508,136.388 209.015 C 137.165 208.078,304.033 208.076,304.810 209.012 M304.683 223.700 C 304.047 227.736,303.147 231.745,302.662 232.704 C 302.357 233.307,301.986 234.467,301.839 235.283 C 301.691 236.099,301.308 237.269,300.988 237.883 C 300.667 238.497,300.404 239.245,300.402 239.546 C 300.401 239.846,300.063 240.746,299.650 241.546 C 299.238 242.345,297.962 244.890,296.814 247.200 C 294.468 251.920,293.575 253.489,291.700 256.176 C 290.985 257.201,290.400 258.129,290.400 258.238 C 290.400 258.739,283.746 266.613,281.159 269.174 C 278.181 272.121,272.197 277.146,269.440 279.014 C 266.718 280.859,266.148 281.216,265.200 281.673 C 264.650 281.938,263.890 282.413,263.512 282.728 C 262.438 283.624,255.131 287.200,254.375 287.200 C 254.003 287.200,253.490 287.451,253.235 287.758 C 252.980 288.065,252.123 288.438,251.331 288.586 C 250.539 288.735,249.244 289.204,248.452 289.628 C 247.660 290.053,246.595 290.400,246.086 290.400 C 245.577 290.400,244.657 290.660,244.043 290.978 C 243.428 291.296,241.952 291.679,240.763 291.830 C 239.573 291.980,237.998 292.348,237.263 292.647 C 236.528 292.946,233.918 293.390,231.463 293.634 C 229.008 293.878,226.687 294.240,226.305 294.439 C 225.375 294.923,216.139 294.902,215.227 294.414 C 214.830 294.202,212.277 293.909,209.553 293.762 C 206.048 293.574,204.109 293.277,202.922 292.748 C 201.999 292.337,200.534 292.000,199.666 292.000 C 198.798 292.000,197.303 291.644,196.344 291.209 C 195.385 290.774,194.171 290.414,193.647 290.409 C 193.123 290.404,192.133 290.062,191.447 289.649 C 190.761 289.235,189.543 288.781,188.740 288.638 C 187.937 288.495,187.075 288.131,186.824 287.829 C 186.573 287.526,185.880 287.157,185.284 287.008 C 184.688 286.859,183.930 286.503,183.600 286.216 C 183.270 285.929,182.550 285.559,182.000 285.392 C 181.450 285.226,180.571 284.755,180.046 284.345 C 179.521 283.935,178.784 283.600,178.408 283.600 C 178.032 283.600,177.398 283.240,177.000 282.800 C 176.602 282.360,176.061 282.000,175.799 282.000 C 175.537 282.000,174.907 281.640,174.400 281.200 C 173.893 280.760,173.280 280.400,173.039 280.400 C 172.797 280.400,171.852 279.725,170.937 278.900 C 169.188 277.321,169.084 277.242,166.479 275.507 C 163.875 273.772,154.287 264.030,153.218 262.033 C 152.955 261.542,152.438 260.805,152.070 260.395 C 150.369 258.505,148.000 255.122,148.000 254.584 C 148.000 254.331,147.640 253.798,147.200 253.400 C 146.760 253.002,146.400 252.458,146.400 252.192 C 146.400 251.926,146.051 251.264,145.625 250.722 C 145.198 250.180,144.722 249.211,144.565 248.568 C 144.409 247.926,144.037 247.045,143.740 246.611 C 143.443 246.177,143.200 245.526,143.200 245.165 C 143.200 244.804,142.863 244.079,142.452 243.554 C 142.041 243.029,141.570 241.970,141.406 241.200 C 141.242 240.430,140.947 239.599,140.750 239.354 C 139.785 238.152,137.801 230.729,137.958 228.906 C 137.991 228.516,154.677 228.389,217.139 228.306 C 274.793 228.229,296.430 228.078,296.839 227.752 C 297.147 227.506,298.030 227.097,298.800 226.844 C 299.570 226.591,301.100 225.510,302.200 224.441 C 304.603 222.107,304.950 222.003,304.683 223.700 " stroke="none" fill="#f3cb8b" fill-rule="evenodd"></path><path id="path1" d="M301.290 226.036 C 300.574 226.676,299.695 227.200,299.338 227.200 C 298.981 227.200,298.458 227.515,298.176 227.900 C 297.693 228.561,293.283 228.611,218.132 228.800 L 138.600 229.000 138.733 230.331 C 138.807 231.063,139.208 232.413,139.625 233.331 C 140.041 234.249,140.386 235.363,140.391 235.806 C 140.396 236.249,140.760 237.284,141.200 238.104 C 141.640 238.925,142.000 239.877,142.000 240.219 C 142.000 240.562,142.334 241.507,142.743 242.321 C 144.499 245.816,144.800 246.490,144.800 246.932 C 144.800 247.657,147.339 252.561,147.900 252.920 C 148.175 253.096,148.400 253.439,148.400 253.682 C 148.400 253.925,148.850 254.714,149.400 255.436 C 149.950 256.157,150.400 256.856,150.400 256.990 C 150.400 258.343,162.588 271.638,166.215 274.241 C 167.807 275.383,168.605 276.019,169.931 277.200 C 171.487 278.586,177.103 282.080,180.522 283.789 C 182.545 284.801,184.470 285.773,184.800 285.951 C 187.143 287.214,190.401 288.472,194.800 289.814 C 195.790 290.116,197.320 290.633,198.200 290.964 C 199.080 291.294,200.430 291.575,201.200 291.588 C 201.970 291.600,203.770 291.994,205.200 292.463 C 208.807 293.646,231.534 293.860,233.263 292.727 C 233.828 292.356,235.793 291.847,237.629 291.596 C 239.464 291.345,241.334 290.940,241.783 290.697 C 242.232 290.455,243.500 290.027,244.600 289.748 C 247.506 289.009,250.366 288.044,252.244 287.167 C 253.148 286.745,254.159 286.400,254.490 286.400 C 254.821 286.400,255.550 286.040,256.109 285.600 C 256.669 285.160,257.297 284.800,257.507 284.800 C 259.349 284.800,273.410 275.497,276.808 272.029 C 277.363 271.463,278.713 270.178,279.808 269.174 C 283.501 265.788,291.200 256.355,291.200 255.216 C 291.200 254.987,291.541 254.459,291.958 254.042 C 292.845 253.155,293.056 252.776,296.131 246.532 C 297.413 243.930,298.697 241.350,298.985 240.800 C 299.272 240.250,299.642 239.170,299.807 238.400 C 299.972 237.630,300.443 236.373,300.853 235.606 C 301.264 234.839,301.601 233.669,301.602 233.006 C 301.604 232.343,301.889 231.260,302.237 230.600 C 302.974 229.200,303.462 225.409,302.947 225.091 C 302.752 224.970,302.007 225.396,301.290 226.036 " stroke="none" fill="#e52e35" fill-rule="evenodd"></path><path id="path2" d="M155.200 134.373 C 154.210 134.546,152.050 134.913,150.400 135.188 C 148.750 135.463,146.914 135.938,146.320 136.244 C 145.726 136.550,144.950 136.800,144.595 136.800 C 143.691 136.800,137.042 139.813,134.802 141.237 C 131.076 143.608,129.894 144.430,127.416 146.379 C 116.573 154.906,114.665 166.424,122.800 174.250 C 127.456 178.729,137.549 180.301,141.532 177.167 C 142.069 176.745,142.709 176.398,142.954 176.395 C 143.199 176.392,144.140 175.702,145.046 174.861 C 147.866 172.241,151.250 169.600,151.788 169.600 C 152.071 169.600,152.522 169.335,152.791 169.011 C 153.060 168.686,153.937 168.298,154.740 168.148 C 155.543 167.997,156.779 167.633,157.487 167.337 C 159.471 166.509,164.847 167.440,166.743 168.939 C 167.041 169.176,167.602 169.556,167.990 169.784 C 169.665 170.773,171.142 171.934,173.209 173.888 C 178.291 178.693,188.234 180.391,192.347 177.156 C 192.875 176.740,193.509 176.397,193.754 176.393 C 194.328 176.384,198.400 172.605,198.400 172.082 C 198.400 171.864,198.670 171.582,199.000 171.455 C 199.330 171.329,199.600 170.988,199.600 170.697 C 199.600 170.407,199.989 169.456,200.464 168.585 C 203.431 163.139,200.763 153.908,194.744 148.794 C 193.345 147.605,191.907 146.355,191.549 146.016 C 189.965 144.517,187.619 142.895,184.600 141.213 C 183.280 140.478,181.930 139.654,181.600 139.382 C 181.270 139.111,180.427 138.767,179.728 138.619 C 179.028 138.470,178.256 138.109,178.013 137.816 C 177.770 137.523,176.903 137.160,176.086 137.009 C 175.269 136.857,174.060 136.499,173.400 136.212 C 169.996 134.733,159.318 133.654,155.200 134.373 M284.400 134.184 C 284.070 134.263,281.820 134.640,279.400 135.023 C 276.980 135.405,274.514 135.961,273.920 136.259 C 273.326 136.556,272.550 136.800,272.195 136.800 C 271.585 136.800,267.694 138.423,266.400 139.217 C 266.070 139.420,264.900 140.032,263.800 140.579 C 259.320 142.804,255.399 145.737,251.400 149.851 C 247.514 153.850,247.301 154.136,246.782 156.079 C 246.529 157.026,246.147 158.014,245.932 158.275 C 245.308 159.038,245.454 165.755,246.123 167.065 C 246.442 167.689,246.827 168.774,246.978 169.477 C 247.337 171.142,251.664 175.672,254.168 177.003 C 260.294 180.261,268.054 179.035,273.826 173.898 C 276.685 171.354,279.010 169.600,279.524 169.600 C 279.732 169.600,280.116 169.342,280.378 169.027 C 280.640 168.711,281.607 168.271,282.527 168.048 C 283.447 167.825,284.943 167.421,285.852 167.151 C 288.898 166.246,294.880 168.602,299.000 172.328 C 300.076 173.302,303.515 176.001,305.010 177.045 C 309.106 179.907,319.597 178.803,323.278 175.122 C 323.675 174.725,324.135 174.399,324.300 174.397 C 324.465 174.396,325.032 173.721,325.561 172.897 C 326.089 172.074,326.851 170.917,327.253 170.327 C 327.953 169.300,328.424 167.805,329.213 164.100 C 329.712 161.759,328.527 156.250,327.136 154.446 C 326.731 153.921,326.400 153.319,326.400 153.106 C 326.400 152.456,319.843 146.298,317.350 144.605 C 316.057 143.728,314.894 142.865,314.765 142.687 C 314.496 142.316,312.924 141.448,309.200 139.613 C 307.770 138.909,305.945 137.988,305.146 137.566 C 304.346 137.145,303.383 136.800,303.006 136.800 C 302.629 136.800,301.754 136.549,301.060 136.241 C 298.248 134.995,286.871 133.590,284.400 134.184 M179.800 153.915 C 180.680 154.498,181.670 155.209,182.000 155.496 C 182.808 156.199,185.362 158.104,186.160 158.600 C 186.535 158.833,186.913 159.819,187.065 160.960 C 187.383 163.352,186.744 164.000,184.065 164.000 C 182.211 164.000,181.697 163.718,175.800 159.465 C 169.859 155.181,173.688 149.868,179.800 153.915 M306.619 153.799 C 309.597 156.081,310.467 156.710,311.846 157.571 C 313.835 158.813,315.020 160.262,315.376 161.889 C 315.966 164.580,312.271 166.272,309.891 164.400 C 309.331 163.960,308.767 163.600,308.637 163.600 C 308.507 163.600,308.085 163.318,307.700 162.973 C 307.315 162.629,306.249 161.864,305.332 161.273 C 301.398 158.743,299.846 155.514,301.680 153.680 C 302.358 153.002,305.683 153.082,306.619 153.799 " stroke="none" fill="#31372f" fill-rule="evenodd"></path><path id="path3" d="M173.958 153.900 C 173.781 155.150,174.212 156.697,174.876 157.199 C 175.314 157.530,176.151 158.174,176.736 158.632 C 177.321 159.089,178.115 159.579,178.500 159.719 C 178.885 159.860,179.200 160.139,179.200 160.339 C 179.200 160.539,179.744 160.928,180.409 161.204 C 181.075 161.479,181.750 161.938,181.909 162.222 C 182.208 162.753,183.365 162.972,185.300 162.862 C 187.648 162.729,184.995 157.951,182.055 157.018 C 181.626 156.881,181.173 156.506,181.050 156.185 C 180.926 155.863,180.559 155.600,180.233 155.600 C 179.908 155.600,179.156 155.150,178.562 154.600 C 177.515 153.630,174.070 153.106,173.958 153.900 M302.875 154.816 C 301.731 155.882,301.738 157.432,302.892 158.049 C 303.382 158.312,304.001 158.723,304.268 158.963 C 304.534 159.203,305.411 159.850,306.217 160.400 C 307.022 160.950,307.985 161.678,308.358 162.017 C 310.235 163.730,314.404 164.050,314.397 162.482 C 314.392 161.476,308.068 155.600,306.990 155.600 C 306.845 155.600,306.269 155.240,305.709 154.800 C 304.431 153.794,303.969 153.797,302.875 154.816 M136.388 209.015 C 135.979 209.508,135.969 210.723,136.339 215.136 C 136.592 218.164,136.800 221.564,136.800 222.690 C 136.800 224.310,137.017 224.996,137.836 225.969 L 138.871 227.200 216.536 227.194 C 298.277 227.188,297.785 227.198,299.838 225.501 C 304.302 221.811,304.720 220.952,305.044 214.817 C 305.252 210.873,305.196 209.477,304.810 209.012 C 304.033 208.076,137.165 208.078,136.388 209.015 " stroke="none" fill="#fcfcfc" fill-rule="evenodd"></path><path id="path4" d="M154.560 133.138 C 152.997 133.282,151.467 133.600,151.160 133.845 C 150.852 134.090,149.444 134.405,148.030 134.546 C 146.617 134.687,145.177 135.057,144.830 135.367 C 144.484 135.678,143.523 136.058,142.697 136.211 C 141.870 136.365,140.761 136.830,140.233 137.245 C 139.706 137.660,138.921 138.000,138.491 138.000 C 138.060 138.000,137.250 138.360,136.691 138.800 C 136.131 139.240,135.415 139.600,135.099 139.600 C 134.783 139.600,134.198 139.960,133.800 140.400 C 133.402 140.840,132.835 141.200,132.541 141.200 C 132.247 141.200,131.782 141.560,131.507 142.000 C 131.232 142.440,130.826 142.803,130.604 142.807 C 129.624 142.825,126.504 145.345,122.440 149.400 C 120.052 151.783,119.600 152.289,119.600 152.579 C 119.600 152.741,119.240 153.331,118.800 153.891 C 118.360 154.450,118.000 155.291,118.000 155.760 C 118.000 156.228,117.640 157.284,117.200 158.104 C 116.618 159.190,116.400 160.361,116.400 162.400 C 116.400 164.439,116.618 165.610,117.200 166.696 C 117.640 167.516,118.000 168.568,118.000 169.033 C 118.000 169.497,118.360 170.293,118.800 170.800 C 119.240 171.307,119.600 171.933,119.600 172.191 C 119.600 172.815,123.969 177.200,124.591 177.200 C 124.858 177.200,125.493 177.560,126.000 178.000 C 126.510 178.443,127.497 178.800,128.207 178.800 C 128.914 178.800,129.950 179.160,130.509 179.600 C 131.305 180.226,132.132 180.400,134.309 180.400 C 136.486 180.400,137.313 180.226,138.109 179.600 C 138.669 179.160,139.655 178.800,140.302 178.800 C 140.949 178.800,141.893 178.440,142.400 178.000 C 142.907 177.560,143.530 177.200,143.783 177.200 C 144.036 177.200,145.329 176.165,146.655 174.900 C 149.616 172.076,151.202 170.915,152.565 170.573 C 153.140 170.429,153.757 170.048,153.937 169.726 C 154.733 168.305,163.947 168.304,165.517 169.725 C 165.927 170.096,166.497 170.400,166.783 170.400 C 167.211 170.400,172.793 174.818,174.729 176.689 C 175.019 176.970,175.424 177.200,175.629 177.200 C 175.833 177.200,176.333 177.533,176.739 177.939 C 177.146 178.346,178.245 178.801,179.181 178.951 C 180.118 179.100,181.396 179.488,182.022 179.811 C 183.626 180.641,186.789 180.547,188.856 179.609 C 189.815 179.174,191.093 178.814,191.697 178.809 C 192.353 178.804,192.994 178.479,193.293 178.000 C 193.568 177.560,194.085 177.200,194.442 177.200 C 195.000 177.200,197.771 174.694,199.553 172.577 C 202.372 169.229,203.477 158.194,201.288 155.234 C 200.800 154.573,200.400 153.847,200.400 153.621 C 200.400 152.652,193.462 145.586,191.500 144.557 C 190.895 144.239,190.400 143.804,190.400 143.590 C 190.400 143.375,190.162 143.200,189.872 143.200 C 189.582 143.200,188.953 142.750,188.475 142.200 C 187.997 141.650,187.272 141.200,186.865 141.200 C 186.457 141.200,185.798 140.840,185.400 140.400 C 185.002 139.960,184.458 139.600,184.192 139.600 C 183.926 139.600,183.279 139.267,182.754 138.861 C 182.229 138.455,181.283 137.996,180.652 137.841 C 180.020 137.687,179.242 137.299,178.923 136.980 C 178.604 136.661,177.840 136.400,177.225 136.400 C 176.611 136.400,175.640 136.032,175.069 135.583 C 174.459 135.103,173.158 134.675,171.915 134.545 C 170.752 134.424,169.256 134.082,168.591 133.787 C 167.161 133.150,158.681 132.759,154.560 133.138 M282.209 133.077 C 280.674 133.167,279.144 133.478,278.809 133.768 C 278.474 134.057,277.194 134.392,275.965 134.512 C 274.736 134.631,273.028 135.105,272.171 135.564 C 271.313 136.024,270.232 136.400,269.767 136.400 C 269.303 136.400,268.507 136.760,268.000 137.200 C 267.493 137.640,266.769 138.000,266.393 138.000 C 266.016 138.000,265.250 138.360,264.691 138.800 C 264.131 139.240,263.304 139.600,262.851 139.600 C 262.398 139.600,261.835 139.960,261.600 140.400 C 261.365 140.840,260.953 141.203,260.686 141.207 C 260.195 141.215,257.399 142.995,256.246 144.035 C 255.902 144.346,255.134 144.960,254.541 145.400 C 252.461 146.942,248.000 151.336,248.000 151.843 C 248.000 152.124,247.653 152.598,247.228 152.895 C 246.804 153.193,246.323 153.966,246.161 154.614 C 245.998 155.262,245.636 156.021,245.356 156.301 C 244.143 157.514,244.081 167.680,245.282 168.567 C 245.604 168.805,245.994 169.509,246.149 170.131 C 246.495 171.520,249.414 175.294,250.446 175.687 C 250.861 175.845,251.200 176.148,251.200 176.360 C 251.200 176.572,251.605 176.874,252.100 177.030 C 252.595 177.187,253.235 177.649,253.523 178.057 C 253.810 178.466,254.478 178.800,255.008 178.800 C 255.537 178.800,256.884 179.160,258.000 179.600 C 260.587 180.620,263.684 180.616,265.944 179.591 C 266.903 179.156,268.119 178.800,268.648 178.800 C 269.176 178.800,269.916 178.440,270.293 178.000 C 270.670 177.560,271.136 177.200,271.330 177.200 C 271.785 177.200,276.499 173.280,276.920 172.553 C 277.096 172.249,277.506 172.000,277.832 172.000 C 278.158 172.000,278.522 171.746,278.641 171.436 C 278.761 171.126,279.340 170.753,279.929 170.606 C 280.518 170.460,281.392 169.975,281.870 169.528 C 283.191 168.296,291.121 168.296,292.789 169.528 C 293.411 169.988,294.375 170.479,294.931 170.618 C 295.487 170.758,296.039 171.126,296.159 171.436 C 296.278 171.746,296.565 172.000,296.798 172.000 C 297.031 172.000,298.307 173.035,299.635 174.300 C 300.963 175.565,302.527 176.851,303.112 177.158 C 303.696 177.465,304.417 177.960,304.715 178.258 C 305.013 178.556,305.815 178.800,306.497 178.800 C 307.179 178.800,308.082 179.112,308.504 179.494 C 309.747 180.619,314.631 180.707,316.621 179.640 C 317.483 179.178,318.631 178.800,319.173 178.800 C 320.719 178.800,327.200 173.772,327.200 172.572 C 327.200 172.355,327.560 171.870,328.000 171.493 C 328.440 171.116,328.801 170.401,328.803 169.904 C 328.804 169.407,329.163 168.460,329.600 167.800 C 330.777 166.023,330.777 158.587,329.600 157.091 C 329.160 156.531,328.800 155.609,328.800 155.040 C 328.800 154.440,328.465 153.797,328.000 153.507 C 327.560 153.232,327.200 152.790,327.200 152.523 C 327.200 152.064,321.813 146.400,321.376 146.400 C 321.262 146.400,320.412 145.672,319.486 144.783 C 318.561 143.894,317.398 143.064,316.902 142.940 C 316.406 142.815,316.000 142.549,316.000 142.348 C 316.000 142.147,315.505 141.764,314.900 141.498 C 314.295 141.231,313.565 140.695,313.277 140.306 C 312.990 139.918,312.432 139.600,312.039 139.600 C 311.645 139.600,310.907 139.240,310.400 138.800 C 309.893 138.360,309.169 138.000,308.793 138.000 C 308.416 138.000,307.650 137.640,307.091 137.200 C 306.531 136.760,305.673 136.400,305.184 136.400 C 304.695 136.400,303.691 136.027,302.954 135.572 C 302.211 135.112,300.587 134.644,299.307 134.519 C 298.038 134.396,296.730 134.066,296.400 133.787 C 295.742 133.231,287.034 132.795,282.209 133.077 M168.600 134.997 C 170.580 135.379,172.740 135.925,173.400 136.212 C 174.060 136.499,175.269 136.857,176.086 137.009 C 176.903 137.160,177.770 137.523,178.013 137.816 C 178.256 138.109,179.028 138.470,179.728 138.619 C 180.427 138.767,181.270 139.111,181.600 139.382 C 181.930 139.654,183.280 140.478,184.600 141.213 C 187.619 142.895,189.965 144.517,191.549 146.016 C 191.907 146.355,193.345 147.605,194.744 148.794 C 200.763 153.908,203.431 163.139,200.464 168.585 C 199.989 169.456,199.600 170.407,199.600 170.697 C 199.600 170.988,199.330 171.329,199.000 171.455 C 198.670 171.582,198.400 171.864,198.400 172.082 C 198.400 172.605,194.328 176.384,193.754 176.393 C 193.509 176.397,192.875 176.740,192.347 177.156 C 188.234 180.391,178.291 178.693,173.209 173.888 C 171.142 171.934,169.665 170.773,167.990 169.784 C 167.602 169.556,167.041 169.176,166.743 168.939 C 164.847 167.440,159.471 166.509,157.487 167.337 C 156.779 167.633,155.543 167.997,154.740 168.148 C 153.937 168.298,153.060 168.686,152.791 169.011 C 152.522 169.335,152.071 169.600,151.788 169.600 C 151.250 169.600,147.866 172.241,145.046 174.861 C 144.140 175.702,143.199 176.392,142.954 176.395 C 142.709 176.398,142.069 176.745,141.532 177.167 C 137.549 180.301,127.456 178.729,122.800 174.250 C 114.665 166.424,116.573 154.906,127.416 146.379 C 129.894 144.430,131.076 143.608,134.802 141.237 C 137.042 139.813,143.691 136.800,144.595 136.800 C 144.950 136.800,145.726 136.550,146.320 136.244 C 146.914 135.938,148.750 135.463,150.400 135.188 C 152.050 134.913,154.210 134.546,155.200 134.373 C 157.889 133.903,164.526 134.213,168.600 134.997 M296.200 134.999 C 298.180 135.375,300.367 135.934,301.060 136.241 C 301.754 136.549,302.629 136.800,303.006 136.800 C 303.383 136.800,304.346 137.145,305.146 137.566 C 305.945 137.988,307.770 138.909,309.200 139.613 C 312.924 141.448,314.496 142.316,314.765 142.687 C 314.894 142.865,316.057 143.728,317.350 144.605 C 319.843 146.298,326.400 152.456,326.400 153.106 C 326.400 153.319,326.731 153.921,327.136 154.446 C 328.527 156.250,329.712 161.759,329.213 164.100 C 328.424 167.805,327.953 169.300,327.253 170.327 C 326.851 170.917,326.089 172.074,325.561 172.897 C 325.032 173.721,324.465 174.396,324.300 174.397 C 324.135 174.399,323.675 174.725,323.278 175.122 C 319.597 178.803,309.106 179.907,305.010 177.045 C 303.515 176.001,300.076 173.302,299.000 172.328 C 294.880 168.602,288.898 166.246,285.852 167.151 C 284.943 167.421,283.447 167.825,282.527 168.048 C 281.607 168.271,280.640 168.711,280.378 169.027 C 280.116 169.342,279.732 169.600,279.524 169.600 C 279.010 169.600,276.685 171.354,273.826 173.898 C 268.054 179.035,260.294 180.261,254.168 177.003 C 251.664 175.672,247.337 171.142,246.978 169.477 C 246.827 168.774,246.442 167.689,246.123 167.065 C 245.454 165.755,245.308 159.038,245.932 158.275 C 246.147 158.014,246.529 157.026,246.782 156.079 C 247.301 154.136,247.514 153.850,251.400 149.851 C 255.399 145.737,259.320 142.804,263.800 140.579 C 264.900 140.032,266.070 139.420,266.400 139.217 C 267.694 138.423,271.585 136.800,272.195 136.800 C 272.550 136.800,273.326 136.556,273.920 136.259 C 274.514 135.961,276.980 135.405,279.400 135.023 C 281.820 134.640,284.070 134.263,284.400 134.184 C 285.720 133.866,292.811 134.356,296.200 134.999 M174.529 152.667 C 173.050 152.975,172.675 153.788,173.056 155.862 C 173.421 157.849,173.680 158.092,180.241 162.598 C 182.476 164.133,185.166 164.498,186.586 163.460 C 187.509 162.784,187.199 159.245,186.160 158.600 C 185.362 158.104,182.808 156.199,182.000 155.496 C 179.463 153.289,176.652 152.225,174.529 152.667 M180.444 155.350 C 186.284 159.558,186.400 159.679,186.400 161.600 L 186.400 163.200 184.224 163.200 C 183.027 163.200,181.939 163.024,181.806 162.810 C 181.673 162.595,180.539 161.740,179.285 160.910 C 176.928 159.348,176.413 158.955,174.645 157.373 C 173.373 156.233,173.157 153.787,174.300 153.456 C 176.016 152.960,177.957 153.559,180.444 155.350 M301.680 153.680 C 299.846 155.514,301.398 158.743,305.332 161.273 C 306.249 161.864,307.315 162.629,307.700 162.973 C 308.085 163.318,308.507 163.600,308.637 163.600 C 308.767 163.600,309.331 163.960,309.891 164.400 C 312.271 166.272,315.966 164.580,315.376 161.889 C 315.020 160.262,313.835 158.813,311.846 157.571 C 310.467 156.710,309.597 156.081,306.619 153.799 C 305.683 153.082,302.358 153.002,301.680 153.680 M307.776 155.627 C 308.889 156.492,310.250 157.557,310.800 157.994 C 311.350 158.432,311.980 158.798,312.200 158.809 C 312.809 158.840,314.800 161.631,314.800 162.454 C 314.800 163.907,311.362 164.959,310.400 163.800 C 310.126 163.470,309.714 163.200,309.485 163.200 C 309.255 163.200,308.782 162.919,308.434 162.576 C 308.085 162.233,306.540 161.060,305.000 159.969 C 302.026 157.861,301.319 156.654,302.081 154.983 C 302.920 153.140,304.859 153.359,307.776 155.627 M302.200 224.441 C 301.100 225.510,299.570 226.591,298.800 226.844 C 298.030 227.097,297.147 227.506,296.839 227.752 C 296.430 228.078,274.793 228.229,217.139 228.306 C 154.677 228.389,137.991 228.516,137.958 228.906 C 137.801 230.729,139.785 238.152,140.750 239.354 C 140.947 239.599,141.242 240.430,141.406 241.200 C 141.570 241.970,142.041 243.029,142.452 243.554 C 142.863 244.079,143.200 244.804,143.200 245.165 C 143.200 245.526,143.443 246.177,143.740 246.611 C 144.037 247.045,144.409 247.926,144.565 248.568 C 144.722 249.211,145.198 250.180,145.625 250.722 C 146.051 251.264,146.400 251.926,146.400 252.192 C 146.400 252.458,146.760 253.002,147.200 253.400 C 147.640 253.798,148.000 254.331,148.000 254.584 C 148.000 255.122,150.369 258.505,152.070 260.395 C 152.438 260.805,152.955 261.542,153.218 262.033 C 154.287 264.030,163.875 273.772,166.479 275.507 C 169.084 277.242,169.188 277.321,170.937 278.900 C 171.852 279.725,172.797 280.400,173.039 280.400 C 173.280 280.400,173.893 280.760,174.400 281.200 C 174.907 281.640,175.537 282.000,175.799 282.000 C 176.061 282.000,176.602 282.360,177.000 282.800 C 177.398 283.240,178.032 283.600,178.408 283.600 C 178.784 283.600,179.521 283.935,180.046 284.345 C 180.571 284.755,181.450 285.226,182.000 285.392 C 182.550 285.559,183.270 285.929,183.600 286.216 C 183.930 286.503,184.688 286.859,185.284 287.008 C 185.880 287.157,186.573 287.526,186.824 287.829 C 187.075 288.131,187.937 288.495,188.740 288.638 C 189.543 288.781,190.761 289.235,191.447 289.649 C 192.133 290.062,193.123 290.404,193.647 290.409 C 194.171 290.414,195.385 290.774,196.344 291.209 C 197.303 291.644,198.798 292.000,199.666 292.000 C 200.534 292.000,201.999 292.337,202.922 292.748 C 204.109 293.277,206.048 293.574,209.553 293.762 C 212.277 293.909,214.830 294.202,215.227 294.414 C 216.139 294.902,225.375 294.923,226.305 294.439 C 226.687 294.240,229.008 293.878,231.463 293.634 C 233.918 293.390,236.528 292.946,237.263 292.647 C 237.998 292.348,239.573 291.980,240.763 291.830 C 241.952 291.679,243.428 291.296,244.043 290.978 C 244.657 290.660,245.577 290.400,246.086 290.400 C 246.595 290.400,247.660 290.053,248.452 289.628 C 249.244 289.204,250.539 288.735,251.331 288.586 C 252.123 288.438,252.980 288.065,253.235 287.758 C 253.490 287.451,254.003 287.200,254.375 287.200 C 255.131 287.200,262.438 283.624,263.512 282.728 C 263.890 282.413,264.650 281.938,265.200 281.673 C 266.148 281.216,266.718 280.859,269.440 279.014 C 272.197 277.146,278.181 272.121,281.159 269.174 C 283.746 266.613,290.400 258.739,290.400 258.238 C 290.400 258.129,290.985 257.201,291.700 256.176 C 293.575 253.489,294.468 251.920,296.814 247.200 C 297.962 244.890,299.238 242.345,299.650 241.546 C 300.063 240.746,300.401 239.846,300.402 239.546 C 300.404 239.245,300.667 238.497,300.988 237.883 C 301.308 237.269,301.691 236.099,301.839 235.283 C 301.986 234.467,302.357 233.307,302.662 232.704 C 303.147 231.745,304.047 227.736,304.683 223.700 C 304.950 222.003,304.603 222.107,302.200 224.441 M303.085 227.355 C 302.966 228.480,302.584 229.940,302.237 230.600 C 301.889 231.260,301.604 232.343,301.602 233.006 C 301.601 233.669,301.264 234.839,300.853 235.606 C 300.443 236.373,299.972 237.630,299.807 238.400 C 299.642 239.170,299.272 240.250,298.985 240.800 C 298.697 241.350,297.413 243.930,296.131 246.532 C 293.056 252.776,292.845 253.155,291.958 254.042 C 291.541 254.459,291.200 254.987,291.200 255.216 C 291.200 256.355,283.501 265.788,279.808 269.174 C 278.713 270.178,277.363 271.463,276.808 272.029 C 273.410 275.497,259.349 284.800,257.507 284.800 C 257.297 284.800,256.669 285.160,256.109 285.600 C 255.550 286.040,254.821 286.400,254.490 286.400 C 254.159 286.400,253.148 286.745,252.244 287.167 C 250.366 288.044,247.506 289.009,244.600 289.748 C 243.500 290.027,242.232 290.455,241.783 290.697 C 241.334 290.940,239.464 291.345,237.629 291.596 C 235.793 291.847,233.828 292.356,233.263 292.727 C 231.534 293.860,208.807 293.646,205.200 292.463 C 203.770 291.994,201.970 291.600,201.200 291.588 C 200.430 291.575,199.080 291.294,198.200 290.964 C 197.320 290.633,195.790 290.116,194.800 289.814 C 190.401 288.472,187.143 287.214,184.800 285.951 C 184.470 285.773,182.545 284.801,180.522 283.789 C 177.103 282.080,171.487 278.586,169.931 277.200 C 168.605 276.019,167.807 275.383,166.215 274.241 C 162.588 271.638,150.400 258.343,150.400 256.990 C 150.400 256.856,149.950 256.157,149.400 255.436 C 148.850 254.714,148.400 253.925,148.400 253.682 C 148.400 253.439,148.175 253.096,147.900 252.920 C 147.339 252.561,144.800 247.657,144.800 246.932 C 144.800 246.490,144.499 245.816,142.743 242.321 C 142.334 241.507,142.000 240.562,142.000 240.219 C 142.000 239.877,141.640 238.925,141.200 238.104 C 140.760 237.284,140.396 236.249,140.391 235.806 C 140.386 235.363,140.041 234.249,139.625 233.331 C 139.208 232.413,138.807 231.063,138.733 230.331 L 138.600 229.000 218.132 228.800 C 293.283 228.611,297.693 228.561,298.176 227.900 C 298.458 227.515,298.981 227.200,299.338 227.200 C 299.695 227.200,300.574 226.676,301.290 226.036 C 302.963 224.541,303.352 224.827,303.085 227.355 " stroke="none" fill="#ba8c69" fill-rule="evenodd"></path></g></svg>