<svg id="svg" version="1.1" xmlns="http://www.w3.org/2000/svg" xmlns:xlink="http://www.w3.org/1999/xlink" width="400" height="400" viewBox="0, 0, 400,400"><g id="svgg"><path id="path0" d="M155.000 132.405 C 151.258 133.513,149.352 134.000,148.762 134.000 C 148.397 134.000,147.878 134.265,147.609 134.589 C 147.340 134.914,146.463 135.296,145.660 135.440 C 144.857 135.584,143.930 135.927,143.600 136.203 C 143.270 136.479,142.576 136.835,142.059 136.993 C 141.541 137.151,140.481 137.712,139.703 138.240 C 138.925 138.768,138.063 139.200,137.787 139.200 C 137.511 139.200,137.182 139.470,137.055 139.800 C 136.929 140.130,136.577 140.400,136.275 140.400 C 135.972 140.400,135.201 140.850,134.562 141.400 C 133.923 141.949,133.265 142.399,133.100 142.400 C 132.482 142.401,124.608 150.006,123.339 151.827 C 120.766 155.520,120.664 165.615,123.171 168.455 C 123.517 168.846,124.430 169.971,125.200 170.954 C 125.970 171.937,127.095 172.925,127.700 173.150 C 128.305 173.375,128.800 173.748,128.800 173.979 C 128.800 174.211,129.118 174.400,129.506 174.400 C 129.894 174.400,130.884 174.760,131.704 175.200 C 133.587 176.209,141.180 176.388,141.965 175.442 C 142.220 175.135,143.027 174.771,143.759 174.634 C 144.491 174.497,145.413 174.028,145.807 173.592 C 146.201 173.156,146.632 172.800,146.765 172.800 C 146.897 172.800,148.158 171.720,149.567 170.400 C 150.976 169.080,152.342 168.000,152.602 168.000 C 152.863 168.000,153.402 167.640,153.800 167.200 C 154.198 166.760,154.742 166.400,155.008 166.400 C 155.274 166.400,155.942 166.046,156.492 165.613 C 157.042 165.181,158.282 164.704,159.246 164.554 C 160.211 164.404,161.355 164.038,161.789 163.741 C 162.823 163.032,165.633 163.051,167.286 163.778 C 168.009 164.096,169.284 164.465,170.121 164.600 C 170.958 164.734,171.736 165.088,171.850 165.386 C 171.964 165.684,172.508 166.041,173.058 166.179 C 174.213 166.469,180.789 171.596,180.796 172.212 C 180.798 172.439,181.295 172.844,181.900 173.113 C 182.505 173.381,183.540 173.895,184.200 174.255 C 187.141 175.859,187.736 176.000,191.543 176.000 C 194.145 176.000,195.682 175.822,196.211 175.460 C 196.645 175.163,197.513 174.795,198.140 174.642 C 200.198 174.141,203.770 171.102,204.700 169.060 C 204.966 168.477,205.367 168.000,205.591 168.000 C 205.816 168.000,206.000 167.737,206.000 167.415 C 206.000 167.094,206.428 165.484,206.950 163.838 C 207.968 160.633,207.959 160.420,206.574 155.062 C 206.185 153.556,205.626 152.231,205.333 152.119 C 205.040 152.006,204.800 151.698,204.800 151.433 C 204.800 150.863,201.736 147.652,199.043 145.400 C 197.991 144.520,196.831 143.519,196.465 143.176 C 196.099 142.833,194.773 141.883,193.518 141.066 C 192.262 140.249,191.127 139.405,190.994 139.190 C 190.861 138.976,190.402 138.800,189.972 138.800 C 189.543 138.800,188.884 138.440,188.507 138.000 C 188.130 137.560,187.547 137.196,187.211 137.191 C 186.875 137.186,186.150 136.830,185.600 136.400 C 185.050 135.970,184.240 135.613,183.800 135.607 C 183.360 135.602,182.433 135.251,181.741 134.829 C 181.048 134.407,179.608 133.938,178.541 133.787 C 177.473 133.637,176.150 133.218,175.600 132.857 C 174.460 132.108,157.277 131.731,155.000 132.405 M291.800 132.407 C 291.140 132.608,289.430 133.065,288.000 133.423 C 286.570 133.780,284.745 134.416,283.946 134.836 C 283.146 135.256,282.133 135.600,281.695 135.600 C 281.256 135.600,280.678 135.865,280.409 136.189 C 280.140 136.514,279.308 136.894,278.560 137.034 C 277.812 137.174,277.200 137.458,277.200 137.665 C 277.200 137.872,276.525 138.321,275.700 138.663 C 274.875 139.006,274.056 139.537,273.880 139.843 C 273.704 140.149,273.354 140.400,273.102 140.400 C 272.629 140.400,269.937 142.138,268.765 143.200 C 268.400 143.530,267.323 144.430,266.371 145.200 C 264.298 146.875,260.400 150.868,260.400 151.315 C 260.400 151.489,260.060 152.120,259.645 152.716 C 257.611 155.635,257.684 166.920,259.745 168.073 C 260.105 168.275,260.405 168.656,260.411 168.920 C 260.440 170.229,265.200 174.260,267.187 174.657 C 267.844 174.789,268.588 175.145,268.840 175.448 C 269.616 176.383,277.034 176.202,279.000 175.200 C 279.863 174.760,280.809 174.400,281.101 174.400 C 281.394 174.400,282.020 174.040,282.492 173.600 C 282.964 173.160,283.587 172.800,283.875 172.800 C 284.164 172.800,284.400 172.602,284.400 172.360 C 284.400 171.937,286.082 170.227,287.312 169.400 C 287.639 169.180,288.892 168.325,290.095 167.500 C 291.298 166.675,292.467 166.000,292.692 166.000 C 292.918 166.000,293.314 165.744,293.574 165.431 C 293.834 165.118,294.801 164.737,295.723 164.584 C 296.645 164.431,297.886 164.057,298.480 163.753 C 299.861 163.046,302.789 163.040,303.811 163.742 C 304.245 164.039,305.404 164.387,306.386 164.515 C 307.368 164.643,308.358 164.992,308.586 165.292 C 308.814 165.592,309.585 166.076,310.300 166.367 C 311.015 166.659,311.600 167.060,311.600 167.258 C 311.600 167.457,312.055 167.793,312.610 168.004 C 313.166 168.215,313.725 168.661,313.853 168.994 C 313.981 169.327,314.291 169.602,314.543 169.604 C 314.794 169.606,315.630 170.324,316.400 171.200 C 317.170 172.076,317.997 172.794,318.238 172.796 C 318.479 172.798,318.985 173.141,319.363 173.559 C 319.740 173.976,320.837 174.516,321.801 174.758 C 322.764 175.001,323.664 175.380,323.800 175.600 C 324.287 176.388,331.673 176.080,333.400 175.200 C 334.263 174.760,335.209 174.400,335.501 174.400 C 336.277 174.400,339.950 171.078,342.092 168.438 C 344.550 165.410,344.552 154.816,342.096 151.982 C 341.818 151.662,340.842 150.455,339.925 149.300 C 339.008 148.145,338.117 147.200,337.943 147.200 C 337.770 147.200,337.109 146.705,336.475 146.100 C 334.233 143.961,332.418 142.490,330.239 141.043 C 329.027 140.239,327.927 139.405,327.794 139.190 C 327.661 138.976,327.203 138.800,326.776 138.800 C 326.349 138.800,325.681 138.485,325.291 138.100 C 324.560 137.378,321.362 135.845,319.600 135.373 C 319.050 135.226,318.330 134.881,318.000 134.606 C 317.670 134.331,316.590 133.983,315.600 133.833 C 314.610 133.683,313.350 133.257,312.800 132.887 C 311.654 132.116,294.073 131.714,291.800 132.407 M164.800 207.068 C 164.030 207.175,163.130 207.501,162.800 207.791 C 162.470 208.082,161.525 208.599,160.700 208.940 C 159.875 209.280,159.200 209.736,159.200 209.953 C 159.200 210.169,158.860 210.454,158.445 210.586 C 158.030 210.717,156.821 212.125,155.759 213.713 L 153.827 216.600 153.813 222.409 C 153.801 227.839,153.859 228.294,154.700 229.363 C 155.195 229.993,155.600 230.709,155.600 230.954 C 155.601 231.603,158.695 235.125,161.087 237.200 C 162.956 238.821,167.619 242.942,168.441 243.700 C 168.858 244.085,169.309 244.400,169.442 244.400 C 169.575 244.400,170.193 244.805,170.815 245.300 C 171.436 245.795,172.598 246.650,173.396 247.200 C 174.195 247.750,175.093 248.424,175.394 248.698 C 175.694 248.973,176.358 249.378,176.870 249.600 C 177.381 249.822,178.610 250.621,179.600 251.375 C 180.590 252.130,181.601 252.759,181.846 252.773 C 182.091 252.788,182.736 253.149,183.278 253.575 C 183.820 254.002,184.746 254.472,185.337 254.620 C 185.927 254.768,186.543 255.114,186.705 255.388 C 186.867 255.662,187.661 256.102,188.468 256.364 C 189.275 256.626,190.152 257.102,190.417 257.420 C 190.682 257.739,191.191 258.001,191.549 258.003 C 191.907 258.004,192.740 258.363,193.400 258.800 C 194.060 259.237,194.960 259.600,195.400 259.606 C 195.840 259.613,196.650 259.970,197.200 260.400 C 197.750 260.830,198.578 261.186,199.040 261.191 C 200.163 261.203,202.400 262.000,202.400 262.388 C 202.400 262.558,203.320 262.819,204.444 262.968 C 205.568 263.117,206.873 263.483,207.344 263.782 C 207.815 264.080,209.305 264.447,210.655 264.596 C 212.005 264.746,213.625 265.137,214.255 265.467 C 217.741 267.289,245.547 267.289,249.071 265.467 C 249.693 265.145,251.281 264.748,252.600 264.584 C 253.920 264.419,255.360 264.058,255.800 263.781 C 256.240 263.504,257.410 263.150,258.400 262.995 C 259.390 262.840,260.470 262.483,260.800 262.201 C 261.130 261.919,262.030 261.556,262.800 261.394 C 263.570 261.232,264.830 260.784,265.600 260.399 C 266.909 259.743,269.276 258.656,271.600 257.642 C 272.150 257.402,272.870 257.024,273.200 256.803 C 273.530 256.581,274.250 256.210,274.800 255.979 C 275.350 255.748,276.520 255.122,277.400 254.587 C 278.280 254.053,279.448 253.387,279.995 253.108 C 280.541 252.829,281.306 252.285,281.695 251.900 C 282.083 251.515,282.642 251.200,282.938 251.200 C 283.234 251.200,283.802 250.840,284.200 250.400 C 284.598 249.960,285.106 249.600,285.328 249.600 C 285.551 249.600,286.018 249.326,286.366 248.991 C 286.715 248.656,287.720 247.852,288.600 247.205 C 291.377 245.162,292.075 244.619,292.848 243.900 C 293.261 243.515,293.786 243.200,294.013 243.200 C 294.239 243.200,294.531 242.923,294.661 242.585 C 294.791 242.247,295.370 241.717,295.948 241.408 C 296.527 241.098,298.129 239.755,299.508 238.423 C 300.887 237.090,302.192 236.000,302.408 236.000 C 302.624 236.000,302.800 235.713,302.800 235.363 C 302.800 235.012,303.143 234.635,303.563 234.526 C 303.983 234.416,304.432 234.028,304.562 233.663 C 304.790 233.023,306.300 230.771,307.246 229.661 C 308.928 227.685,308.907 218.023,307.214 215.592 C 306.828 215.038,306.385 214.183,306.229 213.692 C 306.073 213.201,305.598 212.613,305.173 212.386 C 304.748 212.158,304.400 211.708,304.400 211.386 C 304.400 211.064,304.248 210.800,304.062 210.800 C 303.876 210.800,303.201 210.350,302.562 209.800 C 301.923 209.251,301.199 208.801,300.954 208.800 C 300.709 208.800,299.993 208.395,299.364 207.900 C 298.305 207.067,297.815 207.000,292.800 207.000 C 287.785 207.000,287.295 207.067,286.236 207.900 C 285.607 208.395,284.870 208.800,284.598 208.800 C 284.326 208.800,282.478 210.330,280.492 212.200 C 278.505 214.070,276.688 215.600,276.454 215.600 C 276.220 215.600,275.835 215.960,275.600 216.400 C 275.365 216.840,274.998 217.200,274.785 217.200 C 274.573 217.200,273.724 217.882,272.900 218.717 C 272.075 219.551,269.831 221.268,267.913 222.533 C 265.996 223.798,264.320 225.006,264.190 225.216 C 264.059 225.427,263.643 225.600,263.265 225.600 C 262.887 225.600,262.270 225.960,261.893 226.400 C 261.516 226.840,260.874 227.200,260.466 227.200 C 260.058 227.200,259.398 227.560,259.000 228.000 C 258.602 228.440,257.968 228.800,257.592 228.800 C 257.216 228.800,256.450 229.160,255.891 229.600 C 255.331 230.040,254.630 230.400,254.331 230.400 C 254.032 230.400,253.116 230.760,252.296 231.200 C 251.475 231.640,250.499 232.000,250.128 232.000 C 249.756 232.000,248.721 232.343,247.826 232.762 C 246.932 233.181,245.030 233.707,243.600 233.929 C 242.170 234.152,240.190 234.559,239.200 234.834 C 236.518 235.580,225.885 235.491,223.600 234.704 C 222.610 234.362,220.630 233.963,219.200 233.815 C 217.770 233.668,216.221 233.302,215.758 233.003 C 215.296 232.703,214.216 232.329,213.358 232.170 C 212.501 232.012,211.173 231.549,210.406 231.141 C 209.639 230.734,208.718 230.400,208.360 230.400 C 208.001 230.400,207.250 230.040,206.691 229.600 C 206.131 229.160,205.295 228.800,204.833 228.800 C 204.371 228.800,203.684 228.440,203.307 228.000 C 202.930 227.560,202.326 227.200,201.965 227.200 C 201.604 227.200,200.877 226.885,200.351 226.500 C 199.256 225.699,197.993 224.947,196.027 223.925 C 195.272 223.533,194.552 223.068,194.427 222.892 C 194.302 222.716,193.178 221.902,191.928 221.083 C 190.678 220.264,189.117 219.056,188.459 218.397 C 187.800 217.739,187.177 217.200,187.073 217.200 C 186.969 217.200,186.352 216.705,185.701 216.100 C 175.950 207.034,173.298 205.888,164.800 207.068 " stroke="none" fill="#2c342c" fill-rule="evenodd"></path><path id="path1" d="M179.300 4.306 C 178.133 4.436,177.806 4.774,177.953 5.700 C 177.979 5.865,175.042 6.000,171.427 6.000 C 165.205 6.000,164.840 6.043,164.600 6.800 C 164.371 7.521,163.995 7.600,160.806 7.600 C 156.926 7.600,156.000 7.801,156.000 8.643 C 156.000 9.065,155.334 9.200,153.250 9.200 C 149.756 9.200,148.000 9.551,148.000 10.250 C 148.000 10.637,147.379 10.822,145.900 10.874 C 144.745 10.914,143.412 10.968,142.938 10.993 C 142.007 11.042,140.710 11.931,140.967 12.345 C 141.053 12.485,140.208 12.577,139.087 12.548 C 137.514 12.508,136.907 12.673,136.424 13.270 C 136.001 13.792,135.146 14.098,133.799 14.210 C 132.361 14.330,131.646 14.604,131.251 15.188 C 130.840 15.797,130.264 16.000,128.947 16.000 C 127.687 16.000,126.999 16.226,126.507 16.800 C 126.130 17.240,125.367 17.613,124.811 17.628 C 123.486 17.665,122.331 18.134,122.379 18.616 C 122.400 18.827,121.763 19.057,120.964 19.127 C 119.929 19.217,119.453 19.476,119.309 20.027 C 119.117 20.759,118.405 20.950,115.902 20.940 C 115.518 20.938,115.290 21.023,115.396 21.129 C 115.736 21.469,114.229 22.374,113.300 22.387 C 112.805 22.394,112.400 22.568,112.400 22.773 C 112.400 22.978,112.037 23.261,111.594 23.402 C 111.151 23.543,110.877 23.801,110.985 23.976 C 111.093 24.151,110.871 24.295,110.491 24.296 C 109.258 24.299,108.000 24.880,108.000 25.447 C 108.000 25.788,107.564 26.000,106.862 26.000 C 106.232 26.000,105.401 26.357,105.000 26.800 C 104.602 27.240,103.854 27.600,103.338 27.600 C 102.667 27.600,102.400 27.827,102.400 28.400 C 102.400 28.973,102.133 29.200,101.458 29.200 C 100.941 29.200,100.024 29.657,99.421 30.215 C 98.664 30.918,98.075 31.151,97.513 30.972 C 96.916 30.783,96.784 30.850,97.016 31.225 C 97.238 31.585,97.141 31.663,96.686 31.488 C 96.233 31.314,96.107 31.413,96.263 31.820 C 96.423 32.237,96.186 32.400,95.419 32.400 C 94.833 32.400,94.437 32.537,94.541 32.704 C 94.837 33.183,93.882 34.187,93.000 34.324 C 92.560 34.392,91.953 34.797,91.651 35.224 C 91.349 35.651,90.674 36.000,90.151 36.000 C 89.485 36.000,89.200 36.227,89.200 36.757 C 89.200 37.518,87.530 38.251,86.810 37.806 C 86.616 37.687,86.343 37.951,86.202 38.394 C 86.061 38.837,85.700 39.200,85.400 39.200 C 85.100 39.200,84.740 39.560,84.600 40.000 C 84.460 40.440,84.090 40.800,83.776 40.800 C 83.463 40.800,82.982 41.160,82.707 41.600 C 82.432 42.040,81.880 42.400,81.480 42.400 C 81.077 42.400,80.868 42.586,81.011 42.818 C 81.369 43.397,80.390 44.482,79.736 44.231 C 79.441 44.118,79.200 44.199,79.200 44.413 C 79.200 44.626,78.930 44.800,78.600 44.800 C 78.270 44.800,78.000 45.070,78.000 45.400 C 78.000 45.742,77.640 46.000,77.163 46.000 C 76.662 46.000,76.241 46.321,76.116 46.800 C 76.001 47.240,75.678 47.600,75.399 47.600 C 75.120 47.600,74.597 48.050,74.237 48.600 C 73.876 49.150,73.316 49.600,72.991 49.600 C 72.666 49.600,72.400 49.870,72.400 50.200 C 72.400 50.741,71.925 50.978,71.100 50.847 C 70.935 50.821,70.821 50.935,70.847 51.100 C 70.988 51.990,70.713 52.400,69.976 52.400 C 69.523 52.400,69.242 52.544,69.350 52.719 C 69.634 53.179,68.920 54.200,68.315 54.200 C 68.032 54.200,67.742 54.605,67.672 55.100 C 67.590 55.678,67.268 56.000,66.772 56.000 C 66.276 56.000,66.000 56.276,66.000 56.772 C 66.000 57.268,65.678 57.590,65.100 57.672 C 64.605 57.742,64.200 58.032,64.200 58.315 C 64.200 58.920,63.179 59.634,62.719 59.350 C 62.544 59.242,62.400 59.425,62.400 59.758 C 62.400 60.531,60.547 62.400,59.782 62.400 C 59.462 62.400,59.200 62.717,59.200 63.104 C 59.200 63.491,58.840 64.032,58.400 64.307 C 57.960 64.582,57.600 65.054,57.600 65.357 C 57.600 65.659,57.240 66.001,56.800 66.116 C 56.360 66.231,56.000 66.600,56.000 66.936 C 56.000 67.271,55.640 67.660,55.200 67.800 C 54.760 67.940,54.400 68.281,54.400 68.559 C 54.400 68.837,53.964 69.298,53.432 69.583 C 52.812 69.915,52.549 70.322,52.700 70.716 C 52.843 71.089,52.770 71.228,52.513 71.070 C 52.072 70.797,51.045 71.783,50.967 72.554 C 50.942 72.799,50.894 73.315,50.861 73.700 C 50.827 74.085,50.582 74.355,50.315 74.300 C 50.048 74.245,49.645 74.605,49.420 75.100 C 49.195 75.595,48.786 76.000,48.513 76.000 C 48.239 76.000,47.900 76.461,47.758 77.024 C 47.604 77.637,47.294 77.968,46.984 77.849 C 46.408 77.628,46.000 78.412,46.000 79.738 C 46.000 80.255,45.633 80.777,45.100 81.020 C 44.605 81.245,44.245 81.648,44.300 81.915 C 44.355 82.182,44.207 82.400,43.971 82.400 C 43.415 82.400,42.739 83.131,42.040 84.486 C 41.732 85.084,41.372 85.506,41.240 85.425 C 41.108 85.343,40.975 85.689,40.945 86.193 C 40.915 86.697,40.587 87.445,40.216 87.855 C 38.525 89.723,37.601 91.048,37.600 91.604 C 37.600 91.936,37.240 92.432,36.800 92.707 C 36.248 93.052,36.000 93.640,36.000 94.603 C 36.000 95.729,35.846 96.000,35.208 96.000 C 34.699 96.000,34.327 96.353,34.168 96.986 C 34.032 97.528,33.582 98.079,33.168 98.210 C 32.755 98.341,32.434 98.573,32.455 98.724 C 32.634 99.981,32.314 101.200,31.805 101.200 C 31.421 101.200,31.120 101.762,30.956 102.784 C 30.817 103.655,30.506 104.330,30.266 104.284 C 30.026 104.238,29.644 104.607,29.418 105.104 C 29.192 105.601,28.711 106.101,28.350 106.216 C 27.989 106.331,27.700 106.644,27.709 106.912 C 27.759 108.372,27.567 109.700,27.340 109.473 C 26.911 109.044,26.026 110.520,26.013 111.687 C 26.004 112.445,25.832 112.711,25.448 112.563 C 24.875 112.343,23.824 114.591,24.209 115.214 C 24.318 115.391,24.001 115.865,23.504 116.268 C 23.007 116.671,22.537 117.540,22.459 118.200 C 22.324 119.351,21.713 120.117,21.189 119.793 C 21.053 119.709,20.941 119.946,20.942 120.320 C 20.945 122.389,20.749 123.200,20.247 123.200 C 19.622 123.200,19.214 124.397,19.205 126.253 C 19.201 127.168,18.984 127.563,18.400 127.716 C 17.787 127.876,17.600 128.262,17.600 129.363 C 17.600 130.648,17.332 130.975,16.365 130.869 C 16.235 130.855,16.100 131.585,16.065 132.492 C 16.023 133.563,15.720 134.402,15.200 134.886 C 14.760 135.296,14.382 135.849,14.360 136.116 C 14.339 136.382,14.275 137.126,14.218 137.769 C 14.162 138.412,13.775 139.222,13.358 139.569 C 12.848 139.994,12.553 140.854,12.457 142.200 C 12.324 144.056,11.820 144.983,11.164 144.578 C 11.014 144.485,10.898 144.632,10.908 144.904 C 11.008 147.681,10.738 149.600,10.247 149.600 C 9.576 149.600,9.213 150.821,9.205 153.100 C 9.202 154.278,9.030 154.800,8.647 154.800 C 7.943 154.800,7.612 156.039,7.605 158.700 C 7.602 159.908,7.420 160.800,7.176 160.800 C 6.943 160.800,6.883 161.011,7.042 161.268 C 7.228 161.568,7.124 161.657,6.753 161.514 C 6.362 161.364,6.172 161.569,6.165 162.146 C 6.089 168.026,5.969 169.200,5.443 169.200 C 4.588 169.200,4.307 170.280,4.144 174.200 C 4.037 176.773,3.825 177.925,3.403 178.240 C 3.078 178.481,2.930 178.796,3.073 178.940 C 3.216 179.083,3.137 179.200,2.898 179.200 C 2.601 179.200,2.448 181.580,2.418 186.672 C 2.376 193.670,2.322 194.179,1.570 194.706 C 0.352 195.559,0.415 219.824,1.637 220.212 C 2.342 220.436,2.403 220.929,2.446 226.727 C 2.472 230.177,2.536 233.180,2.589 233.400 C 2.921 234.779,3.353 235.600,3.747 235.600 C 4.048 235.600,4.185 236.604,4.155 238.597 C 4.097 242.459,4.343 243.660,5.241 243.895 C 5.857 244.056,5.987 244.586,6.085 247.343 C 6.176 249.920,6.325 250.600,6.800 250.600 C 7.261 250.600,7.446 251.281,7.600 253.533 C 7.740 255.583,7.992 256.606,8.440 256.933 C 8.828 257.217,9.159 258.231,9.282 259.514 C 9.402 260.766,9.743 261.826,10.117 262.114 C 10.488 262.400,10.793 263.341,10.857 264.400 C 10.928 265.576,11.214 266.381,11.683 266.723 C 12.077 267.010,12.402 267.640,12.405 268.123 C 12.415 269.629,12.870 270.800,13.447 270.800 C 13.757 270.800,14.022 271.239,14.050 271.800 C 14.078 272.350,14.137 272.935,14.183 273.100 C 14.744 275.140,14.940 275.561,15.290 275.487 C 15.516 275.439,15.909 276.210,16.163 277.200 C 16.425 278.223,16.835 278.957,17.112 278.900 C 17.430 278.835,17.600 279.348,17.600 280.373 C 17.600 281.595,17.779 282.003,18.400 282.200 C 19.001 282.391,19.200 282.805,19.200 283.864 C 19.200 284.912,19.395 285.326,19.957 285.473 C 20.718 285.672,21.416 287.727,20.968 288.451 C 20.843 288.654,20.889 288.794,21.070 288.763 C 21.997 288.601,22.334 288.923,22.574 290.200 C 22.718 290.970,23.013 291.600,23.228 291.600 C 23.444 291.600,23.798 292.067,24.015 292.639 C 24.232 293.210,24.767 293.771,25.205 293.885 C 25.913 294.071,26.284 295.399,26.047 296.900 C 26.021 297.065,26.360 297.200,26.800 297.200 C 27.562 297.200,27.792 297.893,27.703 299.927 C 27.690 300.216,27.779 300.355,27.899 300.234 C 28.149 299.985,29.600 301.544,29.600 302.061 C 29.600 302.248,29.858 302.400,30.173 302.400 C 30.756 302.400,31.452 303.881,31.056 304.278 C 30.778 304.555,31.808 305.600,32.359 305.600 C 32.588 305.600,32.674 305.862,32.551 306.183 C 32.401 306.574,32.677 306.854,33.387 307.033 C 34.078 307.206,34.372 307.495,34.232 307.862 C 34.101 308.202,34.407 308.603,35.008 308.876 C 35.642 309.165,36.000 309.658,36.000 310.242 C 36.000 310.744,36.334 311.390,36.743 311.677 C 37.151 311.965,37.613 312.605,37.770 313.100 C 37.926 313.595,38.312 314.000,38.627 314.000 C 39.145 314.000,39.376 314.485,39.247 315.300 C 39.221 315.465,39.398 315.600,39.640 315.600 C 40.285 315.600,42.400 317.982,42.400 318.709 C 42.400 319.052,42.514 319.220,42.653 319.081 C 43.029 318.704,44.437 319.567,44.350 320.121 C 44.223 320.920,44.851 322.000,45.443 322.000 C 45.749 322.000,46.000 322.171,46.000 322.379 C 46.000 322.588,46.447 323.241,46.993 323.830 C 47.538 324.419,47.904 325.032,47.805 325.192 C 47.706 325.352,48.080 325.690,48.635 325.943 C 49.191 326.196,49.534 326.583,49.399 326.802 C 49.264 327.021,49.523 327.200,49.976 327.200 C 50.429 327.200,50.800 327.381,50.800 327.603 C 50.800 327.824,51.244 328.391,51.786 328.863 C 52.329 329.335,52.681 329.868,52.570 330.049 C 52.459 330.229,52.825 330.491,53.384 330.632 C 53.943 330.772,54.400 331.154,54.400 331.481 C 54.400 331.808,54.760 332.169,55.200 332.284 C 55.640 332.399,56.000 332.759,56.000 333.084 C 56.000 333.409,56.360 333.769,56.800 333.884 C 57.521 334.073,57.769 334.477,57.655 335.276 C 57.634 335.427,58.011 335.676,58.493 335.829 C 58.975 335.982,59.891 336.629,60.528 337.267 C 61.166 337.904,62.300 338.682,63.050 338.995 C 63.799 339.308,64.364 339.793,64.306 340.073 C 64.248 340.352,64.605 340.643,65.100 340.718 C 65.595 340.794,66.000 341.118,66.000 341.438 C 66.000 341.758,66.450 342.191,67.000 342.400 C 67.550 342.609,68.000 343.055,68.000 343.390 C 68.000 343.726,68.227 344.000,68.504 344.000 C 68.781 344.000,69.232 344.360,69.507 344.800 C 69.782 345.240,70.286 345.600,70.627 345.600 C 70.968 345.600,71.148 345.760,71.027 345.956 C 70.906 346.152,71.452 346.618,72.239 346.992 C 73.027 347.366,74.015 348.015,74.436 348.436 C 74.856 348.856,75.359 349.200,75.553 349.200 C 75.748 349.200,76.002 349.565,76.119 350.011 C 76.236 350.458,76.482 350.796,76.666 350.764 C 77.587 350.602,78.064 350.855,77.857 351.395 C 77.732 351.723,77.757 351.968,77.914 351.942 C 78.885 351.776,80.933 352.624,81.100 353.261 C 81.206 353.667,81.649 354.000,82.084 354.000 C 82.538 354.000,82.964 354.340,83.084 354.800 C 83.199 355.240,83.618 355.600,84.014 355.600 C 85.143 355.600,86.000 356.036,86.000 356.611 C 86.000 356.900,86.549 357.257,87.219 357.404 C 88.235 357.627,88.357 357.770,87.951 358.259 C 87.684 358.581,87.630 358.811,87.832 358.769 C 88.753 358.579,90.867 359.378,91.228 360.053 C 91.501 360.562,92.070 360.800,93.014 360.800 C 93.776 360.800,94.379 360.935,94.353 361.100 C 94.217 361.961,94.473 362.400,95.112 362.400 C 95.503 362.400,96.083 362.760,96.400 363.200 C 96.746 363.681,97.435 364.000,98.126 364.000 C 98.938 364.000,99.336 364.234,99.484 364.800 C 99.615 365.299,100.030 365.600,100.588 365.600 C 101.080 365.600,102.004 366.055,102.642 366.611 C 104.949 368.626,105.964 369.200,107.216 369.200 C 107.838 369.200,108.018 369.377,107.847 369.821 C 107.711 370.177,107.778 370.337,108.005 370.197 C 108.222 370.063,108.400 370.143,108.400 370.376 C 108.400 370.609,109.038 370.800,109.818 370.800 C 110.946 370.800,111.211 370.943,111.118 371.500 C 111.024 372.058,111.336 372.225,112.659 372.321 C 113.907 372.412,114.368 372.635,114.521 373.221 C 114.677 373.815,115.075 374.000,116.200 374.000 C 117.338 374.000,117.723 374.182,117.884 374.800 C 118.069 375.506,119.159 375.859,120.500 375.647 C 120.665 375.621,120.800 375.759,120.800 375.954 C 120.800 376.519,123.402 377.600,124.760 377.600 C 125.553 377.600,126.000 377.801,126.000 378.157 C 126.000 378.795,126.849 379.200,128.186 379.200 C 128.770 379.200,129.183 379.492,129.316 380.000 C 129.484 380.642,129.862 380.800,131.229 380.800 C 132.166 380.800,132.816 380.917,132.673 381.060 C 132.122 381.611,133.886 382.375,135.737 382.387 C 137.333 382.398,137.712 382.541,137.884 383.200 C 138.061 383.875,138.430 384.000,140.247 384.000 C 142.276 384.000,142.620 384.204,142.447 385.300 C 142.421 385.465,142.715 385.621,143.100 385.646 C 143.485 385.672,143.980 385.734,144.200 385.785 C 144.420 385.836,145.024 385.906,145.543 385.939 C 146.150 385.978,146.413 386.190,146.281 386.533 C 146.168 386.827,146.284 387.088,146.538 387.114 C 151.612 387.637,152.262 387.773,152.916 388.454 C 153.443 389.004,154.207 389.200,155.816 389.200 C 157.409 389.200,158.000 389.350,158.000 389.753 C 158.000 390.471,159.247 390.788,162.100 390.795 C 163.914 390.799,164.400 390.932,164.400 391.424 C 164.400 391.767,164.580 391.936,164.800 391.800 C 165.020 391.664,165.200 391.743,165.200 391.976 C 165.200 392.245,166.605 392.400,169.043 392.400 C 172.174 392.400,172.846 392.504,172.670 392.961 C 172.351 393.794,173.596 393.988,179.300 393.995 C 184.026 394.000,184.400 394.055,184.400 394.753 C 184.400 395.880,184.745 395.904,200.658 395.891 C 217.737 395.877,218.649 395.821,218.926 394.761 C 219.103 394.084,227.994 393.525,229.454 394.100 C 229.594 394.155,229.858 393.795,230.041 393.300 C 230.343 392.485,230.637 392.400,233.154 392.400 C 236.288 392.400,237.200 392.165,237.200 391.357 C 237.200 390.942,237.821 390.800,239.637 390.800 C 241.738 390.800,242.104 390.690,242.284 390.000 C 242.460 389.328,242.830 389.200,244.598 389.200 C 246.237 389.200,246.824 389.026,247.251 388.414 C 247.622 387.883,248.446 387.555,249.791 387.402 C 250.924 387.273,251.923 386.923,252.110 386.590 C 252.290 386.267,253.149 385.890,254.019 385.751 C 255.207 385.561,255.600 385.312,255.600 384.749 C 255.600 384.161,255.898 384.000,256.986 384.000 C 257.962 384.000,258.498 383.764,258.800 383.200 C 259.105 382.630,259.638 382.400,260.652 382.400 C 261.710 382.400,262.125 382.207,262.272 381.646 C 262.407 381.132,262.969 380.811,264.035 380.641 C 264.965 380.492,265.600 380.170,265.600 379.846 C 265.600 379.521,266.243 379.199,267.200 379.046 C 268.168 378.892,268.800 378.573,268.800 378.240 C 268.800 377.927,269.404 377.576,270.195 377.427 C 270.970 377.282,271.776 376.819,272.007 376.387 C 272.236 375.958,272.554 375.627,272.712 375.651 C 273.590 375.784,274.000 375.512,274.000 374.800 C 274.000 374.155,274.267 374.000,275.373 374.000 C 276.395 374.000,276.811 373.795,277.000 373.200 C 277.162 372.689,277.605 372.400,278.227 372.400 C 278.911 372.400,279.200 372.178,279.200 371.651 C 279.200 371.085,279.596 370.839,280.819 370.643 C 281.718 370.500,282.330 370.211,282.196 369.994 C 282.064 369.779,282.415 369.394,282.977 369.137 C 283.540 368.881,284.000 368.445,284.000 368.168 C 284.000 367.890,284.540 367.545,285.200 367.400 C 285.859 367.255,286.624 366.836,286.900 366.468 C 287.175 366.101,287.625 365.782,287.900 365.760 C 289.028 365.670,289.147 365.566,289.000 364.800 C 288.887 364.211,289.061 364.000,289.660 364.000 C 290.125 364.000,290.561 363.673,290.674 363.237 C 290.784 362.817,291.217 362.384,291.637 362.274 C 292.057 362.165,292.400 361.788,292.400 361.437 C 292.400 361.087,292.725 360.800,293.122 360.800 C 293.520 360.800,294.446 360.356,295.182 359.813 C 295.918 359.271,296.653 358.909,296.817 359.011 C 296.981 359.112,297.227 358.746,297.365 358.197 C 297.503 357.649,297.887 357.200,298.220 357.200 C 298.553 357.200,298.922 356.948,299.040 356.639 C 299.159 356.331,299.608 355.987,300.039 355.874 C 300.470 355.761,300.796 355.518,300.764 355.334 C 300.617 354.499,300.860 354.078,301.600 353.884 C 302.040 353.769,302.400 353.388,302.400 353.037 C 302.400 352.667,302.735 352.400,303.200 352.400 C 303.733 352.400,304.000 352.133,304.000 351.600 C 304.000 351.010,304.267 350.800,305.018 350.800 C 305.742 350.800,306.001 350.611,305.918 350.144 C 305.842 349.724,306.232 349.328,307.000 349.044 C 308.345 348.546,312.115 344.910,311.805 344.409 C 311.695 344.231,312.052 343.973,312.597 343.837 C 313.206 343.684,313.684 343.206,313.837 342.597 C 313.973 342.052,314.231 341.695,314.409 341.805 C 314.910 342.115,318.546 338.345,319.044 337.000 C 319.328 336.232,319.724 335.842,320.144 335.918 C 320.611 336.001,320.800 335.742,320.800 335.018 C 320.800 334.267,321.010 334.000,321.600 334.000 C 322.117 334.000,322.400 333.733,322.400 333.247 C 322.400 332.830,322.757 332.400,323.200 332.284 C 323.640 332.169,324.000 331.788,324.000 331.437 C 324.000 330.854,324.477 330.613,325.334 330.764 C 325.518 330.796,325.761 330.470,325.874 330.039 C 325.987 329.608,326.331 329.159,326.639 329.040 C 326.948 328.922,327.200 328.553,327.200 328.220 C 327.200 327.887,327.649 327.503,328.197 327.365 C 328.746 327.227,329.112 326.981,329.011 326.817 C 328.909 326.653,329.271 325.918,329.813 325.182 C 330.356 324.446,330.800 323.520,330.800 323.122 C 330.800 322.667,331.095 322.400,331.600 322.400 C 332.133 322.400,332.400 322.133,332.400 321.600 C 332.400 321.067,332.667 320.800,333.200 320.800 C 333.745 320.800,334.000 320.533,334.000 319.963 C 334.000 319.462,334.321 319.041,334.800 318.916 C 335.240 318.801,335.600 318.464,335.600 318.167 C 335.600 317.871,335.939 317.447,336.353 317.225 C 336.768 317.003,337.222 316.207,337.363 315.455 C 337.531 314.562,337.894 314.016,338.410 313.882 C 338.844 313.768,339.200 313.409,339.200 313.084 C 339.200 312.759,339.560 312.399,340.000 312.284 C 340.440 312.169,340.800 311.800,340.800 311.464 C 340.800 311.129,341.160 310.740,341.600 310.600 C 342.188 310.413,342.400 309.995,342.400 309.020 C 342.400 308.030,342.603 307.640,343.200 307.484 C 343.687 307.357,344.000 306.938,344.000 306.414 C 344.000 305.940,344.165 305.655,344.368 305.780 C 344.862 306.086,346.071 304.839,345.763 304.341 C 345.629 304.124,345.881 303.852,346.322 303.736 C 346.844 303.600,347.211 303.065,347.372 302.207 C 347.532 301.358,347.901 300.815,348.410 300.682 C 348.844 300.568,349.200 300.188,349.200 299.837 C 349.200 299.487,349.560 298.840,350.000 298.400 C 350.440 297.960,350.800 297.252,350.800 296.827 C 350.800 296.402,351.160 295.940,351.600 295.800 C 352.040 295.660,352.400 295.219,352.400 294.820 C 352.400 294.420,352.760 293.999,353.200 293.884 C 353.813 293.724,354.000 293.338,354.000 292.237 C 354.000 291.312,354.188 290.800,354.529 290.800 C 355.143 290.800,357.093 287.967,357.446 286.561 C 357.578 286.032,357.935 285.600,358.239 285.600 C 358.573 285.600,358.891 284.970,359.046 284.000 C 359.203 283.019,359.518 282.400,359.861 282.400 C 360.168 282.400,360.577 281.988,360.768 281.484 C 360.960 280.980,361.405 280.327,361.758 280.035 C 362.111 279.742,362.400 279.005,362.400 278.398 C 362.400 277.630,362.644 277.230,363.200 277.084 C 363.806 276.925,364.000 276.538,364.000 275.484 C 364.000 274.463,364.198 274.041,364.746 273.898 C 365.220 273.774,365.588 273.190,365.756 272.296 C 365.934 271.344,366.285 270.819,366.840 270.674 C 367.333 270.545,367.630 270.168,367.584 269.730 C 367.427 268.226,367.622 267.687,368.400 267.484 C 368.840 267.369,369.200 266.971,369.200 266.601 C 369.200 266.230,369.560 265.469,370.000 264.909 C 370.440 264.350,370.800 263.556,370.800 263.146 C 370.800 262.736,371.160 262.040,371.600 261.600 C 372.040 261.160,372.400 260.427,372.400 259.971 C 372.400 259.034,373.358 257.892,373.786 258.319 C 373.940 258.474,374.030 258.420,373.986 258.200 C 373.606 256.317,374.055 254.000,374.800 254.000 C 375.240 254.000,375.615 253.865,375.633 253.700 C 375.825 251.952,376.145 250.951,376.592 250.701 C 376.888 250.535,377.254 249.667,377.405 248.772 C 377.556 247.877,377.918 247.053,378.210 246.941 C 378.502 246.829,378.862 246.019,379.010 245.142 C 379.158 244.264,379.379 243.645,379.500 243.767 C 379.899 244.166,380.800 241.938,380.800 240.554 C 380.800 239.663,380.991 239.200,381.357 239.200 C 382.054 239.200,382.400 238.330,382.400 236.580 C 382.400 235.598,382.551 235.283,382.947 235.435 C 383.589 235.681,383.987 234.489,383.995 232.300 C 384.000 230.929,384.284 230.592,385.300 230.753 C 385.465 230.779,385.618 230.485,385.640 230.100 C 385.794 227.381,386.051 225.816,386.374 225.616 C 386.948 225.262,387.600 223.294,387.600 221.918 C 387.600 221.242,387.888 220.477,388.241 220.220 C 388.612 219.948,388.969 218.923,389.091 217.776 C 389.207 216.689,389.583 215.478,389.926 215.085 C 390.295 214.663,390.660 213.189,390.817 211.485 C 390.963 209.898,391.109 208.757,391.141 208.949 C 391.420 210.604,392.400 207.876,392.400 205.447 C 392.400 203.026,392.521 202.517,393.200 202.093 C 393.909 201.650,394.000 201.160,394.000 197.797 C 394.000 194.758,394.115 194.000,394.576 194.000 C 395.503 194.000,395.640 193.439,395.858 188.717 C 396.023 185.163,396.203 184.140,396.733 183.752 C 397.466 183.216,397.492 182.924,397.557 174.400 C 397.591 169.919,397.711 168.800,398.153 168.800 C 399.398 168.800,399.774 144.631,398.548 143.405 C 398.215 143.072,398.091 142.797,398.271 142.794 C 398.452 142.791,398.394 142.656,398.142 142.494 C 397.843 142.302,397.628 140.070,397.523 136.054 C 397.394 131.100,397.243 129.820,396.743 129.454 C 396.304 129.132,396.049 127.957,395.865 125.400 C 395.650 122.421,395.467 121.705,394.803 121.251 C 394.122 120.786,394.000 120.257,394.000 117.765 C 394.000 115.281,393.882 114.765,393.234 114.418 C 392.634 114.097,392.423 113.424,392.258 111.304 C 391.981 107.739,391.955 107.642,391.333 107.881 C 390.943 108.031,390.800 107.650,390.800 106.457 C 390.800 105.238,390.599 104.721,390.000 104.400 C 389.550 104.159,389.200 103.562,389.200 103.036 C 389.200 101.247,388.697 99.600,388.150 99.600 C 387.790 99.600,387.600 99.125,387.600 98.223 C 387.600 97.313,387.337 96.661,386.824 96.302 C 386.150 95.830,385.751 94.688,385.633 92.900 C 385.615 92.625,385.465 92.421,385.300 92.447 C 384.292 92.606,384.000 92.272,384.000 90.963 C 384.000 89.862,383.813 89.476,383.200 89.316 C 382.594 89.157,382.400 88.770,382.400 87.716 C 382.400 86.684,382.203 86.274,381.638 86.126 C 381.152 85.999,380.782 85.432,380.619 84.563 C 380.468 83.754,380.127 83.200,379.782 83.200 C 379.402 83.200,379.200 82.783,379.200 82.000 C 379.200 81.083,379.019 80.800,378.432 80.800 C 377.900 80.800,377.581 80.423,377.394 79.573 C 377.246 78.898,376.888 78.255,376.598 78.144 C 376.309 78.033,375.963 77.505,375.828 76.971 C 375.673 76.352,375.298 76.000,374.792 76.000 C 374.218 76.000,374.000 75.730,374.000 75.021 C 374.000 74.153,373.568 73.498,371.476 71.200 C 371.176 70.870,370.816 70.285,370.678 69.900 C 370.539 69.515,370.170 69.200,369.859 69.200 C 369.548 69.200,369.199 68.840,369.084 68.400 C 368.969 67.960,368.608 67.600,368.281 67.600 C 367.762 67.600,366.966 65.893,367.126 65.124 C 367.158 64.973,366.827 64.736,366.392 64.597 C 365.956 64.459,365.600 64.088,365.600 63.773 C 365.600 63.458,365.313 63.200,364.963 63.200 C 364.612 63.200,364.233 62.846,364.119 62.413 C 364.006 61.981,363.573 61.518,363.157 61.386 C 362.741 61.254,362.400 60.921,362.400 60.645 C 362.400 60.370,361.950 59.753,361.400 59.275 C 360.850 58.797,360.400 58.224,360.400 58.003 C 360.400 57.781,360.136 57.600,359.814 57.600 C 359.492 57.600,359.033 57.235,358.794 56.789 C 358.555 56.343,358.209 56.071,358.025 56.184 C 357.626 56.431,356.707 55.426,357.034 55.100 C 357.158 54.975,356.887 54.754,356.430 54.610 C 355.974 54.465,355.600 54.117,355.600 53.837 C 355.600 53.557,354.895 53.095,354.033 52.811 C 353.126 52.512,352.383 51.979,352.270 51.547 C 352.163 51.136,351.809 50.800,351.484 50.800 C 351.159 50.800,350.799 50.440,350.684 50.000 C 350.564 49.540,350.138 49.200,349.684 49.200 C 349.230 49.200,348.804 48.860,348.684 48.400 C 348.569 47.960,348.188 47.600,347.837 47.600 C 347.277 47.600,347.034 47.166,347.137 46.347 C 347.154 46.208,346.951 46.101,346.684 46.110 C 344.888 46.169,344.000 45.937,344.000 45.409 C 344.000 45.084,343.550 44.524,343.000 44.163 C 342.450 43.803,342.000 43.297,342.000 43.039 C 342.000 42.781,341.428 42.527,340.729 42.473 C 340.003 42.418,339.222 42.039,338.907 41.588 C 338.603 41.155,338.095 40.800,337.777 40.800 C 337.460 40.800,337.200 40.440,337.200 40.000 C 337.200 39.560,337.065 39.221,336.900 39.247 C 335.394 39.485,334.071 39.113,333.884 38.400 C 333.769 37.960,333.341 37.600,332.934 37.600 C 332.526 37.600,331.968 37.240,331.693 36.800 C 331.416 36.357,330.760 36.000,330.224 36.000 C 329.605 36.000,329.162 35.710,329.000 35.200 C 328.766 34.462,328.239 34.286,326.300 34.293 C 325.915 34.295,325.600 34.056,325.600 33.762 C 325.600 33.125,324.361 32.400,323.273 32.400 C 322.830 32.400,322.403 32.055,322.284 31.600 C 322.125 30.994,321.738 30.800,320.684 30.800 C 319.630 30.800,319.243 30.606,319.084 30.000 C 318.918 29.364,318.538 29.200,317.237 29.200 C 316.104 29.200,315.600 29.028,315.600 28.643 C 315.600 28.005,314.751 27.600,313.414 27.600 C 312.830 27.600,312.417 27.308,312.284 26.800 C 312.119 26.167,311.738 26.000,310.464 26.000 C 309.205 26.000,308.799 25.825,308.600 25.200 C 308.460 24.760,308.133 24.379,307.873 24.353 C 307.613 24.327,306.712 24.258,305.870 24.199 C 304.849 24.128,304.143 23.811,303.747 23.246 C 303.343 22.669,302.726 22.400,301.804 22.400 C 300.844 22.400,300.386 22.187,300.220 21.663 C 300.037 21.087,299.537 20.910,297.924 20.853 C 296.378 20.799,295.723 20.583,295.308 19.990 C 294.872 19.368,294.292 19.200,292.577 19.200 C 290.990 19.200,290.400 19.050,290.400 18.647 C 290.400 18.002,289.192 17.613,287.162 17.605 C 286.237 17.602,285.466 17.314,285.000 16.800 C 284.422 16.162,283.768 16.000,281.765 16.000 C 279.605 16.000,279.218 15.888,279.000 15.200 C 278.823 14.641,278.362 14.382,277.473 14.339 C 276.773 14.306,276.020 14.236,275.800 14.185 C 275.580 14.134,274.746 14.072,273.947 14.046 C 272.852 14.011,272.442 13.803,272.284 13.200 C 272.098 12.489,271.738 12.400,269.037 12.400 C 266.533 12.400,265.860 12.260,265.200 11.600 C 264.561 10.961,263.867 10.800,261.744 10.800 C 259.865 10.800,258.958 10.627,258.644 10.207 C 258.068 9.439,256.989 9.266,252.547 9.230 C 249.243 9.203,248.873 9.123,248.684 8.400 C 248.489 7.655,248.138 7.600,243.614 7.600 C 240.469 7.600,238.840 7.459,239.000 7.199 C 239.514 6.368,236.942 6.000,230.621 6.000 C 224.582 6.000,224.079 5.944,223.898 5.252 C 223.749 4.684,223.187 4.444,221.551 4.252 C 219.362 3.994,181.674 4.043,179.300 4.306 M170.600 130.241 C 171.480 130.574,173.529 131.010,175.154 131.210 C 176.778 131.410,178.398 131.833,178.754 132.151 C 179.109 132.469,180.269 132.857,181.332 133.015 C 182.394 133.172,183.350 133.527,183.457 133.803 C 183.563 134.079,184.350 134.418,185.206 134.555 C 186.062 134.691,186.906 135.047,187.081 135.345 C 187.256 135.643,188.075 136.106,188.900 136.374 C 189.725 136.643,190.400 137.026,190.400 137.226 C 190.400 137.426,190.985 137.868,191.700 138.209 C 194.227 139.414,195.254 140.075,195.468 140.634 C 195.588 140.945,195.857 141.200,196.066 141.200 C 196.532 141.200,199.275 143.304,201.280 145.200 C 202.094 145.970,202.959 146.780,203.201 147.000 C 204.722 148.380,206.778 151.058,207.000 151.950 C 207.144 152.527,207.563 153.333,207.931 153.741 C 209.066 154.998,209.145 164.536,208.033 166.041 C 207.575 166.661,207.200 167.379,207.200 167.637 C 207.200 169.265,201.362 175.579,199.844 175.593 C 199.428 175.597,198.858 175.915,198.577 176.300 C 198.126 176.916,197.299 177.000,191.675 177.000 C 186.151 177.000,185.180 176.905,184.511 176.300 C 184.085 175.915,183.445 175.600,183.089 175.600 C 182.733 175.600,181.956 175.150,181.362 174.600 C 180.769 174.050,180.129 173.600,179.942 173.600 C 179.754 173.600,179.600 173.330,179.600 173.000 C 179.600 172.670,179.446 172.400,179.258 172.400 C 179.071 172.400,178.458 171.995,177.897 171.500 C 177.336 171.005,176.394 170.240,175.803 169.800 C 175.213 169.360,174.311 168.618,173.798 168.152 C 173.286 167.685,172.357 167.176,171.734 167.021 C 171.110 166.865,170.275 166.445,169.878 166.087 C 168.854 165.164,159.919 165.189,158.888 166.117 C 158.510 166.459,157.660 166.871,157.000 167.033 C 156.340 167.196,155.565 167.660,155.277 168.065 C 154.990 168.469,154.566 168.800,154.335 168.800 C 153.950 168.800,152.927 169.544,150.466 171.614 C 149.952 172.046,149.367 172.400,149.166 172.400 C 148.965 172.400,148.800 172.670,148.800 173.000 C 148.800 173.330,148.646 173.600,148.458 173.600 C 148.271 173.600,147.631 174.050,147.038 174.600 C 146.444 175.150,145.681 175.600,145.342 175.600 C 145.004 175.600,144.269 175.960,143.709 176.400 C 141.933 177.797,129.600 177.413,129.600 175.961 C 129.600 175.762,129.285 175.598,128.900 175.595 C 127.183 175.581,121.234 169.483,121.207 167.710 C 121.203 167.440,120.841 166.630,120.401 165.910 C 119.230 163.988,119.229 156.369,120.400 154.600 C 120.837 153.940,121.196 153.085,121.197 152.700 C 121.199 152.315,121.560 151.640,122.000 151.200 C 122.440 150.760,122.800 150.228,122.800 150.017 C 122.800 149.428,129.655 142.800,130.263 142.800 C 130.559 142.800,130.800 142.638,130.800 142.440 C 130.800 142.241,131.385 141.712,132.100 141.262 C 132.815 140.813,134.171 139.895,135.114 139.223 C 136.057 138.550,137.086 138.000,137.400 138.000 C 137.715 138.000,138.165 137.640,138.400 137.200 C 138.635 136.760,139.158 136.400,139.560 136.400 C 139.963 136.400,140.721 136.063,141.246 135.652 C 141.771 135.241,142.820 134.769,143.577 134.603 C 144.335 134.438,145.186 134.071,145.469 133.788 C 145.753 133.505,146.753 133.147,147.692 132.993 C 148.631 132.839,149.714 132.436,150.098 132.097 C 150.540 131.706,151.900 131.409,153.807 131.287 C 155.463 131.181,156.915 130.938,157.033 130.747 C 157.151 130.556,157.732 130.397,158.324 130.394 C 158.916 130.391,159.670 130.213,160.000 130.000 C 160.973 129.371,168.769 129.548,170.600 130.241 M307.664 130.395 C 309.059 130.832,310.848 131.192,311.640 131.195 C 313.245 131.201,315.600 131.910,315.600 132.388 C 315.600 132.558,316.492 132.815,317.583 132.960 C 318.674 133.105,319.803 133.460,320.093 133.750 C 320.383 134.040,321.300 134.405,322.131 134.561 C 322.962 134.717,323.738 135.093,323.854 135.398 C 323.971 135.702,324.579 136.064,325.206 136.201 C 325.832 136.339,326.568 136.720,326.841 137.049 C 327.113 137.377,327.891 137.911,328.568 138.234 C 330.737 139.268,331.726 139.925,332.088 140.571 C 332.281 140.917,332.694 141.200,333.006 141.200 C 333.317 141.200,333.765 141.560,334.000 142.000 C 334.235 142.440,334.629 142.800,334.875 142.800 C 335.121 142.800,336.330 143.713,337.561 144.830 C 338.793 145.946,340.132 147.161,340.538 147.530 C 341.569 148.467,344.000 152.173,344.000 152.810 C 344.000 153.100,344.315 153.685,344.700 154.110 C 345.704 155.220,345.743 165.126,344.747 166.258 C 344.388 166.666,343.965 167.424,343.807 167.941 C 343.061 170.384,338.083 175.600,336.498 175.600 C 336.149 175.600,335.515 175.915,335.091 176.300 C 333.803 177.467,323.098 177.571,321.556 176.431 C 320.938 175.974,320.155 175.600,319.816 175.600 C 319.477 175.600,318.840 175.240,318.400 174.800 C 317.960 174.360,317.505 174.000,317.389 174.000 C 317.274 174.000,316.329 173.184,315.289 172.187 C 312.599 169.605,312.316 169.370,311.200 168.797 C 310.650 168.514,310.056 168.039,309.880 167.742 C 309.704 167.444,309.233 167.200,308.834 167.200 C 308.435 167.200,307.612 166.810,307.006 166.333 C 305.555 165.192,296.911 165.015,295.705 166.102 C 295.317 166.452,294.460 166.868,293.800 167.026 C 293.140 167.185,292.330 167.563,292.000 167.867 C 290.513 169.234,288.242 170.800,287.745 170.800 C 287.445 170.800,287.200 171.033,287.200 171.319 C 287.200 171.604,286.652 172.279,285.982 172.819 C 285.312 173.358,284.295 174.205,283.723 174.700 C 283.151 175.195,282.409 175.600,282.073 175.600 C 281.738 175.600,281.116 175.915,280.691 176.300 C 278.291 178.476,266.851 177.224,263.639 174.435 C 263.110 173.976,262.447 173.600,262.166 173.600 C 261.884 173.600,261.540 173.240,261.400 172.800 C 261.260 172.360,260.991 172.000,260.801 172.000 C 260.292 172.000,258.000 168.470,257.997 167.680 C 257.996 167.306,257.637 166.460,257.200 165.800 C 256.017 164.014,256.017 156.013,257.200 154.509 C 257.640 153.950,258.000 153.165,258.000 152.766 C 258.000 151.219,265.498 142.800,266.876 142.800 C 267.054 142.800,267.605 142.431,268.100 141.981 C 268.595 141.531,269.360 140.837,269.800 140.439 C 270.240 140.041,270.870 139.591,271.200 139.439 C 271.530 139.287,272.520 138.721,273.400 138.182 C 274.280 137.643,275.758 136.837,276.683 136.390 C 277.609 135.943,278.475 135.402,278.607 135.189 C 278.739 134.975,279.154 134.800,279.530 134.800 C 279.905 134.800,280.878 134.443,281.691 134.007 C 282.505 133.571,283.897 133.098,284.785 132.956 C 285.673 132.814,286.400 132.560,286.400 132.392 C 286.400 131.896,287.620 131.552,290.600 131.209 C 292.140 131.032,294.300 130.619,295.400 130.293 C 298.465 129.383,304.600 129.434,307.664 130.395 M173.031 205.367 C 173.477 205.679,174.535 206.064,175.384 206.223 C 177.209 206.566,179.688 208.159,181.510 210.161 C 182.230 210.952,182.995 211.600,183.210 211.600 C 183.424 211.600,183.600 211.876,183.600 212.213 C 183.600 212.549,183.915 212.939,184.300 213.078 C 184.685 213.218,185.671 213.977,186.492 214.766 C 187.312 215.555,188.392 216.507,188.892 216.883 C 189.391 217.259,190.366 218.024,191.058 218.583 C 191.750 219.142,192.504 219.600,192.735 219.600 C 192.966 219.600,193.390 219.918,193.677 220.306 C 193.965 220.695,194.695 221.231,195.300 221.498 C 195.905 221.764,196.400 222.167,196.400 222.391 C 196.400 222.616,196.670 222.800,197.000 222.800 C 197.330 222.800,197.942 223.142,198.359 223.559 C 198.777 223.977,199.676 224.441,200.357 224.591 C 201.038 224.740,201.731 225.073,201.898 225.331 C 202.338 226.012,206.266 228.000,207.172 228.000 C 207.596 228.000,208.208 228.265,208.532 228.589 C 208.856 228.913,209.872 229.347,210.789 229.553 C 211.707 229.759,212.759 230.190,213.129 230.510 C 213.498 230.831,214.768 231.201,215.951 231.334 C 217.133 231.466,218.494 231.831,218.973 232.146 C 221.419 233.748,242.252 233.782,244.015 232.186 C 244.355 231.879,245.700 231.501,247.004 231.348 C 248.431 231.180,249.687 230.777,250.162 230.335 C 250.596 229.931,251.384 229.600,251.912 229.600 C 252.441 229.600,253.331 229.240,253.891 228.800 C 254.450 228.360,255.170 228.000,255.491 228.000 C 255.811 228.000,256.531 227.640,257.091 227.200 C 257.650 226.760,258.409 226.400,258.776 226.400 C 259.144 226.400,260.055 225.950,260.800 225.400 C 261.545 224.850,262.390 224.400,262.678 224.400 C 262.965 224.400,263.200 224.211,263.200 223.980 C 263.200 223.748,263.830 223.296,264.600 222.974 C 265.370 222.652,266.000 222.224,266.000 222.022 C 266.000 221.819,266.368 221.537,266.818 221.394 C 267.268 221.251,268.033 220.773,268.518 220.331 C 269.003 219.889,270.118 218.989,270.995 218.331 C 273.141 216.723,276.376 213.892,279.251 211.105 C 280.554 209.843,282.191 208.515,282.890 208.153 C 283.589 207.792,284.391 207.266,284.673 206.985 C 284.954 206.703,285.897 206.353,286.769 206.205 C 287.641 206.058,288.566 205.682,288.826 205.369 C 289.502 204.555,296.106 204.564,296.784 205.380 C 297.049 205.700,298.050 206.078,299.009 206.222 C 299.967 206.366,301.060 206.825,301.438 207.242 C 301.815 207.659,302.356 208.000,302.639 208.000 C 302.923 208.000,303.390 208.327,303.677 208.726 C 303.965 209.126,304.515 209.570,304.900 209.714 C 305.285 209.857,305.600 210.207,305.600 210.491 C 305.600 210.775,305.960 211.232,306.400 211.507 C 306.840 211.782,307.200 212.235,307.200 212.514 C 307.200 212.794,307.560 213.330,308.000 213.707 C 308.440 214.084,308.801 214.799,308.803 215.296 C 308.804 215.793,309.163 216.740,309.600 217.400 C 310.751 219.139,310.751 225.347,309.600 227.496 C 309.160 228.316,308.800 229.322,308.800 229.731 C 308.800 231.556,292.939 247.200,291.089 247.200 C 290.985 247.200,290.227 247.817,289.404 248.571 C 288.581 249.324,287.389 250.156,286.754 250.419 C 286.119 250.682,285.600 251.033,285.600 251.200 C 285.600 251.367,285.060 251.727,284.400 252.000 C 283.740 252.273,283.200 252.633,283.200 252.800 C 283.200 252.967,282.623 253.342,281.917 253.634 C 281.212 253.927,280.312 254.488,279.917 254.883 C 279.523 255.277,278.834 255.600,278.387 255.600 C 277.941 255.600,277.474 255.863,277.350 256.185 C 277.227 256.506,276.738 256.891,276.263 257.040 C 275.788 257.188,274.971 257.645,274.446 258.055 C 273.921 258.465,273.181 258.800,272.800 258.800 C 272.419 258.800,271.679 259.137,271.154 259.548 C 270.629 259.959,269.580 260.431,268.823 260.597 C 268.065 260.762,267.197 261.146,266.894 261.449 C 266.591 261.752,265.844 262.000,265.233 262.000 C 264.623 262.000,263.815 262.341,263.438 262.758 C 263.057 263.179,261.916 263.640,260.876 263.794 C 259.844 263.946,258.710 264.331,258.355 264.648 C 258.000 264.965,256.740 265.331,255.555 265.460 C 254.370 265.589,252.978 265.959,252.463 266.281 C 251.947 266.604,250.147 266.966,248.463 267.086 C 246.473 267.228,245.140 267.531,244.658 267.952 C 243.537 268.931,220.062 268.930,218.942 267.951 C 218.442 267.514,217.120 267.233,214.886 267.088 C 213.024 266.968,211.184 266.620,210.686 266.296 C 210.199 265.978,208.853 265.627,207.696 265.517 C 206.539 265.407,205.279 265.044,204.896 264.712 C 204.513 264.379,203.428 263.989,202.485 263.846 C 201.542 263.703,200.105 263.229,199.291 262.793 C 198.478 262.357,197.428 262.000,196.960 262.000 C 196.491 262.000,195.650 261.640,195.091 261.200 C 194.531 260.760,193.635 260.400,193.099 260.400 C 192.563 260.400,191.798 260.040,191.400 259.600 C 191.002 259.160,190.368 258.800,189.992 258.800 C 189.616 258.800,188.850 258.440,188.291 258.000 C 187.731 257.560,187.011 257.200,186.691 257.200 C 186.370 257.200,185.679 256.878,185.154 256.484 C 184.629 256.090,183.750 255.538,183.200 255.257 C 181.516 254.397,179.882 253.425,178.036 252.185 C 174.785 250.001,174.206 249.627,173.079 248.991 C 172.462 248.643,171.630 248.052,171.230 247.679 C 169.830 246.373,167.125 244.226,166.067 243.581 C 165.480 243.223,163.976 241.956,162.723 240.765 C 161.471 239.574,159.542 237.790,158.436 236.800 C 157.330 235.810,156.420 234.784,156.413 234.520 C 156.406 234.256,156.143 233.896,155.830 233.720 C 154.856 233.174,153.255 230.498,152.959 228.922 C 152.804 228.096,152.435 227.178,152.139 226.881 C 151.340 226.083,151.390 219.067,152.200 218.257 C 152.530 217.927,152.800 217.311,152.800 216.888 C 152.800 215.804,153.613 213.600,154.012 213.600 C 154.196 213.600,154.464 213.228,154.608 212.773 C 155.219 210.848,160.389 206.727,162.870 206.187 C 163.601 206.028,164.555 205.651,164.989 205.349 C 166.079 204.590,171.941 204.603,173.031 205.367 " stroke="none" fill="#c47c8c" fill-rule="evenodd"></path><path id="path2" d="M160.543 130.706 C 160.291 130.868,162.361 131.002,165.143 131.006 C 167.924 131.009,169.660 130.895,169.000 130.753 C 167.304 130.388,161.091 130.354,160.543 130.706 M299.312 130.695 C 300.364 130.777,301.984 130.776,302.912 130.692 C 303.840 130.608,302.980 130.541,301.000 130.542 C 299.020 130.543,298.260 130.612,299.312 130.695 M295.000 131.200 L 293.400 131.486 294.800 131.537 C 295.570 131.565,296.470 131.413,296.800 131.200 C 297.455 130.777,297.362 130.777,295.000 131.200 M305.800 131.200 C 306.460 131.368,307.450 131.505,308.000 131.505 C 308.892 131.505,308.870 131.472,307.800 131.200 C 307.140 131.032,306.150 130.895,305.600 130.895 C 304.708 130.895,304.730 130.928,305.800 131.200 M157.505 131.483 C 158.002 131.579,158.722 131.575,159.105 131.475 C 159.487 131.375,159.080 131.296,158.200 131.301 C 157.320 131.305,157.007 131.387,157.505 131.483 M154.100 131.876 C 154.485 131.976,155.115 131.976,155.500 131.876 C 155.885 131.775,155.570 131.693,154.800 131.693 C 154.030 131.693,153.715 131.775,154.100 131.876 M177.146 132.616 C 177.886 132.937,178.606 133.194,178.746 133.186 C 179.266 133.157,176.976 132.028,176.400 132.030 C 176.070 132.031,176.406 132.294,177.146 132.616 M287.600 132.600 C 287.050 132.914,286.780 133.172,287.000 133.172 C 287.220 133.172,287.850 132.914,288.400 132.600 C 288.950 132.286,289.220 132.028,289.000 132.028 C 288.780 132.028,288.150 132.286,287.600 132.600 M313.776 132.613 C 314.204 132.936,314.834 133.199,315.176 133.198 C 315.519 133.196,315.284 132.926,314.654 132.598 C 313.204 131.841,312.766 131.849,313.776 132.613 M182.000 134.200 C 182.550 134.514,183.180 134.772,183.400 134.772 C 183.620 134.772,183.350 134.514,182.800 134.200 C 182.250 133.886,181.620 133.628,181.400 133.628 C 181.180 133.628,181.450 133.886,182.000 134.200 M282.800 134.200 C 282.250 134.514,281.980 134.772,282.200 134.772 C 282.420 134.772,283.050 134.514,283.600 134.200 C 284.150 133.886,284.420 133.628,284.200 133.628 C 283.980 133.628,283.350 133.886,282.800 134.200 M321.400 135.251 C 322.060 135.502,322.870 135.898,323.200 136.132 C 323.733 136.509,323.733 136.484,323.200 135.904 C 322.870 135.546,322.060 135.150,321.400 135.024 L 320.200 134.795 321.400 135.251 M278.184 136.154 C 276.288 137.146,274.482 138.400,274.948 138.400 C 275.127 138.400,275.731 138.040,276.291 137.600 C 276.850 137.160,277.509 136.799,277.754 136.797 C 277.999 136.796,278.740 136.437,279.400 136.000 C 280.942 134.979,280.267 135.064,278.184 136.154 M324.033 136.521 C 324.125 136.588,324.740 136.958,325.400 137.345 L 326.600 138.047 325.656 137.224 C 325.136 136.771,324.521 136.400,324.289 136.400 C 324.057 136.400,323.942 136.454,324.033 136.521 M138.441 137.834 C 137.693 138.365,137.253 138.800,137.463 138.800 C 137.673 138.800,138.455 138.350,139.200 137.800 C 140.935 136.520,140.247 136.551,138.441 137.834 M270.922 140.629 L 269.800 141.658 271.100 140.754 C 271.815 140.257,272.400 139.793,272.400 139.725 C 272.400 139.409,271.958 139.680,270.922 140.629 M329.600 139.711 C 329.600 139.787,330.185 140.278,330.900 140.801 C 331.704 141.390,331.984 141.487,331.633 141.055 C 331.100 140.399,329.600 139.407,329.600 139.711 M197.641 143.300 C 197.737 143.355,198.712 144.210,199.807 145.200 L 201.800 147.000 200.017 145.100 C 199.036 144.055,198.061 143.200,197.850 143.200 C 197.639 143.200,197.545 143.245,197.641 143.300 M334.600 143.457 C 336.637 145.264,337.387 145.791,336.602 144.863 C 336.166 144.348,335.447 143.741,335.004 143.514 C 334.562 143.287,334.380 143.262,334.600 143.457 M126.189 147.300 L 123.400 150.200 126.300 147.411 C 128.994 144.820,129.383 144.400,129.089 144.400 C 129.028 144.400,127.723 145.705,126.189 147.300 M262.766 147.500 C 261.108 149.205,259.501 150.960,259.195 151.400 C 258.547 152.332,258.445 152.431,262.788 147.900 C 264.632 145.975,266.061 144.400,265.962 144.400 C 265.862 144.400,264.424 145.795,262.766 147.500 M338.800 146.925 C 338.800 146.994,339.385 147.579,340.100 148.225 L 341.400 149.400 340.225 148.100 C 339.130 146.888,338.800 146.616,338.800 146.925 M204.783 150.300 C 205.526 151.235,206.206 152.000,206.294 152.000 C 206.577 152.000,204.863 149.749,204.135 149.164 C 203.748 148.854,204.040 149.365,204.783 150.300 M341.564 150.333 C 341.780 150.736,342.271 151.321,342.655 151.633 C 343.087 151.984,342.990 151.704,342.401 150.900 C 341.351 149.465,340.957 149.198,341.564 150.333 M343.620 154.000 C 343.616 154.110,343.871 154.920,344.188 155.800 C 344.505 156.680,344.766 157.040,344.768 156.600 C 344.771 155.935,343.645 153.385,343.620 154.000 M208.093 158.000 C 208.093 158.770,208.175 159.085,208.276 158.700 C 208.376 158.315,208.376 157.685,208.276 157.300 C 208.175 156.915,208.093 157.230,208.093 158.000 M256.942 160.200 C 256.941 162.180,257.008 163.040,257.092 162.112 C 257.176 161.184,257.177 159.564,257.095 158.512 C 257.012 157.460,256.943 158.220,256.942 160.200 M344.909 160.000 C 344.909 160.990,344.987 161.395,345.082 160.900 C 345.178 160.405,345.178 159.595,345.082 159.100 C 344.987 158.605,344.909 159.010,344.909 160.000 M344.446 163.667 C 344.421 164.034,344.296 164.664,344.170 165.067 C 343.952 165.762,343.963 165.763,344.397 165.087 C 344.648 164.696,344.773 164.066,344.673 163.687 C 344.511 163.068,344.488 163.066,344.446 163.667 M164.033 164.147 C 164.125 164.228,164.920 164.404,165.800 164.538 C 166.915 164.707,167.158 164.671,166.600 164.419 C 165.832 164.071,163.690 163.844,164.033 164.147 M300.833 164.147 C 300.925 164.228,301.720 164.404,302.600 164.538 C 303.715 164.707,303.958 164.671,303.400 164.419 C 302.632 164.071,300.490 163.844,300.833 164.147 M158.800 165.218 C 158.362 165.515,158.524 165.552,159.400 165.356 C 160.871 165.027,161.190 164.798,160.167 164.806 C 159.745 164.809,159.130 164.995,158.800 165.218 M173.407 167.212 C 173.550 167.443,174.333 168.053,175.147 168.567 C 175.961 169.080,177.701 170.444,179.014 171.596 L 181.400 173.691 179.143 171.503 C 176.991 169.417,172.860 166.326,173.407 167.212 M310.889 167.686 C 313.074 169.519,314.594 170.577,314.042 169.881 C 313.735 169.495,312.655 168.637,311.642 167.976 C 310.560 167.269,310.249 167.150,310.889 167.686 M286.568 170.916 C 285.266 172.080,283.681 173.430,283.046 173.916 C 282.411 174.402,282.058 174.800,282.262 174.800 C 282.465 174.800,283.884 173.700,285.415 172.355 C 288.923 169.276,289.423 168.800,289.154 168.800 C 289.034 168.800,287.871 169.752,286.568 170.916 M148.975 171.700 L 147.800 173.000 149.100 171.825 C 149.815 171.179,150.400 170.594,150.400 170.525 C 150.400 170.216,150.070 170.488,148.975 171.700 M337.800 173.835 L 336.600 174.866 338.000 173.963 C 339.796 172.804,339.801 172.800,339.367 172.802 C 339.165 172.803,338.460 173.268,337.800 173.835 M129.600 175.400 C 130.590 175.930,131.580 176.364,131.800 176.364 C 132.020 176.364,131.390 175.930,130.400 175.400 C 129.410 174.870,128.420 174.436,128.200 174.436 C 127.980 174.436,128.610 174.870,129.600 175.400 M197.600 175.600 C 196.830 176.022,196.380 176.366,196.600 176.366 C 196.820 176.366,197.630 176.022,198.400 175.600 C 199.170 175.178,199.620 174.834,199.400 174.834 C 199.180 174.834,198.370 175.178,197.600 175.600 M139.700 176.676 C 140.085 176.776,140.715 176.776,141.100 176.676 C 141.485 176.575,141.170 176.493,140.400 176.493 C 139.630 176.493,139.315 176.575,139.700 176.676 M276.500 176.676 C 276.885 176.776,277.515 176.776,277.900 176.676 C 278.285 176.575,277.970 176.493,277.200 176.493 C 276.430 176.493,276.115 176.575,276.500 176.676 M165.915 205.928 C 165.538 206.078,166.926 206.200,169.000 206.200 C 171.074 206.200,172.462 206.078,172.085 205.928 C 171.708 205.779,170.320 205.656,169.000 205.656 C 167.680 205.656,166.292 205.779,165.915 205.928 M289.400 205.976 C 288.946 206.157,289.899 206.217,291.600 206.115 C 295.507 205.882,296.081 205.664,292.800 205.660 C 291.370 205.658,289.840 205.800,289.400 205.976 M284.856 207.613 C 283.616 208.646,284.175 208.635,285.491 207.600 C 286.050 207.160,286.349 206.806,286.154 206.813 C 285.959 206.821,285.375 207.181,284.856 207.613 M158.015 209.616 C 156.208 211.161,156.651 211.149,158.600 209.600 C 159.431 208.940,159.950 208.407,159.755 208.416 C 159.560 208.425,158.777 208.965,158.015 209.616 M282.200 209.435 L 281.000 210.466 282.300 209.606 C 283.015 209.133,283.600 208.668,283.600 208.573 C 283.600 208.273,283.431 208.378,282.200 209.435 M302.042 208.500 C 302.138 208.555,303.203 209.500,304.408 210.600 L 306.600 212.600 304.615 210.500 C 303.523 209.345,302.458 208.400,302.248 208.400 C 302.038 208.400,301.945 208.445,302.042 208.500 M179.200 208.910 C 179.200 208.971,180.595 210.366,182.300 212.010 L 185.400 215.000 182.410 211.900 C 179.633 209.021,179.200 208.617,179.200 208.910 M155.923 211.900 C 155.218 212.721,154.690 213.600,154.901 213.600 C 154.983 213.600,155.449 213.060,155.937 212.400 C 156.901 211.096,156.892 210.772,155.923 211.900 M277.185 214.029 L 275.800 215.258 277.300 214.181 C 278.626 213.230,279.057 212.800,278.685 212.800 C 278.622 212.800,277.947 213.353,277.185 214.029 M188.348 217.473 C 188.596 217.953,189.136 218.453,189.547 218.583 C 189.958 218.714,190.616 219.176,191.009 219.610 C 191.402 220.045,191.901 220.400,192.117 220.400 C 192.333 220.400,191.810 219.864,190.955 219.209 C 190.100 218.554,189.062 217.699,188.648 217.309 C 187.923 216.625,187.912 216.630,188.348 217.473 M309.044 219.000 C 309.373 220.471,309.602 220.790,309.594 219.767 C 309.591 219.345,309.405 218.730,309.182 218.400 C 308.885 217.962,308.848 218.124,309.044 219.000 M152.252 220.500 C 151.915 221.757,151.991 224.047,152.400 225.000 C 152.633 225.543,152.753 224.804,152.772 222.700 C 152.801 219.501,152.669 218.944,152.252 220.500 M192.800 220.533 C 192.800 220.643,193.520 221.303,194.400 222.000 C 195.280 222.697,196.000 223.177,196.000 223.067 C 196.000 222.957,195.280 222.297,194.400 221.600 C 193.520 220.903,192.800 220.423,192.800 220.533 M309.693 222.400 C 309.693 223.170,309.775 223.485,309.876 223.100 C 309.976 222.715,309.976 222.085,309.876 221.700 C 309.775 221.315,309.693 221.630,309.693 222.400 M263.618 224.250 C 262.858 224.789,262.138 225.338,262.018 225.470 C 261.624 225.902,263.780 224.697,264.754 223.940 C 266.156 222.852,265.232 223.104,263.618 224.250 M153.606 229.250 C 153.597 229.605,155.633 233.200,155.842 233.200 C 155.938 233.200,155.660 232.525,155.224 231.700 C 154.278 229.911,153.615 228.906,153.606 229.250 M250.400 231.000 C 249.850 231.314,249.580 231.572,249.800 231.572 C 250.020 231.572,250.650 231.314,251.200 231.000 C 251.750 230.686,252.020 230.428,251.800 230.428 C 251.580 230.428,250.950 230.686,250.400 231.000 M217.146 232.616 C 217.886 232.937,218.696 233.193,218.946 233.184 C 219.196 233.176,218.794 232.906,218.054 232.584 C 217.314 232.263,216.504 232.007,216.254 232.016 C 216.004 232.024,216.406 232.294,217.146 232.616 M224.600 234.023 C 225.480 234.205,226.650 234.344,227.200 234.331 C 227.841 234.316,227.626 234.189,226.600 233.977 C 225.720 233.795,224.550 233.656,224.000 233.669 C 223.359 233.684,223.574 233.811,224.600 234.023 M238.500 233.876 C 238.885 233.976,239.515 233.976,239.900 233.876 C 240.285 233.775,239.970 233.693,239.200 233.693 C 238.430 233.693,238.115 233.775,238.500 233.876 M303.618 235.334 L 302.237 237.000 303.918 235.419 C 304.843 234.549,305.600 233.784,305.600 233.719 C 305.600 233.259,304.794 233.916,303.618 235.334 M235.700 234.276 C 236.085 234.376,236.715 234.376,237.100 234.276 C 237.485 234.175,237.170 234.093,236.400 234.093 C 235.630 234.093,235.315 234.175,235.700 234.276 M229.900 234.693 C 230.835 234.777,232.365 234.777,233.300 234.693 C 234.235 234.609,233.470 234.540,231.600 234.540 C 229.730 234.540,228.965 234.609,229.900 234.693 M158.600 236.257 C 160.637 238.064,161.387 238.591,160.602 237.663 C 160.166 237.148,159.447 236.541,159.004 236.314 C 158.562 236.087,158.380 236.062,158.600 236.257 M298.581 240.100 L 297.000 241.800 298.700 240.219 C 299.635 239.349,300.400 238.584,300.400 238.519 C 300.400 238.216,300.052 238.519,298.581 240.100 M164.600 241.457 C 166.637 243.264,167.387 243.791,166.602 242.863 C 166.166 242.348,165.447 241.741,165.004 241.514 C 164.562 241.287,164.380 241.262,164.600 241.457 M293.592 244.113 C 293.038 244.601,291.958 245.510,291.192 246.132 C 290.427 246.755,290.160 247.080,290.600 246.854 C 291.453 246.416,295.137 243.237,294.800 243.230 C 294.690 243.227,294.147 243.625,293.592 244.113 M169.600 245.333 C 169.600 245.443,170.320 246.103,171.200 246.800 C 172.080 247.497,172.800 247.977,172.800 247.867 C 172.800 247.757,172.080 247.097,171.200 246.400 C 170.320 245.703,169.600 245.223,169.600 245.333 M287.354 248.868 C 285.729 250.091,285.263 250.573,286.200 250.060 C 287.240 249.491,289.072 248.020,288.754 248.009 C 288.619 248.004,287.989 248.391,287.354 248.868 M276.400 255.800 C 275.655 256.350,275.162 256.800,275.305 256.800 C 275.447 256.800,276.228 256.350,277.038 255.800 C 277.849 255.250,278.341 254.800,278.134 254.800 C 277.926 254.800,277.145 255.250,276.400 255.800 M262.000 262.400 C 261.230 262.822,260.780 263.166,261.000 263.166 C 261.220 263.166,262.030 262.822,262.800 262.400 C 263.570 261.978,264.020 261.634,263.800 261.634 C 263.580 261.634,262.770 261.978,262.000 262.400 M205.600 264.200 C 206.150 264.514,206.780 264.772,207.000 264.772 C 207.220 264.772,206.950 264.514,206.400 264.200 C 205.850 263.886,205.220 263.628,205.000 263.628 C 204.780 263.628,205.050 263.886,205.600 264.200 M212.000 265.982 C 212.330 266.205,212.945 266.391,213.367 266.394 C 214.390 266.402,214.071 266.173,212.600 265.844 C 211.724 265.648,211.562 265.685,212.000 265.982 M215.505 266.683 C 216.002 266.779,216.722 266.775,217.105 266.675 C 217.487 266.575,217.080 266.496,216.200 266.501 C 215.320 266.505,215.007 266.587,215.505 266.683 M246.705 266.683 C 247.202 266.779,247.922 266.775,248.305 266.675 C 248.687 266.575,248.280 266.496,247.400 266.501 C 246.520 266.505,246.207 266.587,246.705 266.683 M219.300 267.076 C 219.685 267.176,220.315 267.176,220.700 267.076 C 221.085 266.975,220.770 266.893,220.000 266.893 C 219.230 266.893,218.915 266.975,219.300 267.076 M241.836 267.098 C 241.672 267.262,240.517 267.515,239.269 267.660 L 237.000 267.925 239.200 267.791 C 242.432 267.594,245.560 266.920,243.567 266.850 C 242.778 266.823,241.999 266.934,241.836 267.098 M221.837 267.660 C 221.953 267.847,223.072 267.986,224.324 267.968 C 226.955 267.932,226.707 267.738,223.713 267.492 C 222.566 267.397,221.722 267.473,221.837 267.660 M229.317 268.297 C 230.811 268.374,233.151 268.374,234.517 268.296 C 235.882 268.218,234.660 268.155,231.800 268.155 C 228.940 268.156,227.822 268.220,229.317 268.297 " stroke="none" fill="#78585c" fill-rule="evenodd"></path><path id="path3" d="M114.976 21.422 C 114.212 22.034,114.213 22.038,115.000 21.676 C 115.440 21.474,116.070 21.208,116.400 21.086 C 116.918 20.893,116.915 20.859,116.376 20.832 C 116.034 20.814,115.404 21.080,114.976 21.422 M394.900 121.232 C 395.285 121.456,395.614 121.946,395.632 122.320 C 395.652 122.758,395.737 122.817,395.869 122.487 C 396.109 121.891,395.311 120.794,394.651 120.812 C 394.403 120.819,394.515 121.008,394.900 121.232 M160.000 130.000 C 159.670 130.213,158.916 130.391,158.324 130.394 C 157.732 130.397,157.151 130.556,157.033 130.747 C 156.915 130.938,155.463 131.181,153.807 131.287 C 151.900 131.409,150.540 131.706,150.098 132.097 C 149.714 132.436,148.631 132.839,147.692 132.993 C 146.753 133.147,145.753 133.505,145.469 133.788 C 145.186 134.071,144.335 134.438,143.577 134.603 C 142.820 134.769,141.771 135.241,141.246 135.652 C 140.721 136.063,139.963 136.400,139.560 136.400 C 139.158 136.400,138.635 136.760,138.400 137.200 C 138.165 137.640,137.715 138.000,137.400 138.000 C 137.086 138.000,136.057 138.550,135.114 139.223 C 134.171 139.895,132.815 140.813,132.100 141.262 C 131.385 141.712,130.800 142.241,130.800 142.440 C 130.800 142.638,130.559 142.800,130.263 142.800 C 129.655 142.800,122.800 149.428,122.800 150.017 C 122.800 150.228,122.440 150.760,122.000 151.200 C 121.560 151.640,121.199 152.315,121.197 152.700 C 121.196 153.085,120.837 153.940,120.400 154.600 C 119.229 156.369,119.230 163.988,120.401 165.910 C 120.841 166.630,121.203 167.440,121.207 167.710 C 121.234 169.483,127.183 175.581,128.900 175.595 C 129.285 175.598,129.600 175.762,129.600 175.961 C 129.600 177.413,141.933 177.797,143.709 176.400 C 144.269 175.960,145.004 175.600,145.342 175.600 C 145.681 175.600,146.444 175.150,147.038 174.600 C 147.631 174.050,148.271 173.600,148.458 173.600 C 148.646 173.600,148.800 173.330,148.800 173.000 C 148.800 172.670,148.965 172.400,149.166 172.400 C 149.367 172.400,149.952 172.046,150.466 171.614 C 152.927 169.544,153.950 168.800,154.335 168.800 C 154.566 168.800,154.990 168.469,155.277 168.065 C 155.565 167.660,156.340 167.196,157.000 167.033 C 157.660 166.871,158.510 166.459,158.888 166.117 C 159.919 165.189,168.854 165.164,169.878 166.087 C 170.275 166.445,171.110 166.865,171.734 167.021 C 172.357 167.176,173.286 167.685,173.798 168.152 C 174.311 168.618,175.213 169.360,175.803 169.800 C 176.394 170.240,177.336 171.005,177.897 171.500 C 178.458 171.995,179.071 172.400,179.258 172.400 C 179.446 172.400,179.600 172.670,179.600 173.000 C 179.600 173.330,179.754 173.600,179.942 173.600 C 180.129 173.600,180.769 174.050,181.362 174.600 C 181.956 175.150,182.733 175.600,183.089 175.600 C 183.445 175.600,184.085 175.915,184.511 176.300 C 185.180 176.905,186.151 177.000,191.675 177.000 C 197.299 177.000,198.126 176.916,198.577 176.300 C 198.858 175.915,199.428 175.597,199.844 175.593 C 201.362 175.579,207.200 169.265,207.200 167.637 C 207.200 167.379,207.575 166.661,208.033 166.041 C 209.145 164.536,209.066 154.998,207.931 153.741 C 207.563 153.333,207.144 152.527,207.000 151.950 C 206.778 151.058,204.722 148.380,203.201 147.000 C 202.959 146.780,202.094 145.970,201.280 145.200 C 199.275 143.304,196.532 141.200,196.066 141.200 C 195.857 141.200,195.588 140.945,195.468 140.634 C 195.254 140.075,194.227 139.414,191.700 138.209 C 190.985 137.868,190.400 137.426,190.400 137.226 C 190.400 137.026,189.725 136.643,188.900 136.374 C 188.075 136.106,187.256 135.643,187.081 135.345 C 186.906 135.047,186.062 134.691,185.206 134.555 C 184.350 134.418,183.563 134.079,183.457 133.803 C 183.350 133.527,182.394 133.172,181.332 133.015 C 180.269 132.857,179.109 132.469,178.754 132.151 C 178.398 131.833,176.778 131.410,175.154 131.210 C 173.529 131.010,171.480 130.574,170.600 130.241 C 168.769 129.548,160.973 129.371,160.000 130.000 M295.400 130.293 C 294.300 130.619,292.140 131.032,290.600 131.209 C 287.620 131.552,286.400 131.896,286.400 132.392 C 286.400 132.560,285.673 132.814,284.785 132.956 C 283.897 133.098,282.505 133.571,281.691 134.007 C 280.878 134.443,279.905 134.800,279.530 134.800 C 279.154 134.800,278.739 134.975,278.607 135.189 C 278.475 135.402,277.609 135.943,276.683 136.390 C 275.758 136.837,274.280 137.643,273.400 138.182 C 272.520 138.721,271.530 139.287,271.200 139.439 C 270.870 139.591,270.240 140.041,269.800 140.439 C 269.360 140.837,268.595 141.531,268.100 141.981 C 267.605 142.431,267.054 142.800,266.876 142.800 C 265.498 142.800,258.000 151.219,258.000 152.766 C 258.000 153.165,257.640 153.950,257.200 154.509 C 256.017 156.013,256.017 164.014,257.200 165.800 C 257.637 166.460,257.996 167.306,257.997 167.680 C 258.000 168.470,260.292 172.000,260.801 172.000 C 260.991 172.000,261.260 172.360,261.400 172.800 C 261.540 173.240,261.884 173.600,262.166 173.600 C 262.447 173.600,263.110 173.976,263.639 174.435 C 266.851 177.224,278.291 178.476,280.691 176.300 C 281.116 175.915,281.738 175.600,282.073 175.600 C 282.409 175.600,283.151 175.195,283.723 174.700 C 284.295 174.205,285.312 173.358,285.982 172.819 C 286.652 172.279,287.200 171.604,287.200 171.319 C 287.200 171.033,287.445 170.800,287.745 170.800 C 288.242 170.800,290.513 169.234,292.000 167.867 C 292.330 167.563,293.140 167.185,293.800 167.026 C 294.460 166.868,295.317 166.452,295.705 166.102 C 296.911 165.015,305.555 165.192,307.006 166.333 C 307.612 166.810,308.435 167.200,308.834 167.200 C 309.233 167.200,309.704 167.444,309.880 167.742 C 310.056 168.039,310.650 168.514,311.200 168.797 C 312.316 169.370,312.599 169.605,315.289 172.187 C 316.329 173.184,317.274 174.000,317.389 174.000 C 317.505 174.000,317.960 174.360,318.400 174.800 C 318.840 175.240,319.477 175.600,319.816 175.600 C 320.155 175.600,320.938 175.974,321.556 176.431 C 323.098 177.571,333.803 177.467,335.091 176.300 C 335.515 175.915,336.149 175.600,336.498 175.600 C 338.083 175.600,343.061 170.384,343.807 167.941 C 343.965 167.424,344.388 166.666,344.747 166.258 C 345.743 165.126,345.704 155.220,344.700 154.110 C 344.315 153.685,344.000 153.100,344.000 152.810 C 344.000 152.173,341.569 148.467,340.538 147.530 C 340.132 147.161,338.793 145.946,337.561 144.830 C 336.330 143.713,335.121 142.800,334.875 142.800 C 334.629 142.800,334.235 142.440,334.000 142.000 C 333.765 141.560,333.317 141.200,333.006 141.200 C 332.694 141.200,332.281 140.917,332.088 140.571 C 331.726 139.925,330.737 139.268,328.568 138.234 C 327.891 137.911,327.113 137.377,326.841 137.049 C 326.568 136.720,325.832 136.339,325.206 136.201 C 324.579 136.064,323.971 135.702,323.854 135.398 C 323.738 135.093,322.962 134.717,322.131 134.561 C 321.300 134.405,320.383 134.040,320.093 133.750 C 319.803 133.460,318.674 133.105,317.583 132.960 C 316.492 132.815,315.600 132.558,315.600 132.388 C 315.600 131.910,313.245 131.201,311.640 131.195 C 310.848 131.192,309.059 130.832,307.664 130.395 C 304.600 129.434,298.465 129.383,295.400 130.293 M170.400 131.008 C 177.768 132.326,176.908 132.100,183.000 134.327 C 184.540 134.890,185.984 135.485,186.209 135.649 C 186.434 135.813,187.606 136.466,188.812 137.101 C 192.093 138.827,196.692 141.941,196.949 142.611 C 197.073 142.935,197.414 143.200,197.705 143.200 C 198.702 143.200,205.472 150.279,206.392 152.283 C 206.876 153.338,207.481 154.633,207.736 155.162 C 208.513 156.773,208.340 164.402,207.500 165.589 C 207.115 166.133,206.797 166.853,206.793 167.189 C 206.789 167.525,206.276 168.551,205.654 169.469 C 199.574 178.437,187.889 179.521,179.314 171.911 C 172.445 165.817,167.619 163.827,162.056 164.796 C 159.698 165.206,155.305 166.911,154.800 167.611 C 154.690 167.764,154.060 168.171,153.400 168.517 C 152.740 168.863,150.850 170.345,149.200 171.810 C 142.601 177.669,132.331 178.788,127.697 174.154 C 127.392 173.849,126.968 173.600,126.755 173.600 C 126.280 173.600,123.212 170.343,123.205 169.831 C 123.202 169.629,122.902 169.134,122.539 168.732 C 117.798 163.494,120.104 152.871,127.452 146.098 C 131.451 142.412,131.263 142.561,134.806 140.229 C 139.476 137.155,139.645 137.058,142.400 135.851 C 143.830 135.224,145.540 134.470,146.200 134.175 C 146.860 133.880,148.210 133.432,149.200 133.180 C 150.190 132.928,151.192 132.565,151.427 132.373 C 151.661 132.181,153.641 131.812,155.827 131.553 C 158.012 131.294,160.070 130.934,160.400 130.753 C 161.378 130.217,166.746 130.354,170.400 131.008 M305.645 130.816 C 306.830 131.044,309.130 131.403,310.756 131.613 C 312.381 131.823,313.914 132.162,314.161 132.368 C 314.408 132.573,315.508 132.964,316.605 133.236 C 317.702 133.508,318.960 133.954,319.400 134.226 C 319.840 134.499,320.783 134.843,321.495 134.992 C 322.208 135.140,322.895 135.430,323.023 135.637 C 323.150 135.843,323.827 136.289,324.527 136.628 C 326.990 137.818,329.820 139.559,331.800 141.100 C 332.460 141.614,333.426 142.341,333.947 142.717 C 334.468 143.093,335.523 143.987,336.291 144.704 C 337.060 145.422,338.216 146.384,338.860 146.843 C 345.362 151.472,346.847 161.482,342.227 169.536 C 337.067 178.533,323.841 179.374,315.249 171.252 C 307.672 164.089,299.537 162.637,292.160 167.132 C 290.256 168.292,288.197 169.861,285.874 171.923 C 279.032 177.993,270.960 178.685,263.784 173.815 C 261.364 172.172,258.442 168.587,258.394 167.200 C 258.382 166.870,258.025 165.880,257.600 165.000 C 256.623 162.977,256.502 157.580,257.396 155.867 C 257.721 155.243,258.189 153.983,258.436 153.067 C 258.861 151.486,264.888 144.986,268.041 142.707 C 268.568 142.325,269.527 141.605,270.171 141.107 C 273.872 138.241,283.841 133.200,285.808 133.200 C 286.155 133.200,286.948 132.937,287.569 132.616 C 288.191 132.295,290.387 131.818,292.450 131.558 C 294.512 131.297,296.560 130.942,297.000 130.767 C 298.165 130.306,303.148 130.334,305.645 130.816 M164.989 205.349 C 164.555 205.651,163.601 206.028,162.870 206.187 C 160.389 206.727,155.219 210.848,154.608 212.773 C 154.464 213.228,154.196 213.600,154.012 213.600 C 153.613 213.600,152.800 215.804,152.800 216.888 C 152.800 217.311,152.530 217.927,152.200 218.257 C 151.390 219.067,151.340 226.083,152.139 226.881 C 152.435 227.178,152.804 228.096,152.959 228.922 C 153.255 230.498,154.856 233.174,155.830 233.720 C 156.143 233.896,156.406 234.256,156.413 234.520 C 156.420 234.784,157.330 235.810,158.436 236.800 C 159.542 237.790,161.471 239.574,162.723 240.765 C 163.976 241.956,165.480 243.223,166.067 243.581 C 167.125 244.226,169.830 246.373,171.230 247.679 C 171.630 248.052,172.462 248.643,173.079 248.991 C 174.206 249.627,174.785 250.001,178.036 252.185 C 179.882 253.425,181.516 254.397,183.200 255.257 C 183.750 255.538,184.629 256.090,185.154 256.484 C 185.679 256.878,186.370 257.200,186.691 257.200 C 187.011 257.200,187.731 257.560,188.291 258.000 C 188.850 258.440,189.616 258.800,189.992 258.800 C 190.368 258.800,191.002 259.160,191.400 259.600 C 191.798 260.040,192.563 260.400,193.099 260.400 C 193.635 260.400,194.531 260.760,195.091 261.200 C 195.650 261.640,196.491 262.000,196.960 262.000 C 197.428 262.000,198.478 262.357,199.291 262.793 C 200.105 263.229,201.542 263.703,202.485 263.846 C 203.428 263.989,204.513 264.379,204.896 264.712 C 205.279 265.044,206.539 265.407,207.696 265.517 C 208.853 265.627,210.199 265.978,210.686 266.296 C 211.184 266.620,213.024 266.968,214.886 267.088 C 217.120 267.233,218.442 267.514,218.942 267.951 C 220.062 268.930,243.537 268.931,244.658 267.952 C 245.140 267.531,246.473 267.228,248.463 267.086 C 250.147 266.966,251.947 266.604,252.463 266.281 C 252.978 265.959,254.370 265.589,255.555 265.460 C 256.740 265.331,258.000 264.965,258.355 264.648 C 258.710 264.331,259.844 263.946,260.876 263.794 C 261.916 263.640,263.057 263.179,263.438 262.758 C 263.815 262.341,264.623 262.000,265.233 262.000 C 265.844 262.000,266.591 261.752,266.894 261.449 C 267.197 261.146,268.065 260.762,268.823 260.597 C 269.580 260.431,270.629 259.959,271.154 259.548 C 271.679 259.137,272.419 258.800,272.800 258.800 C 273.181 258.800,273.921 258.465,274.446 258.055 C 274.971 257.645,275.788 257.188,276.263 257.040 C 276.738 256.891,277.227 256.506,277.350 256.185 C 277.474 255.863,277.941 255.600,278.387 255.600 C 278.834 255.600,279.523 255.277,279.917 254.883 C 280.312 254.488,281.212 253.927,281.917 253.634 C 282.623 253.342,283.200 252.967,283.200 252.800 C 283.200 252.633,283.740 252.273,284.400 252.000 C 285.060 251.727,285.600 251.367,285.600 251.200 C 285.600 251.033,286.119 250.682,286.754 250.419 C 287.389 250.156,288.581 249.324,289.404 248.571 C 290.227 247.817,290.985 247.200,291.089 247.200 C 292.939 247.200,308.800 231.556,308.800 229.731 C 308.800 229.322,309.160 228.316,309.600 227.496 C 310.751 225.347,310.751 219.139,309.600 217.400 C 309.163 216.740,308.804 215.793,308.803 215.296 C 308.801 214.799,308.440 214.084,308.000 213.707 C 307.560 213.330,307.200 212.794,307.200 212.514 C 307.200 212.235,306.840 211.782,306.400 211.507 C 305.960 211.232,305.600 210.775,305.600 210.491 C 305.600 210.207,305.285 209.857,304.900 209.714 C 304.515 209.570,303.965 209.126,303.677 208.726 C 303.390 208.327,302.923 208.000,302.639 208.000 C 302.356 208.000,301.815 207.659,301.438 207.242 C 301.060 206.825,299.967 206.366,299.009 206.222 C 298.050 206.078,297.049 205.700,296.784 205.380 C 296.106 204.564,289.502 204.555,288.826 205.369 C 288.566 205.682,287.641 206.058,286.769 206.205 C 285.897 206.353,284.954 206.703,284.673 206.985 C 284.391 207.266,283.589 207.792,282.890 208.153 C 282.191 208.515,280.554 209.843,279.251 211.105 C 276.376 213.892,273.141 216.723,270.995 218.331 C 270.118 218.989,269.003 219.889,268.518 220.331 C 268.033 220.773,267.268 221.251,266.818 221.394 C 266.368 221.537,266.000 221.819,266.000 222.022 C 266.000 222.224,265.370 222.652,264.600 222.974 C 263.830 223.296,263.200 223.748,263.200 223.980 C 263.200 224.211,262.965 224.400,262.678 224.400 C 262.390 224.400,261.545 224.850,260.800 225.400 C 260.055 225.950,259.144 226.400,258.776 226.400 C 258.409 226.400,257.650 226.760,257.091 227.200 C 256.531 227.640,255.811 228.000,255.491 228.000 C 255.170 228.000,254.450 228.360,253.891 228.800 C 253.331 229.240,252.441 229.600,251.912 229.600 C 251.384 229.600,250.596 229.931,250.162 230.335 C 249.687 230.777,248.431 231.180,247.004 231.348 C 245.700 231.501,244.355 231.879,244.015 232.186 C 242.252 233.782,221.419 233.748,218.973 232.146 C 218.494 231.831,217.133 231.466,215.951 231.334 C 214.768 231.201,213.498 230.831,213.129 230.510 C 212.759 230.190,211.707 229.759,210.789 229.553 C 209.872 229.347,208.856 228.913,208.532 228.589 C 208.208 228.265,207.596 228.000,207.172 228.000 C 206.266 228.000,202.338 226.012,201.898 225.331 C 201.731 225.073,201.038 224.740,200.357 224.591 C 199.676 224.441,198.777 223.977,198.359 223.559 C 197.942 223.142,197.330 222.800,197.000 222.800 C 196.670 222.800,196.400 222.616,196.400 222.391 C 196.400 222.167,195.905 221.764,195.300 221.498 C 194.695 221.231,193.965 220.695,193.677 220.306 C 193.390 219.918,192.966 219.600,192.735 219.600 C 192.504 219.600,191.750 219.142,191.058 218.583 C 190.366 218.024,189.391 217.259,188.892 216.883 C 188.392 216.507,187.312 215.555,186.492 214.766 C 185.671 213.977,184.685 213.218,184.300 213.078 C 183.915 212.939,183.600 212.549,183.600 212.213 C 183.600 211.876,183.424 211.600,183.210 211.600 C 182.995 211.600,182.230 210.952,181.510 210.161 C 179.688 208.159,177.209 206.566,175.384 206.223 C 174.535 206.064,173.477 205.679,173.031 205.367 C 171.941 204.603,166.079 204.590,164.989 205.349 M173.600 206.337 C 177.152 207.285,178.382 208.060,182.581 212.000 C 184.574 213.870,186.474 215.620,186.802 215.889 C 187.131 216.157,187.891 216.787,188.491 217.289 C 189.090 217.790,190.227 218.650,191.017 219.200 C 191.807 219.750,193.336 220.875,194.415 221.700 C 195.494 222.525,196.537 223.200,196.734 223.200 C 196.931 223.200,197.521 223.536,198.046 223.947 C 198.571 224.357,199.990 225.198,201.200 225.815 C 202.410 226.432,203.637 227.118,203.927 227.340 C 204.867 228.058,212.948 231.253,214.800 231.638 C 215.790 231.843,217.320 232.279,218.200 232.605 C 219.751 233.180,224.085 233.810,229.755 234.285 C 233.299 234.581,244.755 233.244,245.800 232.411 C 246.020 232.236,246.830 231.966,247.600 231.812 C 249.228 231.486,253.105 229.995,255.385 228.818 C 256.256 228.368,257.201 228.000,257.485 228.000 C 257.768 228.000,258.000 227.838,258.000 227.639 C 258.000 227.441,258.529 227.094,259.175 226.869 C 259.821 226.643,261.454 225.726,262.803 224.830 C 264.153 223.933,265.396 223.200,265.566 223.200 C 265.737 223.200,266.202 222.840,266.600 222.400 C 266.998 221.960,267.506 221.600,267.728 221.600 C 267.951 221.600,268.418 221.329,268.766 220.998 C 269.115 220.666,270.840 219.248,272.600 217.846 C 274.360 216.444,276.970 214.167,278.400 212.787 C 285.870 205.578,295.241 203.431,300.754 207.667 C 301.279 208.070,301.915 208.400,302.169 208.400 C 302.696 208.400,305.794 211.583,307.093 213.460 C 308.071 214.873,309.388 218.580,309.771 221.000 C 310.144 223.352,308.639 229.818,307.439 231.018 C 307.088 231.370,306.800 231.858,306.800 232.103 C 306.800 232.348,305.093 234.211,303.007 236.244 C 299.844 239.325,297.474 241.351,289.772 247.552 C 288.403 248.655,281.378 253.291,279.052 254.627 C 274.224 257.401,273.199 257.939,270.272 259.231 C 262.627 262.608,260.148 263.600,259.350 263.602 C 258.937 263.604,258.133 263.848,257.563 264.146 C 256.992 264.444,255.822 264.815,254.963 264.972 C 254.103 265.128,252.230 265.586,250.800 265.989 C 249.370 266.392,246.670 266.921,244.800 267.165 C 242.930 267.409,239.960 267.800,238.200 268.033 C 234.661 268.503,222.540 268.210,221.836 267.638 C 221.596 267.443,219.470 267.077,217.111 266.826 C 214.753 266.574,212.233 266.126,211.511 265.829 C 210.790 265.532,209.390 265.158,208.400 264.997 C 207.410 264.837,206.150 264.481,205.600 264.206 C 205.050 263.932,203.899 263.580,203.042 263.424 C 202.184 263.269,201.104 262.903,200.642 262.610 C 200.179 262.318,199.170 261.950,198.400 261.793 C 197.630 261.636,196.550 261.275,196.000 260.992 C 195.450 260.708,193.920 259.989,192.600 259.393 C 191.280 258.798,189.930 258.150,189.600 257.952 C 189.270 257.755,188.550 257.378,188.000 257.113 C 187.036 256.650,181.023 253.262,179.419 252.279 C 173.221 248.478,162.849 240.460,158.827 236.360 C 153.369 230.796,151.006 224.560,152.524 219.723 C 152.855 218.665,153.224 217.237,153.343 216.550 C 153.722 214.365,158.442 208.400,159.792 208.400 C 160.028 208.400,160.666 208.085,161.208 207.700 C 163.926 205.769,169.268 205.182,173.600 206.337 M216.500 395.876 C 216.885 395.976,217.515 395.976,217.900 395.876 C 218.285 395.775,217.970 395.693,217.200 395.693 C 216.430 395.693,216.115 395.775,216.500 395.876 " stroke="none" fill="#885f68" fill-rule="evenodd"></path><path id="path4" d="M160.200 131.169 C 159.760 131.345,158.053 131.618,156.407 131.777 C 150.216 132.376,142.113 135.651,134.600 140.589 C 131.804 142.427,131.274 142.863,127.289 146.600 C 118.799 154.563,118.016 163.723,125.129 171.874 C 129.802 177.227,141.602 178.306,146.658 173.842 C 146.934 173.599,148.193 172.442,149.457 171.270 C 150.721 170.099,152.305 168.859,152.977 168.515 C 153.650 168.170,154.290 167.757,154.400 167.596 C 155.581 165.868,164.358 163.547,166.554 164.383 C 167.158 164.612,168.045 164.803,168.526 164.806 C 169.007 164.809,169.850 165.071,170.400 165.389 C 170.950 165.706,171.769 166.135,172.220 166.343 C 173.828 167.081,176.768 169.244,179.368 171.600 C 186.685 178.231,196.049 178.536,202.900 172.367 C 203.945 171.426,204.800 170.446,204.800 170.190 C 204.800 169.934,205.132 169.423,205.539 169.056 C 205.945 168.688,206.503 167.625,206.780 166.694 C 207.056 165.762,207.477 164.762,207.714 164.472 C 208.258 163.805,208.252 156.593,207.707 155.907 C 207.485 155.628,207.074 154.680,206.793 153.800 C 205.843 150.826,199.592 144.258,194.452 140.832 C 193.653 140.300,192.512 139.535,191.916 139.132 C 191.320 138.730,190.658 138.400,190.445 138.400 C 190.232 138.400,189.819 138.165,189.529 137.878 C 188.468 136.830,182.744 134.373,177.800 132.843 C 172.610 131.236,162.456 130.271,160.200 131.169 M297.094 131.040 C 296.925 131.208,295.035 131.564,292.894 131.830 C 285.290 132.776,275.662 137.060,268.179 142.827 C 259.436 149.565,255.021 158.800,257.771 164.595 C 258.117 165.324,258.400 166.244,258.400 166.639 C 258.400 168.135,261.417 171.988,263.800 173.534 C 271.330 178.419,278.809 177.828,285.547 171.816 C 296.461 162.077,305.527 161.805,315.200 170.926 C 322.371 177.687,330.861 178.693,337.971 173.623 C 339.542 172.502,341.600 170.430,341.600 169.969 C 341.600 169.798,341.890 169.367,342.244 169.013 C 343.413 167.844,344.783 163.188,344.792 160.352 C 344.815 153.033,341.233 148.113,330.106 140.178 C 328.735 139.200,327.517 138.400,327.400 138.400 C 327.283 138.400,326.156 137.816,324.894 137.102 C 321.884 135.398,318.696 134.064,316.106 133.425 C 314.954 133.140,313.784 132.725,313.506 132.502 C 312.422 131.633,297.803 130.330,297.094 131.040 M175.600 132.857 C 176.150 133.218,177.473 133.637,178.541 133.787 C 179.608 133.938,181.048 134.407,181.741 134.829 C 182.433 135.251,183.360 135.602,183.800 135.607 C 184.240 135.613,185.050 135.970,185.600 136.400 C 186.150 136.830,186.875 137.186,187.211 137.191 C 187.547 137.196,188.130 137.560,188.507 138.000 C 188.884 138.440,189.543 138.800,189.972 138.800 C 190.402 138.800,190.861 138.976,190.994 139.190 C 191.127 139.405,192.262 140.249,193.518 141.066 C 194.773 141.883,196.099 142.833,196.465 143.176 C 196.831 143.519,197.991 144.520,199.043 145.400 C 201.736 147.652,204.800 150.863,204.800 151.433 C 204.800 151.698,205.040 152.006,205.333 152.119 C 205.626 152.231,206.185 153.556,206.574 155.062 C 207.959 160.420,207.968 160.633,206.950 163.838 C 206.428 165.484,206.000 167.094,206.000 167.415 C 206.000 167.737,205.816 168.000,205.591 168.000 C 205.367 168.000,204.966 168.477,204.700 169.060 C 203.770 171.102,200.198 174.141,198.140 174.642 C 197.513 174.795,196.645 175.163,196.211 175.460 C 195.682 175.822,194.145 176.000,191.543 176.000 C 187.736 176.000,187.141 175.859,184.200 174.255 C 183.540 173.895,182.505 173.381,181.900 173.113 C 181.295 172.844,180.798 172.439,180.796 172.212 C 180.789 171.596,174.213 166.469,173.058 166.179 C 172.508 166.041,171.964 165.684,171.850 165.386 C 171.736 165.088,170.958 164.734,170.121 164.600 C 169.284 164.465,168.009 164.096,167.286 163.778 C 165.633 163.051,162.823 163.032,161.789 163.741 C 161.355 164.038,160.211 164.404,159.246 164.554 C 158.282 164.704,157.042 165.181,156.492 165.613 C 155.942 166.046,155.274 166.400,155.008 166.400 C 154.742 166.400,154.198 166.760,153.800 167.200 C 153.402 167.640,152.863 168.000,152.602 168.000 C 152.342 168.000,150.976 169.080,149.567 170.400 C 148.158 171.720,146.897 172.800,146.765 172.800 C 146.632 172.800,146.201 173.156,145.807 173.592 C 145.413 174.028,144.491 174.497,143.759 174.634 C 143.027 174.771,142.220 175.135,141.965 175.442 C 141.180 176.388,133.587 176.209,131.704 175.200 C 130.884 174.760,129.894 174.400,129.506 174.400 C 129.118 174.400,128.800 174.211,128.800 173.979 C 128.800 173.748,128.305 173.375,127.700 173.150 C 127.095 172.925,125.970 171.937,125.200 170.954 C 124.430 169.971,123.517 168.846,123.171 168.455 C 120.664 165.615,120.766 155.520,123.339 151.827 C 124.608 150.006,132.482 142.401,133.100 142.400 C 133.265 142.399,133.923 141.949,134.562 141.400 C 135.201 140.850,135.972 140.400,136.275 140.400 C 136.577 140.400,136.929 140.130,137.055 139.800 C 137.182 139.470,137.511 139.200,137.787 139.200 C 138.063 139.200,138.925 138.768,139.703 138.240 C 140.481 137.712,141.541 137.151,142.059 136.993 C 142.576 136.835,143.270 136.479,143.600 136.203 C 143.930 135.927,144.857 135.584,145.660 135.440 C 146.463 135.296,147.340 134.914,147.609 134.589 C 147.878 134.265,148.397 134.000,148.762 134.000 C 149.352 134.000,151.258 133.513,155.000 132.405 C 157.277 131.731,174.460 132.108,175.600 132.857 M312.800 132.887 C 313.350 133.257,314.610 133.683,315.600 133.833 C 316.590 133.983,317.670 134.331,318.000 134.606 C 318.330 134.881,319.050 135.226,319.600 135.373 C 321.362 135.845,324.560 137.378,325.291 138.100 C 325.681 138.485,326.349 138.800,326.776 138.800 C 327.203 138.800,327.661 138.976,327.794 139.190 C 327.927 139.405,329.027 140.239,330.239 141.043 C 332.418 142.490,334.233 143.961,336.475 146.100 C 337.109 146.705,337.770 147.200,337.943 147.200 C 338.117 147.200,339.008 148.145,339.925 149.300 C 340.842 150.455,341.818 151.662,342.096 151.982 C 344.552 154.816,344.550 165.410,342.092 168.438 C 339.950 171.078,336.277 174.400,335.501 174.400 C 335.209 174.400,334.263 174.760,333.400 175.200 C 331.673 176.080,324.287 176.388,323.800 175.600 C 323.664 175.380,322.764 175.001,321.801 174.758 C 320.837 174.516,319.740 173.976,319.363 173.559 C 318.985 173.141,318.479 172.798,318.238 172.796 C 317.997 172.794,317.170 172.076,316.400 171.200 C 315.630 170.324,314.794 169.606,314.543 169.604 C 314.291 169.602,313.981 169.327,313.853 168.994 C 313.725 168.661,313.166 168.215,312.610 168.004 C 312.055 167.793,311.600 167.457,311.600 167.258 C 311.600 167.060,311.015 166.659,310.300 166.367 C 309.585 166.076,308.814 165.592,308.586 165.292 C 308.358 164.992,307.368 164.643,306.386 164.515 C 305.404 164.387,304.245 164.039,303.811 163.742 C 302.789 163.040,299.861 163.046,298.480 163.753 C 297.886 164.057,296.645 164.431,295.723 164.584 C 294.801 164.737,293.834 165.118,293.574 165.431 C 293.314 165.744,292.918 166.000,292.692 166.000 C 292.467 166.000,291.298 166.675,290.095 167.500 C 288.892 168.325,287.639 169.180,287.312 169.400 C 286.082 170.227,284.400 171.937,284.400 172.360 C 284.400 172.602,284.164 172.800,283.875 172.800 C 283.587 172.800,282.964 173.160,282.492 173.600 C 282.020 174.040,281.394 174.400,281.101 174.400 C 280.809 174.400,279.863 174.760,279.000 175.200 C 277.034 176.202,269.616 176.383,268.840 175.448 C 268.588 175.145,267.844 174.789,267.187 174.657 C 265.200 174.260,260.440 170.229,260.411 168.920 C 260.405 168.656,260.105 168.275,259.745 168.073 C 257.684 166.920,257.611 155.635,259.645 152.716 C 260.060 152.120,260.400 151.489,260.400 151.315 C 260.400 150.868,264.298 146.875,266.371 145.200 C 267.323 144.430,268.400 143.530,268.765 143.200 C 269.937 142.138,272.629 140.400,273.102 140.400 C 273.354 140.400,273.704 140.149,273.880 139.843 C 274.056 139.537,274.875 139.006,275.700 138.663 C 276.525 138.321,277.200 137.872,277.200 137.665 C 277.200 137.458,277.812 137.174,278.560 137.034 C 279.308 136.894,280.140 136.514,280.409 136.189 C 280.678 135.865,281.256 135.600,281.695 135.600 C 282.133 135.600,283.146 135.256,283.946 134.836 C 284.745 134.416,286.570 133.780,288.000 133.423 C 289.430 133.065,291.140 132.608,291.800 132.407 C 294.073 131.714,311.654 132.116,312.800 132.887 M164.600 206.577 C 152.188 209.738,148.608 225.663,158.152 235.259 C 164.007 241.146,171.140 246.709,180.400 252.612 C 185.361 255.774,197.259 261.600,198.756 261.600 C 199.117 261.600,200.039 261.934,200.806 262.341 C 201.573 262.749,202.914 263.215,203.786 263.376 C 204.659 263.537,205.865 263.923,206.466 264.234 C 207.068 264.545,207.997 264.800,208.530 264.800 C 209.063 264.800,210.287 265.081,211.250 265.425 C 212.212 265.769,215.070 266.321,217.600 266.653 C 220.130 266.985,223.370 267.415,224.800 267.608 C 228.186 268.065,235.504 268.057,238.800 267.592 C 240.230 267.391,243.380 266.963,245.800 266.643 C 248.220 266.322,250.920 265.784,251.800 265.447 C 252.680 265.111,253.747 264.827,254.172 264.818 C 255.168 264.795,259.709 263.358,261.911 262.369 C 262.852 261.946,263.808 261.600,264.035 261.600 C 264.263 261.600,265.473 261.130,266.725 260.555 C 267.976 259.981,269.810 259.158,270.800 258.727 C 271.790 258.296,272.870 257.779,273.200 257.578 C 273.530 257.377,274.340 256.933,275.000 256.592 C 275.660 256.251,276.920 255.532,277.800 254.995 C 278.680 254.458,279.793 253.844,280.273 253.630 C 280.753 253.416,282.373 252.388,283.873 251.346 C 285.373 250.304,287.139 249.080,287.797 248.626 C 290.526 246.744,294.838 243.231,299.800 238.848 C 306.311 233.097,307.463 231.526,308.954 226.365 C 311.333 218.131,305.685 208.615,297.200 206.561 C 293.199 205.593,286.939 206.226,285.230 207.773 C 284.849 208.118,284.404 208.400,284.242 208.400 C 283.736 208.400,281.083 210.486,279.175 212.384 C 275.327 216.212,269.589 220.806,264.800 223.891 C 263.590 224.670,262.112 225.644,261.516 226.054 C 260.920 226.464,260.168 226.800,259.845 226.800 C 259.522 226.800,259.017 227.040,258.724 227.333 C 257.984 228.073,250.445 231.444,248.773 231.782 C 248.018 231.935,246.860 232.301,246.200 232.596 C 240.907 234.963,222.991 235.085,217.670 232.791 C 217.159 232.570,215.907 232.203,214.889 231.975 C 213.870 231.747,212.398 231.284,211.618 230.946 C 210.838 230.609,209.120 229.879,207.800 229.326 C 206.480 228.772,204.950 228.082,204.400 227.793 C 203.850 227.503,202.291 226.704,200.936 226.017 C 199.580 225.330,198.253 224.505,197.987 224.184 C 197.720 223.863,197.270 223.600,196.987 223.600 C 196.704 223.600,195.561 222.880,194.448 222.000 C 193.334 221.120,192.309 220.400,192.170 220.400 C 191.640 220.400,186.729 216.244,182.206 211.969 C 176.417 206.497,171.195 204.898,164.600 206.577 M176.229 208.183 C 177.927 209.076,180.094 210.886,185.701 216.100 C 186.352 216.705,186.969 217.200,187.073 217.200 C 187.177 217.200,187.800 217.739,188.459 218.397 C 189.117 219.056,190.678 220.264,191.928 221.083 C 193.178 221.902,194.302 222.716,194.427 222.892 C 194.552 223.068,195.272 223.533,196.027 223.925 C 197.993 224.947,199.256 225.699,200.351 226.500 C 200.877 226.885,201.604 227.200,201.965 227.200 C 202.326 227.200,202.930 227.560,203.307 228.000 C 203.684 228.440,204.371 228.800,204.833 228.800 C 205.295 228.800,206.131 229.160,206.691 229.600 C 207.250 230.040,208.001 230.400,208.360 230.400 C 208.718 230.400,209.639 230.734,210.406 231.141 C 211.173 231.549,212.501 232.012,213.358 232.170 C 214.216 232.329,215.296 232.703,215.758 233.003 C 216.221 233.302,217.770 233.668,219.200 233.815 C 220.630 233.963,222.610 234.362,223.600 234.704 C 225.885 235.491,236.518 235.580,239.200 234.834 C 240.190 234.559,242.170 234.152,243.600 233.929 C 245.030 233.707,246.932 233.181,247.826 232.762 C 248.721 232.343,249.756 232.000,250.128 232.000 C 250.499 232.000,251.475 231.640,252.296 231.200 C 253.116 230.760,254.032 230.400,254.331 230.400 C 254.630 230.400,255.331 230.040,255.891 229.600 C 256.450 229.160,257.216 228.800,257.592 228.800 C 257.968 228.800,258.602 228.440,259.000 228.000 C 259.398 227.560,260.058 227.200,260.466 227.200 C 260.874 227.200,261.516 226.840,261.893 226.400 C 262.270 225.960,262.887 225.600,263.265 225.600 C 263.643 225.600,264.059 225.427,264.190 225.216 C 264.320 225.006,265.996 223.798,267.913 222.533 C 269.831 221.268,272.075 219.551,272.900 218.717 C 273.724 217.882,274.573 217.200,274.785 217.200 C 274.998 217.200,275.365 216.840,275.600 216.400 C 275.835 215.960,276.220 215.600,276.454 215.600 C 276.688 215.600,278.505 214.070,280.492 212.200 C 282.478 210.330,284.326 208.800,284.598 208.800 C 284.870 208.800,285.607 208.395,286.236 207.900 C 287.295 207.067,287.785 207.000,292.800 207.000 C 297.815 207.000,298.305 207.067,299.364 207.900 C 299.993 208.395,300.709 208.800,300.954 208.800 C 301.199 208.801,301.923 209.251,302.562 209.800 C 303.201 210.350,303.876 210.800,304.062 210.800 C 304.248 210.800,304.400 211.064,304.400 211.386 C 304.400 211.708,304.748 212.158,305.173 212.386 C 305.598 212.613,306.073 213.201,306.229 213.692 C 306.385 214.183,306.828 215.038,307.214 215.592 C 308.907 218.023,308.928 227.685,307.246 229.661 C 306.300 230.771,304.790 233.023,304.562 233.663 C 304.432 234.028,303.983 234.416,303.563 234.526 C 303.143 234.635,302.800 235.012,302.800 235.363 C 302.800 235.713,302.624 236.000,302.408 236.000 C 302.192 236.000,300.887 237.090,299.508 238.423 C 298.129 239.755,296.527 241.098,295.948 241.408 C 295.370 241.717,294.791 242.247,294.661 242.585 C 294.531 242.923,294.239 243.200,294.013 243.200 C 293.786 243.200,293.261 243.515,292.848 243.900 C 292.075 244.619,291.377 245.162,288.600 247.205 C 287.720 247.852,286.715 248.656,286.366 248.991 C 286.018 249.326,285.551 249.600,285.328 249.600 C 285.106 249.600,284.598 249.960,284.200 250.400 C 283.802 250.840,283.234 251.200,282.938 251.200 C 282.642 251.200,282.083 251.515,281.695 251.900 C 281.306 252.285,280.541 252.829,279.995 253.108 C 279.448 253.387,278.280 254.053,277.400 254.587 C 276.520 255.122,275.350 255.748,274.800 255.979 C 274.250 256.210,273.530 256.581,273.200 256.803 C 272.870 257.024,272.150 257.402,271.600 257.642 C 269.276 258.656,266.909 259.743,265.600 260.399 C 264.830 260.784,263.570 261.232,262.800 261.394 C 262.030 261.556,261.130 261.919,260.800 262.201 C 260.470 262.483,259.390 262.840,258.400 262.995 C 257.410 263.150,256.240 263.504,255.800 263.781 C 255.360 264.058,253.920 264.419,252.600 264.584 C 251.281 264.748,249.693 265.145,249.071 265.467 C 245.547 267.289,217.741 267.289,214.255 265.467 C 213.625 265.137,212.005 264.746,210.655 264.596 C 209.305 264.447,207.815 264.080,207.344 263.782 C 206.873 263.483,205.568 263.117,204.444 262.968 C 203.320 262.819,202.400 262.558,202.400 262.388 C 202.400 262.000,200.163 261.203,199.040 261.191 C 198.578 261.186,197.750 260.830,197.200 260.400 C 196.650 259.970,195.840 259.613,195.400 259.606 C 194.960 259.600,194.060 259.237,193.400 258.800 C 192.740 258.363,191.907 258.004,191.549 258.003 C 191.191 258.001,190.682 257.739,190.417 257.420 C 190.152 257.102,189.275 256.626,188.468 256.364 C 187.661 256.102,186.867 255.662,186.705 255.388 C 186.543 255.114,185.927 254.768,185.337 254.620 C 184.746 254.472,183.820 254.002,183.278 253.575 C 182.736 253.149,182.091 252.788,181.846 252.773 C 181.601 252.759,180.590 252.130,179.600 251.375 C 178.610 250.621,177.381 249.822,176.870 249.600 C 176.358 249.378,175.694 248.973,175.394 248.698 C 175.093 248.424,174.195 247.750,173.396 247.200 C 172.598 246.650,171.436 245.795,170.815 245.300 C 170.193 244.805,169.575 244.400,169.442 244.400 C 169.309 244.400,168.858 244.085,168.441 243.700 C 167.619 242.942,162.956 238.821,161.087 237.200 C 158.695 235.125,155.601 231.603,155.600 230.954 C 155.600 230.709,155.195 229.993,154.700 229.363 C 153.859 228.294,153.801 227.839,153.813 222.409 L 153.827 216.600 155.759 213.713 C 156.821 212.125,158.030 210.717,158.445 210.586 C 158.860 210.454,159.200 210.169,159.200 209.953 C 159.200 209.736,159.875 209.280,160.700 208.940 C 161.525 208.599,162.470 208.082,162.800 207.791 C 164.379 206.400,173.333 206.661,176.229 208.183 " stroke="none" fill="#644c54" fill-rule="evenodd"></path></g></svg>