<svg id="svg" version="1.1" xmlns="http://www.w3.org/2000/svg" xmlns:xlink="http://www.w3.org/1999/xlink" width="400" height="400" viewBox="0, 0, 400,400"><g id="svgg"><path id="path0" d="M174.400 130.806 C 173.190 130.971,171.693 131.307,171.074 131.553 C 170.455 131.799,169.285 132.004,168.474 132.009 C 167.663 132.014,166.278 132.345,165.396 132.746 C 164.514 133.147,163.093 133.606,162.238 133.766 C 161.384 133.927,160.428 134.315,160.115 134.628 C 159.801 134.942,159.062 135.300,158.472 135.423 C 157.882 135.547,157.130 135.821,156.800 136.032 C 156.470 136.243,155.627 136.680,154.927 137.002 C 154.227 137.324,153.540 137.773,153.400 138.000 C 153.260 138.227,152.573 138.653,151.873 138.947 C 151.173 139.241,149.996 140.049,149.258 140.741 C 148.519 141.433,147.754 142.000,147.558 142.000 C 147.361 142.000,147.200 142.248,147.200 142.551 C 147.200 142.854,146.947 143.312,146.639 143.568 C 144.765 145.123,143.800 148.468,143.802 153.400 L 143.803 158.200 145.502 160.941 C 146.436 162.448,147.200 163.843,147.200 164.041 C 147.200 164.238,147.476 164.400,147.813 164.400 C 148.149 164.400,148.531 164.677,148.661 165.015 C 148.791 165.353,149.460 165.918,150.148 166.271 C 150.837 166.623,151.502 167.069,151.627 167.261 C 152.571 168.715,161.715 169.718,163.854 168.602 C 164.484 168.274,165.291 168.004,165.646 168.002 C 166.001 168.001,166.721 167.665,167.246 167.255 C 167.771 166.845,168.589 166.388,169.064 166.240 C 169.539 166.091,170.146 165.706,170.413 165.385 C 170.680 165.063,171.230 164.800,171.637 164.800 C 172.043 164.800,173.104 164.420,173.996 163.955 C 176.183 162.815,183.139 162.659,184.315 163.723 C 184.726 164.095,185.265 164.400,185.511 164.400 C 185.757 164.400,186.444 164.850,187.038 165.400 C 187.631 165.950,188.301 166.400,188.527 166.400 C 188.752 166.400,189.285 166.715,189.710 167.100 C 192.557 169.679,203.861 169.577,206.039 166.953 C 206.291 166.649,206.691 166.400,206.926 166.400 C 207.527 166.400,211.492 162.172,211.800 161.202 C 211.939 160.761,212.211 160.400,212.402 160.400 C 212.594 160.400,212.869 159.545,213.014 158.500 C 213.158 157.455,213.525 155.726,213.829 154.657 C 214.192 153.384,214.254 152.474,214.010 152.018 C 213.805 151.635,213.460 150.222,213.244 148.879 C 212.869 146.550,212.285 145.411,210.000 142.549 C 208.863 141.125,204.050 137.397,202.861 137.019 C 202.427 136.882,201.854 136.506,201.587 136.185 C 201.320 135.863,200.788 135.600,200.405 135.600 C 200.022 135.600,199.258 135.246,198.709 134.814 C 198.160 134.382,196.984 133.866,196.097 133.666 C 195.209 133.467,194.065 133.010,193.553 132.652 C 193.041 132.293,192.133 132.000,191.536 132.000 C 190.939 132.000,188.954 131.641,187.125 131.203 C 183.673 130.375,178.687 130.220,174.400 130.806 M275.000 130.795 C 273.900 130.986,272.371 131.335,271.603 131.571 C 270.834 131.807,269.574 132.006,268.803 132.014 C 268.031 132.021,266.680 132.375,265.800 132.800 C 264.920 133.225,263.840 133.585,263.400 133.599 C 262.960 133.613,261.700 134.068,260.600 134.609 C 259.500 135.150,258.296 135.594,257.924 135.596 C 257.552 135.598,257.125 135.798,256.975 136.041 C 256.825 136.283,256.139 136.743,255.451 137.063 C 252.528 138.420,247.249 142.210,247.216 142.974 C 247.207 143.180,246.867 143.720,246.460 144.174 C 246.052 144.628,245.488 145.860,245.205 146.910 C 244.922 147.961,244.535 148.917,244.345 149.034 C 243.563 149.517,243.970 156.518,244.912 158.800 C 246.315 162.196,249.574 166.400,250.805 166.400 C 250.991 166.400,251.456 166.715,251.840 167.100 C 255.107 170.382,265.831 169.407,270.800 165.376 C 271.130 165.108,272.027 164.755,272.794 164.592 C 273.561 164.429,274.606 164.021,275.117 163.687 C 276.492 162.786,283.723 162.825,284.733 163.739 C 285.134 164.103,285.619 164.400,285.810 164.400 C 286.180 164.400,288.910 166.153,290.141 167.181 C 293.141 169.686,304.300 169.530,306.439 166.953 C 306.691 166.649,307.061 166.400,307.261 166.400 C 307.721 166.400,311.600 162.641,311.600 162.195 C 311.600 162.012,311.840 161.579,312.134 161.231 C 313.946 159.088,314.926 152.217,313.834 149.308 C 313.523 148.479,313.149 147.263,313.003 146.607 C 312.564 144.632,308.095 139.701,305.900 138.770 C 305.295 138.513,304.800 138.147,304.800 137.957 C 304.800 137.766,304.192 137.357,303.449 137.046 C 302.706 136.736,301.975 136.283,301.825 136.041 C 301.675 135.798,301.228 135.600,300.830 135.600 C 300.433 135.600,299.679 135.267,299.154 134.861 C 298.629 134.455,297.666 133.991,297.014 133.832 C 296.362 133.672,295.066 133.195,294.136 132.771 C 293.205 132.347,291.917 132.000,291.272 132.000 C 290.628 132.000,289.313 131.711,288.350 131.357 C 286.305 130.606,278.091 130.261,275.000 130.795 M153.967 206.536 C 152.299 207.011,150.622 207.715,150.239 208.100 C 149.856 208.485,149.421 208.805,149.271 208.811 C 148.837 208.828,145.878 211.716,144.965 213.013 C 142.680 216.262,141.375 223.990,142.806 225.800 C 142.980 226.020,143.332 226.988,143.590 227.950 C 144.063 229.720,147.431 234.391,148.238 234.397 C 148.479 234.399,148.996 234.753,149.386 235.185 C 149.777 235.617,150.750 236.182,151.548 236.442 C 152.347 236.701,153.355 237.158,153.789 237.457 C 154.223 237.756,155.172 238.000,155.899 238.000 C 156.626 238.000,158.244 238.360,159.496 238.800 C 160.748 239.240,162.335 239.600,163.024 239.600 C 163.712 239.600,165.248 239.933,166.437 240.339 C 167.627 240.746,169.839 241.203,171.352 241.356 C 172.866 241.508,174.701 241.882,175.431 242.187 C 176.160 242.492,178.252 242.859,180.079 243.002 C 181.905 243.146,184.300 243.507,185.400 243.804 C 186.500 244.101,189.823 244.546,192.783 244.793 C 195.744 245.039,198.387 245.423,198.656 245.646 C 198.932 245.875,203.822 246.222,209.872 246.441 C 215.773 246.654,221.251 247.003,222.046 247.215 C 223.929 247.716,231.789 247.713,233.372 247.209 C 234.047 246.994,238.650 246.654,243.600 246.453 C 248.690 246.246,253.121 245.880,253.800 245.612 C 254.460 245.351,256.620 244.968,258.600 244.762 C 260.580 244.556,262.920 244.131,263.800 243.818 C 264.680 243.505,266.300 243.130,267.400 242.985 C 268.500 242.840,269.760 242.526,270.200 242.288 C 270.640 242.051,271.900 241.629,273.000 241.352 C 275.864 240.630,278.770 239.620,280.479 238.752 C 281.293 238.338,282.221 238.000,282.542 238.000 C 283.945 238.000,290.638 233.862,291.141 232.683 C 291.219 232.501,291.714 231.887,292.241 231.318 C 292.769 230.749,293.200 230.052,293.200 229.770 C 293.200 229.488,293.462 228.995,293.782 228.675 C 296.150 226.307,294.781 214.228,291.900 212.077 C 291.515 211.790,291.200 211.295,291.200 210.977 C 291.200 210.660,290.936 210.400,290.614 210.400 C 290.292 210.400,289.835 210.040,289.600 209.600 C 289.365 209.160,288.932 208.800,288.640 208.800 C 288.347 208.800,287.679 208.470,287.154 208.067 C 284.999 206.411,279.595 205.280,277.000 205.943 C 272.747 207.029,271.753 207.355,271.174 207.852 C 270.829 208.148,269.929 208.506,269.174 208.648 C 268.418 208.789,267.260 209.218,266.600 209.602 C 265.940 209.985,264.599 210.419,263.620 210.567 C 262.641 210.714,261.637 211.003,261.389 211.209 C 261.141 211.415,259.602 211.771,257.969 212.001 C 256.336 212.230,254.280 212.680,253.400 212.999 C 251.840 213.565,248.148 213.936,234.940 214.853 C 225.219 215.529,202.442 214.159,194.800 212.440 C 193.810 212.217,192.010 212.023,190.800 212.008 C 189.590 211.993,187.262 211.625,185.627 211.191 C 183.992 210.756,181.905 210.400,180.990 210.400 C 180.074 210.400,178.279 210.040,177.000 209.600 C 175.721 209.160,173.938 208.792,173.037 208.782 C 172.137 208.773,170.680 208.491,169.800 208.156 C 168.920 207.821,166.940 207.300,165.400 207.000 C 163.860 206.699,161.971 206.261,161.203 206.026 C 159.220 205.421,157.442 205.547,153.967 206.536 " stroke="none" fill="#2d352d" fill-rule="evenodd"></path><path id="path1" d="M178.700 4.278 C 178.063 4.442,177.825 4.894,177.953 5.700 C 177.979 5.865,175.042 6.000,171.427 6.000 C 165.205 6.000,164.840 6.043,164.600 6.800 C 164.367 7.533,163.995 7.600,160.173 7.600 C 156.267 7.600,156.000 7.651,156.000 8.400 C 156.000 9.099,150.572 9.721,149.890 9.100 C 149.830 9.045,149.266 9.405,148.636 9.900 C 147.809 10.551,146.958 10.800,145.562 10.800 C 144.191 10.800,143.424 11.018,142.916 11.554 C 142.389 12.108,141.406 12.368,139.200 12.538 C 137.550 12.665,136.110 12.778,136.000 12.790 C 135.890 12.802,136.048 12.969,136.351 13.161 C 137.293 13.758,136.473 14.330,134.861 14.200 C 133.384 14.082,132.294 14.407,132.366 14.945 C 132.486 15.841,132.198 16.000,130.449 16.000 C 128.960 16.000,128.368 16.187,127.949 16.788 C 127.554 17.355,126.873 17.600,125.527 17.661 C 124.087 17.727,123.610 17.917,123.462 18.485 C 123.356 18.891,123.118 19.196,122.934 19.164 C 121.817 18.967,120.686 19.314,119.909 20.091 C 119.277 20.723,118.574 20.970,117.486 20.942 C 116.358 20.912,116.008 21.043,116.159 21.438 C 116.415 22.106,115.994 22.379,114.536 22.489 C 113.365 22.578,112.400 23.237,112.400 23.948 C 112.400 24.172,112.060 24.289,111.644 24.208 C 110.747 24.036,109.087 25.093,109.417 25.627 C 109.544 25.832,109.168 26.000,108.581 26.000 C 107.624 26.000,106.393 26.745,104.287 28.598 C 103.895 28.943,102.975 29.248,102.241 29.275 C 101.154 29.316,100.943 29.462,101.101 30.063 C 101.215 30.502,101.072 30.821,100.747 30.852 C 100.446 30.880,99.712 30.933,99.115 30.970 C 98.518 31.007,97.888 31.192,97.715 31.382 C 97.542 31.572,97.715 31.614,98.100 31.476 C 99.200 31.082,98.919 31.518,97.651 32.174 C 97.019 32.501,96.374 32.640,96.217 32.484 C 96.061 32.328,95.970 32.380,96.014 32.600 C 96.196 33.501,95.976 34.432,95.632 34.220 C 95.153 33.924,93.924 35.153,94.220 35.632 C 94.418 35.953,92.673 36.200,91.343 36.040 C 91.092 36.010,90.912 36.303,90.943 36.692 C 90.979 37.144,90.674 37.446,90.100 37.528 C 89.522 37.610,89.200 37.932,89.200 38.428 C 89.200 39.132,88.096 39.485,86.670 39.237 C 86.489 39.206,86.459 39.373,86.605 39.608 C 87.012 40.267,86.046 41.163,85.120 40.985 C 84.665 40.897,84.400 40.933,84.532 41.065 C 84.972 41.506,83.968 42.827,83.279 42.713 C 82.824 42.637,82.639 42.831,82.718 43.300 C 82.788 43.719,82.583 44.000,82.209 44.000 C 81.865 44.000,81.378 44.450,81.127 45.000 C 80.877 45.550,80.414 46.000,80.098 46.000 C 79.783 46.000,79.431 46.360,79.316 46.800 C 79.201 47.240,78.841 47.600,78.516 47.600 C 78.191 47.600,77.831 47.960,77.716 48.400 C 77.579 48.923,77.170 49.200,76.535 49.200 C 75.874 49.200,75.345 49.583,74.881 50.397 C 74.507 51.056,74.073 51.596,73.918 51.597 C 73.530 51.601,71.600 53.563,71.600 53.954 C 71.600 54.129,71.145 54.479,70.589 54.732 C 70.033 54.986,69.474 55.464,69.347 55.794 C 69.220 56.125,68.955 56.296,68.758 56.174 C 68.561 56.052,68.400 56.154,68.400 56.400 C 68.400 56.646,68.240 56.749,68.045 56.628 C 67.850 56.507,67.715 56.722,67.745 57.104 C 67.779 57.538,67.538 57.779,67.104 57.745 C 66.722 57.715,66.507 57.850,66.628 58.045 C 66.749 58.240,66.627 58.400,66.357 58.400 C 66.087 58.400,65.971 58.504,66.097 58.631 C 66.224 58.758,65.830 59.343,65.221 59.931 C 64.611 60.519,64.162 61.315,64.221 61.700 C 64.293 62.163,64.067 62.400,63.555 62.400 C 63.092 62.400,62.624 62.812,62.391 63.424 C 62.177 63.987,61.826 64.340,61.612 64.208 C 61.399 64.075,61.109 64.425,60.968 64.984 C 60.828 65.543,60.457 66.000,60.144 66.000 C 59.831 66.000,59.457 66.315,59.314 66.700 C 59.170 67.085,58.726 67.635,58.326 67.923 C 57.927 68.210,57.600 68.688,57.600 68.985 C 57.600 69.337,57.286 69.456,56.700 69.328 C 56.075 69.191,55.959 69.244,56.320 69.501 C 56.722 69.788,56.549 70.184,55.563 71.236 C 54.860 71.986,54.263 72.960,54.236 73.400 C 54.205 73.902,53.944 74.160,53.535 74.092 C 53.120 74.023,52.731 74.422,52.464 75.188 C 52.149 76.093,51.874 76.326,51.357 76.128 C 50.878 75.944,50.760 76.012,50.969 76.349 C 51.142 76.629,50.831 77.408,50.234 78.191 C 49.665 78.936,49.200 79.785,49.200 80.077 C 49.200 80.369,48.840 80.832,48.400 81.107 C 47.960 81.382,47.600 81.870,47.600 82.191 C 47.600 82.527,47.362 82.684,47.040 82.560 C 46.733 82.442,46.345 82.566,46.179 82.835 C 45.970 83.173,46.050 83.225,46.438 83.003 C 46.893 82.744,46.904 82.786,46.500 83.221 C 46.225 83.518,46.000 84.244,46.000 84.837 C 46.000 85.651,45.757 85.974,45.000 86.164 C 44.354 86.326,44.000 86.696,44.000 87.208 C 44.000 87.923,43.575 88.192,42.681 88.041 C 42.506 88.012,42.392 88.215,42.428 88.494 C 42.664 90.291,42.373 91.286,41.666 91.101 C 41.081 90.948,40.967 91.095,41.106 91.819 C 41.224 92.437,41.025 92.866,40.486 93.154 C 40.049 93.388,39.577 94.038,39.436 94.600 C 39.295 95.161,38.824 95.976,38.390 96.410 C 37.955 96.845,37.600 97.629,37.600 98.153 C 37.600 98.770,37.318 99.181,36.800 99.316 C 36.352 99.433,36.000 99.862,36.000 100.290 C 36.000 100.711,35.563 101.435,35.030 101.899 C 34.413 102.435,34.133 103.021,34.260 103.506 C 34.395 104.022,34.126 104.488,33.430 104.944 C 32.705 105.419,32.400 105.971,32.400 106.809 C 32.400 107.856,32.077 108.179,31.147 108.063 C 31.008 108.046,30.901 108.249,30.910 108.516 C 30.972 110.400,30.754 111.268,30.267 111.081 C 29.973 110.968,29.706 111.084,29.673 111.338 C 29.413 113.342,29.027 114.400,28.555 114.400 C 28.250 114.400,27.985 114.535,27.967 114.700 C 27.711 117.036,27.112 118.239,26.419 117.812 C 26.299 117.738,26.152 118.425,26.094 119.339 C 26.022 120.452,25.706 121.235,25.136 121.711 C 24.652 122.115,24.243 122.978,24.188 123.711 C 24.134 124.420,24.070 125.225,24.045 125.500 C 24.020 125.775,23.677 126.000,23.282 126.000 C 22.739 126.000,22.539 126.359,22.465 127.466 C 22.347 129.217,22.137 129.627,21.487 129.378 C 21.197 129.267,20.988 129.557,20.971 130.096 C 20.917 131.815,20.598 133.002,20.080 133.409 C 19.794 133.635,19.427 134.715,19.265 135.809 C 19.050 137.266,18.801 137.787,18.339 137.753 C 17.991 137.728,17.711 137.908,17.716 138.153 C 17.786 141.389,17.568 142.400,16.800 142.400 C 16.082 142.400,16.000 142.667,16.000 145.000 C 16.000 147.480,15.830 147.826,14.700 147.647 C 14.535 147.621,14.382 147.825,14.360 148.100 C 14.103 151.335,13.908 152.191,13.303 152.750 C 12.792 153.223,12.566 154.157,12.476 156.177 C 12.340 159.231,12.209 159.654,11.487 159.380 C 11.133 159.246,10.964 160.149,10.870 162.685 C 10.729 166.454,10.593 166.960,9.804 166.657 C 9.405 166.504,9.275 167.500,9.225 171.100 C 9.172 174.959,9.046 175.824,8.480 176.237 C 7.898 176.662,7.771 177.761,7.600 183.867 C 7.420 190.272,7.330 190.995,6.718 190.947 C 5.582 190.860,5.627 220.894,6.765 221.690 C 7.482 222.193,7.553 222.802,7.633 229.179 C 7.710 235.329,7.804 236.204,8.460 236.860 C 9.046 237.446,9.210 238.265,9.250 240.800 C 9.277 242.560,9.338 244.135,9.385 244.300 C 9.673 245.323,10.133 245.965,10.442 245.774 C 10.750 245.584,10.966 248.770,10.900 252.522 C 10.882 253.560,10.922 253.589,11.441 252.922 C 11.955 252.260,11.982 252.259,11.758 252.900 C 11.622 253.292,11.709 253.600,11.957 253.600 C 12.227 253.600,12.400 254.451,12.400 255.771 C 12.400 257.767,13.038 259.199,13.929 259.200 C 14.078 259.201,14.208 260.453,14.219 261.983 C 14.234 264.274,14.382 264.892,15.058 265.482 C 15.594 265.951,15.955 266.885,16.099 268.176 C 16.220 269.262,16.591 270.350,16.923 270.593 C 17.265 270.843,17.579 271.809,17.646 272.817 C 17.723 273.967,18.020 274.786,18.483 275.123 C 18.892 275.421,19.200 276.152,19.200 276.823 C 19.200 277.473,19.564 278.364,20.014 278.814 C 20.580 279.380,20.850 280.220,20.900 281.573 C 20.963 283.274,21.040 283.435,21.516 282.859 C 21.815 282.497,21.933 282.445,21.778 282.745 C 21.624 283.044,21.705 283.418,21.958 283.574 C 22.212 283.731,22.444 284.513,22.474 285.311 C 22.524 286.645,23.203 287.455,24.108 287.261 C 24.278 287.224,24.332 287.662,24.228 288.234 C 24.019 289.388,24.717 290.800,25.496 290.800 C 25.808 290.800,26.000 291.348,26.000 292.237 C 26.000 293.313,26.191 293.725,26.760 293.874 C 27.430 294.049,27.798 294.942,28.073 297.062 C 28.106 297.316,28.373 297.432,28.667 297.319 C 29.022 297.183,29.200 297.444,29.200 298.103 C 29.200 298.647,29.590 299.588,30.067 300.194 C 30.543 300.800,30.933 301.808,30.933 302.433 C 30.933 303.469,30.984 303.509,31.496 302.885 C 31.806 302.508,31.933 302.445,31.778 302.745 C 31.624 303.044,31.696 303.412,31.939 303.562 C 32.181 303.712,32.448 304.277,32.532 304.817 C 32.638 305.504,32.926 305.787,33.486 305.757 C 34.097 305.724,34.288 305.963,34.284 306.757 C 34.274 308.898,34.380 309.158,35.200 309.000 C 35.824 308.880,36.000 309.061,36.000 309.823 C 36.000 310.533,36.218 310.800,36.800 310.800 C 37.445 310.800,37.600 311.067,37.600 312.173 C 37.600 313.132,37.812 313.613,38.304 313.769 C 38.691 313.892,39.192 314.399,39.418 314.896 C 39.644 315.393,40.025 315.762,40.265 315.717 C 40.505 315.671,40.800 316.242,40.920 316.987 C 41.041 317.731,41.520 318.720,41.985 319.185 C 42.449 319.649,42.719 320.207,42.585 320.425 C 42.450 320.642,42.489 320.794,42.670 320.763 C 43.791 320.568,44.342 320.863,44.203 321.583 C 44.115 322.041,44.454 322.748,45.019 323.283 C 45.551 323.787,45.989 324.419,45.993 324.686 C 45.997 324.953,46.360 325.365,46.800 325.600 C 47.240 325.835,47.600 326.365,47.600 326.777 C 47.600 327.311,47.814 327.469,48.348 327.329 C 48.899 327.185,49.165 327.406,49.356 328.167 C 49.499 328.735,49.882 329.200,50.208 329.200 C 50.765 329.200,50.990 329.910,50.821 331.140 C 50.780 331.437,50.896 331.588,51.078 331.476 C 51.260 331.363,51.756 331.525,52.181 331.835 C 52.605 332.146,52.801 332.400,52.615 332.400 C 52.430 332.400,52.621 332.715,53.042 333.100 C 53.462 333.485,54.056 334.289,54.363 334.886 C 54.670 335.484,55.053 335.891,55.215 335.791 C 55.377 335.691,55.732 335.877,56.004 336.204 C 56.276 336.532,56.341 336.818,56.149 336.840 C 55.957 336.862,56.250 337.008,56.800 337.165 C 57.462 337.354,57.791 337.726,57.774 338.268 C 57.756 338.865,57.944 339.035,58.469 338.898 C 58.923 338.779,59.293 338.985,59.469 339.455 C 59.622 339.865,60.086 340.444,60.501 340.742 C 60.915 341.039,61.154 341.544,61.031 341.862 C 60.909 342.181,60.971 342.342,61.168 342.219 C 61.780 341.841,62.858 342.472,62.628 343.072 C 62.507 343.385,62.577 343.538,62.783 343.410 C 62.989 343.283,63.617 343.856,64.179 344.683 C 64.740 345.509,65.200 346.032,65.200 345.844 C 65.200 345.656,65.468 345.724,65.796 345.996 C 66.123 346.268,66.293 346.650,66.172 346.845 C 66.051 347.040,66.323 347.200,66.776 347.200 C 67.229 347.200,67.600 347.391,67.600 347.624 C 67.600 347.857,67.735 347.965,67.900 347.866 C 68.065 347.766,68.432 347.935,68.716 348.242 C 68.999 348.549,69.094 348.800,68.927 348.800 C 68.759 348.800,69.025 349.082,69.518 349.427 C 70.010 349.772,70.322 350.202,70.211 350.382 C 70.100 350.562,70.232 350.702,70.504 350.692 C 71.856 350.643,72.400 350.857,72.400 351.437 C 72.400 351.788,72.743 352.165,73.163 352.274 C 73.583 352.384,74.016 352.817,74.126 353.237 C 74.241 353.678,74.675 354.000,75.155 354.000 C 75.712 354.000,76.069 354.337,76.242 355.024 C 76.403 355.667,76.701 355.970,77.043 355.839 C 77.656 355.604,78.529 356.921,78.086 357.412 C 77.929 357.586,78.035 357.592,78.323 357.426 C 79.147 356.950,80.722 357.523,81.000 358.401 C 81.140 358.840,81.505 359.200,81.813 359.200 C 82.120 359.200,82.565 359.560,82.800 360.000 C 83.035 360.440,83.563 360.800,83.971 360.800 C 84.833 360.800,85.384 361.852,84.678 362.149 C 84.415 362.259,84.560 362.332,85.000 362.311 C 86.868 362.222,87.600 362.427,87.600 363.037 C 87.600 363.388,87.952 363.767,88.381 363.879 C 88.811 363.992,89.430 364.491,89.756 364.990 C 90.161 365.607,90.672 365.860,91.360 365.785 C 92.063 365.707,92.443 365.905,92.612 366.437 C 92.824 367.105,93.333 367.407,93.729 367.100 C 93.966 366.916,95.200 368.337,95.200 368.795 C 95.200 369.044,95.365 369.145,95.566 369.021 C 96.239 368.605,98.098 369.568,97.853 370.206 C 97.675 370.669,97.969 370.800,99.186 370.800 C 100.395 370.800,100.803 370.980,101.000 371.600 C 101.187 372.188,101.605 372.400,102.580 372.400 C 103.570 372.400,103.960 372.603,104.116 373.200 C 104.233 373.649,104.662 374.000,105.093 374.000 C 105.515 374.000,106.264 374.430,106.758 374.955 C 107.287 375.518,107.950 375.834,108.373 375.723 C 108.807 375.609,109.390 375.904,109.845 376.468 C 110.351 377.093,111.124 377.447,112.189 377.541 C 113.080 377.621,114.055 378.002,114.409 378.410 C 114.756 378.810,115.661 379.196,116.420 379.269 C 117.445 379.366,117.786 379.580,117.744 380.100 C 117.699 380.668,118.017 380.800,119.432 380.800 C 120.893 380.800,121.134 380.908,120.919 381.466 C 120.755 381.894,120.821 382.034,121.104 381.859 C 121.347 381.709,121.658 381.770,121.796 381.993 C 121.934 382.217,122.916 382.400,123.977 382.400 C 125.570 382.400,125.943 382.539,126.116 383.200 C 126.279 383.825,126.662 384.000,127.866 384.000 C 128.940 384.000,129.550 384.227,129.876 384.750 C 130.199 385.267,131.038 385.588,132.572 385.779 C 133.798 385.932,134.800 386.225,134.800 386.429 C 134.800 386.633,135.081 386.800,135.424 386.800 C 135.767 386.800,135.963 386.936,135.861 387.101 C 135.758 387.267,136.513 387.431,137.537 387.465 C 138.562 387.499,139.805 387.544,140.300 387.564 C 140.812 387.584,141.200 387.855,141.200 388.192 C 141.200 388.900,142.186 389.159,145.400 389.297 C 147.405 389.383,147.791 389.515,147.744 390.100 C 147.696 390.712,148.084 390.800,150.841 390.800 C 153.560 390.800,154.062 390.910,154.493 391.600 C 154.933 392.305,155.426 392.400,158.635 392.400 C 161.703 392.400,162.423 392.526,163.200 393.200 C 164.031 393.921,164.697 394.000,169.935 394.000 C 175.363 394.000,175.810 394.058,176.679 394.875 C 177.662 395.798,214.000 396.361,214.000 395.453 C 214.000 395.263,214.337 395.195,214.749 395.303 C 215.326 395.453,215.453 395.326,215.303 394.749 C 215.117 394.038,215.462 394.000,222.130 394.000 C 228.939 394.000,229.149 393.975,229.000 393.200 C 228.853 392.436,229.061 392.400,233.574 392.400 C 237.803 392.400,238.360 392.318,238.851 391.622 C 239.320 390.957,239.980 390.826,243.400 390.716 C 246.827 390.606,247.385 390.495,247.293 389.938 C 247.203 389.397,247.688 389.263,250.181 389.137 C 252.404 389.025,253.308 388.811,253.688 388.306 C 254.059 387.815,254.918 387.596,256.800 387.514 C 258.647 387.433,259.574 387.202,260.000 386.716 C 260.380 386.282,261.329 385.989,262.591 385.916 C 264.460 385.807,266.072 384.973,265.713 384.300 C 265.625 384.135,266.346 384.000,267.314 384.000 C 268.568 384.000,269.285 383.769,269.800 383.200 C 270.312 382.634,271.032 382.400,272.262 382.400 C 273.704 382.400,274.000 382.270,274.000 381.639 C 274.000 381.015,274.380 380.837,276.100 380.654 C 279.107 380.333,279.145 380.321,278.919 379.733 C 278.769 379.341,279.159 379.200,280.395 379.200 C 281.711 379.200,282.118 379.035,282.274 378.437 C 282.499 377.577,283.417 377.239,285.193 377.362 C 285.963 377.416,286.400 377.256,286.400 376.923 C 286.400 376.635,286.670 376.400,287.000 376.400 C 287.330 376.400,287.600 376.199,287.600 375.953 C 287.600 375.707,287.951 375.598,288.382 375.711 C 288.910 375.849,289.367 375.605,289.791 374.958 C 290.221 374.301,290.794 374.000,291.613 374.000 C 292.313 374.000,293.092 373.669,293.493 373.200 C 293.870 372.760,294.577 372.400,295.066 372.400 C 295.739 372.400,295.917 372.206,295.800 371.600 C 295.667 370.911,295.861 370.800,297.196 370.800 C 298.395 370.800,298.804 370.619,299.000 370.000 C 299.162 369.489,299.605 369.200,300.227 369.200 C 300.762 369.200,301.546 368.854,301.970 368.430 C 303.071 367.329,304.371 366.703,305.031 366.957 C 305.404 367.099,305.600 366.904,305.600 366.392 C 305.600 365.819,305.841 365.635,306.500 365.705 C 307.225 365.781,307.376 365.625,307.275 364.900 C 307.175 364.181,307.344 364.000,308.113 364.000 C 308.643 364.000,309.402 363.640,309.800 363.200 C 310.198 362.760,310.765 362.400,311.059 362.400 C 311.353 362.400,311.818 362.040,312.093 361.600 C 312.368 361.160,312.909 360.800,313.296 360.800 C 313.733 360.800,314.000 360.497,314.000 360.000 C 314.000 359.430,314.267 359.200,314.927 359.200 C 316.026 359.200,319.200 356.873,319.200 356.068 C 319.200 355.704,319.481 355.580,320.000 355.716 C 320.636 355.882,320.800 355.728,320.800 354.963 C 320.800 354.210,321.012 354.000,321.771 354.000 C 322.732 354.000,324.000 353.080,324.000 352.383 C 324.000 352.186,324.719 351.614,325.597 351.112 C 326.475 350.610,327.195 349.958,327.197 349.663 C 327.199 349.367,327.543 349.035,327.963 348.926 C 328.383 348.816,328.816 348.383,328.926 347.963 C 329.042 347.519,329.475 347.200,329.963 347.200 C 330.423 347.200,330.800 346.942,330.800 346.627 C 330.800 346.312,331.156 345.941,331.592 345.803 C 332.027 345.664,332.366 345.427,332.345 345.276 C 332.231 344.477,332.479 344.073,333.200 343.884 C 333.640 343.769,334.000 343.388,334.000 343.037 C 334.000 342.471,334.449 342.227,335.276 342.345 C 335.427 342.366,335.664 342.027,335.803 341.592 C 335.941 341.156,336.292 340.800,336.584 340.800 C 336.875 340.800,337.226 340.350,337.364 339.800 C 337.502 339.250,337.882 338.800,338.208 338.800 C 338.533 338.800,338.800 338.513,338.800 338.163 C 338.800 337.812,339.117 337.442,339.503 337.341 C 339.890 337.240,340.616 336.447,341.115 335.579 C 341.615 334.710,342.186 334.000,342.383 334.000 C 343.080 334.000,344.000 332.732,344.000 331.771 C 344.000 331.012,344.210 330.800,344.963 330.800 C 345.728 330.800,345.882 330.636,345.716 330.000 C 345.580 329.481,345.704 329.200,346.068 329.200 C 346.873 329.200,349.200 326.026,349.200 324.927 C 349.200 324.267,349.430 324.000,350.000 324.000 C 350.497 324.000,350.800 323.733,350.800 323.296 C 350.800 322.909,351.160 322.368,351.600 322.093 C 352.040 321.818,352.400 321.353,352.400 321.059 C 352.400 320.765,352.760 320.198,353.200 319.800 C 353.640 319.402,354.000 318.643,354.000 318.113 C 354.000 317.344,354.181 317.175,354.900 317.275 C 355.625 317.376,355.781 317.225,355.705 316.500 C 355.634 315.829,355.818 315.600,356.428 315.600 C 356.885 315.600,357.135 315.419,356.994 315.191 C 356.584 314.527,357.729 312.400,358.498 312.400 C 358.884 312.400,359.179 312.265,359.153 312.100 C 358.949 310.808,359.281 309.200,359.751 309.200 C 360.055 309.200,360.524 308.666,360.795 308.013 C 361.065 307.361,361.537 306.619,361.843 306.364 C 362.149 306.110,362.400 305.495,362.400 304.998 C 362.400 304.430,362.698 304.015,363.200 303.884 C 363.812 303.724,364.000 303.338,364.000 302.245 C 364.000 301.090,364.175 300.771,364.912 300.586 C 365.600 300.414,365.811 300.092,365.771 299.279 C 365.699 297.843,365.968 297.200,366.638 297.200 C 366.973 297.200,367.291 296.571,367.446 295.600 C 367.599 294.643,367.921 294.000,368.246 294.000 C 368.570 294.000,368.892 293.365,369.041 292.435 C 369.211 291.369,369.532 290.807,370.046 290.672 C 370.629 290.520,370.800 290.106,370.800 288.850 C 370.800 287.639,370.940 287.279,371.347 287.435 C 371.908 287.650,372.384 286.538,372.395 284.989 C 372.398 284.543,372.760 283.870,373.200 283.493 C 373.800 282.979,374.000 282.313,374.000 280.827 C 374.000 279.061,374.087 278.863,374.800 279.000 C 375.240 279.085,375.619 278.939,375.643 278.677 C 375.666 278.415,375.725 277.930,375.774 277.600 C 375.823 277.270,375.894 276.325,375.932 275.500 C 375.985 274.326,376.162 274.000,376.748 274.000 C 377.323 274.000,377.499 273.699,377.509 272.700 C 377.530 270.563,377.582 270.342,378.000 270.600 C 378.220 270.736,378.400 270.466,378.400 270.000 C 378.400 269.523,378.579 269.264,378.810 269.406 C 379.035 269.545,379.194 269.511,379.163 269.330 C 378.886 267.735,379.279 265.904,379.935 265.733 C 380.533 265.577,380.687 265.091,380.757 263.148 C 380.821 261.393,381.051 260.549,381.622 259.978 C 382.230 259.370,382.400 258.643,382.400 256.647 C 382.400 254.430,382.505 254.066,383.200 253.884 C 383.891 253.703,384.000 253.338,384.000 251.214 C 384.000 249.675,384.150 248.845,384.400 249.000 C 384.620 249.136,384.800 248.982,384.800 248.657 C 384.800 248.332,384.978 248.007,385.196 247.933 C 385.413 247.860,385.681 246.540,385.790 245.000 C 385.940 242.882,386.176 242.045,386.761 241.562 C 387.314 241.107,387.533 240.422,387.530 239.162 C 387.518 234.707,387.603 234.000,388.153 234.000 C 388.859 234.000,389.188 232.760,389.195 230.074 C 389.200 227.937,389.771 226.211,390.352 226.571 C 390.524 226.677,390.708 224.748,390.761 222.285 C 390.843 218.452,390.968 217.703,391.628 217.088 C 392.326 216.438,392.400 215.779,392.400 210.231 C 392.400 204.430,392.444 204.082,393.200 203.884 C 394.455 203.556,394.455 176.444,393.200 176.116 C 392.508 175.935,391.858 164.544,392.344 161.125 C 392.366 160.973,392.027 160.918,391.592 161.002 C 390.842 161.146,390.797 160.910,390.750 156.577 C 390.687 150.810,390.713 150.978,389.891 151.118 C 389.286 151.220,389.200 150.852,389.200 148.164 C 389.200 145.560,389.075 144.985,388.375 144.378 C 387.691 143.785,387.537 143.140,387.477 140.631 C 387.414 138.035,387.303 137.600,386.702 137.600 C 386.255 137.600,385.982 137.273,385.951 136.700 C 385.797 133.846,385.647 131.775,385.581 131.600 C 385.539 131.490,385.523 131.276,385.544 131.125 C 385.566 130.973,385.227 130.918,384.792 131.002 C 384.071 131.140,383.602 128.518,383.953 126.300 C 383.979 126.135,383.865 126.021,383.700 126.047 C 382.680 126.208,382.400 125.872,382.400 124.489 C 382.400 123.658,382.136 122.602,381.814 122.142 C 381.492 121.681,381.342 121.191,381.481 121.053 C 381.620 120.914,381.523 120.800,381.267 120.800 C 381.010 120.800,380.800 120.365,380.800 119.833 C 380.800 118.452,380.402 117.600,379.757 117.600 C 379.365 117.600,379.200 117.076,379.200 115.829 C 379.200 114.752,378.954 113.811,378.571 113.429 C 378.226 113.083,378.059 112.800,378.200 112.800 C 378.341 112.800,378.159 112.502,377.794 112.137 C 377.411 111.754,377.206 111.082,377.308 110.546 C 377.433 109.894,377.265 109.548,376.743 109.382 C 376.334 109.252,375.978 108.798,375.950 108.373 C 375.923 107.948,375.855 107.420,375.800 107.200 C 375.745 106.980,375.678 106.620,375.650 106.400 C 375.623 106.180,375.240 106.000,374.800 106.000 C 374.119 106.000,374.000 105.733,374.000 104.200 C 374.000 103.210,373.865 102.421,373.700 102.447 C 372.704 102.605,372.400 102.272,372.400 101.027 C 372.400 100.005,372.195 99.589,371.600 99.400 C 370.979 99.203,370.800 98.795,370.800 97.573 C 370.800 96.267,370.664 96.000,370.000 96.000 C 369.365 96.000,369.199 95.731,369.194 94.700 C 369.187 93.183,368.667 92.188,368.074 92.555 C 367.637 92.824,366.964 91.302,367.350 90.917 C 367.473 90.794,367.132 90.347,366.594 89.924 C 366.056 89.500,365.633 89.029,365.655 88.877 C 365.780 88.005,365.509 87.600,364.800 87.600 C 364.181 87.600,364.000 87.333,364.000 86.418 C 364.000 85.684,363.613 84.849,362.978 84.215 C 362.417 83.653,362.070 83.010,362.208 82.787 C 362.346 82.563,362.311 82.406,362.130 82.437 C 361.236 82.593,360.800 82.329,360.800 81.633 C 360.800 80.441,360.369 79.600,359.757 79.600 C 359.451 79.600,359.200 79.223,359.200 78.763 C 359.200 78.262,358.879 77.841,358.400 77.716 C 357.690 77.530,357.389 76.867,357.563 75.870 C 357.594 75.689,357.435 75.655,357.210 75.794 C 356.984 75.933,356.800 75.831,356.800 75.568 C 356.800 75.304,356.522 74.885,356.182 74.636 C 355.842 74.388,355.535 73.803,355.500 73.336 C 355.460 72.801,355.236 72.565,354.894 72.696 C 354.574 72.819,354.263 72.561,354.133 72.065 C 354.012 71.604,353.594 71.125,353.204 71.001 C 352.600 70.810,351.787 68.821,351.942 67.914 C 351.968 67.757,351.723 67.732,351.395 67.857 C 351.018 68.002,350.800 67.846,350.800 67.433 C 350.800 67.074,350.359 66.612,349.820 66.407 C 349.124 66.143,348.885 65.797,348.997 65.217 C 349.142 64.461,348.612 64.164,347.470 64.363 C 347.289 64.394,347.251 64.241,347.387 64.022 C 347.522 63.802,347.182 63.231,346.630 62.751 C 346.079 62.272,345.739 61.699,345.875 61.478 C 346.012 61.257,345.959 61.178,345.757 61.303 C 345.285 61.595,344.225 60.800,343.888 59.900 C 343.743 59.515,343.349 59.200,343.013 59.200 C 342.676 59.200,342.400 58.942,342.400 58.627 C 342.400 58.312,342.040 57.940,341.600 57.800 C 341.160 57.660,340.800 57.198,340.800 56.773 C 340.800 56.267,340.524 56.000,340.000 56.000 C 339.560 56.000,339.200 55.806,339.200 55.569 C 339.200 55.332,338.435 54.418,337.500 53.539 C 336.565 52.660,335.845 51.774,335.900 51.570 C 335.955 51.367,335.865 51.229,335.700 51.264 C 335.092 51.392,334.000 50.698,334.000 50.184 C 334.000 49.893,333.640 49.540,333.200 49.400 C 332.760 49.260,332.400 49.009,332.400 48.841 C 332.400 48.673,331.587 47.952,330.594 47.239 C 329.601 46.526,328.892 45.775,329.018 45.571 C 329.144 45.367,328.982 45.200,328.657 45.200 C 328.332 45.200,327.999 44.997,327.916 44.749 C 327.834 44.502,327.324 44.273,326.783 44.242 C 326.115 44.203,325.818 43.963,325.856 43.492 C 325.886 43.112,325.674 42.800,325.384 42.800 C 324.634 42.800,323.544 41.613,323.846 41.125 C 324.004 40.869,323.800 40.809,323.307 40.966 C 322.467 41.232,321.359 40.314,321.752 39.678 C 321.873 39.482,321.411 39.305,320.725 39.286 C 319.499 39.251,318.657 38.556,319.056 37.909 C 319.168 37.728,319.111 37.606,318.930 37.637 C 317.931 37.811,317.295 37.519,317.344 36.910 C 317.402 36.199,317.243 36.135,315.200 36.050 C 314.295 36.012,314.000 35.809,314.000 35.222 C 314.000 34.773,313.535 34.212,312.900 33.895 C 312.295 33.593,311.835 33.164,311.878 32.940 C 311.921 32.716,311.410 32.533,310.743 32.533 C 309.545 32.533,308.651 31.765,309.067 31.092 C 309.184 30.902,309.037 30.780,308.740 30.821 C 307.567 30.982,305.482 30.785,305.730 30.537 C 306.119 30.148,305.205 29.200,304.440 29.200 C 304.076 29.200,303.470 28.840,303.093 28.400 C 302.716 27.960,302.065 27.600,301.647 27.600 C 301.228 27.600,300.783 27.333,300.658 27.007 C 300.533 26.681,299.707 26.299,298.823 26.157 C 297.938 26.016,297.312 25.743,297.431 25.550 C 297.550 25.358,297.356 25.200,297.000 25.200 C 296.644 25.200,296.464 25.020,296.600 24.800 C 296.832 24.425,296.033 24.223,294.899 24.370 C 294.624 24.406,294.193 23.984,293.942 23.433 C 293.691 22.881,293.196 22.452,292.843 22.478 C 291.185 22.603,290.432 22.381,290.644 21.829 C 290.801 21.420,290.641 21.316,290.077 21.464 C 289.644 21.577,289.169 21.474,289.022 21.235 C 288.874 20.996,288.024 20.800,287.134 20.800 C 285.859 20.800,285.563 20.672,285.745 20.200 C 285.871 19.870,285.936 19.591,285.887 19.580 C 285.839 19.568,284.990 19.458,284.000 19.333 C 282.302 19.120,281.442 18.579,281.822 17.964 C 281.915 17.814,281.768 17.698,281.496 17.708 C 278.399 17.820,277.200 17.566,277.200 16.800 C 277.200 16.360,277.065 16.021,276.900 16.047 C 275.392 16.285,272.400 15.919,272.400 15.496 C 272.400 14.664,271.112 14.143,269.132 14.176 C 268.105 14.193,267.278 14.115,267.296 14.003 C 267.464 12.910,266.586 12.507,263.892 12.439 C 261.190 12.371,260.146 11.935,260.667 11.092 C 260.784 10.902,260.637 10.780,260.340 10.821 C 257.628 11.193,254.000 10.749,254.000 10.044 C 254.000 9.629,253.775 9.297,253.500 9.307 C 249.321 9.463,245.538 9.138,245.730 8.639 C 246.038 7.836,244.819 7.612,240.114 7.605 C 236.456 7.601,235.984 7.517,235.605 6.809 C 235.210 6.072,234.684 6.011,227.891 5.909 C 222.094 5.822,220.623 5.691,220.710 5.270 C 220.770 4.979,220.640 4.851,220.421 4.987 C 220.202 5.122,219.613 4.965,219.111 4.636 C 218.233 4.061,180.823 3.729,178.700 4.278 M190.607 130.339 C 191.271 130.744,192.673 131.172,193.723 131.290 C 194.773 131.409,195.940 131.777,196.316 132.108 C 196.692 132.440,197.573 132.833,198.272 132.981 C 198.972 133.130,199.750 133.498,200.000 133.800 C 200.250 134.102,200.964 134.460,201.586 134.597 C 202.208 134.734,203.034 135.195,203.421 135.623 C 203.807 136.050,204.338 136.400,204.600 136.400 C 204.862 136.400,205.402 136.760,205.800 137.200 C 206.198 137.640,206.725 138.000,206.971 138.000 C 207.547 138.000,212.000 142.135,212.000 142.670 C 212.000 142.893,212.356 143.399,212.792 143.793 C 213.228 144.187,213.701 145.160,213.843 145.955 C 213.985 146.750,214.389 147.728,214.740 148.130 C 215.700 149.228,215.671 156.618,214.700 158.102 C 214.315 158.690,214.000 159.484,214.000 159.864 C 214.000 161.165,209.171 167.200,208.131 167.200 C 207.907 167.200,207.407 167.550,207.021 167.977 C 206.634 168.405,205.808 168.866,205.186 169.003 C 204.564 169.140,203.841 169.510,203.579 169.826 C 202.749 170.826,192.797 170.638,191.600 169.600 C 191.093 169.160,190.257 168.800,189.742 168.800 C 189.228 168.800,188.582 168.440,188.307 168.000 C 188.032 167.560,187.609 167.200,187.366 167.200 C 187.123 167.200,186.598 166.840,186.200 166.400 C 185.802 165.960,185.189 165.599,184.838 165.599 C 184.487 165.598,183.611 165.238,182.890 164.799 C 181.204 163.770,178.619 163.771,176.600 164.800 C 175.737 165.240,174.512 165.600,173.879 165.600 C 173.245 165.600,172.269 165.960,171.709 166.400 C 171.150 166.840,170.474 167.200,170.208 167.200 C 169.942 167.200,169.417 167.539,169.042 167.954 C 168.666 168.369,167.818 168.816,167.156 168.949 C 166.495 169.081,165.681 169.462,165.348 169.795 C 164.326 170.816,154.657 170.660,153.309 169.600 C 152.750 169.160,151.985 168.800,151.609 168.800 C 151.234 168.800,150.448 168.395,149.862 167.900 C 147.477 165.884,144.800 163.229,144.800 162.880 C 144.800 162.675,144.432 162.040,143.983 161.469 C 143.532 160.896,143.058 159.522,142.926 158.404 C 142.794 157.289,142.531 156.281,142.343 156.165 C 141.894 155.888,141.895 150.400,142.344 150.400 C 142.533 150.400,142.786 149.453,142.905 148.295 C 143.112 146.292,144.870 142.800,145.671 142.800 C 145.852 142.800,146.000 142.545,146.000 142.234 C 146.000 141.618,149.308 138.535,150.600 137.948 C 151.040 137.748,152.210 137.051,153.200 136.400 C 155.388 134.961,156.617 134.400,157.583 134.400 C 157.985 134.400,158.409 134.153,158.525 133.851 C 158.641 133.548,159.426 133.173,160.268 133.017 C 161.111 132.860,162.118 132.447,162.506 132.099 C 162.895 131.750,164.206 131.382,165.421 131.282 C 166.636 131.181,168.291 130.761,169.100 130.349 C 171.305 129.225,188.766 129.217,190.607 130.339 M290.600 130.260 C 291.260 130.620,292.785 131.059,293.989 131.235 C 295.193 131.411,296.363 131.807,296.589 132.115 C 296.815 132.423,297.684 132.803,298.521 132.960 C 299.358 133.116,300.134 133.484,300.247 133.777 C 300.359 134.070,300.949 134.410,301.556 134.531 C 302.815 134.783,308.800 138.665,308.800 139.229 C 308.800 139.433,308.994 139.600,309.231 139.600 C 309.783 139.600,312.000 141.806,312.000 142.355 C 312.000 142.584,312.345 142.957,312.767 143.183 C 313.190 143.409,313.660 144.180,313.812 144.897 C 313.964 145.614,314.384 146.533,314.745 146.941 C 315.991 148.349,315.913 157.049,314.632 159.456 C 314.064 160.521,313.600 161.556,313.600 161.754 C 313.600 163.059,307.311 168.800,305.882 168.800 C 305.566 168.800,304.850 169.160,304.291 169.600 C 303.393 170.307,302.668 170.400,298.091 170.400 C 293.514 170.400,292.789 170.307,291.891 169.600 C 291.331 169.160,290.642 168.800,290.358 168.800 C 289.740 168.800,286.732 166.809,286.280 166.101 C 286.104 165.826,285.647 165.600,285.265 165.600 C 284.882 165.600,283.863 165.240,283.000 164.800 C 282.137 164.360,280.787 164.000,280.000 164.000 C 279.213 164.000,277.863 164.360,277.000 164.800 C 276.137 165.240,275.016 165.600,274.509 165.600 C 273.592 165.600,269.402 167.749,268.976 168.438 C 268.853 168.637,268.338 168.800,267.830 168.800 C 267.323 168.800,266.450 169.160,265.891 169.600 C 264.362 170.803,254.987 170.803,253.600 169.600 C 253.093 169.160,252.419 168.800,252.102 168.800 C 250.751 168.800,244.940 163.296,244.518 161.617 C 244.379 161.062,244.036 160.379,243.756 160.099 C 242.526 158.868,242.461 147.907,243.676 146.509 C 244.015 146.119,244.415 145.286,244.565 144.657 C 245.018 142.753,252.098 136.400,253.766 136.400 C 254.046 136.400,254.593 136.050,254.979 135.623 C 255.366 135.195,256.239 134.723,256.919 134.574 C 257.599 134.425,258.386 134.071,258.669 133.788 C 258.953 133.505,259.950 133.144,260.885 132.986 C 261.821 132.828,262.787 132.423,263.033 132.087 C 263.313 131.704,264.361 131.407,265.840 131.291 C 267.138 131.189,268.470 130.880,268.800 130.605 C 269.866 129.715,270.464 129.664,280.000 129.634 C 287.987 129.609,289.580 129.703,290.600 130.260 M165.112 205.320 C 165.515 205.686,167.130 206.118,168.921 206.340 C 170.630 206.552,172.297 206.948,172.624 207.220 C 172.951 207.491,174.719 207.850,176.553 208.018 C 178.387 208.185,180.444 208.609,181.124 208.961 C 181.866 209.344,183.350 209.600,184.834 209.600 C 187.133 209.600,189.482 210.034,191.400 210.813 C 191.840 210.992,194.404 211.233,197.098 211.349 C 200.071 211.477,202.507 211.788,203.298 212.141 C 206.753 213.680,247.027 213.704,248.808 212.167 C 249.155 211.867,251.040 211.524,253.208 211.366 C 255.626 211.190,257.538 210.820,258.484 210.345 C 259.300 209.935,260.606 209.600,261.386 209.600 C 262.165 209.600,263.475 209.240,264.296 208.800 C 265.116 208.360,266.212 208.000,266.731 208.000 C 267.250 208.000,268.106 207.660,268.633 207.245 C 269.161 206.830,270.270 206.365,271.097 206.211 C 271.923 206.058,272.934 205.633,273.343 205.266 C 274.422 204.298,283.956 204.284,285.058 205.249 C 285.466 205.607,286.459 206.110,287.265 206.369 C 288.070 206.627,288.830 207.100,288.952 207.419 C 289.075 207.739,289.435 208.000,289.752 208.000 C 290.069 208.000,290.798 208.585,291.370 209.300 C 291.943 210.015,292.634 210.865,292.906 211.190 C 294.178 212.708,295.586 215.067,295.593 215.692 C 295.597 216.072,295.985 217.556,296.456 218.990 C 297.286 221.519,297.292 221.671,296.641 224.098 C 296.273 225.474,295.816 227.309,295.625 228.176 C 295.435 229.043,294.992 229.963,294.640 230.220 C 294.288 230.478,294.000 230.874,294.000 231.101 C 294.000 232.288,288.832 237.200,287.582 237.200 C 287.372 237.200,286.867 237.533,286.461 237.939 C 286.054 238.346,284.998 238.794,284.113 238.936 C 283.228 239.077,282.278 239.464,282.003 239.796 C 281.727 240.128,281.029 240.401,280.451 240.403 C 279.873 240.404,278.860 240.763,278.200 241.200 C 277.540 241.637,276.439 241.996,275.754 241.997 C 275.069 241.999,274.066 242.347,273.527 242.772 C 272.937 243.236,271.549 243.657,270.051 243.826 C 268.679 243.981,266.899 244.444,266.094 244.854 C 265.207 245.306,263.790 245.600,262.496 245.600 C 261.283 245.600,259.807 245.888,259.080 246.266 C 258.151 246.749,256.372 246.984,252.600 247.122 C 248.747 247.264,247.145 247.480,246.417 247.957 C 244.916 248.940,208.063 248.933,206.942 247.949 C 206.345 247.425,204.945 247.260,199.787 247.104 C 195.170 246.965,193.042 246.741,192.187 246.305 C 191.444 245.927,189.427 245.632,186.800 245.518 C 184.199 245.406,182.067 245.097,181.200 244.706 C 180.430 244.359,178.289 243.972,176.442 243.846 C 174.461 243.710,172.701 243.365,172.149 243.004 C 171.631 242.664,169.829 242.283,168.107 242.148 C 166.398 242.014,164.590 241.649,164.090 241.337 C 163.589 241.024,161.969 240.662,160.490 240.533 C 158.954 240.399,157.265 239.976,156.553 239.549 C 155.867 239.137,154.589 238.800,153.714 238.800 C 152.697 238.800,151.790 238.511,151.200 238.000 C 150.693 237.560,150.061 237.200,149.797 237.200 C 149.533 237.200,148.796 236.740,148.158 236.178 C 147.521 235.616,146.505 234.718,145.900 234.184 C 145.295 233.650,144.800 233.101,144.800 232.964 C 144.800 232.827,144.350 232.181,143.800 231.527 C 143.250 230.873,142.800 229.992,142.800 229.569 C 142.800 229.146,142.638 228.800,142.439 228.800 C 141.184 228.800,140.631 218.020,141.782 216.000 C 142.095 215.450,142.622 214.419,142.952 213.709 C 144.153 211.124,148.260 207.035,150.319 206.374 C 151.134 206.113,152.070 205.668,152.400 205.386 C 153.770 204.215,163.833 204.163,165.112 205.320 " stroke="none" fill="#7cbb7b" fill-rule="evenodd"></path><path id="path2" d="M173.800 130.366 C 172.480 130.530,170.590 130.871,169.600 131.123 C 168.610 131.375,167.080 131.755,166.200 131.966 C 162.669 132.815,157.941 134.827,151.800 138.094 C 146.130 141.111,143.400 146.021,143.400 153.200 C 143.400 159.173,143.510 159.545,146.429 163.460 C 151.157 169.800,162.619 171.818,168.471 167.341 C 170.998 165.408,176.554 163.506,179.761 163.476 C 182.109 163.454,186.795 165.075,186.803 165.912 C 186.807 166.366,189.179 167.678,191.800 168.674 C 196.224 170.356,203.861 169.674,206.431 167.367 C 206.779 167.055,207.236 166.800,207.447 166.800 C 207.913 166.800,211.111 163.458,212.232 161.800 C 216.535 155.433,214.504 144.611,208.125 139.908 C 207.149 139.189,205.866 138.218,205.275 137.752 C 202.797 135.795,194.948 132.217,191.891 131.649 C 190.741 131.435,189.260 131.050,188.600 130.793 C 187.163 130.233,177.181 129.945,173.800 130.366 M274.200 130.378 C 271.044 130.789,266.154 131.876,264.400 132.556 C 263.630 132.855,261.920 133.503,260.600 133.996 C 258.046 134.951,253.533 137.133,253.200 137.574 C 253.090 137.719,252.160 138.324,251.133 138.917 C 239.568 145.596,241.375 163.965,254.071 168.790 C 256.311 169.642,264.114 169.987,264.566 169.255 C 264.683 169.065,265.591 168.683,266.582 168.405 C 267.574 168.127,268.590 167.653,268.841 167.350 C 269.092 167.048,269.522 166.800,269.795 166.800 C 270.068 166.800,270.721 166.471,271.246 166.069 C 275.233 163.014,283.205 162.770,286.600 165.598 C 290.387 168.754,301.717 171.277,302.973 169.244 C 303.094 169.049,303.689 168.765,304.296 168.614 C 306.603 168.040,309.605 165.637,312.409 162.122 C 315.688 158.012,315.496 148.413,312.039 143.600 C 311.002 142.157,307.590 138.805,307.155 138.802 C 307.020 138.801,306.261 138.284,305.468 137.654 C 303.039 135.724,295.243 132.180,292.200 131.624 C 291.100 131.422,289.660 131.051,289.000 130.800 C 287.525 130.237,277.479 129.950,274.200 130.378 M187.125 131.203 C 188.954 131.641,190.939 132.000,191.536 132.000 C 192.133 132.000,193.041 132.293,193.553 132.652 C 194.065 133.010,195.209 133.467,196.097 133.666 C 196.984 133.866,198.160 134.382,198.709 134.814 C 199.258 135.246,200.022 135.600,200.405 135.600 C 200.788 135.600,201.320 135.863,201.587 136.185 C 201.854 136.506,202.427 136.882,202.861 137.019 C 206.857 138.288,212.593 144.840,213.244 148.879 C 213.460 150.222,213.805 151.635,214.010 152.018 C 214.254 152.474,214.192 153.384,213.829 154.657 C 213.525 155.726,213.158 157.455,213.014 158.500 C 212.869 159.545,212.594 160.400,212.402 160.400 C 212.211 160.400,211.939 160.761,211.800 161.202 C 211.492 162.172,207.527 166.400,206.926 166.400 C 206.691 166.400,206.291 166.649,206.039 166.953 C 203.861 169.577,192.557 169.679,189.710 167.100 C 189.285 166.715,188.752 166.400,188.527 166.400 C 188.301 166.400,187.631 165.950,187.038 165.400 C 186.444 164.850,185.757 164.400,185.511 164.400 C 185.265 164.400,184.726 164.095,184.315 163.723 C 183.139 162.659,176.183 162.815,173.996 163.955 C 173.104 164.420,172.043 164.800,171.637 164.800 C 171.230 164.800,170.680 165.063,170.413 165.385 C 170.146 165.706,169.539 166.091,169.064 166.240 C 168.589 166.388,167.771 166.845,167.246 167.255 C 166.721 167.665,166.001 168.001,165.646 168.002 C 165.291 168.004,164.484 168.274,163.854 168.602 C 161.715 169.718,152.571 168.715,151.627 167.261 C 151.502 167.069,150.837 166.623,150.148 166.271 C 149.460 165.918,148.791 165.353,148.661 165.015 C 148.531 164.677,148.149 164.400,147.813 164.400 C 147.476 164.400,147.200 164.238,147.200 164.041 C 147.200 163.843,146.436 162.448,145.502 160.941 L 143.803 158.200 143.802 153.400 C 143.800 148.468,144.765 145.123,146.639 143.568 C 146.947 143.312,147.200 142.854,147.200 142.551 C 147.200 142.248,147.361 142.000,147.558 142.000 C 147.754 142.000,148.519 141.433,149.258 140.741 C 149.996 140.049,151.173 139.241,151.873 138.947 C 152.573 138.653,153.260 138.227,153.400 138.000 C 153.540 137.773,154.227 137.324,154.927 137.002 C 155.627 136.680,156.470 136.243,156.800 136.032 C 157.130 135.821,157.882 135.547,158.472 135.423 C 159.062 135.300,159.801 134.942,160.115 134.628 C 160.428 134.315,161.384 133.927,162.238 133.766 C 163.093 133.606,164.514 133.147,165.396 132.746 C 166.278 132.345,167.663 132.014,168.474 132.009 C 169.285 132.004,170.455 131.799,171.074 131.553 C 174.313 130.268,182.482 130.090,187.125 131.203 M288.350 131.357 C 289.313 131.711,290.628 132.000,291.272 132.000 C 291.917 132.000,293.205 132.347,294.136 132.771 C 295.066 133.195,296.362 133.672,297.014 133.832 C 297.666 133.991,298.629 134.455,299.154 134.861 C 299.679 135.267,300.433 135.600,300.830 135.600 C 301.228 135.600,301.675 135.798,301.825 136.041 C 301.975 136.283,302.706 136.736,303.449 137.046 C 304.192 137.357,304.800 137.766,304.800 137.957 C 304.800 138.147,305.295 138.513,305.900 138.770 C 308.095 139.701,312.564 144.632,313.003 146.607 C 313.149 147.263,313.523 148.479,313.834 149.308 C 314.926 152.217,313.946 159.088,312.134 161.231 C 311.840 161.579,311.600 162.012,311.600 162.195 C 311.600 162.641,307.721 166.400,307.261 166.400 C 307.061 166.400,306.691 166.649,306.439 166.953 C 304.300 169.530,293.141 169.686,290.141 167.181 C 288.910 166.153,286.180 164.400,285.810 164.400 C 285.619 164.400,285.134 164.103,284.733 163.739 C 283.723 162.825,276.492 162.786,275.117 163.687 C 274.606 164.021,273.561 164.429,272.794 164.592 C 272.027 164.755,271.130 165.108,270.800 165.376 C 265.831 169.407,255.107 170.382,251.840 167.100 C 251.456 166.715,250.991 166.400,250.805 166.400 C 249.574 166.400,246.315 162.196,244.912 158.800 C 243.970 156.518,243.563 149.517,244.345 149.034 C 244.535 148.917,244.922 147.961,245.205 146.910 C 245.488 145.860,246.052 144.628,246.460 144.174 C 246.867 143.720,247.207 143.180,247.216 142.974 C 247.249 142.210,252.528 138.420,255.451 137.063 C 256.139 136.743,256.825 136.283,256.975 136.041 C 257.125 135.798,257.552 135.598,257.924 135.596 C 258.296 135.594,259.500 135.150,260.600 134.609 C 261.700 134.068,262.960 133.613,263.400 133.599 C 263.840 133.585,264.920 133.225,265.800 132.800 C 266.680 132.375,268.031 132.021,268.803 132.014 C 269.574 132.006,270.834 131.807,271.603 131.571 C 275.806 130.280,285.094 130.161,288.350 131.357 M153.189 206.125 C 148.888 207.566,144.382 211.577,143.406 214.834 C 143.247 215.366,142.831 216.250,142.483 216.800 C 140.589 219.787,142.052 228.027,145.181 232.000 C 147.825 235.356,152.672 238.400,155.373 238.400 C 155.929 238.400,157.062 238.662,157.892 238.983 C 158.721 239.303,160.542 239.764,161.939 240.007 C 163.335 240.250,164.947 240.628,165.522 240.846 C 166.096 241.065,167.956 241.418,169.656 241.631 C 171.355 241.844,173.343 242.261,174.073 242.558 C 174.803 242.854,176.840 243.220,178.600 243.370 C 180.360 243.521,182.880 243.894,184.200 244.200 C 204.019 248.798,247.919 248.798,264.600 244.200 C 265.700 243.897,267.320 243.533,268.200 243.391 C 269.947 243.110,273.924 241.893,276.874 240.735 C 277.905 240.331,278.965 240.000,279.230 240.000 C 279.721 240.000,280.866 239.510,285.736 237.218 C 292.496 234.036,297.198 225.852,295.673 219.922 C 295.430 218.975,295.115 217.570,294.972 216.800 C 294.345 213.405,288.601 206.879,286.159 206.786 C 285.961 206.779,285.080 206.425,284.200 206.000 C 281.406 204.650,276.754 204.891,272.493 206.605 C 265.752 209.316,259.077 211.401,255.800 211.820 C 254.700 211.961,252.900 212.336,251.800 212.653 C 244.254 214.832,211.220 214.828,199.727 212.648 C 197.989 212.318,195.135 211.930,193.384 211.786 C 191.633 211.641,189.562 211.363,188.782 211.168 C 187.368 210.814,181.060 209.634,175.000 208.588 C 173.240 208.285,170.900 207.768,169.800 207.441 C 168.700 207.113,166.900 206.648,165.800 206.407 C 164.700 206.165,163.170 205.799,162.400 205.593 C 160.013 204.955,155.989 205.187,153.189 206.125 M161.203 206.026 C 161.971 206.261,163.860 206.699,165.400 207.000 C 166.940 207.300,168.920 207.821,169.800 208.156 C 170.680 208.491,172.137 208.773,173.037 208.782 C 173.938 208.792,175.721 209.160,177.000 209.600 C 178.279 210.040,180.074 210.400,180.990 210.400 C 181.905 210.400,183.992 210.756,185.627 211.191 C 187.262 211.625,189.590 211.993,190.800 212.008 C 192.010 212.023,193.810 212.217,194.800 212.440 C 199.597 213.519,202.507 213.789,220.940 214.863 C 228.458 215.301,231.335 215.203,246.600 213.992 C 249.460 213.765,252.520 213.318,253.400 212.999 C 254.280 212.680,256.336 212.230,257.969 212.001 C 259.602 211.771,261.141 211.415,261.389 211.209 C 261.637 211.003,262.641 210.714,263.620 210.567 C 264.599 210.419,265.940 209.985,266.600 209.602 C 267.260 209.218,268.418 208.789,269.174 208.648 C 269.929 208.506,270.829 208.148,271.174 207.852 C 271.753 207.355,272.747 207.029,277.000 205.943 C 279.595 205.280,284.999 206.411,287.154 208.067 C 287.679 208.470,288.347 208.800,288.640 208.800 C 288.932 208.800,289.365 209.160,289.600 209.600 C 289.835 210.040,290.292 210.400,290.614 210.400 C 290.936 210.400,291.200 210.660,291.200 210.977 C 291.200 211.295,291.515 211.790,291.900 212.077 C 294.781 214.228,296.150 226.307,293.782 228.675 C 293.462 228.995,293.200 229.488,293.200 229.770 C 293.200 230.052,292.769 230.749,292.241 231.318 C 291.714 231.887,291.219 232.501,291.141 232.683 C 290.638 233.862,283.945 238.000,282.542 238.000 C 282.221 238.000,281.293 238.338,280.479 238.752 C 278.770 239.620,275.864 240.630,273.000 241.352 C 271.900 241.629,270.640 242.051,270.200 242.288 C 269.760 242.526,268.500 242.840,267.400 242.985 C 266.300 243.130,264.680 243.505,263.800 243.818 C 262.920 244.131,260.580 244.556,258.600 244.762 C 256.620 244.968,254.460 245.351,253.800 245.612 C 253.121 245.880,248.690 246.246,243.600 246.453 C 238.650 246.654,234.047 246.994,233.372 247.209 C 231.789 247.713,223.929 247.716,222.046 247.215 C 221.251 247.003,215.773 246.654,209.872 246.441 C 203.822 246.222,198.932 245.875,198.656 245.646 C 198.387 245.423,195.744 245.039,192.783 244.793 C 189.823 244.546,186.500 244.101,185.400 243.804 C 184.300 243.507,181.905 243.146,180.079 243.002 C 178.252 242.859,176.160 242.492,175.431 242.187 C 174.701 241.882,172.866 241.508,171.352 241.356 C 169.839 241.203,167.627 240.746,166.437 240.339 C 165.248 239.933,163.712 239.600,163.024 239.600 C 162.335 239.600,160.748 239.240,159.496 238.800 C 158.244 238.360,156.626 238.000,155.899 238.000 C 155.172 238.000,154.223 237.756,153.789 237.457 C 153.355 237.158,152.347 236.701,151.548 236.442 C 150.750 236.182,149.777 235.617,149.386 235.185 C 148.996 234.753,148.479 234.399,148.238 234.397 C 147.431 234.391,144.063 229.720,143.590 227.950 C 143.332 226.988,142.980 226.020,142.806 225.800 C 141.375 223.990,142.680 216.262,144.965 213.013 C 145.878 211.716,148.837 208.828,149.271 208.811 C 149.421 208.805,149.856 208.485,150.239 208.100 C 151.838 206.491,158.559 205.220,161.203 206.026 " stroke="none" fill="#546c54" fill-rule="evenodd"></path><path id="path3" d="M173.305 130.287 C 173.914 130.379,174.814 130.377,175.305 130.282 C 175.797 130.187,175.300 130.111,174.200 130.114 C 173.100 130.117,172.697 130.195,173.305 130.287 M274.305 130.283 C 274.802 130.379,275.522 130.375,275.905 130.275 C 276.287 130.175,275.880 130.096,275.000 130.101 C 274.120 130.105,273.807 130.187,274.305 130.283 M285.505 130.283 C 286.002 130.379,286.722 130.375,287.105 130.275 C 287.487 130.175,287.080 130.096,286.200 130.101 C 285.320 130.105,285.007 130.187,285.505 130.283 M156.176 135.422 C 155.412 136.034,155.413 136.038,156.200 135.676 C 156.640 135.474,157.270 135.208,157.600 135.086 C 158.118 134.893,158.115 134.859,157.576 134.832 C 157.234 134.814,156.604 135.080,156.176 135.422 M305.167 137.345 C 305.700 138.001,307.200 138.993,307.200 138.689 C 307.200 138.613,306.615 138.122,305.900 137.599 C 305.096 137.010,304.816 136.913,305.167 137.345 M146.175 142.668 C 145.559 143.476,145.259 144.011,145.509 143.856 C 146.021 143.540,147.753 141.200,147.475 141.200 C 147.376 141.200,146.791 141.861,146.175 142.668 M246.035 143.279 C 245.356 144.202,244.800 145.127,244.800 145.335 C 244.800 145.542,245.271 145.012,245.846 144.156 C 246.421 143.300,247.073 142.375,247.295 142.100 C 247.516 141.825,247.601 141.600,247.484 141.600 C 247.366 141.600,246.714 142.355,246.035 143.279 M243.344 153.200 C 243.344 155.290,243.412 156.145,243.494 155.100 C 243.576 154.055,243.576 152.345,243.494 151.300 C 243.412 150.255,243.344 151.110,243.344 153.200 M142.934 153.200 C 142.934 154.850,143.005 155.525,143.091 154.700 C 143.178 153.875,143.178 152.525,143.091 151.700 C 143.005 150.875,142.934 151.550,142.934 153.200 M314.924 153.400 C 314.926 154.720,315.001 155.212,315.090 154.493 C 315.179 153.774,315.177 152.694,315.086 152.093 C 314.995 151.492,314.922 152.080,314.924 153.400 M314.315 157.410 C 314.192 157.845,313.969 158.560,313.820 159.000 C 313.671 159.440,313.842 159.294,314.200 158.676 C 314.558 158.058,314.781 157.342,314.695 157.086 C 314.610 156.830,314.439 156.976,314.315 157.410 M145.166 162.300 C 145.383 162.685,146.034 163.540,146.612 164.200 C 147.408 165.108,147.348 164.938,146.364 163.500 C 145.080 161.622,144.402 160.944,145.166 162.300 M306.800 167.400 C 306.055 167.950,305.615 168.394,305.822 168.386 C 306.224 168.370,308.755 166.405,308.378 166.402 C 308.255 166.401,307.545 166.850,306.800 167.400 M157.500 169.895 C 158.655 169.976,160.545 169.976,161.700 169.895 C 162.855 169.814,161.910 169.748,159.600 169.748 C 157.290 169.748,156.345 169.814,157.500 169.895 M195.913 169.895 C 197.076 169.976,198.876 169.976,199.913 169.893 C 200.951 169.811,200.000 169.745,197.800 169.746 C 195.600 169.747,194.751 169.814,195.913 169.895 M258.313 169.895 C 259.476 169.976,261.276 169.976,262.313 169.893 C 263.351 169.811,262.400 169.745,260.200 169.746 C 258.000 169.747,257.151 169.814,258.313 169.895 M296.313 169.895 C 297.476 169.976,299.276 169.976,300.313 169.893 C 301.351 169.811,300.400 169.745,298.200 169.746 C 296.000 169.747,295.151 169.814,296.313 169.895 M157.705 205.087 C 158.314 205.179,159.214 205.177,159.705 205.082 C 160.197 204.987,159.700 204.911,158.600 204.914 C 157.500 204.917,157.097 204.995,157.705 205.087 M278.705 205.083 C 279.202 205.179,279.922 205.175,280.305 205.075 C 280.687 204.975,280.280 204.896,279.400 204.901 C 278.520 204.905,278.207 204.987,278.705 205.083 M153.200 205.800 C 151.922 206.530,152.196 206.534,154.200 205.812 C 155.080 205.495,155.440 205.234,155.000 205.232 C 154.560 205.230,153.750 205.486,153.200 205.800 M186.433 210.544 C 186.525 210.623,187.140 210.808,187.800 210.956 C 188.676 211.152,188.838 211.115,188.400 210.818 C 187.860 210.453,186.032 210.198,186.433 210.544 M194.500 211.876 C 194.885 211.976,195.515 211.976,195.900 211.876 C 196.285 211.775,195.970 211.693,195.200 211.693 C 194.430 211.693,194.115 211.775,194.500 211.876 M197.233 212.143 C 197.325 212.222,198.120 212.397,199.000 212.532 C 200.090 212.699,200.409 212.655,200.000 212.395 C 199.453 212.046,196.845 211.809,197.233 212.143 M206.300 213.482 C 206.795 213.578,207.605 213.578,208.100 213.482 C 208.595 213.387,208.190 213.309,207.200 213.309 C 206.210 213.309,205.805 213.387,206.300 213.482 M245.100 213.482 C 245.595 213.578,246.405 213.578,246.900 213.482 C 247.395 213.387,246.990 213.309,246.000 213.309 C 245.010 213.309,244.605 213.387,245.100 213.482 M215.513 213.895 C 216.676 213.976,218.476 213.976,219.513 213.893 C 220.551 213.811,219.600 213.745,217.400 213.746 C 215.200 213.747,214.351 213.814,215.513 213.895 M233.423 213.960 C 232.995 214.128,234.255 214.195,236.223 214.109 C 241.085 213.898,241.722 213.697,237.600 213.675 C 235.730 213.664,233.850 213.793,233.423 213.960 M225.900 214.695 C 227.055 214.776,228.945 214.776,230.100 214.695 C 231.255 214.614,230.310 214.548,228.000 214.548 C 225.690 214.548,224.745 214.614,225.900 214.695 M296.060 221.667 C 296.027 222.254,295.896 223.064,295.770 223.467 C 295.552 224.160,295.565 224.161,295.995 223.490 C 296.246 223.099,296.377 222.289,296.286 221.690 L 296.120 220.600 296.060 221.667 M141.693 224.800 C 141.693 225.570,141.775 225.885,141.876 225.500 C 141.976 225.115,141.976 224.485,141.876 224.100 C 141.775 223.715,141.693 224.030,141.693 224.800 M290.575 234.100 L 289.400 235.400 290.700 234.225 C 291.415 233.579,292.000 232.994,292.000 232.925 C 292.000 232.616,291.670 232.888,290.575 234.100 M151.424 237.387 C 151.851 237.710,152.380 237.975,152.600 237.975 C 152.820 237.975,152.651 237.710,152.224 237.387 C 151.796 237.064,151.267 236.800,151.047 236.800 C 150.827 236.800,150.996 237.064,151.424 237.387 M285.000 237.627 C 284.340 238.050,283.980 238.396,284.200 238.395 C 284.420 238.395,285.140 238.037,285.800 237.600 C 286.460 237.163,286.820 236.817,286.600 236.832 C 286.380 236.847,285.660 237.204,285.000 237.627 M276.400 241.000 C 275.850 241.314,275.580 241.572,275.800 241.572 C 276.020 241.572,276.650 241.314,277.200 241.000 C 277.750 240.686,278.020 240.428,277.800 240.428 C 277.580 240.428,276.950 240.686,276.400 241.000 M173.200 242.600 C 173.750 242.914,174.470 243.171,174.800 243.170 C 175.130 243.169,174.794 242.906,174.054 242.584 C 172.351 241.845,171.894 241.853,173.200 242.600 M183.400 244.400 C 183.840 244.589,184.470 244.744,184.800 244.744 C 185.178 244.744,185.104 244.617,184.600 244.400 C 184.160 244.211,183.530 244.056,183.200 244.056 C 182.822 244.056,182.896 244.183,183.400 244.400 M255.600 246.000 C 254.796 246.257,254.757 246.323,255.400 246.332 C 255.840 246.338,256.560 246.189,257.000 246.000 C 258.019 245.562,256.968 245.562,255.600 246.000 M196.100 246.276 C 196.485 246.376,197.115 246.376,197.500 246.276 C 197.885 246.175,197.570 246.093,196.800 246.093 C 196.030 246.093,195.715 246.175,196.100 246.276 M199.500 246.682 C 199.995 246.778,200.805 246.778,201.300 246.682 C 201.795 246.587,201.390 246.509,200.400 246.509 C 199.410 246.509,199.005 246.587,199.500 246.682 M212.400 247.631 C 212.950 247.790,215.200 247.917,217.400 247.914 C 222.401 247.906,221.602 247.697,215.800 247.495 C 213.380 247.411,211.850 247.473,212.400 247.631 M237.800 247.600 L 233.800 247.845 237.600 247.916 C 239.690 247.956,241.670 247.813,242.000 247.600 C 242.330 247.387,242.420 247.244,242.200 247.284 C 241.980 247.323,240.000 247.465,237.800 247.600 M224.918 248.298 C 226.633 248.373,229.333 248.372,230.918 248.297 C 232.503 248.221,231.100 248.159,227.800 248.160 C 224.500 248.161,223.203 248.222,224.918 248.298 " stroke="none" fill="#5c745c" fill-rule="evenodd"></path><path id="path4" d="M355.600 73.997 C 355.600 74.232,355.870 74.529,356.200 74.655 C 356.530 74.782,356.814 75.181,356.832 75.543 C 356.854 76.002,356.927 76.041,357.075 75.670 C 357.191 75.379,356.907 74.787,356.443 74.354 C 355.979 73.922,355.600 73.761,355.600 73.997 M34.000 103.656 C 34.000 103.907,33.685 104.367,33.300 104.678 C 32.668 105.189,32.688 105.202,33.500 104.808 C 34.266 104.437,34.804 103.200,34.200 103.200 C 34.090 103.200,34.000 103.405,34.000 103.656 M169.100 130.349 C 168.291 130.761,166.636 131.181,165.421 131.282 C 164.206 131.382,162.895 131.750,162.506 132.099 C 162.118 132.447,161.111 132.860,160.268 133.017 C 159.426 133.173,158.641 133.548,158.525 133.851 C 158.409 134.153,157.985 134.400,157.583 134.400 C 156.617 134.400,155.388 134.961,153.200 136.400 C 152.210 137.051,151.040 137.748,150.600 137.948 C 149.308 138.535,146.000 141.618,146.000 142.234 C 146.000 142.545,145.852 142.800,145.671 142.800 C 144.870 142.800,143.112 146.292,142.905 148.295 C 142.786 149.453,142.533 150.400,142.344 150.400 C 141.895 150.400,141.894 155.888,142.343 156.165 C 142.531 156.281,142.794 157.289,142.926 158.404 C 143.058 159.522,143.532 160.896,143.983 161.469 C 144.432 162.040,144.800 162.675,144.800 162.880 C 144.800 163.229,147.477 165.884,149.862 167.900 C 150.448 168.395,151.234 168.800,151.609 168.800 C 151.985 168.800,152.750 169.160,153.309 169.600 C 154.657 170.660,164.326 170.816,165.348 169.795 C 165.681 169.462,166.495 169.081,167.156 168.949 C 167.818 168.816,168.666 168.369,169.042 167.954 C 169.417 167.539,169.942 167.200,170.208 167.200 C 170.474 167.200,171.150 166.840,171.709 166.400 C 172.269 165.960,173.245 165.600,173.879 165.600 C 174.512 165.600,175.737 165.240,176.600 164.800 C 178.619 163.771,181.204 163.770,182.890 164.799 C 183.611 165.238,184.487 165.598,184.838 165.599 C 185.189 165.599,185.802 165.960,186.200 166.400 C 186.598 166.840,187.123 167.200,187.366 167.200 C 187.609 167.200,188.032 167.560,188.307 168.000 C 188.582 168.440,189.228 168.800,189.742 168.800 C 190.257 168.800,191.093 169.160,191.600 169.600 C 192.797 170.638,202.749 170.826,203.579 169.826 C 203.841 169.510,204.564 169.140,205.186 169.003 C 205.808 168.866,206.634 168.405,207.021 167.977 C 207.407 167.550,207.907 167.200,208.131 167.200 C 209.171 167.200,214.000 161.165,214.000 159.864 C 214.000 159.484,214.315 158.690,214.700 158.102 C 215.671 156.618,215.700 149.228,214.740 148.130 C 214.389 147.728,213.985 146.750,213.843 145.955 C 213.701 145.160,213.228 144.187,212.792 143.793 C 212.356 143.399,212.000 142.893,212.000 142.670 C 212.000 142.135,207.547 138.000,206.971 138.000 C 206.725 138.000,206.198 137.640,205.800 137.200 C 205.402 136.760,204.862 136.400,204.600 136.400 C 204.338 136.400,203.807 136.050,203.421 135.623 C 203.034 135.195,202.208 134.734,201.586 134.597 C 200.964 134.460,200.250 134.102,200.000 133.800 C 199.750 133.498,198.972 133.130,198.272 132.981 C 197.573 132.833,196.692 132.440,196.316 132.108 C 195.940 131.777,194.773 131.409,193.723 131.290 C 192.673 131.172,191.271 130.744,190.607 130.339 C 188.766 129.217,171.305 129.225,169.100 130.349 M270.000 129.884 C 269.670 130.005,269.130 130.330,268.800 130.605 C 268.470 130.880,267.138 131.189,265.840 131.291 C 264.361 131.407,263.313 131.704,263.033 132.087 C 262.787 132.423,261.821 132.828,260.885 132.986 C 259.950 133.144,258.953 133.505,258.669 133.788 C 258.386 134.071,257.599 134.425,256.919 134.574 C 256.239 134.723,255.366 135.195,254.979 135.623 C 254.593 136.050,254.046 136.400,253.766 136.400 C 252.098 136.400,245.018 142.753,244.565 144.657 C 244.415 145.286,244.015 146.119,243.676 146.509 C 242.461 147.907,242.526 158.868,243.756 160.099 C 244.036 160.379,244.379 161.062,244.518 161.617 C 244.940 163.296,250.751 168.800,252.102 168.800 C 252.419 168.800,253.093 169.160,253.600 169.600 C 254.987 170.803,264.362 170.803,265.891 169.600 C 266.450 169.160,267.323 168.800,267.830 168.800 C 268.338 168.800,268.853 168.637,268.976 168.438 C 269.402 167.749,273.592 165.600,274.509 165.600 C 275.016 165.600,276.137 165.240,277.000 164.800 C 277.863 164.360,279.213 164.000,280.000 164.000 C 280.787 164.000,282.137 164.360,283.000 164.800 C 283.863 165.240,284.882 165.600,285.265 165.600 C 285.647 165.600,286.104 165.826,286.280 166.101 C 286.732 166.809,289.740 168.800,290.358 168.800 C 290.642 168.800,291.331 169.160,291.891 169.600 C 292.789 170.307,293.514 170.400,298.091 170.400 C 302.668 170.400,303.393 170.307,304.291 169.600 C 304.850 169.160,305.566 168.800,305.882 168.800 C 307.311 168.800,313.600 163.059,313.600 161.754 C 313.600 161.556,314.064 160.521,314.632 159.456 C 315.913 157.049,315.991 148.349,314.745 146.941 C 314.384 146.533,313.964 145.614,313.812 144.897 C 313.660 144.180,313.190 143.409,312.767 143.183 C 312.345 142.957,312.000 142.584,312.000 142.355 C 312.000 141.806,309.783 139.600,309.231 139.600 C 308.994 139.600,308.800 139.433,308.800 139.229 C 308.800 138.665,302.815 134.783,301.556 134.531 C 300.949 134.410,300.359 134.070,300.247 133.777 C 300.134 133.484,299.358 133.116,298.521 132.960 C 297.684 132.803,296.815 132.423,296.589 132.115 C 296.363 131.807,295.193 131.411,293.989 131.235 C 292.785 131.059,291.260 130.620,290.600 130.260 C 289.405 129.608,271.633 129.283,270.000 129.884 M187.800 130.405 C 188.680 130.608,190.559 131.041,191.976 131.365 C 194.726 131.996,195.044 132.126,200.621 134.905 C 204.561 136.868,209.004 139.994,210.473 141.837 C 212.413 144.271,213.322 145.762,213.655 147.059 C 213.845 147.796,214.176 149.075,214.390 149.900 C 215.534 154.292,213.869 160.800,210.791 163.972 C 204.574 170.381,194.072 172.100,188.678 167.591 C 183.981 163.664,180.220 162.765,175.386 164.413 C 172.883 165.267,168.742 167.176,168.400 167.634 C 165.925 170.950,154.877 170.616,149.857 167.072 C 139.938 160.071,140.816 143.113,151.352 138.183 C 152.039 137.862,153.590 136.977,154.800 136.215 C 156.010 135.454,157.226 134.824,157.501 134.816 C 157.777 134.807,158.675 134.440,159.496 134.000 C 160.316 133.560,161.261 133.194,161.594 133.186 C 161.927 133.179,162.920 132.825,163.800 132.400 C 164.680 131.975,165.850 131.620,166.400 131.612 C 166.950 131.604,168.570 131.251,170.000 130.829 C 172.895 129.974,184.718 129.692,187.800 130.405 M290.487 130.926 C 291.305 131.297,292.441 131.600,293.012 131.600 C 294.783 131.600,303.585 135.877,306.990 138.392 C 317.617 146.243,317.870 159.895,307.527 167.340 C 306.716 167.923,305.881 168.400,305.670 168.400 C 305.460 168.400,304.503 168.756,303.544 169.191 C 299.348 171.095,292.788 170.010,287.800 166.588 C 283.237 163.457,280.202 162.908,275.786 164.413 C 273.283 165.267,269.142 167.176,268.800 167.634 C 266.481 170.741,254.083 170.541,250.887 167.344 C 250.588 167.045,250.189 166.800,250.000 166.800 C 249.288 166.800,246.739 164.002,245.119 161.444 C 240.697 154.458,244.169 142.046,251.600 138.273 C 252.370 137.882,253.990 136.947,255.200 136.196 C 256.410 135.445,257.704 134.824,258.076 134.816 C 258.448 134.807,258.863 134.622,258.997 134.405 C 259.131 134.188,260.267 133.716,261.520 133.357 C 262.774 132.998,263.980 132.567,264.200 132.401 C 264.420 132.234,266.040 131.789,267.800 131.412 C 269.560 131.034,271.630 130.575,272.400 130.391 C 275.037 129.761,288.814 130.168,290.487 130.926 M154.000 204.665 C 153.450 204.780,152.730 205.104,152.400 205.386 C 152.070 205.668,151.134 206.113,150.319 206.374 C 148.260 207.035,144.153 211.124,142.952 213.709 C 142.622 214.419,142.095 215.450,141.782 216.000 C 140.631 218.020,141.184 228.800,142.439 228.800 C 142.638 228.800,142.800 229.146,142.800 229.569 C 142.800 229.992,143.250 230.873,143.800 231.527 C 144.350 232.181,144.800 232.827,144.800 232.964 C 144.800 233.101,145.295 233.650,145.900 234.184 C 146.505 234.718,147.521 235.616,148.158 236.178 C 148.796 236.740,149.533 237.200,149.797 237.200 C 150.061 237.200,150.693 237.560,151.200 238.000 C 151.790 238.511,152.697 238.800,153.714 238.800 C 154.589 238.800,155.867 239.137,156.553 239.549 C 157.265 239.976,158.954 240.399,160.490 240.533 C 161.969 240.662,163.589 241.024,164.090 241.337 C 164.590 241.649,166.398 242.014,168.107 242.148 C 169.829 242.283,171.631 242.664,172.149 243.004 C 172.701 243.365,174.461 243.710,176.442 243.846 C 178.289 243.972,180.430 244.359,181.200 244.706 C 182.067 245.097,184.199 245.406,186.800 245.518 C 189.427 245.632,191.444 245.927,192.187 246.305 C 193.042 246.741,195.170 246.965,199.787 247.104 C 204.945 247.260,206.345 247.425,206.942 247.949 C 208.063 248.933,244.916 248.940,246.417 247.957 C 247.145 247.480,248.747 247.264,252.600 247.122 C 256.372 246.984,258.151 246.749,259.080 246.266 C 259.807 245.888,261.283 245.600,262.496 245.600 C 263.790 245.600,265.207 245.306,266.094 244.854 C 266.899 244.444,268.679 243.981,270.051 243.826 C 271.549 243.657,272.937 243.236,273.527 242.772 C 274.066 242.347,275.069 241.999,275.754 241.997 C 276.439 241.996,277.540 241.637,278.200 241.200 C 278.860 240.763,279.873 240.404,280.451 240.403 C 281.029 240.401,281.727 240.128,282.003 239.796 C 282.278 239.464,283.228 239.077,284.113 238.936 C 284.998 238.794,286.054 238.346,286.461 237.939 C 286.867 237.533,287.372 237.200,287.582 237.200 C 288.832 237.200,294.000 232.288,294.000 231.101 C 294.000 230.874,294.288 230.478,294.640 230.220 C 294.992 229.963,295.435 229.043,295.625 228.176 C 295.816 227.309,296.273 225.474,296.641 224.098 C 297.292 221.671,297.286 221.519,296.456 218.990 C 295.985 217.556,295.597 216.072,295.593 215.692 C 295.586 215.067,294.178 212.708,292.906 211.190 C 292.634 210.865,291.943 210.015,291.370 209.300 C 290.798 208.585,290.069 208.000,289.752 208.000 C 289.435 208.000,289.075 207.739,288.952 207.419 C 288.830 207.100,288.070 206.627,287.265 206.369 C 286.459 206.110,285.466 205.607,285.058 205.249 C 283.956 204.284,274.422 204.298,273.343 205.266 C 272.934 205.633,271.923 206.058,271.097 206.211 C 270.270 206.365,269.161 206.830,268.633 207.245 C 268.106 207.660,267.250 208.000,266.731 208.000 C 266.212 208.000,265.116 208.360,264.296 208.800 C 263.475 209.240,262.165 209.600,261.386 209.600 C 260.606 209.600,259.300 209.935,258.484 210.345 C 257.538 210.820,255.626 211.190,253.208 211.366 C 251.040 211.524,249.155 211.867,248.808 212.167 C 247.027 213.704,206.753 213.680,203.298 212.141 C 202.507 211.788,200.071 211.477,197.098 211.349 C 194.404 211.233,191.840 210.992,191.400 210.813 C 189.482 210.034,187.133 209.600,184.834 209.600 C 183.350 209.600,181.866 209.344,181.124 208.961 C 180.444 208.609,178.387 208.185,176.553 208.018 C 174.719 207.850,172.951 207.491,172.624 207.220 C 172.297 206.948,170.630 206.552,168.921 206.340 C 167.130 206.118,165.515 205.686,165.112 205.320 C 164.393 204.670,156.281 204.192,154.000 204.665 M163.684 205.645 C 164.095 205.865,165.783 206.303,167.436 206.620 C 169.090 206.936,170.764 207.367,171.157 207.577 C 171.549 207.787,173.295 208.139,175.035 208.360 C 176.776 208.581,178.740 208.949,179.400 209.178 C 180.783 209.658,188.434 210.887,196.800 211.973 C 198.450 212.187,200.970 212.558,202.400 212.797 C 211.732 214.356,242.716 214.350,249.800 212.788 C 250.900 212.545,252.790 212.169,254.000 211.952 C 259.825 210.909,267.986 208.542,270.242 207.243 C 278.448 202.515,288.868 205.316,293.890 213.600 C 295.278 215.889,296.575 221.825,296.066 223.559 C 295.834 224.352,295.448 225.868,295.209 226.928 C 294.238 231.236,287.207 238.400,283.950 238.400 C 283.696 238.400,282.748 238.738,281.844 239.151 C 279.315 240.306,275.950 241.511,274.400 241.816 C 273.630 241.968,272.796 242.256,272.547 242.457 C 272.297 242.657,270.704 243.086,269.007 243.411 C 267.310 243.736,265.721 244.125,265.477 244.276 C 263.707 245.370,248.990 247.185,234.879 248.050 C 222.928 248.783,194.869 246.714,182.600 244.196 C 181.060 243.879,178.540 243.504,177.000 243.361 C 175.460 243.218,173.840 242.907,173.400 242.670 C 172.960 242.433,171.160 242.025,169.400 241.765 C 166.067 241.271,162.557 240.486,157.800 239.171 C 156.260 238.746,154.674 238.398,154.275 238.399 C 151.607 238.403,144.003 232.368,143.351 229.729 C 143.198 229.108,142.721 227.921,142.291 227.091 C 141.173 224.931,141.460 218.308,142.799 215.400 C 145.291 209.986,150.458 205.876,155.800 205.058 C 157.555 204.789,162.817 205.181,163.684 205.645 M190.900 395.899 C 193.705 395.968,198.295 395.968,201.100 395.899 C 203.905 395.830,201.610 395.774,196.000 395.774 C 190.390 395.774,188.095 395.830,190.900 395.899 " stroke="none" fill="#668964" fill-rule="evenodd"></path></g></svg>