<svg id="svg" version="1.1" xmlns="http://www.w3.org/2000/svg" xmlns:xlink="http://www.w3.org/1999/xlink" width="400" height="400" viewBox="0, 0, 400,400"><g id="svgg"><path id="path0" d="M164.400 128.763 C 162.970 128.927,161.224 129.362,160.520 129.730 C 159.816 130.099,158.951 130.400,158.599 130.400 C 158.247 130.400,157.203 130.791,156.279 131.268 C 155.356 131.746,154.396 132.241,154.146 132.368 C 143.119 138.003,135.813 154.794,139.600 165.800 C 140.040 167.079,140.400 168.428,140.400 168.799 C 140.400 169.649,143.193 175.123,144.684 177.195 C 146.091 179.152,149.026 182.126,150.564 183.154 C 153.777 185.303,154.255 185.586,156.600 186.726 C 163.411 190.036,174.892 190.279,180.800 187.237 C 181.570 186.841,182.695 186.397,183.300 186.251 C 183.905 186.104,184.400 185.811,184.400 185.598 C 184.400 185.385,185.056 184.937,185.858 184.602 C 187.480 183.924,193.918 177.672,194.922 175.800 C 195.276 175.140,195.918 173.855,196.350 172.944 C 196.781 172.033,197.329 171.168,197.567 171.020 C 197.805 170.873,198.000 170.427,198.000 170.029 C 198.000 169.630,198.360 168.177,198.800 166.800 C 199.950 163.199,199.950 154.369,198.800 151.096 C 198.360 149.844,198.000 148.529,198.000 148.173 C 198.000 147.817,197.640 147.069,197.200 146.509 C 196.760 145.950,196.400 145.184,196.400 144.808 C 196.400 144.432,196.040 143.798,195.600 143.400 C 195.160 143.002,194.800 142.462,194.800 142.201 C 194.800 141.596,193.647 140.214,190.444 136.979 C 184.090 130.562,174.667 127.589,164.400 128.763 M293.400 128.783 C 281.156 130.393,270.238 141.047,268.380 153.200 C 268.128 154.850,267.731 156.600,267.499 157.090 C 267.186 157.748,267.244 158.738,267.723 160.890 C 268.079 162.490,268.490 164.788,268.636 165.996 C 268.782 167.204,269.239 168.821,269.651 169.590 C 270.063 170.359,270.400 171.298,270.400 171.676 C 270.400 172.380,271.896 174.897,272.990 176.034 C 273.326 176.382,273.600 176.832,273.600 177.034 C 273.600 177.486,277.283 181.373,279.253 183.000 C 281.283 184.676,282.856 185.594,286.000 186.938 C 286.330 187.079,286.870 187.360,287.200 187.561 C 288.389 188.286,295.611 189.600,298.410 189.600 C 303.086 189.600,311.186 187.332,313.765 185.300 C 314.394 184.805,315.064 184.400,315.254 184.400 C 316.305 184.400,322.630 177.916,323.892 175.544 C 324.553 174.303,325.387 172.868,325.746 172.355 C 326.106 171.842,326.400 171.144,326.400 170.805 C 326.400 170.466,326.731 169.561,327.135 168.794 C 329.013 165.235,329.015 152.741,327.140 149.206 C 326.733 148.439,326.400 147.602,326.400 147.347 C 326.400 146.440,323.931 142.166,322.020 139.766 C 315.426 131.483,304.565 127.315,293.400 128.783 M228.000 197.565 C 227.450 197.727,225.110 198.087,222.800 198.363 C 220.490 198.640,217.639 199.211,216.464 199.633 C 215.290 200.055,213.914 200.400,213.408 200.400 C 212.902 200.400,211.703 200.756,210.744 201.191 C 209.785 201.626,208.640 201.990,208.200 202.000 C 207.760 202.010,206.950 202.370,206.400 202.800 C 205.850 203.230,205.130 203.590,204.800 203.600 C 204.470 203.609,203.030 204.241,201.600 205.002 C 200.170 205.764,198.446 206.650,197.768 206.970 C 197.091 207.291,196.304 207.834,196.019 208.177 C 195.735 208.520,195.282 208.800,195.013 208.800 C 194.744 208.800,194.198 209.160,193.800 209.600 C 193.402 210.040,192.912 210.400,192.711 210.400 C 192.381 210.400,190.727 211.658,186.238 215.324 C 185.379 216.026,183.701 217.590,182.509 218.800 L 180.343 221.000 180.599 224.200 C 180.740 225.960,181.092 228.120,181.380 229.000 C 181.669 229.880,182.125 233.660,182.394 237.400 C 182.663 241.140,183.044 244.503,183.241 244.874 C 183.713 245.759,183.706 254.255,183.233 255.138 C 183.031 255.515,182.647 257.706,182.380 260.007 C 182.112 262.308,181.669 264.553,181.394 264.995 C 181.120 265.438,180.784 266.279,180.649 266.864 C 179.586 271.458,170.592 274.469,167.173 271.376 C 166.823 271.059,166.326 270.800,166.069 270.800 C 165.811 270.800,165.254 270.454,164.830 270.030 C 163.819 269.019,162.569 268.364,162.253 268.681 C 161.698 269.235,162.027 273.062,162.744 274.406 C 163.153 275.173,163.621 276.224,163.785 276.743 C 165.968 283.684,179.182 287.688,186.214 283.539 C 189.290 281.724,193.200 277.190,193.200 275.439 C 193.200 275.066,193.492 274.195,193.850 273.504 C 194.311 272.612,194.558 270.734,194.702 267.024 C 194.821 263.974,195.119 261.378,195.418 260.786 C 195.701 260.229,196.060 259.059,196.216 258.186 C 196.482 256.709,197.964 252.970,198.827 251.600 C 199.035 251.270,199.321 250.730,199.464 250.400 C 200.007 249.139,202.150 246.000,202.467 246.000 C 202.650 246.000,202.800 245.769,202.800 245.487 C 202.800 244.802,207.965 239.499,209.880 238.219 C 210.716 237.659,212.120 236.717,213.000 236.124 C 215.163 234.666,217.934 233.200,218.527 233.200 C 218.794 233.200,219.678 232.843,220.491 232.407 C 221.305 231.971,222.742 231.501,223.685 231.363 C 224.628 231.226,226.171 230.862,227.114 230.556 C 229.413 229.810,237.615 229.816,240.227 230.566 C 241.312 230.878,243.009 231.261,243.998 231.418 C 244.987 231.575,246.424 232.040,247.192 232.452 C 247.960 232.863,248.861 233.212,249.194 233.227 C 249.527 233.241,250.700 233.777,251.800 234.417 C 252.900 235.058,254.340 235.879,255.000 236.242 C 255.660 236.605,256.508 237.194,256.884 237.551 C 257.261 237.908,258.042 238.560,258.622 239.000 C 259.517 239.680,261.364 241.519,264.012 244.366 C 265.805 246.293,270.396 254.195,270.402 255.364 C 270.404 255.604,270.679 256.325,271.013 256.967 C 271.348 257.608,271.798 259.408,272.014 260.967 C 272.230 262.525,272.571 264.250,272.771 264.800 C 272.971 265.350,273.233 267.659,273.353 269.931 C 273.861 279.578,279.532 284.967,289.200 284.989 C 296.944 285.006,300.470 282.873,304.060 276.000 C 305.107 273.996,305.376 259.977,304.445 256.000 C 304.213 255.010,303.742 252.940,303.398 251.400 C 303.054 249.860,302.397 247.610,301.938 246.400 C 300.311 242.110,298.123 236.894,297.576 236.000 C 297.374 235.670,296.841 234.770,296.393 234.000 C 295.944 233.230,295.228 232.060,294.801 231.400 C 294.374 230.740,293.724 229.660,293.357 229.000 C 292.646 227.722,290.550 225.066,287.676 221.800 C 284.393 218.070,283.754 217.401,282.507 216.400 C 281.822 215.850,279.912 214.275,278.262 212.900 C 276.613 211.525,275.097 210.400,274.893 210.400 C 274.690 210.400,274.198 210.040,273.800 209.600 C 273.402 209.160,272.856 208.800,272.587 208.800 C 272.318 208.800,271.865 208.520,271.581 208.177 C 271.296 207.834,270.426 207.287,269.646 206.961 C 268.866 206.636,268.132 206.241,268.014 206.084 C 267.698 205.664,263.399 203.600,262.839 203.600 C 262.575 203.600,261.693 203.257,260.879 202.837 C 258.795 201.762,255.114 200.400,254.294 200.400 C 253.914 200.400,252.567 200.053,251.302 199.630 C 250.036 199.206,247.115 198.652,244.812 198.397 C 242.509 198.142,240.315 197.769,239.938 197.567 C 239.132 197.136,229.457 197.134,228.000 197.565 " stroke="none" fill="#2d352c" fill-rule="evenodd"></path><path id="path1" d="M166.031 199.664 C 165.354 201.019,164.800 202.509,164.800 202.975 C 164.800 203.441,164.545 204.187,164.232 204.632 C 163.920 205.078,163.484 206.333,163.264 207.421 C 163.043 208.510,162.580 210.210,162.234 211.200 C 161.611 212.983,160.780 215.985,159.410 221.400 C 159.020 222.940,158.542 225.370,158.346 226.800 C 158.151 228.230,157.687 230.390,157.315 231.600 C 156.112 235.517,156.294 254.119,157.572 257.800 C 159.727 264.010,163.326 268.515,167.120 269.752 C 167.714 269.946,168.533 270.395,168.940 270.751 C 169.471 271.214,170.477 271.398,172.491 271.399 L 175.301 271.400 177.359 269.100 C 179.408 266.810,179.860 265.763,181.252 260.082 C 181.909 257.400,181.455 235.947,180.687 233.370 C 180.354 232.253,179.951 229.913,179.793 228.170 C 179.634 226.426,179.343 224.798,179.146 224.552 C 178.949 224.305,178.701 222.636,178.595 220.842 C 178.490 219.049,178.149 216.973,177.838 216.229 C 177.527 215.484,177.062 213.862,176.805 212.623 C 176.548 211.384,176.082 209.882,175.771 209.285 C 175.460 208.688,175.204 207.987,175.202 207.727 C 175.199 207.075,173.056 201.795,172.527 201.136 C 172.291 200.841,171.975 200.200,171.825 199.710 C 170.844 196.507,167.622 196.481,166.031 199.664 " stroke="none" fill="#fbfbfa" fill-rule="evenodd"></path><path id="path2" d="M199.900 24.432 C 199.515 24.656,199.200 25.101,199.200 25.420 C 199.200 25.904,198.055 26.000,192.249 26.000 C 185.784 26.000,185.259 26.055,184.749 26.788 C 184.273 27.472,183.662 27.590,180.159 27.676 C 176.821 27.759,176.125 27.882,176.159 28.388 C 176.191 28.869,175.571 29.043,173.267 29.200 C 171.135 29.345,170.199 29.586,169.837 30.080 C 169.483 30.565,168.633 30.795,166.873 30.880 C 164.836 30.979,164.404 31.122,164.402 31.700 C 164.400 32.323,161.822 32.751,159.900 32.447 C 159.735 32.421,159.600 32.659,159.600 32.976 C 159.600 33.758,159.150 33.982,157.208 34.169 C 156.179 34.268,155.283 34.643,154.831 35.164 C 154.314 35.760,153.632 36.000,152.453 36.000 C 151.067 36.000,150.800 36.129,150.800 36.800 C 150.800 37.422,150.533 37.600,149.603 37.600 C 148.840 37.600,148.226 37.890,147.907 38.400 C 147.604 38.886,146.974 39.200,146.304 39.200 C 145.697 39.200,144.810 39.590,144.333 40.067 C 143.787 40.613,142.968 40.933,142.116 40.933 C 141.136 40.933,140.823 41.084,140.976 41.482 C 141.199 42.062,139.734 42.822,138.959 42.527 C 138.717 42.435,138.212 42.828,137.837 43.400 C 137.349 44.144,136.936 44.370,136.382 44.194 C 135.849 44.025,135.298 44.285,134.606 45.032 C 133.978 45.709,133.154 46.131,132.406 46.157 C 131.749 46.181,131.121 46.434,131.010 46.721 C 130.888 47.036,130.989 47.130,131.266 46.959 C 131.548 46.785,131.614 46.854,131.438 47.138 C 131.281 47.392,130.816 47.600,130.403 47.600 C 129.991 47.600,129.540 47.960,129.400 48.400 C 129.158 49.164,128.373 49.405,126.600 49.262 C 125.941 49.209,125.906 49.267,126.400 49.593 C 126.801 49.857,126.835 49.990,126.500 49.994 C 126.225 49.997,126.045 50.225,126.100 50.500 C 126.158 50.792,125.825 50.980,125.300 50.952 C 124.488 50.909,124.216 51.238,124.353 52.100 C 124.379 52.265,124.134 52.400,123.810 52.400 C 122.934 52.400,120.756 53.822,121.101 54.168 C 121.266 54.332,121.220 54.430,121.000 54.386 C 120.104 54.205,119.641 54.441,119.400 55.200 C 119.260 55.640,118.871 56.000,118.536 56.000 C 118.200 56.000,117.831 56.360,117.716 56.800 C 117.582 57.313,117.170 57.600,116.567 57.600 C 116.051 57.600,115.443 57.945,115.217 58.367 C 114.991 58.790,114.252 59.257,113.575 59.406 C 112.897 59.554,112.444 59.777,112.568 59.901 C 112.975 60.309,111.955 61.158,111.341 60.922 C 110.916 60.759,110.778 60.913,110.870 61.446 C 110.961 61.974,110.730 62.238,110.100 62.328 C 109.522 62.410,109.200 62.732,109.200 63.228 C 109.200 63.911,109.022 64.044,108.185 63.985 C 108.066 63.977,106.712 65.254,105.176 66.824 C 103.380 68.660,102.172 69.598,101.792 69.452 C 101.466 69.327,101.178 69.399,101.150 69.613 C 101.123 69.826,101.078 70.225,101.050 70.500 C 101.023 70.775,100.775 71.023,100.500 71.050 C 100.225 71.078,99.837 71.123,99.637 71.150 C 99.438 71.177,99.367 71.553,99.480 71.985 C 99.645 72.615,99.516 72.738,98.832 72.606 C 98.363 72.516,98.077 72.602,98.198 72.797 C 98.426 73.165,96.897 74.800,96.325 74.800 C 96.146 74.800,96.000 75.070,96.000 75.400 C 96.000 75.730,95.730 76.000,95.400 76.000 C 95.070 76.000,94.800 76.146,94.800 76.325 C 94.800 76.897,93.165 78.426,92.797 78.198 C 92.602 78.077,92.512 78.343,92.598 78.789 C 92.739 79.523,92.264 79.807,91.141 79.661 C 90.999 79.643,90.966 79.949,91.069 80.342 C 91.173 80.739,90.932 81.310,90.528 81.628 C 89.862 82.151,89.847 82.140,90.349 81.500 C 90.671 81.089,90.724 80.800,90.476 80.800 C 90.244 80.800,89.930 81.190,89.779 81.666 C 89.628 82.142,89.076 82.961,88.552 83.484 C 88.028 84.008,87.600 84.788,87.600 85.218 C 87.600 85.733,87.327 86.000,86.800 86.000 C 86.267 86.000,86.000 86.267,86.000 86.800 C 86.000 87.333,85.733 87.600,85.200 87.600 C 84.760 87.600,84.400 87.780,84.400 88.000 C 84.400 88.220,84.390 88.535,84.379 88.700 C 84.367 88.865,83.917 89.231,83.379 89.513 C 82.840 89.795,82.400 90.300,82.400 90.636 C 82.400 90.972,82.265 91.165,82.100 91.066 C 81.741 90.848,80.760 91.827,81.048 92.115 C 81.158 92.225,80.788 92.776,80.224 93.339 C 79.661 93.903,79.200 94.711,79.200 95.135 C 79.200 95.570,78.851 95.998,78.400 96.116 C 77.960 96.231,77.600 96.612,77.600 96.963 C 77.600 97.536,77.138 97.780,76.300 97.647 C 76.135 97.621,76.000 97.954,76.000 98.386 C 76.000 98.818,75.635 99.367,75.189 99.606 C 74.743 99.845,74.483 100.211,74.612 100.420 C 74.742 100.629,74.657 100.800,74.424 100.800 C 74.191 100.800,74.021 100.935,74.047 101.100 C 74.177 101.918,73.944 102.400,73.419 102.400 C 73.099 102.400,72.539 103.030,72.173 103.800 C 71.808 104.570,71.369 105.200,71.198 105.200 C 71.027 105.200,70.770 105.666,70.627 106.235 C 70.425 107.041,70.249 107.173,69.835 106.829 C 69.427 106.490,69.304 106.552,69.306 107.094 C 69.314 108.747,69.159 109.159,68.443 109.386 C 68.027 109.518,67.592 109.986,67.478 110.425 C 67.363 110.864,67.028 111.173,66.734 111.111 C 66.431 111.048,66.246 111.283,66.307 111.655 C 66.462 112.602,65.668 114.489,65.228 114.218 C 64.794 113.949,64.275 114.667,64.103 115.776 C 63.937 116.841,63.620 117.079,63.222 116.436 C 62.995 116.069,62.798 116.425,62.609 117.548 C 62.354 119.059,62.028 119.410,61.049 119.230 C 60.856 119.195,60.794 119.534,60.911 119.983 C 61.052 120.520,60.932 120.800,60.561 120.800 C 60.230 120.800,59.798 121.545,59.516 122.600 C 59.251 123.590,58.821 124.400,58.560 124.400 C 57.991 124.400,57.600 125.310,57.600 126.633 C 57.600 127.235,57.369 127.600,56.987 127.600 C 56.651 127.600,56.259 127.915,56.117 128.300 C 55.975 128.685,55.464 129.540,54.980 130.200 C 54.497 130.860,54.184 131.625,54.284 131.900 C 54.385 132.175,54.259 132.400,54.005 132.400 C 53.289 132.400,52.491 133.368,52.501 134.225 C 52.518 135.744,52.390 136.000,51.612 136.000 C 50.967 136.000,50.834 136.256,50.878 137.417 C 50.917 138.454,50.699 138.995,50.065 139.439 C 49.512 139.827,49.200 140.469,49.200 141.223 C 49.200 142.133,49.019 142.400,48.400 142.400 C 47.960 142.400,47.621 142.535,47.647 142.700 C 47.925 144.461,47.530 146.000,46.800 146.000 C 46.139 146.000,46.000 146.267,46.000 147.536 C 46.000 148.786,45.814 149.156,45.000 149.527 C 44.299 149.847,44.000 150.300,44.000 151.045 C 44.000 151.628,43.634 152.424,43.186 152.812 C 42.739 153.200,42.400 153.671,42.434 153.859 C 42.628 154.942,42.323 156.000,41.818 156.000 C 41.462 156.000,41.128 156.582,40.957 157.500 C 40.804 158.325,40.346 159.235,39.939 159.523 C 39.447 159.870,39.200 160.541,39.200 161.526 C 39.200 162.574,38.966 163.154,38.400 163.507 C 37.960 163.782,37.600 164.427,37.600 164.941 C 37.600 165.455,37.240 166.202,36.800 166.600 C 36.233 167.113,36.000 167.832,36.000 169.071 C 36.000 170.516,35.838 170.891,35.060 171.246 C 34.395 171.549,34.110 172.022,34.086 172.865 C 34.051 174.089,33.328 175.326,32.827 175.017 C 32.672 174.921,32.514 175.373,32.476 176.021 C 32.353 178.093,32.277 178.362,31.754 178.562 C 31.412 178.694,31.322 178.532,31.484 178.080 C 31.618 177.706,31.581 177.532,31.403 177.694 C 31.224 177.856,31.020 178.841,30.948 179.883 C 30.789 182.193,30.533 182.929,30.003 182.602 C 29.781 182.465,29.594 182.408,29.586 182.476 C 29.578 182.544,29.466 183.680,29.337 185.000 C 29.181 186.595,28.850 187.640,28.351 188.116 C 27.938 188.509,27.600 189.354,27.600 189.992 C 27.600 190.630,27.392 191.281,27.138 191.438 C 26.854 191.614,26.785 191.548,26.959 191.266 C 27.130 190.989,27.037 190.888,26.721 191.011 C 26.399 191.135,26.153 192.089,26.077 193.506 C 26.010 194.768,25.781 195.861,25.569 195.936 C 24.899 196.173,24.176 198.143,24.188 199.695 C 24.199 201.092,23.602 201.861,22.669 201.653 C 22.487 201.612,22.371 202.079,22.411 202.690 C 22.593 205.427,22.411 206.490,21.800 206.255 C 21.470 206.129,21.181 206.154,21.158 206.313 C 21.091 206.766,20.904 209.671,20.849 211.100 C 20.816 211.990,20.603 212.400,20.176 212.400 C 19.833 212.400,19.664 212.580,19.800 212.800 C 19.936 213.020,19.857 213.200,19.624 213.200 C 19.391 213.200,19.221 213.335,19.247 213.500 C 19.460 214.846,19.139 216.925,18.800 216.400 C 18.518 215.964,18.411 215.943,18.406 216.324 C 18.403 216.612,18.265 216.764,18.100 216.662 C 17.935 216.560,17.749 217.386,17.686 218.498 C 17.559 220.763,17.332 221.335,16.660 221.080 C 16.370 220.970,16.165 221.495,16.106 222.501 C 16.042 223.575,15.717 224.351,15.112 224.876 C 14.391 225.501,14.211 226.081,14.206 227.790 C 14.203 228.963,14.077 229.848,13.927 229.755 C 13.432 229.449,12.400 231.356,12.395 232.589 C 12.386 234.412,11.954 235.668,11.407 235.458 C 11.115 235.346,10.922 235.618,10.925 236.135 C 10.945 239.012,10.760 241.194,10.500 241.153 C 9.575 241.007,9.388 241.483,9.266 244.293 C 9.121 247.649,8.975 248.153,8.231 247.867 C 7.870 247.729,7.716 248.739,7.644 251.740 C 7.561 255.129,7.416 255.938,6.764 256.635 C 5.589 257.891,5.593 288.154,6.768 288.783 C 7.374 289.107,7.531 289.808,7.676 292.839 C 7.812 295.672,8.004 296.614,8.526 296.995 C 8.964 297.315,9.200 298.049,9.200 299.090 C 9.200 300.093,9.503 301.077,10.010 301.722 C 10.478 302.317,10.883 303.540,10.967 304.613 C 11.048 305.637,11.340 306.682,11.616 306.937 C 12.006 307.297,12.043 307.267,11.782 306.800 C 11.500 306.296,11.548 306.282,12.082 306.715 C 12.431 306.998,12.631 307.561,12.525 307.967 C 12.404 308.429,12.738 309.081,13.423 309.716 C 14.075 310.321,14.420 310.971,14.281 311.334 C 14.152 311.668,14.307 312.157,14.624 312.420 C 14.941 312.683,15.200 313.146,15.200 313.449 C 15.200 313.752,15.337 314.000,15.505 314.000 C 15.673 314.000,15.995 314.405,16.220 314.900 C 16.445 315.395,16.848 315.755,17.115 315.700 C 17.552 315.610,17.710 316.343,17.710 318.466 C 17.710 318.861,17.930 319.048,18.249 318.926 C 18.573 318.801,18.947 319.135,19.185 319.759 C 19.402 320.332,19.855 320.800,20.190 320.800 C 20.533 320.800,20.800 321.150,20.800 321.600 C 20.800 322.058,21.067 322.400,21.424 322.400 C 21.767 322.400,21.934 322.583,21.796 322.807 C 21.658 323.030,21.349 323.092,21.111 322.945 C 20.851 322.785,20.791 322.863,20.962 323.138 C 21.119 323.392,21.507 323.600,21.824 323.600 C 22.352 323.600,22.582 324.097,22.437 324.930 C 22.406 325.111,22.565 325.145,22.790 325.006 C 23.016 324.867,23.200 324.943,23.200 325.176 C 23.200 325.409,23.470 325.600,23.800 325.600 C 24.130 325.600,24.355 325.818,24.300 326.085 C 24.245 326.352,24.598 326.752,25.084 326.973 C 25.570 327.195,26.024 327.741,26.093 328.188 C 26.162 328.635,26.444 328.954,26.718 328.897 C 26.993 328.840,27.389 329.245,27.599 329.797 C 27.809 330.349,28.243 330.800,28.563 330.800 C 28.884 330.800,29.260 331.160,29.400 331.600 C 29.540 332.040,30.002 332.400,30.427 332.400 C 30.917 332.400,31.200 332.675,31.200 333.153 C 31.200 333.582,31.562 334.001,32.040 334.126 C 32.575 334.266,32.771 334.524,32.578 334.835 C 32.385 335.147,32.443 335.221,32.738 335.038 C 32.992 334.881,33.200 334.943,33.200 335.176 C 33.200 335.409,33.470 335.600,33.800 335.600 C 34.130 335.600,34.400 335.900,34.400 336.267 C 34.400 336.633,34.505 336.828,34.634 336.700 C 34.968 336.366,36.400 337.674,36.400 338.313 C 36.400 338.607,36.580 338.736,36.800 338.600 C 37.020 338.464,37.200 338.543,37.200 338.776 C 37.200 339.009,37.638 339.200,38.173 339.200 C 38.795 339.200,39.238 339.489,39.400 340.000 C 39.540 340.440,39.884 340.800,40.165 340.800 C 40.446 340.800,41.002 341.160,41.400 341.600 C 41.798 342.040,42.525 342.400,43.015 342.400 C 43.570 342.400,43.986 342.702,44.116 343.200 C 44.261 343.756,44.662 344.000,45.429 344.000 C 46.036 344.000,46.413 344.120,46.266 344.268 C 45.805 344.728,47.209 345.923,47.976 345.722 C 48.417 345.607,48.932 345.853,49.274 346.341 C 49.749 347.019,50.551 347.328,52.463 347.567 C 52.607 347.585,52.643 347.915,52.542 348.300 C 52.404 348.831,52.623 349.015,53.450 349.062 C 54.049 349.096,54.823 349.487,55.170 349.932 C 55.516 350.376,56.250 350.802,56.800 350.879 C 57.350 350.956,57.765 351.210,57.722 351.443 C 57.679 351.676,57.859 351.899,58.122 351.940 C 58.385 351.980,59.364 352.119,60.298 352.248 C 61.232 352.378,61.894 352.648,61.770 352.848 C 61.646 353.049,61.332 353.094,61.072 352.948 C 60.724 352.752,60.716 352.809,61.043 353.164 C 61.287 353.429,62.468 353.747,63.669 353.871 C 65.343 354.044,65.939 354.286,66.226 354.911 C 66.473 355.449,67.072 355.775,67.988 355.869 C 68.751 355.948,69.513 356.259,69.682 356.560 C 69.850 356.861,70.846 357.235,71.894 357.391 C 72.946 357.547,74.121 358.016,74.516 358.437 C 75.100 359.060,76.694 359.433,78.052 359.263 C 78.191 359.246,78.624 359.585,79.014 360.016 C 79.549 360.607,80.246 360.800,81.848 360.800 C 83.562 360.800,84.054 360.954,84.400 361.600 C 84.747 362.249,85.238 362.400,87.000 362.400 C 88.762 362.400,89.253 362.551,89.600 363.200 C 89.969 363.890,90.438 364.000,93.006 364.000 C 95.811 364.000,95.999 364.056,96.224 364.954 C 96.447 365.841,96.637 365.903,98.932 365.835 C 101.394 365.762,102.996 366.160,102.629 366.753 C 102.522 366.926,102.652 367.089,102.918 367.115 C 103.183 367.142,104.880 367.288,106.689 367.438 C 108.498 367.589,109.911 367.822,109.831 367.956 C 109.297 368.842,110.630 369.090,116.300 369.160 C 118.824 369.191,119.600 369.330,119.600 369.753 C 119.600 370.555,120.891 370.788,125.400 370.801 C 129.263 370.812,130.616 371.098,130.334 371.845 C 130.260 372.040,133.337 372.255,137.187 372.323 C 143.786 372.439,145.534 372.736,144.972 373.645 C 144.846 373.849,150.054 374.000,157.176 374.000 C 164.009 374.000,169.571 374.135,169.536 374.300 C 169.179 375.987,168.962 375.970,190.349 375.971 C 212.062 375.971,212.417 375.952,212.107 374.765 C 211.913 374.023,212.297 374.000,224.757 374.000 C 237.113 374.000,237.634 373.969,238.293 373.200 C 238.930 372.455,239.473 372.400,246.115 372.400 C 252.856 372.400,254.545 372.169,255.212 371.158 C 255.329 370.981,257.897 370.810,260.918 370.778 C 265.730 370.726,266.474 370.629,266.920 369.993 C 267.353 369.375,268.129 369.249,272.174 369.146 C 276.330 369.040,276.944 368.936,277.107 368.313 C 277.257 367.739,277.734 367.595,279.547 367.577 C 283.895 367.532,286.591 367.163,287.065 366.547 C 287.399 366.114,288.419 365.919,290.677 365.859 C 293.329 365.788,293.965 365.635,294.712 364.888 C 295.523 364.077,298.746 363.634,301.457 363.960 C 301.708 363.990,301.888 363.697,301.857 363.308 C 301.810 362.718,302.186 362.580,304.109 362.480 C 305.882 362.387,306.532 362.178,306.905 361.580 C 307.251 361.026,307.839 360.800,308.934 360.800 C 310.138 360.800,310.521 360.625,310.684 360.000 C 310.831 359.440,311.230 359.200,312.014 359.200 C 313.181 359.200,315.593 358.040,315.597 357.476 C 315.599 357.298,315.769 357.257,315.976 357.385 C 316.183 357.513,316.703 357.241,317.132 356.781 C 317.561 356.320,318.514 355.898,319.254 355.842 C 320.272 355.764,320.597 355.555,320.598 354.976 C 320.599 354.529,320.932 354.152,321.400 354.067 C 321.840 353.986,322.560 353.591,323.000 353.190 C 323.440 352.788,324.295 352.336,324.900 352.186 C 325.505 352.036,326.000 351.663,326.000 351.357 C 326.000 351.050,326.258 350.800,326.573 350.800 C 326.888 350.800,327.260 350.440,327.400 350.000 C 327.622 349.300,328.305 348.996,329.300 349.153 C 329.465 349.179,329.555 348.990,329.500 348.733 C 329.445 348.476,329.850 348.033,330.400 347.748 C 330.950 347.464,331.670 346.900,332.000 346.495 C 332.330 346.090,332.780 345.768,333.000 345.779 C 333.220 345.791,333.565 345.425,333.766 344.966 C 333.968 344.508,334.508 343.961,334.966 343.752 C 335.425 343.542,335.755 343.152,335.700 342.885 C 335.645 342.618,335.960 342.400,336.400 342.400 C 336.933 342.400,337.200 342.133,337.200 341.600 C 337.200 341.013,337.467 340.800,338.200 340.800 C 338.933 340.800,339.200 340.587,339.200 340.000 C 339.200 339.467,339.467 339.200,340.000 339.200 C 340.524 339.200,340.800 338.933,340.800 338.427 C 340.800 338.002,341.141 337.546,341.557 337.414 C 341.973 337.282,342.406 336.819,342.520 336.385 C 342.657 335.862,342.940 335.679,343.363 335.841 C 343.835 336.022,344.000 335.840,344.000 335.138 C 344.000 334.559,344.333 334.036,344.855 333.795 C 345.325 333.578,345.674 333.220,345.631 333.000 C 345.588 332.780,345.968 332.501,346.476 332.381 C 347.046 332.246,347.404 331.862,347.409 331.381 C 347.416 330.865,347.653 330.640,348.109 330.718 C 348.577 330.797,348.800 330.571,348.800 330.018 C 348.800 329.568,348.991 329.200,349.224 329.200 C 349.457 329.200,349.551 329.044,349.433 328.853 C 349.315 328.663,349.575 328.185,350.009 327.791 C 350.444 327.398,350.800 326.725,350.800 326.295 C 350.800 325.768,350.993 325.589,351.396 325.743 C 351.792 325.895,352.072 325.654,352.230 325.024 C 352.361 324.502,352.813 323.985,353.234 323.875 C 353.697 323.754,354.000 323.325,354.000 322.791 C 354.000 322.104,354.178 321.953,354.800 322.116 C 355.597 322.324,355.650 322.221,355.759 320.270 C 355.782 319.869,356.081 319.329,356.425 319.070 C 356.768 318.812,357.168 318.285,357.312 317.900 C 357.457 317.515,357.921 317.200,358.343 317.200 C 358.765 317.200,359.103 316.975,359.093 316.700 C 359.025 314.881,359.259 314.000,359.810 314.000 C 360.145 314.000,360.577 313.588,360.768 313.084 C 360.960 312.580,361.405 311.927,361.758 311.635 C 362.111 311.342,362.400 310.680,362.400 310.165 C 362.400 309.638,362.750 309.041,363.200 308.800 C 363.640 308.565,364.000 308.018,364.000 307.586 C 364.000 307.104,364.271 306.800,364.700 306.799 C 365.203 306.799,365.426 306.435,365.491 305.508 C 365.542 304.784,365.927 303.949,366.367 303.608 C 366.798 303.274,367.270 302.511,367.416 301.914 C 367.561 301.317,368.018 300.721,368.432 300.590 C 368.845 300.459,369.166 300.227,369.145 300.076 C 368.936 298.608,369.269 297.141,369.767 297.332 C 370.429 297.586,370.800 296.809,370.800 295.167 C 370.800 294.436,371.008 294.000,371.357 294.000 C 371.998 294.000,372.400 293.150,372.400 291.794 C 372.400 291.205,372.699 290.759,373.200 290.600 C 373.799 290.410,374.000 289.995,374.000 288.944 C 374.000 287.591,374.845 286.179,375.352 286.686 C 375.602 286.935,375.759 285.863,375.620 284.855 C 375.578 284.556,375.924 283.907,376.388 283.413 C 376.852 282.919,377.340 281.814,377.473 280.957 C 377.605 280.101,378.022 279.102,378.400 278.738 C 378.777 278.373,379.206 277.320,379.354 276.398 C 379.594 274.896,379.692 274.777,380.288 275.260 C 380.654 275.557,380.844 275.616,380.709 275.391 C 380.205 274.546,380.984 270.598,381.646 270.645 C 382.142 270.681,382.291 270.186,382.360 268.266 C 382.428 266.384,382.621 265.720,383.224 265.298 C 383.832 264.872,384.000 264.279,384.000 262.554 C 384.000 261.343,384.137 260.437,384.304 260.541 C 385.123 261.047,385.829 259.699,385.845 257.600 C 385.854 256.390,386.014 255.490,386.202 255.600 C 386.579 255.822,387.152 254.152,387.436 252.000 C 387.873 248.687,388.065 248.000,388.550 248.000 C 388.832 248.000,389.062 247.685,389.060 247.300 C 389.038 242.151,389.217 240.889,390.000 240.684 C 390.732 240.493,390.800 240.138,390.800 236.499 C 390.800 233.032,390.902 232.431,391.600 231.800 C 392.321 231.147,392.400 230.568,392.400 225.921 C 392.400 221.319,392.486 220.674,393.200 219.908 C 394.065 218.980,394.506 174.440,393.645 174.972 C 392.805 175.491,392.457 173.870,392.364 168.997 C 392.269 164.018,391.819 161.816,391.120 162.916 C 390.951 163.182,390.809 161.667,390.806 159.549 C 390.801 156.187,390.701 155.628,390.019 155.149 C 389.392 154.708,389.215 154.037,389.119 151.739 C 389.054 150.165,388.910 148.931,388.800 148.997 C 388.098 149.415,387.523 147.715,387.381 144.800 C 387.292 142.958,387.145 142.580,386.481 142.478 C 385.799 142.373,385.699 142.079,385.775 140.391 C 385.860 138.508,385.601 137.493,385.055 137.566 C 384.240 137.675,384.091 137.393,383.879 135.343 C 383.751 134.102,383.429 132.887,383.164 132.643 C 382.802 132.309,382.762 132.339,383.003 132.762 C 383.218 133.138,383.171 133.229,382.862 133.038 C 382.608 132.881,382.400 132.135,382.400 131.380 C 382.400 130.440,382.148 129.849,381.600 129.507 C 381.009 129.138,380.800 128.574,380.800 127.353 C 380.800 126.151,380.582 125.547,380.004 125.149 C 379.535 124.825,379.173 124.072,379.120 123.310 C 379.071 122.601,378.788 121.927,378.490 121.813 C 378.193 121.699,378.061 121.424,378.198 121.203 C 378.335 120.981,378.269 120.800,378.051 120.800 C 377.832 120.800,377.526 120.395,377.369 119.900 C 377.213 119.405,376.802 118.568,376.457 118.040 C 376.112 117.512,375.791 116.817,375.744 116.497 C 375.697 116.176,375.285 115.566,374.829 115.141 C 374.373 114.716,374.000 113.926,374.000 113.384 C 374.000 112.667,373.783 112.400,373.200 112.400 C 372.581 112.400,372.400 112.133,372.400 111.223 C 372.400 110.489,372.091 109.829,371.579 109.470 C 371.127 109.154,370.728 108.499,370.691 108.015 C 370.655 107.530,370.304 106.963,369.912 106.753 C 369.521 106.543,369.200 106.115,369.200 105.802 C 369.200 105.488,368.822 104.879,368.359 104.448 C 367.343 103.501,366.183 101.423,366.917 101.864 C 367.217 102.044,367.194 101.899,366.855 101.481 C 366.555 101.111,366.167 100.897,365.992 101.005 C 365.817 101.113,365.769 100.841,365.884 100.401 C 366.078 99.658,365.522 99.360,364.300 99.553 C 364.135 99.579,364.000 99.223,364.000 98.763 C 364.000 98.272,363.681 97.842,363.229 97.723 C 362.700 97.585,362.374 97.030,362.193 95.961 C 362.032 95.008,361.710 94.400,361.365 94.400 C 360.861 94.400,360.630 93.926,360.745 93.124 C 360.766 92.973,360.427 92.736,359.992 92.597 C 359.286 92.374,359.035 91.944,359.139 91.141 C 359.157 90.999,358.819 90.975,358.386 91.088 C 357.954 91.201,357.600 91.108,357.600 90.881 C 357.600 90.654,357.246 90.048,356.814 89.534 C 354.725 87.050,354.000 86.048,354.000 85.642 C 354.000 85.399,353.726 85.200,353.390 85.200 C 352.830 85.200,351.784 83.402,351.935 82.700 C 351.971 82.535,351.865 82.421,351.700 82.447 C 350.792 82.591,350.339 82.337,350.545 81.800 C 350.754 81.254,350.340 81.010,349.466 81.164 C 349.282 81.196,349.040 80.874,348.929 80.448 C 348.817 80.022,348.383 79.584,347.963 79.474 C 347.523 79.359,347.200 78.925,347.200 78.450 C 347.200 77.932,347.004 77.700,346.673 77.827 C 346.054 78.065,344.000 76.558,344.000 75.866 C 344.000 75.604,343.595 75.212,343.100 74.995 C 342.605 74.778,342.022 74.195,341.805 73.700 C 341.451 72.892,340.833 72.594,339.866 72.764 C 339.682 72.796,339.437 72.464,339.322 72.025 C 339.208 71.586,338.773 71.118,338.356 70.986 C 337.940 70.854,337.413 70.398,337.186 69.973 C 336.958 69.548,336.508 69.200,336.186 69.200 C 335.864 69.200,335.621 69.065,335.647 68.900 C 335.754 68.225,335.582 67.603,335.300 67.647 C 334.515 67.771,333.495 67.572,333.727 67.339 C 334.018 67.048,332.195 66.000,331.398 66.000 C 331.117 66.000,330.772 65.543,330.632 64.985 C 330.466 64.322,330.141 64.010,329.698 64.085 C 329.324 64.148,328.991 63.975,328.959 63.700 C 328.927 63.425,328.878 62.999,328.850 62.753 C 328.822 62.508,328.447 62.399,328.015 62.512 C 327.567 62.629,327.008 62.444,326.715 62.082 C 326.281 61.547,326.295 61.502,326.800 61.800 C 327.329 62.112,327.331 62.068,326.815 61.433 C 326.492 61.035,326.166 60.902,326.088 61.136 C 325.889 61.733,324.000 60.829,324.000 60.136 C 324.000 59.841,323.820 59.578,323.600 59.550 C 323.380 59.523,323.013 59.477,322.785 59.450 C 322.237 59.384,321.599 58.326,321.856 57.909 C 321.968 57.728,321.911 57.606,321.730 57.637 C 320.418 57.865,319.225 57.509,319.007 56.823 C 318.833 56.273,318.328 56.010,317.280 55.923 C 316.466 55.855,315.800 55.590,315.800 55.333 C 315.800 54.796,315.300 54.223,314.767 54.150 C 314.565 54.123,314.220 54.078,314.000 54.050 C 313.780 54.023,313.600 53.741,313.600 53.424 C 313.600 53.107,313.392 52.719,313.138 52.562 C 312.829 52.371,312.782 52.462,312.997 52.838 C 313.256 53.293,313.214 53.304,312.779 52.900 C 312.482 52.625,311.916 52.400,311.520 52.400 C 310.880 52.400,310.622 51.973,310.746 51.120 C 310.769 50.965,310.385 50.856,309.893 50.876 C 307.884 50.959,307.286 50.770,307.081 49.989 C 306.964 49.542,306.718 49.204,306.534 49.236 C 305.202 49.470,304.071 49.114,303.884 48.400 C 303.725 47.794,303.338 47.600,302.284 47.600 C 301.230 47.600,300.843 47.406,300.684 46.800 C 300.521 46.174,300.138 46.000,298.932 46.000 C 297.719 46.000,297.305 45.809,296.995 45.105 C 296.737 44.521,296.206 44.181,295.467 44.126 C 294.236 44.036,293.092 43.298,293.403 42.796 C 293.509 42.623,292.875 42.508,291.994 42.541 C 290.858 42.583,290.447 42.454,290.583 42.100 C 290.701 41.793,290.432 41.598,289.887 41.594 C 289.156 41.589,289.106 41.515,289.600 41.176 C 290.099 40.834,290.065 40.775,289.400 40.828 C 287.231 41.002,286.000 40.774,286.000 40.200 C 286.000 39.870,285.865 39.593,285.700 39.585 C 283.111 39.455,281.348 38.731,281.808 37.987 C 281.894 37.849,280.946 37.694,279.703 37.644 C 277.987 37.575,277.311 37.365,276.898 36.776 C 276.485 36.186,275.881 36.000,274.377 36.000 C 272.992 36.000,272.400 35.840,272.400 35.464 C 272.400 34.702,270.883 34.144,268.892 34.174 C 267.408 34.197,267.198 34.095,267.292 33.400 C 267.390 32.674,267.145 32.592,264.632 32.513 C 262.027 32.431,260.936 31.951,261.453 31.114 C 261.563 30.936,261.147 30.825,260.527 30.868 C 258.159 31.033,255.162 30.785,255.374 30.442 C 255.847 29.676,254.286 29.333,249.947 29.251 C 247.716 29.208,247.262 29.081,247.098 28.452 C 246.925 27.791,246.443 27.696,242.951 27.638 C 239.739 27.584,238.903 27.443,238.484 26.886 C 238.037 26.293,237.018 26.183,230.984 26.074 C 225.240 25.971,224.000 25.846,224.000 25.374 C 224.000 25.058,223.865 24.829,223.700 24.865 C 223.535 24.900,222.893 24.720,222.274 24.465 C 220.825 23.867,200.920 23.838,199.900 24.432 M172.456 127.191 C 173.573 127.698,175.080 127.986,176.646 127.991 C 178.477 127.998,179.348 128.201,180.109 128.800 C 180.669 129.240,181.565 129.600,182.101 129.600 C 182.637 129.600,183.402 129.960,183.800 130.400 C 184.198 130.840,184.830 131.200,185.204 131.200 C 185.808 131.200,186.829 131.933,188.834 133.808 C 189.182 134.133,189.626 134.400,189.820 134.400 C 190.366 134.400,194.000 138.108,194.000 138.665 C 194.000 138.937,194.283 139.319,194.629 139.512 C 195.239 139.854,195.827 140.717,196.868 142.800 C 197.143 143.350,197.690 144.229,198.084 144.754 C 198.478 145.279,198.800 146.067,198.800 146.507 C 198.800 146.946,199.205 147.957,199.700 148.753 C 200.915 150.706,201.110 167.348,199.934 168.658 C 199.567 169.066,199.138 170.100,198.979 170.955 C 198.820 171.810,198.355 172.845,197.945 173.255 C 197.535 173.665,197.200 174.246,197.200 174.546 C 197.200 174.846,196.840 175.550,196.400 176.109 C 195.960 176.669,195.600 177.290,195.600 177.491 C 195.600 177.692,195.150 178.247,194.600 178.725 C 194.050 179.203,193.600 179.776,193.600 179.997 C 193.600 180.219,193.313 180.400,192.963 180.400 C 192.612 180.400,192.231 180.760,192.116 181.200 C 192.001 181.640,191.641 182.000,191.316 182.000 C 190.991 182.000,190.631 182.360,190.516 182.800 C 190.401 183.240,190.146 183.600,189.951 183.600 C 189.755 183.600,189.203 184.050,188.725 184.600 C 188.247 185.150,187.642 185.600,187.382 185.600 C 187.121 185.600,186.450 185.960,185.891 186.400 C 185.331 186.840,184.661 187.200,184.400 187.200 C 184.139 187.200,183.469 187.560,182.909 188.000 C 182.350 188.440,181.293 188.800,180.562 188.800 C 179.697 188.800,178.938 189.115,178.393 189.700 C 177.577 190.576,177.339 190.600,169.468 190.600 C 161.687 190.600,161.338 190.566,160.237 189.700 C 159.590 189.191,158.534 188.800,157.808 188.800 C 157.032 188.800,156.238 188.484,155.800 188.000 C 155.402 187.560,154.742 187.200,154.334 187.200 C 153.926 187.200,153.284 186.840,152.907 186.400 C 152.530 185.960,151.934 185.600,151.583 185.600 C 151.231 185.600,150.098 184.790,149.065 183.800 C 148.031 182.810,147.030 182.000,146.840 182.000 C 146.649 182.000,146.399 181.640,146.284 181.200 C 146.169 180.760,145.817 180.400,145.502 180.400 C 145.186 180.400,144.723 179.950,144.473 179.400 C 144.222 178.850,143.853 178.400,143.652 178.400 C 143.451 178.400,143.165 177.913,143.015 177.318 C 142.866 176.723,142.396 175.993,141.972 175.695 C 141.547 175.398,141.200 174.827,141.200 174.426 C 141.200 174.026,140.931 173.475,140.603 173.202 C 140.274 172.930,139.819 171.963,139.591 171.053 C 139.363 170.144,138.912 168.922,138.588 168.338 C 137.690 166.717,137.729 150.562,138.634 149.563 C 138.983 149.177,139.365 148.135,139.484 147.247 C 139.603 146.359,140.038 145.327,140.450 144.954 C 140.863 144.581,141.200 143.959,141.200 143.572 C 141.200 142.923,141.911 141.895,143.700 139.958 C 144.085 139.541,144.400 139.090,144.400 138.955 C 144.400 138.566,150.426 132.800,150.833 132.800 C 151.035 132.800,151.560 132.440,152.000 132.000 C 152.440 131.560,153.132 131.200,153.538 131.200 C 153.944 131.200,154.602 130.840,155.000 130.400 C 155.398 129.960,156.101 129.599,156.562 129.597 C 157.023 129.596,157.940 129.237,158.600 128.800 C 159.423 128.255,160.491 128.001,162.000 127.992 C 163.303 127.984,164.852 127.670,165.800 127.222 C 167.904 126.226,170.305 126.215,172.456 127.191 M301.600 127.200 C 302.327 127.831,303.097 128.000,305.233 128.000 C 307.047 128.000,308.132 128.189,308.514 128.571 C 308.828 128.885,309.755 129.268,310.574 129.422 C 311.394 129.575,312.158 129.946,312.273 130.246 C 312.388 130.546,313.184 130.980,314.041 131.211 C 314.950 131.456,315.600 131.874,315.600 132.215 C 315.600 132.537,315.945 132.800,316.366 132.800 C 317.613 132.800,323.335 138.132,323.855 139.779 C 323.998 140.230,324.449 140.835,324.857 141.123 C 325.266 141.410,325.600 141.955,325.600 142.334 C 325.600 142.712,325.960 143.330,326.400 143.707 C 326.840 144.084,327.200 144.771,327.200 145.233 C 327.200 145.695,327.560 146.531,328.000 147.091 C 328.459 147.674,328.804 148.725,328.809 149.554 C 328.814 150.349,329.174 151.785,329.609 152.744 C 330.779 155.322,330.773 163.600,329.600 165.091 C 329.056 165.782,328.800 166.714,328.800 168.000 C 328.800 169.286,328.544 170.218,328.000 170.909 C 327.560 171.469,327.200 172.263,327.200 172.674 C 327.200 173.086,326.840 173.730,326.400 174.107 C 325.960 174.484,325.600 175.152,325.600 175.593 C 325.600 176.033,325.240 176.618,324.800 176.893 C 324.360 177.168,324.000 177.581,324.000 177.812 C 324.000 178.608,318.744 184.000,317.968 184.000 C 317.545 184.000,317.200 184.275,317.200 184.613 C 317.200 184.949,316.885 185.340,316.500 185.481 C 316.115 185.621,315.371 186.066,314.846 186.468 C 314.321 186.871,313.584 187.200,313.208 187.200 C 312.832 187.200,312.219 187.537,311.846 187.950 C 311.473 188.362,310.441 188.797,309.553 188.916 C 308.665 189.035,307.573 189.462,307.127 189.866 C 305.884 190.991,290.904 190.980,289.658 189.853 C 289.204 189.442,288.023 189.014,287.033 188.903 C 285.992 188.785,284.947 188.384,284.555 187.950 C 284.181 187.537,283.542 187.200,283.134 187.200 C 282.726 187.200,282.084 186.840,281.707 186.400 C 281.330 185.960,280.815 185.600,280.561 185.600 C 280.308 185.600,279.403 184.955,278.550 184.167 C 277.698 183.379,276.518 182.481,275.928 182.172 C 275.339 181.862,274.749 181.271,274.618 180.857 C 274.487 180.444,274.024 179.784,273.590 179.391 C 273.155 178.998,272.800 178.344,272.800 177.938 C 272.800 177.532,272.526 177.200,272.190 177.200 C 271.855 177.200,271.423 176.788,271.232 176.284 C 271.040 175.780,270.595 175.127,270.242 174.835 C 269.889 174.542,269.600 173.902,269.600 173.412 C 269.600 172.923,269.240 172.107,268.800 171.600 C 268.309 171.034,268.000 170.103,268.000 169.193 C 268.000 168.283,267.670 167.288,267.148 166.625 C 265.986 165.147,265.805 153.568,266.917 151.870 C 267.283 151.313,267.703 150.079,267.852 149.128 C 268.000 148.178,268.454 146.773,268.861 146.006 C 269.267 145.239,269.600 144.391,269.600 144.120 C 269.600 143.849,269.960 143.435,270.400 143.200 C 270.840 142.965,271.200 142.433,271.200 142.020 C 271.200 141.317,271.629 140.695,273.900 138.109 C 274.395 137.545,274.800 136.929,274.800 136.742 C 274.800 136.554,275.087 136.400,275.437 136.400 C 275.788 136.400,276.169 136.040,276.284 135.600 C 276.399 135.160,276.643 134.800,276.826 134.800 C 277.009 134.800,277.644 134.350,278.238 133.800 C 278.831 133.250,279.607 132.800,279.962 132.800 C 280.317 132.800,280.832 132.440,281.107 132.000 C 281.382 131.560,281.971 131.200,282.416 131.200 C 282.861 131.200,283.326 130.938,283.448 130.618 C 283.571 130.298,284.636 129.755,285.816 129.413 C 286.995 129.070,288.069 128.612,288.203 128.395 C 288.337 128.178,289.713 128.000,291.261 128.000 C 293.468 128.000,294.293 127.828,295.091 127.200 C 295.838 126.612,296.714 126.400,298.393 126.400 C 300.103 126.400,300.909 126.601,301.600 127.200 M246.662 197.177 C 247.475 197.817,248.290 198.000,250.322 198.000 C 252.109 198.000,253.151 198.194,253.614 198.612 C 253.986 198.949,255.223 199.335,256.362 199.470 C 257.729 199.632,258.559 199.950,258.802 200.404 C 259.039 200.846,259.841 201.168,261.046 201.304 C 262.177 201.432,263.063 201.770,263.280 202.158 C 263.478 202.511,264.057 202.800,264.566 202.800 C 265.075 202.800,265.936 203.149,266.478 203.575 C 267.020 204.002,267.946 204.472,268.537 204.620 C 269.127 204.768,269.743 205.094,269.905 205.345 C 270.225 205.839,271.833 206.825,273.917 207.806 C 274.642 208.146,275.336 208.690,275.460 209.013 C 275.584 209.336,275.930 209.600,276.229 209.600 C 276.527 209.600,276.965 209.960,277.200 210.400 C 277.435 210.840,277.818 211.200,278.051 211.200 C 278.610 211.200,280.465 212.618,282.529 214.624 C 283.448 215.518,284.515 216.367,284.900 216.512 C 285.285 216.656,285.600 217.051,285.600 217.387 C 285.600 217.724,285.876 218.000,286.213 218.000 C 286.549 218.000,286.934 218.285,287.068 218.633 C 287.201 218.980,288.051 220.052,288.955 221.013 C 290.952 223.134,292.400 225.007,292.400 225.467 C 292.400 225.654,292.760 226.032,293.200 226.307 C 293.640 226.582,294.000 227.047,294.000 227.341 C 294.000 227.635,294.360 228.202,294.800 228.600 C 295.240 228.998,295.600 229.650,295.600 230.048 C 295.600 230.446,295.960 230.965,296.400 231.200 C 296.840 231.435,297.200 231.954,297.200 232.352 C 297.200 232.750,297.560 233.402,298.000 233.800 C 298.440 234.198,298.800 234.829,298.800 235.201 C 298.800 235.573,299.146 236.277,299.569 236.764 C 299.992 237.252,300.456 238.346,300.599 239.194 C 300.742 240.043,301.104 240.831,301.402 240.945 C 301.700 241.060,302.067 241.974,302.217 242.977 C 302.368 243.980,302.633 244.800,302.806 244.800 C 303.249 244.800,304.000 247.096,304.000 248.450 C 304.000 249.072,304.359 250.170,304.799 250.890 C 305.396 251.870,305.597 252.908,305.599 255.011 C 305.600 257.043,305.794 258.096,306.300 258.811 C 307.173 260.045,307.370 273.396,306.522 273.923 C 306.260 274.086,305.865 275.020,305.645 275.999 C 305.425 276.977,304.965 277.983,304.623 278.233 C 304.280 278.483,304.000 278.905,304.000 279.170 C 304.000 279.798,299.798 284.000,299.170 284.000 C 298.905 284.000,298.483 284.280,298.233 284.623 C 297.983 284.965,296.977 285.425,295.999 285.645 C 295.020 285.865,294.087 286.260,293.924 286.522 C 293.348 287.455,287.021 287.396,285.189 286.441 C 284.301 285.978,283.075 285.600,282.463 285.600 C 281.851 285.600,280.964 285.240,280.492 284.800 C 280.020 284.360,279.450 284.000,279.226 284.000 C 279.002 284.000,278.524 283.550,278.163 283.000 C 277.803 282.450,277.259 282.000,276.954 282.000 C 276.649 282.000,276.400 281.736,276.400 281.414 C 276.400 281.092,276.052 280.642,275.627 280.414 C 275.202 280.187,274.727 279.596,274.572 279.100 C 274.417 278.605,273.955 277.771,273.545 277.246 C 273.135 276.721,272.800 275.836,272.800 275.278 C 272.800 274.720,272.485 273.915,272.100 273.490 C 271.512 272.841,271.378 271.740,271.265 266.589 C 271.145 261.165,271.041 260.380,270.365 259.768 C 269.874 259.324,269.600 258.545,269.600 257.592 C 269.600 256.714,269.274 255.693,268.800 255.091 C 268.360 254.531,268.000 253.725,268.000 253.298 C 268.000 252.871,267.640 252.107,267.200 251.600 C 266.760 251.093,266.400 250.461,266.400 250.197 C 266.400 249.933,265.995 249.245,265.500 248.669 C 263.660 246.527,262.800 245.257,262.800 244.683 C 262.800 244.359,262.440 243.999,262.000 243.884 C 261.560 243.769,261.200 243.388,261.200 243.037 C 261.200 242.687,260.939 242.400,260.620 242.400 C 260.301 242.400,259.895 242.142,259.719 241.827 C 259.343 241.154,256.989 239.394,255.700 238.820 C 255.205 238.600,254.800 238.238,254.800 238.015 C 254.800 237.793,254.192 237.357,253.449 237.046 C 252.706 236.736,251.975 236.283,251.825 236.041 C 251.675 235.798,251.231 235.600,250.838 235.600 C 250.445 235.600,249.820 235.264,249.447 234.852 C 249.070 234.435,247.950 233.992,246.915 233.850 C 245.894 233.710,244.711 233.282,244.287 232.898 C 243.318 232.021,223.809 231.814,223.277 232.675 C 222.909 233.271,221.031 234.000,219.863 234.000 C 219.376 234.000,218.670 234.360,218.293 234.800 C 217.916 235.240,217.196 235.600,216.693 235.600 C 216.190 235.600,215.470 235.960,215.093 236.400 C 214.716 236.840,214.164 237.200,213.866 237.200 C 213.568 237.200,212.998 237.560,212.600 238.000 C 212.202 238.440,211.700 238.800,211.484 238.800 C 211.268 238.800,210.688 239.205,210.194 239.700 C 209.700 240.195,208.104 241.766,206.646 243.191 C 205.189 244.616,203.895 246.101,203.771 246.491 C 203.647 246.881,203.288 247.200,202.973 247.200 C 202.658 247.200,202.400 247.525,202.400 247.922 C 202.400 248.320,201.950 249.255,201.400 250.000 C 200.850 250.745,200.400 251.653,200.400 252.016 C 200.400 252.379,200.040 253.002,199.600 253.400 C 199.160 253.798,198.800 254.608,198.800 255.200 C 198.800 255.792,198.464 256.580,198.053 256.952 C 197.517 257.437,197.247 258.389,197.099 260.314 C 196.985 261.791,196.603 263.540,196.249 264.200 C 195.762 265.107,195.604 266.548,195.602 270.100 C 195.600 274.265,195.509 274.891,194.800 275.600 C 194.360 276.040,194.000 276.762,194.000 277.204 C 194.000 277.646,193.640 278.316,193.200 278.693 C 192.760 279.070,192.400 279.583,192.400 279.834 C 192.400 280.446,188.572 284.000,187.913 284.000 C 187.627 284.000,187.168 284.360,186.893 284.800 C 186.564 285.326,185.960 285.600,185.128 285.600 C 184.432 285.600,183.515 285.915,183.090 286.300 C 182.459 286.871,181.560 287.000,178.229 287.000 C 174.871 287.000,174.018 286.875,173.443 286.300 C 173.058 285.915,172.214 285.600,171.568 285.600 C 170.887 285.600,170.104 285.263,169.707 284.800 C 169.330 284.360,168.817 284.000,168.566 284.000 C 167.275 284.000,162.828 279.135,162.807 277.700 C 162.803 277.425,162.440 276.840,162.000 276.400 C 161.302 275.702,161.200 275.067,161.200 271.429 C 161.200 266.665,161.666 266.052,163.739 268.094 C 165.136 269.471,169.513 271.693,170.372 271.462 C 170.785 271.351,170.708 271.277,170.149 271.246 C 169.681 271.221,169.083 270.942,168.821 270.626 C 168.559 270.310,167.862 269.944,167.272 269.812 C 163.770 269.029,159.734 264.032,157.572 257.800 C 156.294 254.119,156.112 235.517,157.315 231.600 C 157.687 230.390,158.151 228.230,158.346 226.800 C 158.542 225.370,159.020 222.940,159.410 221.400 C 160.780 215.985,161.611 212.983,162.234 211.200 C 162.580 210.210,163.043 208.510,163.264 207.421 C 163.484 206.333,163.920 205.078,164.232 204.632 C 164.545 204.187,164.800 203.441,164.800 202.975 C 164.800 198.047,170.503 195.397,171.825 199.710 C 171.975 200.200,172.291 200.841,172.527 201.136 C 173.056 201.795,175.199 207.075,175.202 207.727 C 175.204 207.987,175.460 208.688,175.771 209.285 C 176.082 209.882,176.548 211.384,176.805 212.623 C 177.062 213.862,177.527 215.484,177.838 216.229 C 178.149 216.973,178.490 219.049,178.595 220.842 C 178.701 222.636,178.947 224.305,179.143 224.552 C 179.338 224.798,179.620 226.350,179.769 228.000 C 179.919 229.650,180.294 232.080,180.604 233.400 C 180.913 234.720,181.254 236.250,181.362 236.800 C 181.470 237.350,181.483 236.696,181.390 235.347 C 181.298 233.998,181.047 232.108,180.834 231.147 C 179.553 225.384,179.213 221.021,179.942 219.718 C 180.555 218.622,184.929 214.400,185.450 214.400 C 185.723 214.400,186.060 214.040,186.200 213.600 C 186.340 213.160,186.705 212.800,187.013 212.800 C 187.320 212.800,187.765 212.440,188.000 212.000 C 188.235 211.560,188.673 211.200,188.971 211.200 C 189.270 211.200,189.616 210.936,189.740 210.613 C 189.864 210.290,190.558 209.745,191.283 209.402 C 193.485 208.360,194.519 207.687,194.863 207.074 C 195.043 206.752,195.687 206.365,196.295 206.212 C 196.903 206.060,197.722 205.590,198.116 205.168 C 198.509 204.745,199.184 204.400,199.616 204.400 C 200.047 204.400,200.760 204.040,201.200 203.600 C 201.640 203.160,202.497 202.800,203.104 202.800 C 203.774 202.800,204.404 202.486,204.707 202.000 C 205.041 201.465,205.640 201.200,206.514 201.200 C 207.327 201.200,208.081 200.897,208.507 200.400 C 208.988 199.839,209.687 199.600,210.849 199.600 C 211.761 199.600,213.066 199.262,213.753 198.849 C 214.498 198.399,216.087 198.016,217.704 197.894 C 219.191 197.783,220.691 197.456,221.037 197.169 C 222.778 195.725,244.825 195.732,246.662 197.177 M181.716 249.000 C 181.715 258.192,181.745 258.622,182.082 254.320 C 182.303 251.489,182.304 247.538,182.083 244.320 C 181.729 239.182,181.717 239.342,181.716 249.000 M181.106 260.600 C 180.053 265.687,177.457 270.234,175.050 271.206 C 174.381 271.476,174.347 271.555,174.889 271.575 C 175.784 271.608,178.813 268.562,179.655 266.783 C 180.687 264.601,181.700 261.007,181.519 260.167 C 181.395 259.590,181.293 259.697,181.106 260.600 " stroke="none" fill="#bc9454" fill-rule="evenodd"></path><path id="path3" d="M237.600 26.296 C 237.930 26.425,238.386 26.783,238.614 27.092 C 238.948 27.544,239.029 27.492,239.029 26.827 C 239.029 26.200,238.783 26.008,238.014 26.032 C 237.381 26.051,237.225 26.151,237.600 26.296 M261.443 31.767 C 261.576 32.115,261.861 32.400,262.076 32.400 C 262.602 32.400,262.273 31.491,261.675 31.292 C 261.382 31.194,261.293 31.377,261.443 31.767 M114.505 58.467 C 114.475 58.870,114.522 59.200,114.611 59.200 C 114.699 59.200,114.948 58.870,115.164 58.467 C 115.447 57.938,115.418 57.733,115.058 57.733 C 114.784 57.733,114.535 58.063,114.505 58.467 M104.898 66.266 C 104.621 66.377,104.491 66.624,104.609 66.814 C 104.886 67.263,103.404 68.061,102.988 67.686 C 102.814 67.529,102.794 67.613,102.943 67.873 C 103.094 68.136,102.817 68.623,102.318 68.973 C 101.825 69.318,101.656 69.600,101.942 69.600 C 102.436 69.600,105.600 66.672,105.600 66.216 C 105.600 65.978,105.612 65.978,104.898 66.266 M332.615 66.424 C 332.896 66.879,334.000 66.927,334.000 66.485 C 334.000 66.312,333.636 66.143,333.191 66.109 C 332.747 66.076,332.487 66.218,332.615 66.424 M341.600 73.338 C 341.600 73.918,342.844 75.200,343.407 75.200 C 343.596 75.200,343.353 74.829,342.867 74.376 C 342.380 73.923,342.087 73.383,342.215 73.176 C 342.343 72.969,342.257 72.800,342.024 72.800 C 341.791 72.800,341.600 73.042,341.600 73.338 M344.602 76.802 C 345.002 77.244,345.415 77.518,345.521 77.412 C 345.790 77.143,344.792 76.000,344.289 76.000 C 344.062 76.000,344.203 76.361,344.602 76.802 M347.301 78.800 C 347.390 79.130,347.899 79.433,348.431 79.474 C 349.195 79.532,349.231 79.501,348.600 79.328 C 348.160 79.207,347.651 78.903,347.470 78.654 C 347.251 78.354,347.194 78.404,347.301 78.800 M90.665 80.976 C 90.521 81.349,90.152 81.497,89.715 81.356 C 89.119 81.163,89.100 81.195,89.600 81.548 C 90.211 81.979,91.626 81.093,91.126 80.592 C 91.001 80.468,90.793 80.640,90.665 80.976 M88.812 82.586 C 88.535 82.919,88.187 83.116,88.038 83.023 C 87.888 82.931,87.740 83.200,87.708 83.620 C 87.657 84.297,87.768 84.268,88.668 83.369 C 89.227 82.809,89.601 82.268,89.499 82.166 C 89.397 82.064,89.088 82.253,88.812 82.586 M354.870 87.147 C 355.381 87.778,355.869 88.234,355.954 88.160 C 356.222 87.926,354.801 86.000,354.360 86.000 C 354.129 86.000,354.358 86.516,354.870 87.147 M376.733 117.827 C 376.621 118.032,376.767 118.650,377.059 119.200 C 377.350 119.750,377.578 119.930,377.566 119.600 C 377.530 118.640,376.957 117.418,376.733 117.827 M379.400 124.800 C 379.536 125.020,379.917 125.200,380.247 125.200 C 380.577 125.200,380.736 125.020,380.600 124.800 C 380.464 124.580,380.083 124.400,379.753 124.400 C 379.423 124.400,379.264 124.580,379.400 124.800 M165.800 127.222 C 164.852 127.670,163.303 127.984,162.000 127.992 C 160.491 128.001,159.423 128.255,158.600 128.800 C 157.940 129.237,157.023 129.596,156.562 129.597 C 156.101 129.599,155.398 129.960,155.000 130.400 C 154.602 130.840,153.944 131.200,153.538 131.200 C 153.132 131.200,152.440 131.560,152.000 132.000 C 151.560 132.440,151.035 132.800,150.833 132.800 C 150.426 132.800,144.400 138.566,144.400 138.955 C 144.400 139.090,144.085 139.541,143.700 139.958 C 141.911 141.895,141.200 142.923,141.200 143.572 C 141.200 143.959,140.863 144.581,140.450 144.954 C 140.038 145.327,139.603 146.359,139.484 147.247 C 139.365 148.135,138.983 149.177,138.634 149.563 C 137.729 150.562,137.690 166.717,138.588 168.338 C 138.912 168.922,139.363 170.144,139.591 171.053 C 139.819 171.963,140.274 172.930,140.603 173.202 C 140.931 173.475,141.200 174.026,141.200 174.426 C 141.200 174.827,141.547 175.398,141.972 175.695 C 142.396 175.993,142.866 176.723,143.015 177.318 C 143.165 177.913,143.451 178.400,143.652 178.400 C 143.853 178.400,144.222 178.850,144.473 179.400 C 144.723 179.950,145.186 180.400,145.502 180.400 C 145.817 180.400,146.169 180.760,146.284 181.200 C 146.399 181.640,146.649 182.000,146.840 182.000 C 147.030 182.000,148.031 182.810,149.065 183.800 C 150.098 184.790,151.231 185.600,151.583 185.600 C 151.934 185.600,152.530 185.960,152.907 186.400 C 153.284 186.840,153.926 187.200,154.334 187.200 C 154.742 187.200,155.402 187.560,155.800 188.000 C 156.238 188.484,157.032 188.800,157.808 188.800 C 158.534 188.800,159.590 189.191,160.237 189.700 C 161.338 190.566,161.687 190.600,169.468 190.600 C 177.339 190.600,177.577 190.576,178.393 189.700 C 178.938 189.115,179.697 188.800,180.562 188.800 C 181.293 188.800,182.350 188.440,182.909 188.000 C 183.469 187.560,184.139 187.200,184.400 187.200 C 184.661 187.200,185.331 186.840,185.891 186.400 C 186.450 185.960,187.121 185.600,187.382 185.600 C 187.642 185.600,188.247 185.150,188.725 184.600 C 189.203 184.050,189.755 183.600,189.951 183.600 C 190.146 183.600,190.401 183.240,190.516 182.800 C 190.631 182.360,190.991 182.000,191.316 182.000 C 191.641 182.000,192.001 181.640,192.116 181.200 C 192.231 180.760,192.612 180.400,192.963 180.400 C 193.313 180.400,193.600 180.219,193.600 179.997 C 193.600 179.776,194.050 179.203,194.600 178.725 C 195.150 178.247,195.600 177.692,195.600 177.491 C 195.600 177.290,195.960 176.669,196.400 176.109 C 196.840 175.550,197.200 174.846,197.200 174.546 C 197.200 174.246,197.535 173.665,197.945 173.255 C 198.355 172.845,198.820 171.810,198.979 170.955 C 199.138 170.100,199.567 169.066,199.934 168.658 C 201.110 167.348,200.915 150.706,199.700 148.753 C 199.205 147.957,198.800 146.946,198.800 146.507 C 198.800 146.067,198.478 145.279,198.084 144.754 C 197.690 144.229,197.143 143.350,196.868 142.800 C 195.827 140.717,195.239 139.854,194.629 139.512 C 194.283 139.319,194.000 138.937,194.000 138.665 C 194.000 138.108,190.366 134.400,189.820 134.400 C 189.626 134.400,189.182 134.133,188.834 133.808 C 186.829 131.933,185.808 131.200,185.204 131.200 C 184.830 131.200,184.198 130.840,183.800 130.400 C 183.402 129.960,182.637 129.600,182.101 129.600 C 181.565 129.600,180.669 129.240,180.109 128.800 C 179.348 128.201,178.477 127.998,176.646 127.991 C 175.080 127.986,173.573 127.698,172.456 127.191 C 170.305 126.215,167.904 126.226,165.800 127.222 M295.091 127.200 C 294.293 127.828,293.468 128.000,291.261 128.000 C 289.713 128.000,288.337 128.178,288.203 128.395 C 288.069 128.612,286.995 129.070,285.816 129.413 C 284.636 129.755,283.571 130.298,283.448 130.618 C 283.326 130.938,282.861 131.200,282.416 131.200 C 281.971 131.200,281.382 131.560,281.107 132.000 C 280.832 132.440,280.317 132.800,279.962 132.800 C 279.607 132.800,278.831 133.250,278.238 133.800 C 277.644 134.350,277.009 134.800,276.826 134.800 C 276.643 134.800,276.399 135.160,276.284 135.600 C 276.169 136.040,275.788 136.400,275.437 136.400 C 275.087 136.400,274.800 136.554,274.800 136.742 C 274.800 136.929,274.395 137.545,273.900 138.109 C 271.629 140.695,271.200 141.317,271.200 142.020 C 271.200 142.433,270.840 142.965,270.400 143.200 C 269.960 143.435,269.600 143.849,269.600 144.120 C 269.600 144.391,269.267 145.239,268.861 146.006 C 268.454 146.773,268.000 148.178,267.852 149.128 C 267.703 150.079,267.283 151.313,266.917 151.870 C 265.805 153.568,265.986 165.147,267.148 166.625 C 267.670 167.288,268.000 168.283,268.000 169.193 C 268.000 170.103,268.309 171.034,268.800 171.600 C 269.240 172.107,269.600 172.923,269.600 173.412 C 269.600 173.902,269.889 174.542,270.242 174.835 C 270.595 175.127,271.040 175.780,271.232 176.284 C 271.423 176.788,271.855 177.200,272.190 177.200 C 272.526 177.200,272.800 177.532,272.800 177.938 C 272.800 178.344,273.155 178.998,273.590 179.391 C 274.024 179.784,274.487 180.444,274.618 180.857 C 274.749 181.271,275.339 181.862,275.928 182.172 C 276.518 182.481,277.698 183.379,278.550 184.167 C 279.403 184.955,280.308 185.600,280.561 185.600 C 280.815 185.600,281.330 185.960,281.707 186.400 C 282.084 186.840,282.726 187.200,283.134 187.200 C 283.542 187.200,284.181 187.537,284.555 187.950 C 284.947 188.384,285.992 188.785,287.033 188.903 C 288.023 189.014,289.204 189.442,289.658 189.853 C 290.904 190.980,305.884 190.991,307.127 189.866 C 307.573 189.462,308.665 189.035,309.553 188.916 C 310.441 188.797,311.473 188.362,311.846 187.950 C 312.219 187.537,312.832 187.200,313.208 187.200 C 313.584 187.200,314.321 186.871,314.846 186.468 C 315.371 186.066,316.115 185.621,316.500 185.481 C 316.885 185.340,317.200 184.949,317.200 184.613 C 317.200 184.275,317.545 184.000,317.968 184.000 C 318.744 184.000,324.000 178.608,324.000 177.812 C 324.000 177.581,324.360 177.168,324.800 176.893 C 325.240 176.618,325.600 176.033,325.600 175.593 C 325.600 175.152,325.960 174.484,326.400 174.107 C 326.840 173.730,327.200 173.086,327.200 172.674 C 327.200 172.263,327.560 171.469,328.000 170.909 C 328.544 170.218,328.800 169.286,328.800 168.000 C 328.800 166.714,329.056 165.782,329.600 165.091 C 330.773 163.600,330.779 155.322,329.609 152.744 C 329.174 151.785,328.814 150.349,328.809 149.554 C 328.804 148.725,328.459 147.674,328.000 147.091 C 327.560 146.531,327.200 145.695,327.200 145.233 C 327.200 144.771,326.840 144.084,326.400 143.707 C 325.960 143.330,325.600 142.712,325.600 142.334 C 325.600 141.955,325.266 141.410,324.857 141.123 C 324.449 140.835,323.998 140.230,323.855 139.779 C 323.335 138.132,317.613 132.800,316.366 132.800 C 315.945 132.800,315.600 132.537,315.600 132.215 C 315.600 131.874,314.950 131.456,314.041 131.211 C 313.184 130.980,312.388 130.546,312.273 130.246 C 312.158 129.946,311.394 129.575,310.574 129.422 C 309.755 129.268,308.828 128.885,308.514 128.571 C 308.132 128.189,307.047 128.000,305.233 128.000 C 303.097 128.000,302.327 127.831,301.600 127.200 C 300.909 126.601,300.103 126.400,298.393 126.400 C 296.714 126.400,295.838 126.612,295.091 127.200 M179.411 129.390 C 185.837 131.744,192.781 137.063,195.192 141.477 C 195.650 142.315,196.478 143.810,197.034 144.800 C 202.041 153.728,201.241 166.914,195.102 176.639 C 188.779 186.655,172.202 192.890,161.704 189.200 C 160.452 188.760,159.041 188.400,158.568 188.400 C 158.095 188.400,157.250 188.040,156.691 187.600 C 156.131 187.160,155.400 186.800,155.065 186.800 C 154.731 186.800,154.219 186.571,153.929 186.291 C 153.638 186.011,152.384 185.114,151.142 184.298 C 148.327 182.447,145.061 179.163,143.686 176.800 C 143.110 175.810,142.525 174.910,142.386 174.800 C 142.247 174.690,141.676 173.610,141.117 172.400 C 135.422 160.066,138.107 145.787,147.898 136.340 C 155.698 128.814,169.518 125.767,179.411 129.390 M308.749 129.629 C 310.534 130.310,312.097 131.033,312.221 131.234 C 312.345 131.435,312.784 131.600,313.195 131.600 C 313.606 131.600,314.181 131.827,314.471 132.105 C 314.762 132.383,315.540 132.954,316.200 133.375 C 318.212 134.656,322.409 138.883,323.773 141.000 C 325.980 144.427,326.264 144.955,326.791 146.600 C 327.074 147.480,327.489 148.432,327.715 148.717 C 329.075 150.427,329.934 160.002,329.037 163.458 C 328.687 164.809,328.400 166.385,328.400 166.959 C 328.400 167.533,328.040 168.675,327.600 169.496 C 327.160 170.316,326.800 171.271,326.800 171.616 C 326.800 171.962,326.350 172.855,325.800 173.600 C 325.250 174.345,324.800 175.108,324.800 175.294 C 324.800 176.823,317.325 184.209,314.174 185.794 C 312.868 186.450,311.530 187.200,311.200 187.459 C 310.627 187.909,307.794 188.787,304.071 189.668 C 294.064 192.036,280.690 187.035,273.781 178.341 C 271.630 175.634,268.400 169.442,268.400 168.026 C 268.400 167.558,268.139 166.551,267.821 165.789 C 267.016 163.862,266.647 158.247,267.151 155.600 C 267.875 151.797,268.747 148.249,269.163 147.409 C 269.384 146.964,269.842 145.970,270.181 145.200 C 270.521 144.430,271.114 143.334,271.499 142.764 C 271.885 142.194,272.690 140.990,273.289 140.089 C 276.948 134.584,285.905 129.138,292.600 128.348 C 298.001 127.711,305.228 128.284,308.749 129.629 M382.983 132.827 C 382.785 133.147,382.841 133.222,383.138 133.038 C 383.433 132.856,383.617 133.087,383.646 133.676 C 383.684 134.419,383.730 134.455,383.884 133.858 C 384.123 132.928,383.419 132.122,382.983 132.827 M387.293 144.400 C 387.293 145.170,387.375 145.485,387.476 145.100 C 387.576 144.715,387.576 144.085,387.476 143.700 C 387.375 143.315,387.293 143.630,387.293 144.400 M388.171 148.629 C 388.517 148.974,388.800 149.544,388.800 149.895 C 388.800 150.246,388.899 150.435,389.019 150.314 C 389.439 149.894,388.710 148.000,388.128 148.000 C 387.633 148.000,387.640 148.097,388.171 148.629 M389.400 154.800 C 389.536 155.020,389.917 155.200,390.247 155.200 C 390.577 155.200,390.736 155.020,390.600 154.800 C 390.464 154.580,390.083 154.400,389.753 154.400 C 389.423 154.400,389.264 154.580,389.400 154.800 M37.824 163.083 C 37.493 163.943,37.672 164.029,38.512 163.415 C 39.099 162.986,39.122 162.856,38.645 162.673 C 38.326 162.550,37.957 162.734,37.824 163.083 M224.533 196.352 C 222.957 196.514,221.384 196.882,221.037 197.169 C 220.691 197.456,219.191 197.783,217.704 197.894 C 216.087 198.016,214.498 198.399,213.753 198.849 C 213.066 199.262,211.761 199.600,210.849 199.600 C 209.687 199.600,208.988 199.839,208.507 200.400 C 208.081 200.897,207.327 201.200,206.514 201.200 C 205.640 201.200,205.041 201.465,204.707 202.000 C 204.404 202.486,203.774 202.800,203.104 202.800 C 202.497 202.800,201.640 203.160,201.200 203.600 C 200.760 204.040,200.047 204.400,199.616 204.400 C 199.184 204.400,198.509 204.745,198.116 205.168 C 197.722 205.590,196.903 206.060,196.295 206.212 C 195.687 206.365,195.043 206.752,194.863 207.074 C 194.519 207.687,193.485 208.360,191.283 209.402 C 190.558 209.745,189.864 210.290,189.740 210.613 C 189.616 210.936,189.270 211.200,188.971 211.200 C 188.673 211.200,188.235 211.560,188.000 212.000 C 187.765 212.440,187.320 212.800,187.013 212.800 C 186.705 212.800,186.340 213.160,186.200 213.600 C 186.060 214.040,185.733 214.405,185.473 214.411 C 184.342 214.437,179.600 219.651,179.600 220.870 C 179.600 221.573,179.754 221.485,180.534 220.335 C 182.351 217.658,187.654 212.931,192.200 209.937 C 193.960 208.778,195.496 207.695,195.614 207.530 C 195.732 207.366,196.452 206.942,197.214 206.588 C 197.976 206.234,199.320 205.512,200.200 204.982 C 202.205 203.775,203.496 203.200,204.197 203.200 C 204.497 203.200,204.981 202.965,205.271 202.677 C 205.847 202.108,208.336 201.175,212.400 200.007 C 213.830 199.596,215.630 199.077,216.400 198.854 C 217.170 198.631,218.970 198.268,220.400 198.048 C 221.830 197.828,224.080 197.442,225.400 197.191 C 228.937 196.517,242.800 196.900,245.400 197.743 C 246.500 198.100,248.120 198.401,249.000 198.413 C 249.880 198.425,251.320 198.711,252.200 199.048 C 253.080 199.385,254.574 199.823,255.521 200.022 C 256.467 200.221,257.632 200.657,258.110 200.992 C 258.587 201.326,259.288 201.600,259.668 201.600 C 260.047 201.600,261.204 202.050,262.238 202.600 C 263.273 203.150,264.442 203.600,264.836 203.600 C 265.230 203.600,265.666 203.783,265.804 204.006 C 265.942 204.229,266.627 204.681,267.327 205.009 C 268.027 205.337,269.320 206.042,270.200 206.575 C 271.080 207.109,272.340 207.854,273.000 208.232 C 276.228 210.079,284.080 216.776,287.974 221.002 C 290.398 223.633,296.800 232.699,296.800 233.501 C 296.800 233.744,297.041 234.184,297.336 234.478 C 297.630 234.773,298.553 236.541,299.385 238.407 C 300.218 240.273,301.057 241.971,301.250 242.180 C 301.442 242.389,301.600 242.909,301.600 243.336 C 301.600 243.763,301.935 244.852,302.345 245.756 C 303.960 249.317,305.856 259.356,306.269 266.535 C 307.143 281.706,293.797 290.688,280.556 283.840 C 278.952 283.011,275.303 279.365,274.966 278.256 C 274.822 277.785,274.476 277.130,274.195 276.800 C 273.316 275.766,272.075 269.587,271.813 264.944 C 271.350 256.713,267.205 248.030,260.716 241.697 C 258.233 239.274,253.735 236.011,251.400 234.939 C 250.740 234.636,249.930 234.224,249.600 234.023 C 248.186 233.164,243.697 231.916,239.383 231.182 C 234.689 230.384,223.779 231.266,221.728 232.611 C 221.233 232.935,220.612 233.200,220.348 233.200 C 219.863 233.200,214.875 235.569,213.403 236.497 C 212.965 236.774,211.248 238.109,209.586 239.466 C 206.985 241.589,205.458 243.125,202.614 246.482 C 201.693 247.569,198.400 253.520,198.400 254.097 C 198.400 254.386,198.132 255.005,197.804 255.473 C 197.476 255.941,197.017 257.286,196.783 258.462 C 196.550 259.638,196.170 261.050,195.938 261.600 C 195.707 262.150,195.360 265.097,195.167 268.149 C 194.974 271.202,194.656 273.902,194.460 274.149 C 194.264 274.397,193.876 275.320,193.598 276.200 C 193.320 277.080,192.854 278.070,192.563 278.400 C 192.272 278.730,191.352 279.791,190.519 280.757 C 181.063 291.724,160.871 284.412,161.687 270.317 C 161.787 268.603,161.717 267.200,161.534 267.200 C 160.739 267.200,161.162 275.562,162.000 276.400 C 162.440 276.840,162.803 277.425,162.807 277.700 C 162.828 279.135,167.275 284.000,168.566 284.000 C 168.817 284.000,169.330 284.360,169.707 284.800 C 170.104 285.263,170.887 285.600,171.568 285.600 C 172.214 285.600,173.058 285.915,173.443 286.300 C 174.018 286.875,174.871 287.000,178.229 287.000 C 181.560 287.000,182.459 286.871,183.090 286.300 C 183.515 285.915,184.432 285.600,185.128 285.600 C 185.960 285.600,186.564 285.326,186.893 284.800 C 187.168 284.360,187.627 284.000,187.913 284.000 C 188.572 284.000,192.400 280.446,192.400 279.834 C 192.400 279.583,192.760 279.070,193.200 278.693 C 193.640 278.316,194.000 277.646,194.000 277.204 C 194.000 276.762,194.360 276.040,194.800 275.600 C 195.509 274.891,195.600 274.265,195.602 270.100 C 195.604 266.548,195.762 265.107,196.249 264.200 C 196.603 263.540,196.985 261.791,197.099 260.314 C 197.247 258.389,197.517 257.437,198.053 256.952 C 198.464 256.580,198.800 255.792,198.800 255.200 C 198.800 254.608,199.160 253.798,199.600 253.400 C 200.040 253.002,200.400 252.379,200.400 252.016 C 200.400 251.653,200.850 250.745,201.400 250.000 C 201.950 249.255,202.400 248.320,202.400 247.922 C 202.400 247.525,202.658 247.200,202.973 247.200 C 203.288 247.200,203.647 246.881,203.771 246.491 C 203.895 246.101,205.189 244.616,206.646 243.191 C 208.104 241.766,209.700 240.195,210.194 239.700 C 210.688 239.205,211.268 238.800,211.484 238.800 C 211.700 238.800,212.202 238.440,212.600 238.000 C 212.998 237.560,213.568 237.200,213.866 237.200 C 214.164 237.200,214.716 236.840,215.093 236.400 C 215.470 235.960,216.190 235.600,216.693 235.600 C 217.196 235.600,217.916 235.240,218.293 234.800 C 218.670 234.360,219.376 234.000,219.863 234.000 C 221.031 234.000,222.909 233.271,223.277 232.675 C 223.809 231.814,243.318 232.021,244.287 232.898 C 244.711 233.282,245.894 233.710,246.915 233.850 C 247.950 233.992,249.070 234.435,249.447 234.852 C 249.820 235.264,250.445 235.600,250.838 235.600 C 251.231 235.600,251.675 235.798,251.825 236.041 C 251.975 236.283,252.706 236.736,253.449 237.046 C 254.192 237.357,254.800 237.793,254.800 238.015 C 254.800 238.238,255.205 238.600,255.700 238.820 C 256.989 239.394,259.343 241.154,259.719 241.827 C 259.895 242.142,260.301 242.400,260.620 242.400 C 260.939 242.400,261.200 242.687,261.200 243.037 C 261.200 243.388,261.560 243.769,262.000 243.884 C 262.440 243.999,262.800 244.359,262.800 244.683 C 262.800 245.257,263.660 246.527,265.500 248.669 C 265.995 249.245,266.400 249.933,266.400 250.197 C 266.400 250.461,266.760 251.093,267.200 251.600 C 267.640 252.107,268.000 252.871,268.000 253.298 C 268.000 253.725,268.360 254.531,268.800 255.091 C 269.274 255.693,269.600 256.714,269.600 257.592 C 269.600 258.545,269.874 259.324,270.365 259.768 C 271.041 260.380,271.145 261.165,271.265 266.589 C 271.378 271.740,271.512 272.841,272.100 273.490 C 272.485 273.915,272.800 274.720,272.800 275.278 C 272.800 275.836,273.135 276.721,273.545 277.246 C 273.955 277.771,274.417 278.605,274.572 279.100 C 274.727 279.596,275.202 280.187,275.627 280.414 C 276.052 280.642,276.400 281.092,276.400 281.414 C 276.400 281.736,276.649 282.000,276.954 282.000 C 277.259 282.000,277.803 282.450,278.163 283.000 C 278.524 283.550,279.002 284.000,279.226 284.000 C 279.450 284.000,280.020 284.360,280.492 284.800 C 280.964 285.240,281.851 285.600,282.463 285.600 C 283.075 285.600,284.301 285.978,285.189 286.441 C 287.021 287.396,293.348 287.455,293.924 286.522 C 294.087 286.260,295.020 285.865,295.999 285.645 C 296.977 285.425,297.983 284.965,298.233 284.623 C 298.483 284.280,298.905 284.000,299.170 284.000 C 299.798 284.000,304.000 279.798,304.000 279.170 C 304.000 278.905,304.280 278.483,304.623 278.233 C 304.965 277.983,305.425 276.977,305.645 275.999 C 305.865 275.020,306.260 274.086,306.522 273.923 C 307.370 273.396,307.173 260.045,306.300 258.811 C 305.794 258.096,305.600 257.043,305.599 255.011 C 305.597 252.908,305.396 251.870,304.799 250.890 C 304.359 250.170,304.000 249.072,304.000 248.450 C 304.000 247.096,303.249 244.800,302.806 244.800 C 302.633 244.800,302.368 243.980,302.217 242.977 C 302.067 241.974,301.700 241.060,301.402 240.945 C 301.104 240.831,300.742 240.043,300.599 239.194 C 300.456 238.346,299.992 237.252,299.569 236.764 C 299.146 236.277,298.800 235.573,298.800 235.201 C 298.800 234.829,298.440 234.198,298.000 233.800 C 297.560 233.402,297.200 232.750,297.200 232.352 C 297.200 231.954,296.840 231.435,296.400 231.200 C 295.960 230.965,295.600 230.446,295.600 230.048 C 295.600 229.650,295.240 228.998,294.800 228.600 C 294.360 228.202,294.000 227.635,294.000 227.341 C 294.000 227.047,293.640 226.582,293.200 226.307 C 292.760 226.032,292.400 225.654,292.400 225.467 C 292.400 225.007,290.952 223.134,288.955 221.013 C 288.051 220.052,287.201 218.980,287.068 218.633 C 286.934 218.285,286.549 218.000,286.213 218.000 C 285.876 218.000,285.600 217.724,285.600 217.387 C 285.600 217.051,285.285 216.656,284.900 216.512 C 284.515 216.367,283.448 215.518,282.529 214.624 C 280.465 212.618,278.610 211.200,278.051 211.200 C 277.818 211.200,277.435 210.840,277.200 210.400 C 276.965 209.960,276.527 209.600,276.229 209.600 C 275.930 209.600,275.584 209.336,275.460 209.013 C 275.336 208.690,274.642 208.146,273.917 207.806 C 271.833 206.825,270.225 205.839,269.905 205.345 C 269.743 205.094,269.127 204.768,268.537 204.620 C 267.946 204.472,267.020 204.002,266.478 203.575 C 265.936 203.149,265.075 202.800,264.566 202.800 C 264.057 202.800,263.478 202.511,263.280 202.158 C 263.063 201.770,262.177 201.432,261.046 201.304 C 259.841 201.168,259.039 200.846,258.802 200.404 C 258.559 199.950,257.729 199.632,256.362 199.470 C 255.223 199.335,253.986 198.949,253.614 198.612 C 253.151 198.194,252.109 198.000,250.322 198.000 C 248.290 198.000,247.475 197.817,246.662 197.177 C 245.502 196.265,230.737 195.714,224.533 196.352 M11.257 234.763 C 10.855 235.013,10.836 235.175,11.184 235.390 C 11.733 235.729,12.145 235.429,11.942 234.838 C 11.858 234.596,11.576 234.565,11.257 234.763 M383.023 265.433 C 382.374 265.907,382.354 266.000,382.900 266.000 C 383.259 266.000,383.671 265.808,383.816 265.573 C 384.240 264.887,383.861 264.820,383.023 265.433 M380.400 274.557 C 380.400 274.937,380.220 275.136,380.000 275.000 C 379.780 274.864,379.600 274.943,379.600 275.176 C 379.600 275.409,379.786 275.600,380.013 275.600 C 380.512 275.600,380.999 274.465,380.649 274.116 C 380.512 273.979,380.400 274.177,380.400 274.557 M376.223 283.574 C 375.835 284.003,375.612 284.589,375.727 284.877 C 375.867 285.225,375.947 285.173,375.968 284.720 C 375.986 284.346,376.314 283.864,376.697 283.650 C 377.080 283.435,377.289 283.155,377.161 283.028 C 377.033 282.900,376.611 283.146,376.223 283.574 M7.606 295.833 C 7.609 296.255,7.795 296.870,8.018 297.200 C 8.315 297.638,8.352 297.476,8.156 296.600 C 7.827 295.129,7.598 294.810,7.606 295.833 M9.200 301.533 C 9.200 302.066,9.450 302.400,9.849 302.400 C 10.404 302.400,10.421 302.299,9.962 301.700 C 9.667 301.315,9.375 300.925,9.313 300.833 C 9.251 300.742,9.200 301.057,9.200 301.533 M366.550 303.509 C 365.680 304.217,364.792 306.700,365.584 306.210 C 365.813 306.068,366.000 305.513,366.000 304.976 C 366.000 304.408,366.233 304.000,366.557 304.000 C 366.864 304.000,367.218 303.730,367.345 303.400 C 367.631 302.654,367.595 302.659,366.550 303.509 M12.715 309.835 C 12.932 310.223,13.401 310.583,13.757 310.635 C 14.570 310.754,14.217 310.144,13.138 309.567 C 12.421 309.183,12.369 309.216,12.715 309.835 M357.317 317.900 C 357.175 318.285,356.865 318.732,356.629 318.894 C 356.343 319.090,356.371 319.190,356.713 319.194 C 356.994 319.197,357.341 318.885,357.483 318.500 C 357.625 318.115,357.935 317.668,358.171 317.506 C 358.457 317.310,358.429 317.210,358.087 317.206 C 357.806 317.203,357.459 317.515,357.317 317.900 M22.667 325.091 C 22.374 325.566,23.878 326.255,24.297 325.837 C 24.427 325.706,24.248 325.600,23.900 325.600 C 23.552 325.600,23.195 325.384,23.107 325.120 C 22.990 324.770,22.871 324.762,22.667 325.091 M34.590 336.816 C 34.460 337.027,34.531 337.200,34.748 337.200 C 34.965 337.200,35.426 337.483,35.771 337.829 C 36.117 338.174,36.400 338.304,36.400 338.117 C 36.400 337.528,34.842 336.408,34.590 336.816 M49.301 346.800 C 49.390 347.130,49.899 347.433,50.431 347.474 C 51.195 347.532,51.231 347.501,50.600 347.328 C 50.160 347.207,49.651 346.903,49.470 346.654 C 49.251 346.354,49.194 346.404,49.301 346.800 M54.400 349.753 C 54.400 350.083,54.580 350.464,54.800 350.600 C 55.020 350.736,55.200 350.577,55.200 350.247 C 55.200 349.917,55.020 349.536,54.800 349.400 C 54.580 349.264,54.400 349.423,54.400 349.753 M323.002 353.198 C 322.603 353.639,322.462 354.000,322.689 354.000 C 323.192 354.000,324.190 352.857,323.921 352.588 C 323.815 352.482,323.402 352.756,323.002 353.198 M314.176 358.575 C 313.487 359.085,313.479 359.138,314.104 359.051 C 314.883 358.941,316.005 358.000,315.356 358.000 C 315.135 358.000,314.604 358.259,314.176 358.575 M78.133 359.771 C 78.133 360.085,78.480 360.432,78.903 360.543 C 79.640 360.736,79.643 360.710,78.975 359.972 C 78.139 359.049,78.133 359.047,78.133 359.771 M306.881 361.618 C 306.572 362.113,306.546 362.400,306.809 362.400 C 307.038 362.400,307.332 362.122,307.462 361.783 C 307.822 360.845,307.433 360.734,306.881 361.618 M294.667 364.667 C 294.206 365.127,294.375 365.600,295.000 365.600 C 295.330 365.600,295.600 365.330,295.600 365.000 C 295.600 364.375,295.127 364.206,294.667 364.667 M119.328 369.795 C 119.375 370.262,119.738 370.625,120.205 370.672 C 120.781 370.732,120.814 370.699,120.325 370.552 C 119.953 370.442,119.558 370.047,119.448 369.675 C 119.301 369.186,119.268 369.219,119.328 369.795 M129.200 371.164 C 129.200 371.350,129.440 371.701,129.733 371.945 C 130.136 372.279,130.267 372.246,130.267 371.811 C 130.267 371.494,130.027 371.142,129.733 371.030 C 129.440 370.917,129.200 370.977,129.200 371.164 M255.200 371.139 C 255.200 371.325,254.795 371.673,254.300 371.912 L 253.400 372.346 254.415 372.373 C 255.153 372.393,255.446 372.182,255.490 371.600 C 255.523 371.160,255.471 370.800,255.375 370.800 C 255.279 370.800,255.200 370.952,255.200 371.139 M238.283 373.212 C 237.703 373.888,237.694 374.000,238.216 374.000 C 238.551 374.000,238.932 373.722,239.062 373.383 C 239.429 372.427,239.029 372.340,238.283 373.212 " stroke="none" fill="#9b7b4e" fill-rule="evenodd"></path><path id="path4" d="M163.200 128.382 C 144.152 131.171,132.658 154.083,141.117 172.400 C 141.676 173.610,142.247 174.690,142.386 174.800 C 142.525 174.910,143.110 175.810,143.686 176.800 C 145.061 179.163,148.327 182.447,151.142 184.298 C 152.384 185.114,153.638 186.011,153.929 186.291 C 154.219 186.571,154.731 186.800,155.065 186.800 C 155.400 186.800,156.131 187.160,156.691 187.600 C 157.250 188.040,158.095 188.400,158.568 188.400 C 159.041 188.400,160.452 188.760,161.704 189.200 C 168.359 191.539,178.352 189.839,186.675 184.951 C 198.983 177.724,204.187 157.555,197.034 144.800 C 196.478 143.810,195.650 142.315,195.192 141.477 C 193.498 138.376,188.092 133.601,183.400 131.062 C 178.755 128.548,169.999 127.386,163.200 128.382 M292.600 128.348 C 285.905 129.138,276.948 134.584,273.289 140.089 C 272.690 140.990,271.885 142.194,271.499 142.764 C 271.114 143.334,270.521 144.430,270.181 145.200 C 269.842 145.970,269.384 146.964,269.163 147.409 C 268.747 148.249,267.875 151.797,267.151 155.600 C 266.647 158.247,267.016 163.862,267.821 165.789 C 268.139 166.551,268.400 167.558,268.400 168.026 C 268.400 169.442,271.630 175.634,273.781 178.341 C 280.690 187.035,294.064 192.036,304.071 189.668 C 307.794 188.787,310.627 187.909,311.200 187.459 C 311.530 187.200,312.868 186.450,314.174 185.794 C 317.325 184.209,324.800 176.823,324.800 175.294 C 324.800 175.108,325.250 174.345,325.800 173.600 C 326.350 172.855,326.800 171.962,326.800 171.616 C 326.800 171.271,327.160 170.316,327.600 169.496 C 328.040 168.675,328.400 167.533,328.400 166.959 C 328.400 166.385,328.687 164.809,329.037 163.458 C 329.934 160.002,329.075 150.427,327.715 148.717 C 327.489 148.432,327.074 147.480,326.791 146.600 C 325.481 142.510,320.211 135.930,316.200 133.375 C 315.540 132.954,314.762 132.383,314.471 132.105 C 314.181 131.827,313.606 131.600,313.195 131.600 C 312.784 131.600,312.345 131.435,312.221 131.234 C 310.934 129.151,299.743 127.505,292.600 128.348 M178.000 129.680 C 180.692 130.555,183.407 131.795,186.244 133.443 C 188.643 134.837,194.800 141.140,194.800 142.201 C 194.800 142.462,195.160 143.002,195.600 143.400 C 196.040 143.798,196.400 144.432,196.400 144.808 C 196.400 145.184,196.760 145.950,197.200 146.509 C 197.640 147.069,198.000 147.817,198.000 148.173 C 198.000 148.529,198.360 149.844,198.800 151.096 C 199.950 154.369,199.950 163.199,198.800 166.800 C 198.360 168.177,198.000 169.630,198.000 170.029 C 198.000 170.427,197.805 170.873,197.567 171.020 C 197.329 171.168,196.781 172.033,196.350 172.944 C 195.918 173.855,195.276 175.140,194.922 175.800 C 193.918 177.672,187.480 183.924,185.858 184.602 C 185.056 184.937,184.400 185.385,184.400 185.598 C 184.400 185.811,183.905 186.104,183.300 186.251 C 182.695 186.397,181.570 186.841,180.800 187.237 C 174.892 190.279,163.411 190.036,156.600 186.726 C 154.255 185.586,153.777 185.303,150.564 183.154 C 149.026 182.126,146.091 179.152,144.684 177.195 C 143.193 175.123,140.400 169.649,140.400 168.799 C 140.400 168.428,140.040 167.079,139.600 165.800 C 135.813 154.794,143.119 138.003,154.146 132.368 C 154.396 132.241,155.356 131.746,156.279 131.268 C 157.203 130.791,158.247 130.400,158.599 130.400 C 158.951 130.400,159.816 130.099,160.520 129.730 C 163.419 128.213,173.399 128.185,178.000 129.680 M306.800 129.668 C 313.645 131.946,318.202 134.969,322.020 139.766 C 323.931 142.166,326.400 146.440,326.400 147.347 C 326.400 147.602,326.733 148.439,327.140 149.206 C 329.015 152.741,329.013 165.235,327.135 168.794 C 326.731 169.561,326.400 170.466,326.400 170.805 C 326.400 171.144,326.106 171.842,325.746 172.355 C 325.387 172.868,324.553 174.303,323.892 175.544 C 322.630 177.916,316.305 184.400,315.254 184.400 C 315.064 184.400,314.394 184.805,313.765 185.300 C 311.186 187.332,303.086 189.600,298.410 189.600 C 295.611 189.600,288.389 188.286,287.200 187.561 C 286.870 187.360,286.330 187.079,286.000 186.938 C 282.856 185.594,281.283 184.676,279.253 183.000 C 277.283 181.373,273.600 177.486,273.600 177.034 C 273.600 176.832,273.326 176.382,272.990 176.034 C 271.896 174.897,270.400 172.380,270.400 171.676 C 270.400 171.298,270.063 170.359,269.651 169.590 C 269.239 168.821,268.782 167.204,268.636 165.996 C 268.490 164.788,268.079 162.490,267.723 160.890 C 267.244 158.738,267.186 157.748,267.499 157.090 C 267.731 156.600,268.128 154.850,268.380 153.200 C 269.560 145.484,274.412 138.101,281.398 133.390 C 288.218 128.791,299.292 127.169,306.800 129.668 M225.000 197.216 C 224.120 197.414,222.140 197.772,220.600 198.012 C 219.060 198.252,217.170 198.631,216.400 198.854 C 215.630 199.077,213.830 199.596,212.400 200.007 C 208.336 201.175,205.847 202.108,205.271 202.677 C 204.981 202.965,204.497 203.200,204.197 203.200 C 203.496 203.200,202.205 203.775,200.200 204.982 C 199.320 205.512,197.976 206.234,197.214 206.588 C 196.452 206.942,195.732 207.366,195.614 207.530 C 195.496 207.695,193.960 208.778,192.200 209.937 C 184.297 215.142,179.286 220.626,179.758 223.553 C 179.887 224.349,180.170 226.350,180.387 228.000 C 180.604 229.650,180.963 231.720,181.186 232.600 C 182.605 238.207,182.510 259.567,181.049 263.453 C 180.730 264.304,180.368 265.460,180.246 266.022 C 180.124 266.584,179.051 268.114,177.863 269.422 L 175.702 271.800 172.751 271.800 C 169.424 271.800,167.095 270.905,164.090 268.472 C 162.000 266.779,161.851 266.908,161.666 270.558 C 160.964 284.466,181.164 291.607,190.519 280.757 C 191.352 279.791,192.272 278.730,192.563 278.400 C 192.854 278.070,193.320 277.080,193.598 276.200 C 193.876 275.320,194.264 274.397,194.460 274.149 C 194.656 273.902,194.974 271.202,195.167 268.149 C 195.360 265.097,195.707 262.150,195.938 261.600 C 196.170 261.050,196.550 259.638,196.783 258.462 C 197.017 257.286,197.476 255.941,197.804 255.473 C 198.132 255.005,198.400 254.386,198.400 254.097 C 198.400 253.520,201.693 247.569,202.614 246.482 C 207.699 240.480,211.567 237.292,217.034 234.597 C 218.593 233.829,220.084 233.200,220.348 233.200 C 220.612 233.200,221.233 232.935,221.728 232.611 C 223.779 231.266,234.689 230.384,239.383 231.182 C 243.697 231.916,248.186 233.164,249.600 234.023 C 249.930 234.224,250.740 234.636,251.400 234.939 C 257.624 237.797,265.849 246.272,268.644 252.708 C 270.843 257.770,271.567 260.567,271.813 264.944 C 272.075 269.587,273.316 275.766,274.195 276.800 C 274.476 277.130,274.822 277.785,274.966 278.256 C 275.303 279.365,278.952 283.011,280.556 283.840 C 293.798 290.688,307.143 281.707,306.269 266.535 C 305.856 259.356,303.960 249.317,302.345 245.756 C 301.935 244.852,301.600 243.763,301.600 243.336 C 301.600 242.909,301.442 242.389,301.250 242.180 C 301.057 241.971,300.218 240.273,299.385 238.407 C 298.553 236.541,297.630 234.773,297.336 234.478 C 297.041 234.184,296.800 233.744,296.800 233.501 C 296.800 232.699,290.398 223.633,287.974 221.002 C 284.080 216.776,276.228 210.079,273.000 208.232 C 272.340 207.854,271.080 207.109,270.200 206.575 C 269.320 206.042,268.027 205.337,267.327 205.009 C 266.627 204.681,265.942 204.229,265.804 204.006 C 265.666 203.783,265.230 203.600,264.836 203.600 C 264.442 203.600,263.273 203.150,262.238 202.600 C 261.204 202.050,260.047 201.600,259.668 201.600 C 259.288 201.600,258.587 201.326,258.110 200.992 C 257.632 200.657,256.467 200.221,255.521 200.022 C 254.574 199.823,253.080 199.385,252.200 199.048 C 251.320 198.711,249.880 198.425,249.000 198.413 C 248.120 198.401,246.500 198.098,245.400 197.740 C 243.088 196.987,227.771 196.594,225.000 197.216 M239.938 197.567 C 240.315 197.769,242.509 198.142,244.812 198.397 C 247.115 198.652,250.036 199.206,251.302 199.630 C 252.567 200.053,253.914 200.400,254.294 200.400 C 255.114 200.400,258.795 201.762,260.879 202.837 C 261.693 203.257,262.575 203.600,262.839 203.600 C 263.399 203.600,267.698 205.664,268.014 206.084 C 268.132 206.241,268.866 206.636,269.646 206.961 C 270.426 207.287,271.296 207.834,271.581 208.177 C 271.865 208.520,272.318 208.800,272.587 208.800 C 272.856 208.800,273.402 209.160,273.800 209.600 C 274.198 210.040,274.690 210.400,274.893 210.400 C 275.097 210.400,276.613 211.525,278.262 212.900 C 279.912 214.275,281.822 215.850,282.507 216.400 C 283.754 217.401,284.393 218.070,287.676 221.800 C 290.550 225.066,292.646 227.722,293.357 229.000 C 293.724 229.660,294.374 230.740,294.801 231.400 C 295.228 232.060,295.944 233.230,296.393 234.000 C 296.841 234.770,297.374 235.670,297.576 236.000 C 298.123 236.894,300.311 242.110,301.938 246.400 C 302.397 247.610,303.054 249.860,303.398 251.400 C 303.742 252.940,304.213 255.010,304.445 256.000 C 305.376 259.977,305.107 273.996,304.060 276.000 C 301.667 280.582,300.582 281.667,296.000 284.060 C 293.060 285.595,285.121 285.443,281.849 283.789 C 276.706 281.188,273.686 276.262,273.353 269.931 C 273.233 267.659,272.971 265.350,272.771 264.800 C 272.571 264.250,272.230 262.525,272.014 260.967 C 271.798 259.408,271.348 257.608,271.013 256.967 C 270.679 256.325,270.404 255.604,270.402 255.364 C 270.396 254.195,265.805 246.293,264.012 244.366 C 261.364 241.519,259.517 239.680,258.622 239.000 C 258.042 238.560,257.261 237.908,256.884 237.551 C 256.508 237.194,255.660 236.605,255.000 236.242 C 254.340 235.879,252.900 235.058,251.800 234.417 C 250.700 233.777,249.527 233.241,249.194 233.227 C 248.861 233.212,247.960 232.863,247.192 232.452 C 246.424 232.040,244.987 231.575,243.998 231.418 C 243.009 231.261,241.312 230.878,240.227 230.566 C 237.615 229.816,229.413 229.810,227.114 230.556 C 226.171 230.862,224.628 231.226,223.685 231.363 C 222.742 231.501,221.305 231.971,220.491 232.407 C 219.678 232.843,218.794 233.200,218.527 233.200 C 217.934 233.200,215.163 234.666,213.000 236.124 C 212.120 236.717,210.716 237.659,209.880 238.219 C 207.965 239.499,202.800 244.802,202.800 245.487 C 202.800 245.769,202.650 246.000,202.467 246.000 C 202.150 246.000,200.007 249.139,199.464 250.400 C 199.321 250.730,199.035 251.270,198.827 251.600 C 197.964 252.970,196.482 256.709,196.216 258.186 C 196.060 259.059,195.701 260.229,195.418 260.786 C 195.119 261.378,194.821 263.974,194.702 267.024 C 194.558 270.734,194.311 272.612,193.850 273.504 C 193.492 274.195,193.200 275.066,193.200 275.439 C 193.200 277.190,189.290 281.724,186.214 283.539 C 179.182 287.688,165.968 283.684,163.785 276.743 C 163.621 276.224,163.153 275.173,162.744 274.406 C 162.027 273.062,161.698 269.235,162.253 268.681 C 162.569 268.364,163.819 269.019,164.830 270.030 C 165.254 270.454,165.811 270.800,166.069 270.800 C 166.326 270.800,166.823 271.059,167.173 271.376 C 170.592 274.469,179.586 271.458,180.649 266.864 C 180.784 266.279,181.120 265.438,181.394 264.995 C 181.669 264.553,182.112 262.308,182.380 260.007 C 182.647 257.706,183.031 255.515,183.233 255.138 C 183.706 254.255,183.713 245.759,183.241 244.874 C 183.044 244.503,182.663 241.140,182.394 237.400 C 182.125 233.660,181.669 229.880,181.380 229.000 C 181.092 228.120,180.740 225.960,180.599 224.200 L 180.343 221.000 182.509 218.800 C 183.701 217.590,185.379 216.026,186.238 215.324 C 190.727 211.658,192.381 210.400,192.711 210.400 C 192.912 210.400,193.402 210.040,193.800 209.600 C 194.198 209.160,194.744 208.800,195.013 208.800 C 195.282 208.800,195.735 208.520,196.019 208.177 C 196.304 207.834,197.091 207.291,197.768 206.970 C 198.446 206.650,200.170 205.764,201.600 205.002 C 203.030 204.241,204.470 203.609,204.800 203.600 C 205.130 203.590,205.850 203.230,206.400 202.800 C 206.950 202.370,207.760 202.010,208.200 202.000 C 208.640 201.990,209.785 201.626,210.744 201.191 C 211.703 200.756,212.902 200.400,213.408 200.400 C 213.914 200.400,215.290 200.055,216.464 199.633 C 217.639 199.211,220.490 198.640,222.800 198.363 C 225.110 198.087,227.450 197.727,228.000 197.565 C 229.457 197.134,239.132 197.136,239.938 197.567 " stroke="none" fill="#6c6464" fill-rule="evenodd"></path></g></svg>